M48
;DRILL file {KiCad 4.0.7} date Sat Oct 28 23:03:17 2017
;FORMAT={-:-/ absolute / metric / decimal}
FMAT,2
METRIC,TZ
T1C0.200
T2C1.000
%
G90
G05
M71
T1
X171.958Y-89.789
X172.085Y-91.44
X172.085Y-93.345
X172.085Y-95.25
X172.974Y-91.186
X173.355Y-73.025
X173.355Y-74.295
X173.355Y-76.2
X173.355Y-78.105
X173.355Y-80.01
X173.355Y-81.915
X173.355Y-83.82
X173.355Y-85.725
X173.355Y-87.63
X173.355Y-89.535
X173.355Y-95.25
X173.736Y-91.694
X173.736Y-92.761
X174.498Y-95.504
X174.625Y-81.28
X174.625Y-82.55
X174.625Y-83.82
X174.625Y-85.725
X174.625Y-87.63
X175.006Y-91.846
X175.057Y-90.373
X175.26Y-79.375
X175.768Y-80.772
X175.895Y-82.55
X176.022Y-95.504
X176.53Y-75.565
X176.53Y-76.835
X177.165Y-82.55
X177.292Y-95.504
X177.927Y-86.233
X178.308Y-83.439
X178.435Y-86.868
X178.435Y-87.757
X178.435Y-88.773
X178.435Y-89.535
X178.562Y-95.504
X179.07Y-77.089
X179.07Y-81.153
X179.197Y-86.741
X179.324Y-89.916
X179.578Y-86.106
X179.705Y-75.565
X179.705Y-90.805
X179.832Y-95.504
X180.213Y-91.44
X180.975Y-84.963
X181.102Y-78.74
X181.102Y-91.44
X181.102Y-95.504
X181.61Y-88.075
X181.889Y-75.235
X181.991Y-91.44
X182.372Y-95.504
X182.626Y-75.184
X182.88Y-91.44
X183.287Y-80.925
X183.287Y-82.65
X183.515Y-90.805
X183.642Y-89.154
X183.642Y-89.916
X183.642Y-95.504
X183.896Y-88.392
X184.023Y-87.122
X184.023Y-87.82
X184.379Y-92.481
X184.573Y-75.523
X184.912Y-76.962
X184.912Y-95.504
X185.012Y-80.925
X185.039Y-82.677
X185.102Y-87.312
X185.102Y-88.456
X185.801Y-75.12
X186.182Y-95.504
X186.309Y-75.565
X186.69Y-72.39
X186.69Y-85.09
X187.452Y-95.504
X187.579Y-75.12
X187.96Y-85.09
X188.595Y-81.09
X188.595Y-82.55
X188.595Y-85.725
X188.595Y-87.884
X188.595Y-88.963
X188.722Y-95.504
X189.23Y-86.36
X189.357Y-80.899
X189.357Y-82.931
X189.865Y-80.391
X189.865Y-86.995
X189.865Y-87.82
X189.928Y-83.312
X189.992Y-95.504
X190.551Y-79.223
X190.627Y-80.01
X190.627Y-83.629
X191.262Y-79.883
X191.262Y-81.788
X191.262Y-83.693
X191.262Y-95.504
X191.77Y-77.47
X191.77Y-78.74
X191.77Y-85.09
X191.77Y-86.36
X191.77Y-87.63
X192.024Y-79.883
X192.024Y-83.693
X192.087Y-93.091
X192.087Y-93.98
X192.087Y-94.932
X192.786Y-83.439
X192.913Y-82.296
X192.913Y-82.931
X193.04Y-77.47
X193.04Y-78.74
X193.04Y-80.01
X193.04Y-83.82
X193.04Y-85.09
X193.04Y-86.36
X193.04Y-87.63
X193.548Y-81.788
X193.548Y-88.9
X193.548Y-90.17
X193.548Y-91.44
X193.548Y-92.71
X193.548Y-93.98
X193.548Y-95.25
X194.31Y-77.47
X194.31Y-78.74
X194.31Y-80.01
X194.31Y-81.788
X194.31Y-82.55
X194.31Y-83.82
X194.31Y-85.09
X194.31Y-86.36
X194.31Y-87.63
X194.31Y-88.9
X194.31Y-90.17
X194.31Y-91.44
X194.31Y-92.71
X194.31Y-93.98
X194.31Y-95.25
X195.199Y-81.788
X195.58Y-72.39
X195.58Y-73.66
X195.58Y-77.47
X195.58Y-78.74
X195.58Y-80.01
X195.58Y-82.55
X195.58Y-83.82
X195.58Y-85.09
X195.58Y-86.36
X195.58Y-87.63
X195.58Y-88.9
X195.58Y-90.17
X195.58Y-91.44
X195.58Y-92.71
X195.58Y-93.98
X195.58Y-95.25
X196.85Y-72.39
X196.85Y-73.66
X196.85Y-74.93
X196.85Y-76.2
X196.85Y-77.47
X196.85Y-78.74
X196.85Y-80.01
X196.85Y-81.915
X196.85Y-82.55
X196.85Y-83.82
X196.85Y-85.09
X196.85Y-86.36
X196.85Y-87.63
X196.85Y-88.9
X196.85Y-90.17
X196.85Y-91.44
X196.85Y-92.71
X196.85Y-93.98
X196.85Y-95.25
X198.12Y-72.39
X198.12Y-73.66
X198.12Y-74.93
X198.12Y-76.2
X198.12Y-77.47
X198.12Y-78.74
X198.12Y-80.01
X198.12Y-81.915
X198.12Y-82.55
X198.12Y-83.82
X198.12Y-85.09
X198.12Y-86.36
X198.12Y-87.63
X198.12Y-88.9
X198.12Y-90.17
X198.12Y-91.44
X198.12Y-92.71
X198.12Y-93.98
X198.12Y-95.25
X199.39Y-72.39
X199.39Y-73.66
X199.39Y-74.93
X199.39Y-76.2
X199.39Y-77.47
X199.39Y-78.74
X199.39Y-80.01
X199.39Y-81.915
X199.39Y-82.55
X199.39Y-83.82
X199.39Y-85.09
X199.39Y-86.36
X199.39Y-87.63
X199.39Y-88.9
X199.39Y-90.17
X199.39Y-91.44
X199.39Y-92.71
X199.39Y-93.98
X199.39Y-95.25
X200.66Y-72.39
X200.66Y-73.66
X200.66Y-74.93
X200.66Y-76.2
X200.66Y-77.47
X200.66Y-78.74
X200.66Y-80.01
X200.66Y-81.915
X200.66Y-82.55
X200.66Y-83.82
X200.66Y-85.09
X200.66Y-86.36
X200.66Y-87.63
X200.66Y-88.9
X200.66Y-90.17
X200.66Y-91.44
X200.66Y-92.71
X200.66Y-93.98
X200.66Y-95.25
X201.549Y-79.756
X201.549Y-82.042
X201.93Y-72.39
X201.93Y-73.66
X201.93Y-74.93
X201.93Y-76.2
X201.93Y-85.09
X201.93Y-86.36
X201.93Y-87.63
X201.93Y-88.9
X201.93Y-90.17
X201.93Y-91.44
X201.93Y-92.71
X201.93Y-93.98
X201.93Y-95.25
X202.565Y-79.756
X202.565Y-82.042
X203.2Y-72.39
X203.2Y-73.66
X203.2Y-74.93
X203.2Y-76.2
X203.2Y-85.09
X203.2Y-86.36
X203.2Y-87.63
X203.2Y-88.9
X203.2Y-90.17
X203.2Y-91.44
X203.2Y-92.71
X203.2Y-93.98
X203.2Y-95.25
X203.581Y-79.756
X203.581Y-82.042
X204.47Y-72.39
X204.47Y-73.66
X204.47Y-74.93
X204.47Y-76.2
X204.47Y-85.09
X204.47Y-86.36
X204.47Y-87.63
X204.47Y-88.9
X204.47Y-90.17
X204.47Y-91.44
X204.47Y-92.71
X204.47Y-93.98
X204.47Y-95.25
X204.597Y-79.756
X204.597Y-82.042
T2
X175.26Y-73.66
X175.26Y-93.98
X177.8Y-73.66
X177.8Y-93.98
X180.34Y-73.66
X180.34Y-93.98
X182.88Y-73.66
X182.88Y-93.98
X185.42Y-73.66
X185.42Y-93.98
X187.96Y-73.66
X187.96Y-93.98
X190.5Y-73.66
X190.5Y-93.98
T0
M30
