G04 #@! TF.FileFunction,Copper,L2,Bot,Signal*
%FSLAX46Y46*%
G04 Gerber Fmt 4.6, Leading zero omitted, Abs format (unit mm)*
G04 Created by KiCad (PCBNEW 4.0.7) date Tue Oct 31 14:08:33 2017*
%MOMM*%
%LPD*%
G01*
G04 APERTURE LIST*
%ADD10C,0.100000*%
%ADD11R,4.064000X1.524000*%
%ADD12R,1.700000X1.700000*%
%ADD13O,1.700000X1.700000*%
%ADD14C,0.400000*%
%ADD15C,0.300000*%
%ADD16C,0.152000*%
%ADD17C,0.254000*%
G04 APERTURE END LIST*
D10*
D11*
X203200000Y-83439000D03*
X203200000Y-78359000D03*
D12*
X175260000Y-93980000D03*
D13*
X177800000Y-93980000D03*
X180340000Y-93980000D03*
X182880000Y-93980000D03*
X185420000Y-93980000D03*
X187960000Y-93980000D03*
X190500000Y-93980000D03*
D12*
X175260000Y-73660000D03*
D13*
X177800000Y-73660000D03*
X180340000Y-73660000D03*
X182880000Y-73660000D03*
X185420000Y-73660000D03*
X187960000Y-73660000D03*
X190500000Y-73660000D03*
D14*
X204470000Y-87630000D03*
X204470000Y-88900000D03*
X204470000Y-90170000D03*
X204470000Y-91440000D03*
X204470000Y-92710000D03*
X204470000Y-93980000D03*
X204470000Y-95250000D03*
X203200000Y-95250000D03*
X201930000Y-95250000D03*
X200660000Y-95250000D03*
X199390000Y-95250000D03*
X198120000Y-95250000D03*
X196850000Y-95250000D03*
X195580000Y-95250000D03*
X194310000Y-95250000D03*
X194310000Y-93980000D03*
X195580000Y-93980000D03*
X196850000Y-93980000D03*
X198120000Y-93980000D03*
X199390000Y-93980000D03*
X200660000Y-93980000D03*
X201930000Y-93980000D03*
X203200000Y-93980000D03*
X203200000Y-92710000D03*
X201930000Y-92710000D03*
X200660000Y-92710000D03*
X199390000Y-92710000D03*
X198120000Y-92710000D03*
X196850000Y-92710000D03*
X195580000Y-92710000D03*
X194310000Y-92710000D03*
X194310000Y-91440000D03*
X195580000Y-91440000D03*
X196850000Y-91440000D03*
X198120000Y-91440000D03*
X199390000Y-91440000D03*
X200660000Y-91440000D03*
X201930000Y-91440000D03*
X203200000Y-91440000D03*
X203200000Y-90170000D03*
X201930000Y-90170000D03*
X200660000Y-90170000D03*
X199390000Y-90170000D03*
X198120000Y-90170000D03*
X196850000Y-90170000D03*
X195580000Y-90170000D03*
X194310000Y-90170000D03*
X194310000Y-88900000D03*
X195580000Y-88900000D03*
X196850000Y-88900000D03*
X198120000Y-88900000D03*
X199390000Y-88900000D03*
X200660000Y-88900000D03*
X201930000Y-88900000D03*
X203200000Y-88900000D03*
X203200000Y-87630000D03*
X201930000Y-87630000D03*
X200660000Y-87630000D03*
X199390000Y-87630000D03*
X198120000Y-87630000D03*
X196850000Y-87630000D03*
X195580000Y-87630000D03*
X194310000Y-87630000D03*
X181610000Y-88074500D03*
X192024000Y-87820500D03*
X187413900Y-78460600D03*
X194310000Y-78740000D03*
X194310000Y-77470000D03*
X193040000Y-77470000D03*
X191770000Y-77470000D03*
X191770000Y-78740000D03*
X193040000Y-78740000D03*
X193040000Y-80010000D03*
X194310000Y-80010000D03*
X195580000Y-80010000D03*
X196850000Y-80010000D03*
X198120000Y-80010000D03*
X199390000Y-80010000D03*
X200660000Y-80010000D03*
X204597000Y-79756000D03*
X203581000Y-79756000D03*
X202565000Y-79756000D03*
X201549000Y-79756000D03*
X196850000Y-81788000D03*
X198120000Y-81788000D03*
X199390000Y-81788000D03*
X200660000Y-81788000D03*
X204597000Y-82042000D03*
X203581000Y-82042000D03*
X202565000Y-82042000D03*
X201549000Y-82042000D03*
X200660000Y-82550000D03*
X199390000Y-82550000D03*
X198120000Y-82550000D03*
X196850000Y-82550000D03*
X195580000Y-82550000D03*
X194310000Y-82550000D03*
X183896000Y-88392000D03*
X184023000Y-87820500D03*
X184023000Y-87122000D03*
X180975000Y-84963000D03*
X179705000Y-90805000D03*
X179324000Y-89916000D03*
X178435000Y-89535000D03*
X178435000Y-88773000D03*
X178435000Y-87757000D03*
X178435000Y-86868000D03*
X179197000Y-86741000D03*
X179578000Y-86106000D03*
X180213000Y-91440000D03*
X181102000Y-91440000D03*
X183642000Y-89154000D03*
X183642000Y-89916000D03*
X183515000Y-90805000D03*
X182880000Y-91440000D03*
X181991000Y-91440000D03*
X186690000Y-85090000D03*
X187960000Y-85090000D03*
X188595000Y-85725000D03*
X189230000Y-86360000D03*
X189865000Y-86995000D03*
X188595000Y-88963500D03*
X188595000Y-87884000D03*
X189865000Y-87820500D03*
X193040000Y-83820000D03*
X198120000Y-85090000D03*
X200660000Y-83820000D03*
X199390000Y-83820000D03*
X198120000Y-83820000D03*
X196850000Y-83820000D03*
X195580000Y-83820000D03*
X194310000Y-83820000D03*
X194310000Y-85090000D03*
X195580000Y-85090000D03*
X196850000Y-85090000D03*
X192786000Y-83439000D03*
X192913000Y-82931000D03*
X192913000Y-82296000D03*
X195199000Y-81788000D03*
X194310000Y-81788000D03*
X193548000Y-81788000D03*
X193040000Y-85090000D03*
X199390000Y-85090000D03*
X200660000Y-85090000D03*
X201930000Y-85090000D03*
X203200000Y-85090000D03*
X204470000Y-85090000D03*
X204470000Y-86360000D03*
X203200000Y-86360000D03*
X201930000Y-86360000D03*
X200660000Y-86360000D03*
X199390000Y-86360000D03*
X198120000Y-86360000D03*
X196850000Y-86360000D03*
X195580000Y-86360000D03*
X194310000Y-86360000D03*
X193040000Y-86360000D03*
X191770000Y-86360000D03*
X191770000Y-85090000D03*
X200660000Y-78740000D03*
X199390000Y-78740000D03*
X198120000Y-78740000D03*
X196850000Y-78740000D03*
X195580000Y-78740000D03*
X203200000Y-76200000D03*
X204470000Y-76200000D03*
X204470000Y-74930000D03*
X203200000Y-74930000D03*
X201930000Y-74930000D03*
X200660000Y-74930000D03*
X199390000Y-74930000D03*
X198120000Y-74930000D03*
X196850000Y-74930000D03*
X195580000Y-73660000D03*
X196850000Y-73660000D03*
X198120000Y-73660000D03*
X199390000Y-73660000D03*
X200660000Y-73660000D03*
X201930000Y-73660000D03*
X203200000Y-73660000D03*
X204470000Y-73660000D03*
X204470000Y-72390000D03*
X203200000Y-72390000D03*
X201930000Y-76200000D03*
X200660000Y-76200000D03*
X199390000Y-76200000D03*
X198120000Y-76200000D03*
X196850000Y-76200000D03*
X195580000Y-77470000D03*
X196850000Y-77470000D03*
X198120000Y-77470000D03*
X199390000Y-77470000D03*
X200660000Y-77470000D03*
X189865000Y-80391000D03*
X190627000Y-80010000D03*
X188595000Y-81089500D03*
X189357000Y-80899000D03*
X192024000Y-83693000D03*
X191262000Y-83693000D03*
X192024000Y-79883000D03*
X190627000Y-83629500D03*
X189928500Y-83312000D03*
X189357000Y-82931000D03*
X188595000Y-82550000D03*
X191262000Y-79883000D03*
X191262000Y-81788000D03*
X183287500Y-80925500D03*
X181102000Y-78740000D03*
X183287500Y-82650500D03*
X185039000Y-82677000D03*
X185012500Y-80925500D03*
X201930000Y-72390000D03*
X200660000Y-72390000D03*
X199390000Y-72390000D03*
X198120000Y-72390000D03*
X196850000Y-72390000D03*
X195580000Y-72390000D03*
X181889400Y-75234800D03*
X175006000Y-91846400D03*
X184378600Y-92481400D03*
X171704000Y-89535000D03*
X179070000Y-81153000D03*
X179070000Y-77089000D03*
X177355500Y-85661500D03*
X182626000Y-75184000D03*
X184912000Y-76962000D03*
X174625000Y-85725000D03*
X174625000Y-87630000D03*
X174625000Y-89598500D03*
X174688500Y-90424000D03*
X173736000Y-91694000D03*
X173736000Y-92760800D03*
X175006000Y-92646500D03*
X177355500Y-84772500D03*
X177165000Y-82550000D03*
X175895000Y-82550000D03*
X174625000Y-82550000D03*
X178625500Y-82486500D03*
X186309000Y-75565000D03*
X185801000Y-75120500D03*
X187579000Y-75120500D03*
X192087500Y-93091000D03*
X192087500Y-93980000D03*
X192087500Y-94932500D03*
X188722000Y-95504000D03*
X189992000Y-95504000D03*
X191262000Y-95504000D03*
X187452000Y-95504000D03*
X186182000Y-95504000D03*
X184912000Y-95504000D03*
X183642000Y-95504000D03*
X173355000Y-95250000D03*
X172085000Y-95250000D03*
X172085000Y-93345000D03*
X172085000Y-91440000D03*
X174498000Y-95504000D03*
X176022000Y-95504000D03*
X177292000Y-95504000D03*
X178562000Y-95504000D03*
X179832000Y-95504000D03*
X181102000Y-95504000D03*
X182372000Y-95504000D03*
X173355000Y-74295000D03*
X173355000Y-76200000D03*
X173355000Y-78105000D03*
X173355000Y-80010000D03*
X173355000Y-73025000D03*
X174625000Y-83820000D03*
X184573000Y-75523000D03*
X174625000Y-81280000D03*
X173355000Y-81915000D03*
X173355000Y-83820000D03*
X173355000Y-85725000D03*
X173355000Y-87630000D03*
X173355000Y-89535000D03*
X176530000Y-75565000D03*
X179705000Y-75565000D03*
X175768000Y-80772000D03*
X176530000Y-76835000D03*
X175260000Y-79375000D03*
X186690000Y-72390000D03*
D15*
X204470000Y-87630000D02*
X204470000Y-88900000D01*
X204470000Y-90170000D02*
X204470000Y-91440000D01*
X204470000Y-92710000D02*
X204470000Y-93980000D01*
X204470000Y-95250000D02*
X203200000Y-95250000D01*
X201930000Y-95250000D02*
X200660000Y-95250000D01*
X199390000Y-95250000D02*
X198120000Y-95250000D01*
X196850000Y-95250000D02*
X195580000Y-95250000D01*
X194310000Y-95250000D02*
X194310000Y-93980000D01*
X195580000Y-93980000D02*
X196850000Y-93980000D01*
X198120000Y-93980000D02*
X199390000Y-93980000D01*
X200660000Y-93980000D02*
X201930000Y-93980000D01*
X203200000Y-93980000D02*
X203200000Y-92710000D01*
X201930000Y-92710000D02*
X200660000Y-92710000D01*
X199390000Y-92710000D02*
X198120000Y-92710000D01*
X196850000Y-92710000D02*
X195580000Y-92710000D01*
X194310000Y-92710000D02*
X194310000Y-91440000D01*
X195580000Y-91440000D02*
X196850000Y-91440000D01*
X198120000Y-91440000D02*
X199390000Y-91440000D01*
X200660000Y-91440000D02*
X201930000Y-91440000D01*
X203200000Y-91440000D02*
X203200000Y-90170000D01*
X201930000Y-90170000D02*
X200660000Y-90170000D01*
X199390000Y-90170000D02*
X198120000Y-90170000D01*
X196850000Y-90170000D02*
X195580000Y-90170000D01*
X194310000Y-90170000D02*
X194310000Y-88900000D01*
X195580000Y-88900000D02*
X196850000Y-88900000D01*
X198120000Y-88900000D02*
X199390000Y-88900000D01*
X200660000Y-88900000D02*
X201930000Y-88900000D01*
X203200000Y-88900000D02*
X203200000Y-87630000D01*
X201930000Y-87630000D02*
X200660000Y-87630000D01*
X199390000Y-87630000D02*
X198120000Y-87630000D01*
X196850000Y-87630000D02*
X195580000Y-87630000D01*
X189865000Y-87820500D02*
X192024000Y-87820500D01*
X200660000Y-80010000D02*
X200660000Y-79883000D01*
X194310000Y-78740000D02*
X194310000Y-77470000D01*
X193040000Y-77470000D02*
X191770000Y-77470000D01*
X191770000Y-78740000D02*
X193040000Y-78740000D01*
X193040000Y-80010000D02*
X194310000Y-80010000D01*
X195580000Y-80010000D02*
X196850000Y-80010000D01*
X198120000Y-80010000D02*
X199390000Y-80010000D01*
X202565000Y-79756000D02*
X203581000Y-79756000D01*
X200787000Y-79756000D02*
X201549000Y-79756000D01*
X200660000Y-79883000D02*
X200787000Y-79756000D01*
X196850000Y-81788000D02*
X198120000Y-81788000D01*
X199390000Y-81788000D02*
X200660000Y-81788000D01*
X203581000Y-82042000D02*
X204597000Y-82042000D01*
X201549000Y-82042000D02*
X202565000Y-82042000D01*
X199390000Y-82550000D02*
X200660000Y-82550000D01*
X196850000Y-82550000D02*
X198120000Y-82550000D01*
X194310000Y-82550000D02*
X195580000Y-82550000D01*
X183896000Y-88392000D02*
X184023000Y-88265000D01*
X184023000Y-88265000D02*
X184023000Y-87820500D01*
X181102000Y-91440000D02*
X181991000Y-91440000D01*
X179705000Y-90297000D02*
X179705000Y-90805000D01*
X179324000Y-89916000D02*
X179705000Y-90297000D01*
X178435000Y-88773000D02*
X178435000Y-89535000D01*
X178435000Y-86868000D02*
X178435000Y-87757000D01*
X179197000Y-86487000D02*
X179197000Y-86741000D01*
X179578000Y-86106000D02*
X179197000Y-86487000D01*
X179705000Y-90805000D02*
X179705000Y-90932000D01*
X179705000Y-90932000D02*
X180213000Y-91440000D01*
X183642000Y-89916000D02*
X183642000Y-89154000D01*
X182880000Y-91440000D02*
X183515000Y-90805000D01*
X189865000Y-86995000D02*
X189865000Y-87820500D01*
X186690000Y-85090000D02*
X187960000Y-85090000D01*
X188595000Y-85725000D02*
X189230000Y-86360000D01*
X188595000Y-87884000D02*
X188595000Y-88963500D01*
X193040000Y-85090000D02*
X193040000Y-83820000D01*
X196850000Y-86360000D02*
X198120000Y-85090000D01*
X198120000Y-83820000D02*
X199390000Y-83820000D01*
X195580000Y-83820000D02*
X196850000Y-83820000D01*
X194310000Y-85090000D02*
X194310000Y-83820000D01*
X196850000Y-85090000D02*
X195580000Y-85090000D01*
X192786000Y-83439000D02*
X192913000Y-83312000D01*
X192913000Y-83312000D02*
X192913000Y-82931000D01*
X195326000Y-81661000D02*
X196088000Y-81788000D01*
X195199000Y-81788000D02*
X195326000Y-81661000D01*
X193548000Y-81788000D02*
X194310000Y-81788000D01*
X191770000Y-85090000D02*
X193040000Y-85090000D01*
X201930000Y-85090000D02*
X200660000Y-85090000D01*
X204470000Y-85090000D02*
X203200000Y-85090000D01*
X203200000Y-86360000D02*
X204470000Y-86360000D01*
X200660000Y-86360000D02*
X201930000Y-86360000D01*
X198120000Y-86360000D02*
X199390000Y-86360000D01*
X195580000Y-86360000D02*
X196850000Y-86360000D01*
X193040000Y-86360000D02*
X194310000Y-86360000D01*
X191770000Y-85090000D02*
X191770000Y-86360000D01*
X202361800Y-78333600D02*
X203835000Y-78333600D01*
X195580000Y-77470000D02*
X195580000Y-78740000D01*
X199390000Y-78740000D02*
X200660000Y-78740000D01*
X196850000Y-78740000D02*
X198120000Y-78740000D01*
X204470000Y-74930000D02*
X204470000Y-76200000D01*
X201930000Y-74930000D02*
X203200000Y-74930000D01*
X199390000Y-74930000D02*
X200660000Y-74930000D01*
X196850000Y-74930000D02*
X198120000Y-74930000D01*
X196850000Y-73660000D02*
X195580000Y-73660000D01*
X199390000Y-73660000D02*
X198120000Y-73660000D01*
X201930000Y-73660000D02*
X200660000Y-73660000D01*
X204470000Y-73660000D02*
X203200000Y-73660000D01*
X203200000Y-72390000D02*
X204470000Y-72390000D01*
X203200000Y-76200000D02*
X201930000Y-76200000D01*
X200660000Y-76200000D02*
X199390000Y-76200000D01*
X198120000Y-76200000D02*
X196850000Y-76200000D01*
X195580000Y-77470000D02*
X196850000Y-77470000D01*
X198120000Y-77470000D02*
X199390000Y-77470000D01*
X201930000Y-76200000D02*
X203200000Y-76200000D01*
X203200000Y-76200000D02*
X203809600Y-76809600D01*
D16*
X189865000Y-80391000D02*
X190119000Y-79883000D01*
X190119000Y-79883000D02*
X190627000Y-80010000D01*
X188849000Y-80772000D02*
X189357000Y-80899000D01*
X188595000Y-81089500D02*
X188849000Y-80772000D01*
D15*
X192024000Y-83693000D02*
X191262000Y-83693000D01*
X190119000Y-83693000D02*
X189928500Y-83312000D01*
X190119000Y-83693000D02*
X190627000Y-83629500D01*
X189357000Y-82931000D02*
X191262000Y-82931000D01*
X191262000Y-82931000D02*
X192151000Y-83820000D01*
D16*
X191262000Y-80899000D02*
X191262000Y-79883000D01*
X191262000Y-81788000D02*
X191262000Y-82677000D01*
D15*
X181102000Y-78740000D02*
X183261000Y-80899000D01*
X183261000Y-80899000D02*
X183287500Y-80925500D01*
X183287500Y-82650500D02*
X183261000Y-82677000D01*
X185012500Y-80925500D02*
X185039000Y-80899000D01*
X200660000Y-72390000D02*
X201930000Y-72390000D01*
X198120000Y-72390000D02*
X199390000Y-72390000D01*
X195580000Y-72390000D02*
X196850000Y-72390000D01*
X171704000Y-72898000D02*
X171704000Y-89535000D01*
X171704000Y-72644000D02*
X172212000Y-72136000D01*
X172212000Y-72136000D02*
X181406800Y-72136000D01*
X181889400Y-75234800D02*
X181610000Y-74955400D01*
X181610000Y-74955400D02*
X181610000Y-72339200D01*
X181610000Y-72339200D02*
X181406800Y-72136000D01*
X175006000Y-91846400D02*
X175641000Y-92481400D01*
X175641000Y-92481400D02*
X184378600Y-92481400D01*
X171704000Y-72898000D02*
X171704000Y-72644000D01*
X179070000Y-81153000D02*
X179070000Y-77089000D01*
X177355500Y-85661500D02*
X177292000Y-85661500D01*
X174371000Y-91757500D02*
X174371000Y-93091000D01*
X174942500Y-91186000D02*
X174371000Y-91757500D01*
X175450500Y-91186000D02*
X174942500Y-91186000D01*
X176466500Y-90170000D02*
X175450500Y-91186000D01*
X176466500Y-86487000D02*
X176466500Y-90170000D01*
X177292000Y-85661500D02*
X176466500Y-86487000D01*
X174371000Y-93091000D02*
X175260000Y-93980000D01*
X174371000Y-93091000D02*
X175260000Y-93980000D01*
X183134000Y-75184000D02*
X182626000Y-75184000D01*
X184912000Y-76962000D02*
X183134000Y-75184000D01*
X174625000Y-89598500D02*
X174625000Y-87630000D01*
X173736000Y-91694000D02*
X173736000Y-91376500D01*
X173736000Y-91376500D02*
X174688500Y-90424000D01*
X174625000Y-85725000D02*
X176403000Y-85725000D01*
X176403000Y-85725000D02*
X177355500Y-84772500D01*
X177927000Y-82931000D02*
X177546000Y-82550000D01*
X177546000Y-82550000D02*
X177165000Y-82550000D01*
X174625000Y-82550000D02*
X175895000Y-82550000D01*
X178625500Y-82486500D02*
X177927000Y-82931000D01*
X187579000Y-75120500D02*
X185801000Y-75120500D01*
X192087500Y-94932500D02*
X191833500Y-94932500D01*
X192087500Y-93091000D02*
X192087500Y-93980000D01*
X189992000Y-95504000D02*
X188722000Y-95504000D01*
X191833500Y-94932500D02*
X191262000Y-95504000D01*
X187452000Y-95504000D02*
X186182000Y-95504000D01*
X184912000Y-95504000D02*
X183642000Y-95504000D01*
X172085000Y-93345000D02*
X172085000Y-95250000D01*
X173482000Y-95250000D02*
X173355000Y-95250000D01*
X173736000Y-95504000D02*
X173482000Y-95250000D01*
X174498000Y-95504000D02*
X173736000Y-95504000D01*
X177292000Y-95504000D02*
X176022000Y-95504000D01*
X179832000Y-95504000D02*
X178562000Y-95504000D01*
X182372000Y-95504000D02*
X181102000Y-95504000D01*
X173355000Y-76200000D02*
X173355000Y-74295000D01*
X173355000Y-80010000D02*
X173355000Y-78105000D01*
X174625000Y-83820000D02*
X174625000Y-85725000D01*
X184573000Y-75523000D02*
X184594500Y-75501500D01*
X173355000Y-89535000D02*
X172085000Y-90805000D01*
X172085000Y-90805000D02*
X172085000Y-91440000D01*
X172085000Y-91440000D02*
X172085000Y-90805000D01*
X175133000Y-80772000D02*
X175768000Y-80772000D01*
X174625000Y-81280000D02*
X175133000Y-80772000D01*
X173355000Y-83820000D02*
X173355000Y-81915000D01*
X173355000Y-87630000D02*
X173355000Y-85725000D01*
X176530000Y-75565000D02*
X179705000Y-75565000D01*
X175260000Y-78105000D02*
X176530000Y-76835000D01*
X175260000Y-79375000D02*
X175260000Y-78105000D01*
X186690000Y-72390000D02*
X189230000Y-72390000D01*
X189230000Y-72390000D02*
X190500000Y-73660000D01*
D17*
G36*
X183007000Y-85788500D02*
X183017006Y-85837910D01*
X183046529Y-85880575D01*
X184277000Y-87049522D01*
X184277000Y-90810508D01*
X183404124Y-91567000D01*
X179705000Y-91567000D01*
X179705000Y-90805000D01*
X179694994Y-90755590D01*
X179666553Y-90713965D01*
X179624159Y-90686685D01*
X179578000Y-90678000D01*
X179197000Y-90678000D01*
X179197000Y-89916000D01*
X179186994Y-89866590D01*
X179158553Y-89824965D01*
X179116159Y-89797685D01*
X179070000Y-89789000D01*
X178435000Y-89789000D01*
X178435000Y-86689857D01*
X179165520Y-86296500D01*
X179514500Y-86296500D01*
X179563910Y-86286494D01*
X179605535Y-86258053D01*
X179632815Y-86215659D01*
X179641500Y-86169500D01*
X179641500Y-85866506D01*
X180672006Y-84836000D01*
X183007000Y-84836000D01*
X183007000Y-85788500D01*
X183007000Y-85788500D01*
G37*
X183007000Y-85788500D02*
X183017006Y-85837910D01*
X183046529Y-85880575D01*
X184277000Y-87049522D01*
X184277000Y-90810508D01*
X183404124Y-91567000D01*
X179705000Y-91567000D01*
X179705000Y-90805000D01*
X179694994Y-90755590D01*
X179666553Y-90713965D01*
X179624159Y-90686685D01*
X179578000Y-90678000D01*
X179197000Y-90678000D01*
X179197000Y-89916000D01*
X179186994Y-89866590D01*
X179158553Y-89824965D01*
X179116159Y-89797685D01*
X179070000Y-89789000D01*
X178435000Y-89789000D01*
X178435000Y-86689857D01*
X179165520Y-86296500D01*
X179514500Y-86296500D01*
X179563910Y-86286494D01*
X179605535Y-86258053D01*
X179632815Y-86215659D01*
X179641500Y-86169500D01*
X179641500Y-85866506D01*
X180672006Y-84836000D01*
X183007000Y-84836000D01*
X183007000Y-85788500D01*
G36*
X174211651Y-72606093D02*
X174147947Y-72699327D01*
X174125535Y-72810000D01*
X174125535Y-74510000D01*
X174144989Y-74613391D01*
X174206093Y-74708349D01*
X174299327Y-74772053D01*
X174410000Y-74794465D01*
X176110000Y-74794465D01*
X176213391Y-74775011D01*
X176308349Y-74713907D01*
X176372053Y-74620673D01*
X176394465Y-74510000D01*
X176394465Y-72810000D01*
X176375011Y-72706609D01*
X176313907Y-72611651D01*
X176245631Y-72565000D01*
X177517875Y-72565000D01*
X177367950Y-72594822D01*
X177001676Y-72839558D01*
X176756940Y-73205832D01*
X176671000Y-73637882D01*
X176671000Y-73682118D01*
X176756940Y-74114168D01*
X177001676Y-74480442D01*
X177367950Y-74725178D01*
X177800000Y-74811118D01*
X178232050Y-74725178D01*
X178598324Y-74480442D01*
X178843060Y-74114168D01*
X178929000Y-73682118D01*
X178929000Y-73637882D01*
X178843060Y-73205832D01*
X178598324Y-72839558D01*
X178232050Y-72594822D01*
X178082125Y-72565000D01*
X180057875Y-72565000D01*
X179907950Y-72594822D01*
X179541676Y-72839558D01*
X179296940Y-73205832D01*
X179211000Y-73637882D01*
X179211000Y-73682118D01*
X179296940Y-74114168D01*
X179541676Y-74480442D01*
X179907950Y-74725178D01*
X180340000Y-74811118D01*
X180772050Y-74725178D01*
X181138324Y-74480442D01*
X181181000Y-74416573D01*
X181181000Y-74955400D01*
X181213656Y-75119571D01*
X181306651Y-75258749D01*
X181433380Y-75385478D01*
X181483087Y-75505777D01*
X181617714Y-75640640D01*
X181793703Y-75713717D01*
X181984261Y-75713883D01*
X182160377Y-75641113D01*
X182283152Y-75518553D01*
X182354314Y-75589840D01*
X182530303Y-75662917D01*
X182720861Y-75663083D01*
X182842071Y-75613000D01*
X182956302Y-75613000D01*
X183543302Y-76200000D01*
X178816000Y-76200000D01*
X178766590Y-76210006D01*
X178724965Y-76238447D01*
X178697685Y-76280841D01*
X178689000Y-76327000D01*
X178689000Y-76792517D01*
X178664160Y-76817314D01*
X178591083Y-76993303D01*
X178590917Y-77183861D01*
X178641000Y-77305071D01*
X178641000Y-80937089D01*
X178591083Y-81057303D01*
X178590917Y-81247861D01*
X178663687Y-81423977D01*
X178689000Y-81449334D01*
X178689000Y-85471000D01*
X177795066Y-85471000D01*
X177761813Y-85390523D01*
X177627186Y-85255660D01*
X177451197Y-85182583D01*
X177260639Y-85182417D01*
X177084523Y-85255187D01*
X176949660Y-85389814D01*
X176944456Y-85402346D01*
X176163151Y-86183651D01*
X176070156Y-86322829D01*
X176037500Y-86487000D01*
X176037500Y-89992302D01*
X175272802Y-90757000D01*
X174942500Y-90757000D01*
X174778329Y-90789656D01*
X174639151Y-90882651D01*
X174067651Y-91454151D01*
X173974656Y-91593329D01*
X173942000Y-91757500D01*
X173942000Y-93091000D01*
X173974656Y-93255171D01*
X174067651Y-93394349D01*
X174125535Y-93452233D01*
X174125535Y-94830000D01*
X174144989Y-94933391D01*
X174206093Y-95028349D01*
X174299327Y-95092053D01*
X174410000Y-95114465D01*
X176110000Y-95114465D01*
X176213391Y-95095011D01*
X176308349Y-95033907D01*
X176372053Y-94940673D01*
X176394465Y-94830000D01*
X176394465Y-93130000D01*
X176375011Y-93026609D01*
X176313907Y-92931651D01*
X176282805Y-92910400D01*
X177390181Y-92910400D01*
X177367950Y-92914822D01*
X177001676Y-93159558D01*
X176756940Y-93525832D01*
X176671000Y-93957882D01*
X176671000Y-94002118D01*
X176756940Y-94434168D01*
X177001676Y-94800442D01*
X177367950Y-95045178D01*
X177800000Y-95131118D01*
X178232050Y-95045178D01*
X178598324Y-94800442D01*
X178843060Y-94434168D01*
X178929000Y-94002118D01*
X178929000Y-93957882D01*
X178843060Y-93525832D01*
X178598324Y-93159558D01*
X178232050Y-92914822D01*
X178209819Y-92910400D01*
X179930181Y-92910400D01*
X179907950Y-92914822D01*
X179541676Y-93159558D01*
X179296940Y-93525832D01*
X179211000Y-93957882D01*
X179211000Y-94002118D01*
X179296940Y-94434168D01*
X179541676Y-94800442D01*
X179907950Y-95045178D01*
X180340000Y-95131118D01*
X180772050Y-95045178D01*
X181138324Y-94800442D01*
X181383060Y-94434168D01*
X181469000Y-94002118D01*
X181469000Y-93957882D01*
X181383060Y-93525832D01*
X181138324Y-93159558D01*
X180772050Y-92914822D01*
X180749819Y-92910400D01*
X182470181Y-92910400D01*
X182447950Y-92914822D01*
X182081676Y-93159558D01*
X181836940Y-93525832D01*
X181751000Y-93957882D01*
X181751000Y-94002118D01*
X181836940Y-94434168D01*
X182081676Y-94800442D01*
X182447950Y-95045178D01*
X182880000Y-95131118D01*
X183312050Y-95045178D01*
X183678324Y-94800442D01*
X183923060Y-94434168D01*
X184009000Y-94002118D01*
X184009000Y-93957882D01*
X184291000Y-93957882D01*
X184291000Y-94002118D01*
X184376940Y-94434168D01*
X184621676Y-94800442D01*
X184987950Y-95045178D01*
X185420000Y-95131118D01*
X185852050Y-95045178D01*
X186218324Y-94800442D01*
X186463060Y-94434168D01*
X186549000Y-94002118D01*
X186549000Y-93957882D01*
X186831000Y-93957882D01*
X186831000Y-94002118D01*
X186916940Y-94434168D01*
X187161676Y-94800442D01*
X187527950Y-95045178D01*
X187960000Y-95131118D01*
X188392050Y-95045178D01*
X188758324Y-94800442D01*
X189003060Y-94434168D01*
X189089000Y-94002118D01*
X189089000Y-93957882D01*
X189371000Y-93957882D01*
X189371000Y-94002118D01*
X189456940Y-94434168D01*
X189701676Y-94800442D01*
X190067950Y-95045178D01*
X190500000Y-95131118D01*
X190932050Y-95045178D01*
X191298324Y-94800442D01*
X191543060Y-94434168D01*
X191629000Y-94002118D01*
X191629000Y-93957882D01*
X191543060Y-93525832D01*
X191298324Y-93159558D01*
X190932050Y-92914822D01*
X190500000Y-92828882D01*
X190067950Y-92914822D01*
X189701676Y-93159558D01*
X189456940Y-93525832D01*
X189371000Y-93957882D01*
X189089000Y-93957882D01*
X189003060Y-93525832D01*
X188758324Y-93159558D01*
X188392050Y-92914822D01*
X187960000Y-92828882D01*
X187527950Y-92914822D01*
X187161676Y-93159558D01*
X186916940Y-93525832D01*
X186831000Y-93957882D01*
X186549000Y-93957882D01*
X186463060Y-93525832D01*
X186218324Y-93159558D01*
X185852050Y-92914822D01*
X185420000Y-92828882D01*
X184987950Y-92914822D01*
X184621676Y-93159558D01*
X184376940Y-93525832D01*
X184291000Y-93957882D01*
X184009000Y-93957882D01*
X183923060Y-93525832D01*
X183678324Y-93159558D01*
X183312050Y-92914822D01*
X183289819Y-92910400D01*
X184162689Y-92910400D01*
X184282903Y-92960317D01*
X184473461Y-92960483D01*
X184649577Y-92887713D01*
X184784440Y-92753086D01*
X184857517Y-92577097D01*
X184857683Y-92386539D01*
X184833908Y-92329000D01*
X185420000Y-92329000D01*
X185469410Y-92318994D01*
X185511035Y-92290553D01*
X185538315Y-92248159D01*
X185547000Y-92202000D01*
X185547000Y-90297000D01*
X186436000Y-90297000D01*
X186485410Y-90286994D01*
X186527035Y-90258553D01*
X186554315Y-90216159D01*
X186563000Y-90170000D01*
X192405000Y-90170000D01*
X192405000Y-95758000D01*
X171323000Y-95758000D01*
X171323000Y-89831334D01*
X171432314Y-89940840D01*
X171608303Y-90013917D01*
X171798861Y-90014083D01*
X171974977Y-89941313D01*
X172109840Y-89806686D01*
X172182917Y-89630697D01*
X172183083Y-89440139D01*
X172133000Y-89318929D01*
X172133000Y-72821698D01*
X172389697Y-72565000D01*
X174275511Y-72565000D01*
X174211651Y-72606093D01*
X174211651Y-72606093D01*
G37*
X174211651Y-72606093D02*
X174147947Y-72699327D01*
X174125535Y-72810000D01*
X174125535Y-74510000D01*
X174144989Y-74613391D01*
X174206093Y-74708349D01*
X174299327Y-74772053D01*
X174410000Y-74794465D01*
X176110000Y-74794465D01*
X176213391Y-74775011D01*
X176308349Y-74713907D01*
X176372053Y-74620673D01*
X176394465Y-74510000D01*
X176394465Y-72810000D01*
X176375011Y-72706609D01*
X176313907Y-72611651D01*
X176245631Y-72565000D01*
X177517875Y-72565000D01*
X177367950Y-72594822D01*
X177001676Y-72839558D01*
X176756940Y-73205832D01*
X176671000Y-73637882D01*
X176671000Y-73682118D01*
X176756940Y-74114168D01*
X177001676Y-74480442D01*
X177367950Y-74725178D01*
X177800000Y-74811118D01*
X178232050Y-74725178D01*
X178598324Y-74480442D01*
X178843060Y-74114168D01*
X178929000Y-73682118D01*
X178929000Y-73637882D01*
X178843060Y-73205832D01*
X178598324Y-72839558D01*
X178232050Y-72594822D01*
X178082125Y-72565000D01*
X180057875Y-72565000D01*
X179907950Y-72594822D01*
X179541676Y-72839558D01*
X179296940Y-73205832D01*
X179211000Y-73637882D01*
X179211000Y-73682118D01*
X179296940Y-74114168D01*
X179541676Y-74480442D01*
X179907950Y-74725178D01*
X180340000Y-74811118D01*
X180772050Y-74725178D01*
X181138324Y-74480442D01*
X181181000Y-74416573D01*
X181181000Y-74955400D01*
X181213656Y-75119571D01*
X181306651Y-75258749D01*
X181433380Y-75385478D01*
X181483087Y-75505777D01*
X181617714Y-75640640D01*
X181793703Y-75713717D01*
X181984261Y-75713883D01*
X182160377Y-75641113D01*
X182283152Y-75518553D01*
X182354314Y-75589840D01*
X182530303Y-75662917D01*
X182720861Y-75663083D01*
X182842071Y-75613000D01*
X182956302Y-75613000D01*
X183543302Y-76200000D01*
X178816000Y-76200000D01*
X178766590Y-76210006D01*
X178724965Y-76238447D01*
X178697685Y-76280841D01*
X178689000Y-76327000D01*
X178689000Y-76792517D01*
X178664160Y-76817314D01*
X178591083Y-76993303D01*
X178590917Y-77183861D01*
X178641000Y-77305071D01*
X178641000Y-80937089D01*
X178591083Y-81057303D01*
X178590917Y-81247861D01*
X178663687Y-81423977D01*
X178689000Y-81449334D01*
X178689000Y-85471000D01*
X177795066Y-85471000D01*
X177761813Y-85390523D01*
X177627186Y-85255660D01*
X177451197Y-85182583D01*
X177260639Y-85182417D01*
X177084523Y-85255187D01*
X176949660Y-85389814D01*
X176944456Y-85402346D01*
X176163151Y-86183651D01*
X176070156Y-86322829D01*
X176037500Y-86487000D01*
X176037500Y-89992302D01*
X175272802Y-90757000D01*
X174942500Y-90757000D01*
X174778329Y-90789656D01*
X174639151Y-90882651D01*
X174067651Y-91454151D01*
X173974656Y-91593329D01*
X173942000Y-91757500D01*
X173942000Y-93091000D01*
X173974656Y-93255171D01*
X174067651Y-93394349D01*
X174125535Y-93452233D01*
X174125535Y-94830000D01*
X174144989Y-94933391D01*
X174206093Y-95028349D01*
X174299327Y-95092053D01*
X174410000Y-95114465D01*
X176110000Y-95114465D01*
X176213391Y-95095011D01*
X176308349Y-95033907D01*
X176372053Y-94940673D01*
X176394465Y-94830000D01*
X176394465Y-93130000D01*
X176375011Y-93026609D01*
X176313907Y-92931651D01*
X176282805Y-92910400D01*
X177390181Y-92910400D01*
X177367950Y-92914822D01*
X177001676Y-93159558D01*
X176756940Y-93525832D01*
X176671000Y-93957882D01*
X176671000Y-94002118D01*
X176756940Y-94434168D01*
X177001676Y-94800442D01*
X177367950Y-95045178D01*
X177800000Y-95131118D01*
X178232050Y-95045178D01*
X178598324Y-94800442D01*
X178843060Y-94434168D01*
X178929000Y-94002118D01*
X178929000Y-93957882D01*
X178843060Y-93525832D01*
X178598324Y-93159558D01*
X178232050Y-92914822D01*
X178209819Y-92910400D01*
X179930181Y-92910400D01*
X179907950Y-92914822D01*
X179541676Y-93159558D01*
X179296940Y-93525832D01*
X179211000Y-93957882D01*
X179211000Y-94002118D01*
X179296940Y-94434168D01*
X179541676Y-94800442D01*
X179907950Y-95045178D01*
X180340000Y-95131118D01*
X180772050Y-95045178D01*
X181138324Y-94800442D01*
X181383060Y-94434168D01*
X181469000Y-94002118D01*
X181469000Y-93957882D01*
X181383060Y-93525832D01*
X181138324Y-93159558D01*
X180772050Y-92914822D01*
X180749819Y-92910400D01*
X182470181Y-92910400D01*
X182447950Y-92914822D01*
X182081676Y-93159558D01*
X181836940Y-93525832D01*
X181751000Y-93957882D01*
X181751000Y-94002118D01*
X181836940Y-94434168D01*
X182081676Y-94800442D01*
X182447950Y-95045178D01*
X182880000Y-95131118D01*
X183312050Y-95045178D01*
X183678324Y-94800442D01*
X183923060Y-94434168D01*
X184009000Y-94002118D01*
X184009000Y-93957882D01*
X184291000Y-93957882D01*
X184291000Y-94002118D01*
X184376940Y-94434168D01*
X184621676Y-94800442D01*
X184987950Y-95045178D01*
X185420000Y-95131118D01*
X185852050Y-95045178D01*
X186218324Y-94800442D01*
X186463060Y-94434168D01*
X186549000Y-94002118D01*
X186549000Y-93957882D01*
X186831000Y-93957882D01*
X186831000Y-94002118D01*
X186916940Y-94434168D01*
X187161676Y-94800442D01*
X187527950Y-95045178D01*
X187960000Y-95131118D01*
X188392050Y-95045178D01*
X188758324Y-94800442D01*
X189003060Y-94434168D01*
X189089000Y-94002118D01*
X189089000Y-93957882D01*
X189371000Y-93957882D01*
X189371000Y-94002118D01*
X189456940Y-94434168D01*
X189701676Y-94800442D01*
X190067950Y-95045178D01*
X190500000Y-95131118D01*
X190932050Y-95045178D01*
X191298324Y-94800442D01*
X191543060Y-94434168D01*
X191629000Y-94002118D01*
X191629000Y-93957882D01*
X191543060Y-93525832D01*
X191298324Y-93159558D01*
X190932050Y-92914822D01*
X190500000Y-92828882D01*
X190067950Y-92914822D01*
X189701676Y-93159558D01*
X189456940Y-93525832D01*
X189371000Y-93957882D01*
X189089000Y-93957882D01*
X189003060Y-93525832D01*
X188758324Y-93159558D01*
X188392050Y-92914822D01*
X187960000Y-92828882D01*
X187527950Y-92914822D01*
X187161676Y-93159558D01*
X186916940Y-93525832D01*
X186831000Y-93957882D01*
X186549000Y-93957882D01*
X186463060Y-93525832D01*
X186218324Y-93159558D01*
X185852050Y-92914822D01*
X185420000Y-92828882D01*
X184987950Y-92914822D01*
X184621676Y-93159558D01*
X184376940Y-93525832D01*
X184291000Y-93957882D01*
X184009000Y-93957882D01*
X183923060Y-93525832D01*
X183678324Y-93159558D01*
X183312050Y-92914822D01*
X183289819Y-92910400D01*
X184162689Y-92910400D01*
X184282903Y-92960317D01*
X184473461Y-92960483D01*
X184649577Y-92887713D01*
X184784440Y-92753086D01*
X184857517Y-92577097D01*
X184857683Y-92386539D01*
X184833908Y-92329000D01*
X185420000Y-92329000D01*
X185469410Y-92318994D01*
X185511035Y-92290553D01*
X185538315Y-92248159D01*
X185547000Y-92202000D01*
X185547000Y-90297000D01*
X186436000Y-90297000D01*
X186485410Y-90286994D01*
X186527035Y-90258553D01*
X186554315Y-90216159D01*
X186563000Y-90170000D01*
X192405000Y-90170000D01*
X192405000Y-95758000D01*
X171323000Y-95758000D01*
X171323000Y-89831334D01*
X171432314Y-89940840D01*
X171608303Y-90013917D01*
X171798861Y-90014083D01*
X171974977Y-89941313D01*
X172109840Y-89806686D01*
X172182917Y-89630697D01*
X172183083Y-89440139D01*
X172133000Y-89318929D01*
X172133000Y-72821698D01*
X172389697Y-72565000D01*
X174275511Y-72565000D01*
X174211651Y-72606093D01*
G36*
X174855436Y-92302534D02*
X175337651Y-92784749D01*
X175428624Y-92845535D01*
X174800000Y-92845535D01*
X174800000Y-92279515D01*
X174855436Y-92302534D01*
X174855436Y-92302534D01*
G37*
X174855436Y-92302534D02*
X175337651Y-92784749D01*
X175428624Y-92845535D01*
X174800000Y-92845535D01*
X174800000Y-92279515D01*
X174855436Y-92302534D01*
G36*
X193865500Y-76200000D02*
X184756698Y-76200000D01*
X183437349Y-74880651D01*
X183298171Y-74787656D01*
X183148062Y-74757797D01*
X183312050Y-74725178D01*
X183678324Y-74480442D01*
X183923060Y-74114168D01*
X184009000Y-73682118D01*
X184009000Y-73637882D01*
X184291000Y-73637882D01*
X184291000Y-73682118D01*
X184376940Y-74114168D01*
X184621676Y-74480442D01*
X184987950Y-74725178D01*
X185420000Y-74811118D01*
X185852050Y-74725178D01*
X186218324Y-74480442D01*
X186463060Y-74114168D01*
X186549000Y-73682118D01*
X186549000Y-73637882D01*
X186831000Y-73637882D01*
X186831000Y-73682118D01*
X186916940Y-74114168D01*
X187161676Y-74480442D01*
X187527950Y-74725178D01*
X187960000Y-74811118D01*
X188392050Y-74725178D01*
X188758324Y-74480442D01*
X189003060Y-74114168D01*
X189068137Y-73787002D01*
X189179180Y-73787002D01*
X189058514Y-74016892D01*
X189304817Y-74541358D01*
X189733076Y-74931645D01*
X190143110Y-75101476D01*
X190373000Y-74980155D01*
X190373000Y-73787000D01*
X190627000Y-73787000D01*
X190627000Y-74980155D01*
X190856890Y-75101476D01*
X191266924Y-74931645D01*
X191695183Y-74541358D01*
X191941486Y-74016892D01*
X191820819Y-73787000D01*
X190627000Y-73787000D01*
X190373000Y-73787000D01*
X190353000Y-73787000D01*
X190353000Y-73533000D01*
X190373000Y-73533000D01*
X190373000Y-72339845D01*
X190627000Y-72339845D01*
X190627000Y-73533000D01*
X191820819Y-73533000D01*
X191941486Y-73303108D01*
X191695183Y-72778642D01*
X191266924Y-72388355D01*
X190856890Y-72218524D01*
X190627000Y-72339845D01*
X190373000Y-72339845D01*
X190143110Y-72218524D01*
X189733076Y-72388355D01*
X189304817Y-72778642D01*
X189058514Y-73303108D01*
X189179180Y-73532998D01*
X189068137Y-73532998D01*
X189003060Y-73205832D01*
X188758324Y-72839558D01*
X188392050Y-72594822D01*
X187960000Y-72508882D01*
X187527950Y-72594822D01*
X187161676Y-72839558D01*
X186916940Y-73205832D01*
X186831000Y-73637882D01*
X186549000Y-73637882D01*
X186463060Y-73205832D01*
X186218324Y-72839558D01*
X185852050Y-72594822D01*
X185420000Y-72508882D01*
X184987950Y-72594822D01*
X184621676Y-72839558D01*
X184376940Y-73205832D01*
X184291000Y-73637882D01*
X184009000Y-73637882D01*
X183923060Y-73205832D01*
X183678324Y-72839558D01*
X183312050Y-72594822D01*
X182880000Y-72508882D01*
X182447950Y-72594822D01*
X182081676Y-72839558D01*
X182039000Y-72903427D01*
X182039000Y-72339200D01*
X182006344Y-72175029D01*
X181913349Y-72035851D01*
X181759498Y-71882000D01*
X193865500Y-71882000D01*
X193865500Y-76200000D01*
X193865500Y-76200000D01*
G37*
X193865500Y-76200000D02*
X184756698Y-76200000D01*
X183437349Y-74880651D01*
X183298171Y-74787656D01*
X183148062Y-74757797D01*
X183312050Y-74725178D01*
X183678324Y-74480442D01*
X183923060Y-74114168D01*
X184009000Y-73682118D01*
X184009000Y-73637882D01*
X184291000Y-73637882D01*
X184291000Y-73682118D01*
X184376940Y-74114168D01*
X184621676Y-74480442D01*
X184987950Y-74725178D01*
X185420000Y-74811118D01*
X185852050Y-74725178D01*
X186218324Y-74480442D01*
X186463060Y-74114168D01*
X186549000Y-73682118D01*
X186549000Y-73637882D01*
X186831000Y-73637882D01*
X186831000Y-73682118D01*
X186916940Y-74114168D01*
X187161676Y-74480442D01*
X187527950Y-74725178D01*
X187960000Y-74811118D01*
X188392050Y-74725178D01*
X188758324Y-74480442D01*
X189003060Y-74114168D01*
X189068137Y-73787002D01*
X189179180Y-73787002D01*
X189058514Y-74016892D01*
X189304817Y-74541358D01*
X189733076Y-74931645D01*
X190143110Y-75101476D01*
X190373000Y-74980155D01*
X190373000Y-73787000D01*
X190627000Y-73787000D01*
X190627000Y-74980155D01*
X190856890Y-75101476D01*
X191266924Y-74931645D01*
X191695183Y-74541358D01*
X191941486Y-74016892D01*
X191820819Y-73787000D01*
X190627000Y-73787000D01*
X190373000Y-73787000D01*
X190353000Y-73787000D01*
X190353000Y-73533000D01*
X190373000Y-73533000D01*
X190373000Y-72339845D01*
X190627000Y-72339845D01*
X190627000Y-73533000D01*
X191820819Y-73533000D01*
X191941486Y-73303108D01*
X191695183Y-72778642D01*
X191266924Y-72388355D01*
X190856890Y-72218524D01*
X190627000Y-72339845D01*
X190373000Y-72339845D01*
X190143110Y-72218524D01*
X189733076Y-72388355D01*
X189304817Y-72778642D01*
X189058514Y-73303108D01*
X189179180Y-73532998D01*
X189068137Y-73532998D01*
X189003060Y-73205832D01*
X188758324Y-72839558D01*
X188392050Y-72594822D01*
X187960000Y-72508882D01*
X187527950Y-72594822D01*
X187161676Y-72839558D01*
X186916940Y-73205832D01*
X186831000Y-73637882D01*
X186549000Y-73637882D01*
X186463060Y-73205832D01*
X186218324Y-72839558D01*
X185852050Y-72594822D01*
X185420000Y-72508882D01*
X184987950Y-72594822D01*
X184621676Y-72839558D01*
X184376940Y-73205832D01*
X184291000Y-73637882D01*
X184009000Y-73637882D01*
X183923060Y-73205832D01*
X183678324Y-72839558D01*
X183312050Y-72594822D01*
X182880000Y-72508882D01*
X182447950Y-72594822D01*
X182081676Y-72839558D01*
X182039000Y-72903427D01*
X182039000Y-72339200D01*
X182006344Y-72175029D01*
X181913349Y-72035851D01*
X181759498Y-71882000D01*
X193865500Y-71882000D01*
X193865500Y-76200000D01*
G36*
X184455980Y-77112678D02*
X184505687Y-77232977D01*
X184640314Y-77367840D01*
X184816303Y-77440917D01*
X185006861Y-77441083D01*
X185182977Y-77368313D01*
X185317840Y-77233686D01*
X185377919Y-77089000D01*
X190474600Y-77089000D01*
X190474600Y-78117700D01*
X189763400Y-78117700D01*
X189713990Y-78127706D01*
X189673597Y-78154897D01*
X188224894Y-79603600D01*
X187909200Y-79603600D01*
X187859790Y-79613606D01*
X187818165Y-79642047D01*
X187790885Y-79684441D01*
X187782200Y-79730600D01*
X187782200Y-84124800D01*
X187792206Y-84174210D01*
X187820647Y-84215835D01*
X187863041Y-84243115D01*
X187909200Y-84251800D01*
X188110594Y-84251800D01*
X189992000Y-86133206D01*
X189992000Y-89281000D01*
X185547000Y-89281000D01*
X185547000Y-86233000D01*
X185536994Y-86183590D01*
X185508553Y-86141965D01*
X185466159Y-86114685D01*
X185420000Y-86106000D01*
X184734200Y-86106000D01*
X184734200Y-84264500D01*
X184724194Y-84215090D01*
X184695753Y-84173465D01*
X184653359Y-84146185D01*
X184607200Y-84137500D01*
X182181500Y-84137500D01*
X182181500Y-83756500D01*
X182171494Y-83707090D01*
X182143053Y-83665465D01*
X182100659Y-83638185D01*
X182054500Y-83629500D01*
X181165500Y-83629500D01*
X181116090Y-83639506D01*
X181075697Y-83666697D01*
X181049394Y-83693000D01*
X179641500Y-83693000D01*
X179641500Y-77089000D01*
X184432302Y-77089000D01*
X184455980Y-77112678D01*
X184455980Y-77112678D01*
G37*
X184455980Y-77112678D02*
X184505687Y-77232977D01*
X184640314Y-77367840D01*
X184816303Y-77440917D01*
X185006861Y-77441083D01*
X185182977Y-77368313D01*
X185317840Y-77233686D01*
X185377919Y-77089000D01*
X190474600Y-77089000D01*
X190474600Y-78117700D01*
X189763400Y-78117700D01*
X189713990Y-78127706D01*
X189673597Y-78154897D01*
X188224894Y-79603600D01*
X187909200Y-79603600D01*
X187859790Y-79613606D01*
X187818165Y-79642047D01*
X187790885Y-79684441D01*
X187782200Y-79730600D01*
X187782200Y-84124800D01*
X187792206Y-84174210D01*
X187820647Y-84215835D01*
X187863041Y-84243115D01*
X187909200Y-84251800D01*
X188110594Y-84251800D01*
X189992000Y-86133206D01*
X189992000Y-89281000D01*
X185547000Y-89281000D01*
X185547000Y-86233000D01*
X185536994Y-86183590D01*
X185508553Y-86141965D01*
X185466159Y-86114685D01*
X185420000Y-86106000D01*
X184734200Y-86106000D01*
X184734200Y-84264500D01*
X184724194Y-84215090D01*
X184695753Y-84173465D01*
X184653359Y-84146185D01*
X184607200Y-84137500D01*
X182181500Y-84137500D01*
X182181500Y-83756500D01*
X182171494Y-83707090D01*
X182143053Y-83665465D01*
X182100659Y-83638185D01*
X182054500Y-83629500D01*
X181165500Y-83629500D01*
X181116090Y-83639506D01*
X181075697Y-83666697D01*
X181049394Y-83693000D01*
X179641500Y-83693000D01*
X179641500Y-77089000D01*
X184432302Y-77089000D01*
X184455980Y-77112678D01*
G36*
X205257400Y-76962000D02*
X203485750Y-76962000D01*
X203327000Y-77120750D01*
X203327000Y-78232000D01*
X203347000Y-78232000D01*
X203347000Y-78486000D01*
X203327000Y-78486000D01*
X203327000Y-79597250D01*
X203485750Y-79756000D01*
X205257400Y-79756000D01*
X205257400Y-82042000D01*
X203485750Y-82042000D01*
X203327000Y-82200750D01*
X203327000Y-83312000D01*
X203347000Y-83312000D01*
X203347000Y-83566000D01*
X203327000Y-83566000D01*
X203327000Y-84677250D01*
X203485750Y-84836000D01*
X205257400Y-84836000D01*
X205257400Y-95758000D01*
X193167000Y-95758000D01*
X193167000Y-87249000D01*
X193156994Y-87199590D01*
X193128553Y-87157965D01*
X193086159Y-87130685D01*
X193040000Y-87122000D01*
X191579500Y-87122000D01*
X191579500Y-84582000D01*
X191569494Y-84532590D01*
X191541053Y-84490965D01*
X191498659Y-84463685D01*
X191452500Y-84455000D01*
X190451006Y-84455000D01*
X189720756Y-83724750D01*
X200533000Y-83724750D01*
X200533000Y-84327309D01*
X200629673Y-84560698D01*
X200808301Y-84739327D01*
X201041690Y-84836000D01*
X202914250Y-84836000D01*
X203073000Y-84677250D01*
X203073000Y-83566000D01*
X200691750Y-83566000D01*
X200533000Y-83724750D01*
X189720756Y-83724750D01*
X188862603Y-82866597D01*
X188820589Y-82838734D01*
X188772800Y-82829400D01*
X188417200Y-82829400D01*
X188417200Y-82550691D01*
X200533000Y-82550691D01*
X200533000Y-83153250D01*
X200691750Y-83312000D01*
X203073000Y-83312000D01*
X203073000Y-82200750D01*
X202914250Y-82042000D01*
X201041690Y-82042000D01*
X200808301Y-82138673D01*
X200629673Y-82317302D01*
X200533000Y-82550691D01*
X188417200Y-82550691D01*
X188417200Y-80543400D01*
X188810900Y-80543400D01*
X188860310Y-80533394D01*
X188900703Y-80506203D01*
X190387506Y-79019400D01*
X191465200Y-79019400D01*
X191514610Y-79009394D01*
X191556235Y-78980953D01*
X191583515Y-78938559D01*
X191592200Y-78892400D01*
X191592200Y-78644750D01*
X200533000Y-78644750D01*
X200533000Y-79247309D01*
X200629673Y-79480698D01*
X200808301Y-79659327D01*
X201041690Y-79756000D01*
X202914250Y-79756000D01*
X203073000Y-79597250D01*
X203073000Y-78486000D01*
X200691750Y-78486000D01*
X200533000Y-78644750D01*
X191592200Y-78644750D01*
X191592200Y-77470691D01*
X200533000Y-77470691D01*
X200533000Y-78073250D01*
X200691750Y-78232000D01*
X203073000Y-78232000D01*
X203073000Y-77120750D01*
X202914250Y-76962000D01*
X201041690Y-76962000D01*
X200808301Y-77058673D01*
X200629673Y-77237302D01*
X200533000Y-77470691D01*
X191592200Y-77470691D01*
X191592200Y-77089000D01*
X194691000Y-77089000D01*
X194740410Y-77078994D01*
X194782035Y-77050553D01*
X194809315Y-77008159D01*
X194818000Y-76962000D01*
X194818000Y-71882000D01*
X205257400Y-71882000D01*
X205257400Y-76962000D01*
X205257400Y-76962000D01*
G37*
X205257400Y-76962000D02*
X203485750Y-76962000D01*
X203327000Y-77120750D01*
X203327000Y-78232000D01*
X203347000Y-78232000D01*
X203347000Y-78486000D01*
X203327000Y-78486000D01*
X203327000Y-79597250D01*
X203485750Y-79756000D01*
X205257400Y-79756000D01*
X205257400Y-82042000D01*
X203485750Y-82042000D01*
X203327000Y-82200750D01*
X203327000Y-83312000D01*
X203347000Y-83312000D01*
X203347000Y-83566000D01*
X203327000Y-83566000D01*
X203327000Y-84677250D01*
X203485750Y-84836000D01*
X205257400Y-84836000D01*
X205257400Y-95758000D01*
X193167000Y-95758000D01*
X193167000Y-87249000D01*
X193156994Y-87199590D01*
X193128553Y-87157965D01*
X193086159Y-87130685D01*
X193040000Y-87122000D01*
X191579500Y-87122000D01*
X191579500Y-84582000D01*
X191569494Y-84532590D01*
X191541053Y-84490965D01*
X191498659Y-84463685D01*
X191452500Y-84455000D01*
X190451006Y-84455000D01*
X189720756Y-83724750D01*
X200533000Y-83724750D01*
X200533000Y-84327309D01*
X200629673Y-84560698D01*
X200808301Y-84739327D01*
X201041690Y-84836000D01*
X202914250Y-84836000D01*
X203073000Y-84677250D01*
X203073000Y-83566000D01*
X200691750Y-83566000D01*
X200533000Y-83724750D01*
X189720756Y-83724750D01*
X188862603Y-82866597D01*
X188820589Y-82838734D01*
X188772800Y-82829400D01*
X188417200Y-82829400D01*
X188417200Y-82550691D01*
X200533000Y-82550691D01*
X200533000Y-83153250D01*
X200691750Y-83312000D01*
X203073000Y-83312000D01*
X203073000Y-82200750D01*
X202914250Y-82042000D01*
X201041690Y-82042000D01*
X200808301Y-82138673D01*
X200629673Y-82317302D01*
X200533000Y-82550691D01*
X188417200Y-82550691D01*
X188417200Y-80543400D01*
X188810900Y-80543400D01*
X188860310Y-80533394D01*
X188900703Y-80506203D01*
X190387506Y-79019400D01*
X191465200Y-79019400D01*
X191514610Y-79009394D01*
X191556235Y-78980953D01*
X191583515Y-78938559D01*
X191592200Y-78892400D01*
X191592200Y-78644750D01*
X200533000Y-78644750D01*
X200533000Y-79247309D01*
X200629673Y-79480698D01*
X200808301Y-79659327D01*
X201041690Y-79756000D01*
X202914250Y-79756000D01*
X203073000Y-79597250D01*
X203073000Y-78486000D01*
X200691750Y-78486000D01*
X200533000Y-78644750D01*
X191592200Y-78644750D01*
X191592200Y-77470691D01*
X200533000Y-77470691D01*
X200533000Y-78073250D01*
X200691750Y-78232000D01*
X203073000Y-78232000D01*
X203073000Y-77120750D01*
X202914250Y-76962000D01*
X201041690Y-76962000D01*
X200808301Y-77058673D01*
X200629673Y-77237302D01*
X200533000Y-77470691D01*
X191592200Y-77470691D01*
X191592200Y-77089000D01*
X194691000Y-77089000D01*
X194740410Y-77078994D01*
X194782035Y-77050553D01*
X194809315Y-77008159D01*
X194818000Y-76962000D01*
X194818000Y-71882000D01*
X205257400Y-71882000D01*
X205257400Y-76962000D01*
M02*
