G04 #@! TF.GenerationSoftware,KiCad,Pcbnew,(2017-11-30 revision 069448f20)-master*
G04 #@! TF.CreationDate,2017-12-01T23:13:36+02:00*
G04 #@! TF.ProjectId,at86rf212b_2l,617438367266323132625F326C2E6B69,rev?*
G04 #@! TF.SameCoordinates,Original*
G04 #@! TF.FileFunction,Paste,Top*
G04 #@! TF.FilePolarity,Positive*
%FSLAX46Y46*%
G04 Gerber Fmt 4.6, Leading zero omitted, Abs format (unit mm)*
G04 Created by KiCad (PCBNEW (2017-11-30 revision 069448f20)-master) date Fri Dec  1 23:13:36 2017*
%MOMM*%
%LPD*%
G01*
G04 APERTURE LIST*
%ADD10R,0.560000X0.200000*%
%ADD11R,0.200000X0.560000*%
%ADD12R,1.035000X1.035000*%
%ADD13R,0.280000X0.800000*%
%ADD14R,0.480000X0.400000*%
%ADD15R,0.400000X0.480000*%
%ADD16R,3.251200X1.219200*%
%ADD17R,3.251200X1.016000*%
%ADD18R,1.040000X0.560000*%
%ADD19R,0.480000X0.320000*%
%ADD20R,0.320000X0.480000*%
%ADD21R,0.960000X1.120000*%
G04 APERTURE END LIST*
D10*
X186550000Y-83538000D03*
X186550000Y-83038000D03*
X186550000Y-82538000D03*
X186550000Y-82038000D03*
X186550000Y-81538000D03*
X186550000Y-81038000D03*
X186550000Y-80538000D03*
X186550000Y-80038000D03*
D11*
X185900000Y-79388000D03*
X185400000Y-79388000D03*
X184900000Y-79388000D03*
X184400000Y-79388000D03*
X183900000Y-79388000D03*
X183400000Y-79388000D03*
X182900000Y-79388000D03*
X182400000Y-79388000D03*
D10*
X181750000Y-80038000D03*
X181750000Y-80538000D03*
X181750000Y-81038000D03*
X181750000Y-81538000D03*
X181750000Y-82038000D03*
X181750000Y-82538000D03*
X181750000Y-83038000D03*
X181750000Y-83538000D03*
D11*
X182400000Y-84188000D03*
X182900000Y-84188000D03*
X183400000Y-84188000D03*
X183900000Y-84188000D03*
X184400000Y-84188000D03*
X184900000Y-84188000D03*
X185400000Y-84188000D03*
X185900000Y-84188000D03*
D12*
X183287500Y-80925500D03*
X183287500Y-82650500D03*
X185012500Y-80925500D03*
X185012500Y-82650500D03*
D13*
X191912000Y-80938000D03*
X191262000Y-80938000D03*
X190612000Y-80938000D03*
X190612000Y-82638000D03*
X191262000Y-82638000D03*
X191912000Y-82638000D03*
D14*
X183473000Y-76200000D03*
X184573000Y-76200000D03*
X182287000Y-76009500D03*
X181187000Y-76009500D03*
D15*
X177800000Y-79714000D03*
X177800000Y-80814000D03*
X179324000Y-88815000D03*
X179324000Y-87715000D03*
D14*
X187621000Y-86741000D03*
X186521000Y-86741000D03*
X186986000Y-88011000D03*
X185886000Y-88011000D03*
X181060000Y-90805000D03*
X182160000Y-90805000D03*
X193971000Y-80899000D03*
X192871000Y-80899000D03*
D16*
X203200000Y-83439000D03*
X203200000Y-78359000D03*
D17*
X203200000Y-80899000D03*
D18*
X189674500Y-77531000D03*
X189674500Y-75631000D03*
X186626500Y-89220000D03*
X186626500Y-91120000D03*
D19*
X177800000Y-78809000D03*
X177800000Y-77909000D03*
D20*
X186441500Y-76200000D03*
X185541500Y-76200000D03*
X188283000Y-76200000D03*
X187383000Y-76200000D03*
X189478500Y-88773000D03*
X190378500Y-88773000D03*
X192029500Y-88773000D03*
X191129500Y-88773000D03*
D19*
X196037200Y-81780800D03*
X196037200Y-80880800D03*
D21*
X182460000Y-89238000D03*
X182460000Y-87038000D03*
X180760000Y-87038000D03*
X180760000Y-89238000D03*
D19*
X178181000Y-84640000D03*
X178181000Y-85540000D03*
M02*
