G04 #@! TF.FileFunction,Soldermask,Top*
%FSLAX46Y46*%
G04 Gerber Fmt 4.6, Leading zero omitted, Abs format (unit mm)*
G04 Created by KiCad (PCBNEW 4.0.7) date Sat Oct 28 22:36:45 2017*
%MOMM*%
%LPD*%
G01*
G04 APERTURE LIST*
%ADD10C,0.100000*%
%ADD11C,0.150000*%
%ADD12R,0.350000X1.000000*%
%ADD13R,0.600000X0.500000*%
%ADD14R,0.500000X0.600000*%
%ADD15R,4.064000X1.524000*%
%ADD16R,4.064000X1.270000*%
%ADD17R,1.700000X1.700000*%
%ADD18O,1.700000X1.700000*%
%ADD19R,0.700000X1.300000*%
%ADD20R,1.300000X0.700000*%
%ADD21R,0.600000X0.400000*%
%ADD22R,0.400000X0.600000*%
%ADD23R,1.200000X0.280000*%
%ADD24R,0.280000X1.200000*%
%ADD25R,1.725000X1.725000*%
%ADD26R,1.200000X1.400000*%
G04 APERTURE END LIST*
D10*
D11*
X170815000Y-71374000D02*
X205790800Y-71374000D01*
X205790800Y-96291400D02*
X205790800Y-71374000D01*
X170815000Y-96291400D02*
X205790800Y-96291400D01*
X170815000Y-96291400D02*
X170815000Y-71374000D01*
D12*
X191912000Y-80938000D03*
X191262000Y-80938000D03*
X190612000Y-80938000D03*
X190612000Y-82638000D03*
X191262000Y-82638000D03*
X191912000Y-82638000D03*
D13*
X183473000Y-76200000D03*
X184573000Y-76200000D03*
X182287000Y-76009500D03*
X181187000Y-76009500D03*
D14*
X177800000Y-79714000D03*
X177800000Y-80814000D03*
X179324000Y-88815000D03*
X179324000Y-87715000D03*
D13*
X187621000Y-86741000D03*
X186521000Y-86741000D03*
X186986000Y-88011000D03*
X185886000Y-88011000D03*
X181060000Y-90805000D03*
X182160000Y-90805000D03*
X193971000Y-80899000D03*
X192871000Y-80899000D03*
D15*
X203835000Y-83413600D03*
X203835000Y-78333600D03*
D16*
X203835000Y-80873600D03*
D17*
X175260000Y-93980000D03*
D18*
X177800000Y-93980000D03*
X180340000Y-93980000D03*
X182880000Y-93980000D03*
X185420000Y-93980000D03*
X187960000Y-93980000D03*
X190500000Y-93980000D03*
D17*
X175260000Y-73660000D03*
D18*
X177800000Y-73660000D03*
X180340000Y-73660000D03*
X182880000Y-73660000D03*
X185420000Y-73660000D03*
X187960000Y-73660000D03*
X190500000Y-73660000D03*
D19*
X195387000Y-75184000D03*
X193487000Y-75184000D03*
D20*
X186626500Y-89220000D03*
X186626500Y-91120000D03*
D21*
X177800000Y-78809000D03*
X177800000Y-77909000D03*
D22*
X186441500Y-76200000D03*
X185541500Y-76200000D03*
X188283000Y-76200000D03*
X187383000Y-76200000D03*
X189478500Y-88773000D03*
X190378500Y-88773000D03*
X192029500Y-88773000D03*
X191129500Y-88773000D03*
D21*
X196037200Y-81780800D03*
X196037200Y-80880800D03*
D23*
X187400000Y-83538000D03*
X187400000Y-83038000D03*
X187400000Y-82538000D03*
X187400000Y-82038000D03*
X187400000Y-81538000D03*
X187400000Y-81038000D03*
X187400000Y-80538000D03*
X187400000Y-80038000D03*
D24*
X185900000Y-78538000D03*
X185400000Y-78538000D03*
X184900000Y-78538000D03*
X184400000Y-78538000D03*
X183900000Y-78538000D03*
X183400000Y-78538000D03*
X182900000Y-78538000D03*
X182400000Y-78538000D03*
D23*
X180900000Y-80038000D03*
X180900000Y-80538000D03*
X180900000Y-81038000D03*
X180900000Y-81538000D03*
X180900000Y-82038000D03*
X180900000Y-82538000D03*
X180900000Y-83038000D03*
X180900000Y-83538000D03*
D24*
X182400000Y-85038000D03*
X182900000Y-85038000D03*
X183400000Y-85038000D03*
X183900000Y-85038000D03*
X184400000Y-85038000D03*
X184900000Y-85038000D03*
X185400000Y-85038000D03*
X185900000Y-85038000D03*
D25*
X185012500Y-82650500D03*
X183287500Y-82650500D03*
X185012500Y-80925500D03*
X183287500Y-80925500D03*
D26*
X182460000Y-89238000D03*
X182460000Y-87038000D03*
X180760000Y-87038000D03*
X180760000Y-89238000D03*
D21*
X172897800Y-91955200D03*
X172897800Y-92855200D03*
M02*
