G04 #@! TF.FileFunction,Paste,Top*
%FSLAX46Y46*%
G04 Gerber Fmt 4.6, Leading zero omitted, Abs format (unit mm)*
G04 Created by KiCad (PCBNEW 4.0.7) date Sat Oct 28 23:11:14 2017*
%MOMM*%
%LPD*%
G01*
G04 APERTURE LIST*
%ADD10C,0.100000*%
%ADD11R,0.197600X0.847600*%
%ADD12R,0.447600X0.347600*%
%ADD13R,0.347600X0.447600*%
%ADD14R,3.911600X1.371600*%
%ADD15R,3.911600X1.117600*%
%ADD16R,0.547600X1.147600*%
%ADD17R,1.147600X0.547600*%
%ADD18R,0.447600X0.247600*%
%ADD19R,0.247600X0.447600*%
%ADD20R,1.047600X0.127600*%
%ADD21R,0.127600X1.047600*%
%ADD22R,1.020600X1.020600*%
%ADD23R,1.047600X1.247600*%
G04 APERTURE END LIST*
D10*
D11*
X191912000Y-80938000D03*
X191262000Y-80938000D03*
X190612000Y-80938000D03*
X190612000Y-82638000D03*
X191262000Y-82638000D03*
X191912000Y-82638000D03*
D12*
X183473000Y-76200000D03*
X184573000Y-76200000D03*
X182287000Y-76009500D03*
X181187000Y-76009500D03*
D13*
X177800000Y-79714000D03*
X177800000Y-80814000D03*
X179324000Y-88815000D03*
X179324000Y-87715000D03*
D12*
X187621000Y-86741000D03*
X186521000Y-86741000D03*
X186986000Y-88011000D03*
X185886000Y-88011000D03*
X181060000Y-90805000D03*
X182160000Y-90805000D03*
X193971000Y-80899000D03*
X192871000Y-80899000D03*
D14*
X203200000Y-83439000D03*
X203200000Y-78359000D03*
D15*
X203200000Y-80899000D03*
D16*
X195387000Y-75184000D03*
X193487000Y-75184000D03*
D17*
X186626500Y-89220000D03*
X186626500Y-91120000D03*
D18*
X177800000Y-78809000D03*
X177800000Y-77909000D03*
D19*
X186441500Y-76200000D03*
X185541500Y-76200000D03*
X188283000Y-76200000D03*
X187383000Y-76200000D03*
X189478500Y-88773000D03*
X190378500Y-88773000D03*
X192029500Y-88773000D03*
X191129500Y-88773000D03*
D18*
X196037200Y-81780800D03*
X196037200Y-80880800D03*
D20*
X187400000Y-83538000D03*
X187400000Y-83038000D03*
X187400000Y-82538000D03*
X187400000Y-82038000D03*
X187400000Y-81538000D03*
X187400000Y-81038000D03*
X187400000Y-80538000D03*
X187400000Y-80038000D03*
D21*
X185900000Y-78538000D03*
X185400000Y-78538000D03*
X184900000Y-78538000D03*
X184400000Y-78538000D03*
X183900000Y-78538000D03*
X183400000Y-78538000D03*
X182900000Y-78538000D03*
X182400000Y-78538000D03*
D20*
X180900000Y-80038000D03*
X180900000Y-80538000D03*
X180900000Y-81038000D03*
X180900000Y-81538000D03*
X180900000Y-82038000D03*
X180900000Y-82538000D03*
X180900000Y-83038000D03*
X180900000Y-83538000D03*
D21*
X182400000Y-85038000D03*
X182900000Y-85038000D03*
X183400000Y-85038000D03*
X183900000Y-85038000D03*
X184400000Y-85038000D03*
X184900000Y-85038000D03*
X185400000Y-85038000D03*
X185900000Y-85038000D03*
D22*
X185012500Y-82650500D03*
X183287500Y-82650500D03*
X185012500Y-80925500D03*
X183287500Y-80925500D03*
D23*
X182460000Y-89238000D03*
X182460000Y-87038000D03*
X180760000Y-87038000D03*
X180760000Y-89238000D03*
D18*
X172897800Y-91955200D03*
X172897800Y-92855200D03*
M02*
