G04 #@! TF.GenerationSoftware,KiCad,Pcbnew,(2017-11-30 revision 069448f20)-master*
G04 #@! TF.CreationDate,2017-12-01T23:13:36+02:00*
G04 #@! TF.ProjectId,at86rf212b_2l,617438367266323132625F326C2E6B69,rev?*
G04 #@! TF.SameCoordinates,Original*
G04 #@! TF.FileFunction,Copper,L2,Bot,Signal*
G04 #@! TF.FilePolarity,Positive*
%FSLAX46Y46*%
G04 Gerber Fmt 4.6, Leading zero omitted, Abs format (unit mm)*
G04 Created by KiCad (PCBNEW (2017-11-30 revision 069448f20)-master) date Fri Dec  1 23:13:36 2017*
%MOMM*%
%LPD*%
G01*
G04 APERTURE LIST*
%ADD10R,4.064000X1.524000*%
%ADD11R,1.700000X1.700000*%
%ADD12O,1.700000X1.700000*%
%ADD13C,0.400000*%
%ADD14C,0.200000*%
%ADD15C,0.152000*%
%ADD16C,0.300000*%
%ADD17C,0.254000*%
G04 APERTURE END LIST*
D10*
X203200000Y-83439000D03*
X203200000Y-78359000D03*
D11*
X175260000Y-93980000D03*
D12*
X177800000Y-93980000D03*
X180340000Y-93980000D03*
X182880000Y-93980000D03*
X185420000Y-93980000D03*
X187960000Y-93980000D03*
X190500000Y-93980000D03*
D11*
X175260000Y-73660000D03*
D12*
X177800000Y-73660000D03*
X180340000Y-73660000D03*
X182880000Y-73660000D03*
X185420000Y-73660000D03*
X187960000Y-73660000D03*
X190500000Y-73660000D03*
D13*
X181406800Y-85191600D03*
X183565800Y-85064600D03*
X182422800Y-85852000D03*
X187731400Y-82575400D03*
X188595000Y-82550000D03*
X187731400Y-81076800D03*
X180289200Y-85369400D03*
X181991000Y-91440000D03*
X182880000Y-91440000D03*
X183515000Y-90805000D03*
X183642000Y-89916000D03*
X183642000Y-89154000D03*
X181102000Y-91440000D03*
X180213000Y-91440000D03*
X179578000Y-86106000D03*
X179197000Y-86741000D03*
X178435000Y-86868000D03*
X178435000Y-87757000D03*
X178435000Y-88773000D03*
X178435000Y-89535000D03*
X179324000Y-89916000D03*
X179705000Y-90805000D03*
X184023000Y-87122000D03*
X184023000Y-87820500D03*
X183896000Y-88392000D03*
X184023000Y-86512400D03*
X182448200Y-85166200D03*
X189865000Y-86995000D03*
X189230000Y-86360000D03*
X188595000Y-85725000D03*
X187706000Y-85090000D03*
X186690000Y-85090000D03*
X187413900Y-78460600D03*
X183287500Y-80925500D03*
X180848000Y-78486000D03*
X204470000Y-87630000D03*
X204470000Y-88900000D03*
X204470000Y-90170000D03*
X204470000Y-91440000D03*
X204470000Y-92710000D03*
X204470000Y-93980000D03*
X204470000Y-95250000D03*
X203200000Y-95250000D03*
X201930000Y-95250000D03*
X200660000Y-95250000D03*
X199390000Y-95250000D03*
X198120000Y-95250000D03*
X196850000Y-95250000D03*
X195580000Y-95250000D03*
X194310000Y-95250000D03*
X194310000Y-93980000D03*
X195580000Y-93980000D03*
X196850000Y-93980000D03*
X198120000Y-93980000D03*
X199390000Y-93980000D03*
X200660000Y-93980000D03*
X201930000Y-93980000D03*
X203200000Y-93980000D03*
X203200000Y-92710000D03*
X201930000Y-92710000D03*
X200660000Y-92710000D03*
X199390000Y-92710000D03*
X198120000Y-92710000D03*
X196850000Y-92710000D03*
X195580000Y-92710000D03*
X194310000Y-92710000D03*
X194310000Y-91440000D03*
X195580000Y-91440000D03*
X196850000Y-91440000D03*
X198120000Y-91440000D03*
X199390000Y-91440000D03*
X200660000Y-91440000D03*
X201930000Y-91440000D03*
X203200000Y-91440000D03*
X203200000Y-90170000D03*
X201930000Y-90170000D03*
X200660000Y-90170000D03*
X199390000Y-90170000D03*
X198120000Y-90170000D03*
X196850000Y-90170000D03*
X195580000Y-90170000D03*
X194310000Y-90170000D03*
X194310000Y-88900000D03*
X195580000Y-88900000D03*
X196850000Y-88900000D03*
X198120000Y-88900000D03*
X199390000Y-88900000D03*
X200660000Y-88900000D03*
X201930000Y-88900000D03*
X203200000Y-88900000D03*
X203200000Y-87630000D03*
X201930000Y-87630000D03*
X200660000Y-87630000D03*
X199390000Y-87630000D03*
X198120000Y-87630000D03*
X196850000Y-87630000D03*
X195580000Y-87630000D03*
X194310000Y-87630000D03*
X192024000Y-87820500D03*
X194310000Y-78740000D03*
X194310000Y-77470000D03*
X193040000Y-77470000D03*
X191770000Y-77470000D03*
X191770000Y-78740000D03*
X193040000Y-78740000D03*
X193040000Y-80010000D03*
X194310000Y-80010000D03*
X195580000Y-80010000D03*
X196850000Y-80010000D03*
X198120000Y-80010000D03*
X199390000Y-80010000D03*
X200660000Y-80010000D03*
X204597000Y-79756000D03*
X203581000Y-79756000D03*
X202565000Y-79756000D03*
X201549000Y-79756000D03*
X196850000Y-81788000D03*
X198120000Y-81788000D03*
X199390000Y-81788000D03*
X200660000Y-81788000D03*
X204597000Y-82042000D03*
X203581000Y-82042000D03*
X202565000Y-82042000D03*
X201549000Y-82042000D03*
X200660000Y-82550000D03*
X199390000Y-82550000D03*
X198120000Y-82550000D03*
X196850000Y-82550000D03*
X195580000Y-82550000D03*
X194310000Y-82550000D03*
X188595000Y-88963500D03*
X189865000Y-87820500D03*
X188595000Y-87884000D03*
X193040000Y-83820000D03*
X198120000Y-85090000D03*
X200660000Y-83820000D03*
X199390000Y-83820000D03*
X198120000Y-83820000D03*
X196850000Y-83820000D03*
X195580000Y-83820000D03*
X194310000Y-83820000D03*
X194310000Y-85090000D03*
X195580000Y-85090000D03*
X196850000Y-85090000D03*
X192786000Y-83439000D03*
X192913000Y-82931000D03*
X192913000Y-82296000D03*
X195199000Y-81788000D03*
X194310000Y-81788000D03*
X193548000Y-81788000D03*
X193040000Y-85090000D03*
X199390000Y-85090000D03*
X200660000Y-85090000D03*
X201930000Y-85090000D03*
X203200000Y-85090000D03*
X204470000Y-85090000D03*
X204470000Y-86360000D03*
X203200000Y-86360000D03*
X201930000Y-86360000D03*
X200660000Y-86360000D03*
X199390000Y-86360000D03*
X198120000Y-86360000D03*
X196850000Y-86360000D03*
X195580000Y-86360000D03*
X194310000Y-86360000D03*
X193040000Y-86360000D03*
X191770000Y-86360000D03*
X191770000Y-85090000D03*
X200660000Y-78740000D03*
X199390000Y-78740000D03*
X198120000Y-78740000D03*
X196850000Y-78740000D03*
X195580000Y-78740000D03*
X203200000Y-76200000D03*
X204470000Y-76200000D03*
X204470000Y-74930000D03*
X203200000Y-74930000D03*
X201930000Y-74930000D03*
X200660000Y-74930000D03*
X199390000Y-74930000D03*
X198120000Y-74930000D03*
X196850000Y-74930000D03*
X195580000Y-73660000D03*
X196850000Y-73660000D03*
X198120000Y-73660000D03*
X199390000Y-73660000D03*
X200660000Y-73660000D03*
X201930000Y-73660000D03*
X203200000Y-73660000D03*
X204470000Y-73660000D03*
X204470000Y-72390000D03*
X203200000Y-72390000D03*
X201930000Y-76200000D03*
X200660000Y-76200000D03*
X199390000Y-76200000D03*
X198120000Y-76200000D03*
X196850000Y-76200000D03*
X195580000Y-77470000D03*
X196850000Y-77470000D03*
X198120000Y-77470000D03*
X199390000Y-77470000D03*
X200660000Y-77470000D03*
X189865000Y-80391000D03*
X190627000Y-80010000D03*
X188595000Y-81089500D03*
X189357000Y-80899000D03*
X192024000Y-83693000D03*
X191262000Y-83693000D03*
X192024000Y-79883000D03*
X190627000Y-83629500D03*
X189928500Y-83312000D03*
X189357000Y-82931000D03*
X191262000Y-79883000D03*
X191262000Y-81788000D03*
X183287500Y-82650500D03*
X185039000Y-82677000D03*
X185012500Y-80925500D03*
X201930000Y-72390000D03*
X200660000Y-72390000D03*
X199390000Y-72390000D03*
X198120000Y-72390000D03*
X196850000Y-72390000D03*
X195580000Y-72390000D03*
X181889400Y-75234800D03*
X175006000Y-91846400D03*
X184378600Y-92481400D03*
X171704000Y-89535000D03*
X179070000Y-77089000D03*
X179070000Y-81153000D03*
X177490120Y-86161880D03*
X182626000Y-75184000D03*
X184912000Y-76962000D03*
X175666400Y-87630000D03*
X175666400Y-89598500D03*
X175666400Y-85725000D03*
X193852800Y-76123800D03*
X187909200Y-80492600D03*
X174625000Y-85725000D03*
X174625000Y-87630000D03*
X174625000Y-89598500D03*
X174688500Y-90424000D03*
X173736000Y-91694000D03*
X173736000Y-92760800D03*
X175006000Y-92646500D03*
X177355500Y-84772500D03*
X177165000Y-82550000D03*
X175895000Y-82550000D03*
X174625000Y-82550000D03*
X178625500Y-82486500D03*
X186309000Y-75565000D03*
X185801000Y-75120500D03*
X187579000Y-75120500D03*
X192087500Y-93091000D03*
X192087500Y-93980000D03*
X192087500Y-94932500D03*
X188722000Y-95504000D03*
X189992000Y-95504000D03*
X191262000Y-95504000D03*
X187452000Y-95504000D03*
X186182000Y-95504000D03*
X184912000Y-95504000D03*
X183642000Y-95504000D03*
X173355000Y-95250000D03*
X172085000Y-95250000D03*
X172085000Y-93345000D03*
X172085000Y-91440000D03*
X174498000Y-95504000D03*
X176022000Y-95504000D03*
X177292000Y-95504000D03*
X178562000Y-95504000D03*
X179832000Y-95504000D03*
X181102000Y-95504000D03*
X182372000Y-95504000D03*
X173355000Y-74295000D03*
X173355000Y-76200000D03*
X173355000Y-78105000D03*
X173355000Y-80010000D03*
X173355000Y-73025000D03*
X174625000Y-83820000D03*
X184573000Y-75523000D03*
X174625000Y-81280000D03*
X173355000Y-81915000D03*
X173355000Y-83820000D03*
X173355000Y-85725000D03*
X173355000Y-87630000D03*
X173355000Y-89535000D03*
X176530000Y-75565000D03*
X179705000Y-75565000D03*
X175768000Y-80772000D03*
X176530000Y-76835000D03*
X175260000Y-79375000D03*
X186690000Y-72390000D03*
D14*
X183565800Y-85064600D02*
X183565800Y-85420200D01*
X183134000Y-85852000D02*
X182422800Y-85852000D01*
X183565800Y-85420200D02*
X183134000Y-85852000D01*
X187655200Y-82575400D02*
X187731400Y-82575400D01*
X187629800Y-82550000D02*
X187655200Y-82575400D01*
X187706000Y-81076800D02*
X187731400Y-81076800D01*
X182880000Y-91440000D02*
X183515000Y-90805000D01*
X183642000Y-89916000D02*
X183642000Y-89154000D01*
X179705000Y-90932000D02*
X180213000Y-91440000D01*
X179705000Y-90805000D02*
X179705000Y-90932000D01*
X179578000Y-86106000D02*
X179197000Y-86487000D01*
X179197000Y-86487000D02*
X179197000Y-86741000D01*
X178435000Y-86868000D02*
X178435000Y-87757000D01*
X178435000Y-88773000D02*
X178435000Y-89535000D01*
X179324000Y-89916000D02*
X179705000Y-90297000D01*
X179705000Y-90297000D02*
X179705000Y-90805000D01*
X181102000Y-91440000D02*
X181991000Y-91440000D01*
X184023000Y-88265000D02*
X184023000Y-87820500D01*
X183896000Y-88392000D02*
X184023000Y-88265000D01*
D15*
X184023000Y-86512400D02*
X184061100Y-86550500D01*
D14*
X182448200Y-85166200D02*
X182499000Y-85217000D01*
X188595000Y-85725000D02*
X189230000Y-86360000D01*
X186690000Y-85090000D02*
X187706000Y-85090000D01*
X189865000Y-86995000D02*
X189865000Y-87820500D01*
X185012500Y-80925500D02*
X185012500Y-80862000D01*
X185012500Y-80862000D02*
X187413900Y-78460600D01*
X183299100Y-80937100D02*
X183299100Y-80924400D01*
X183299100Y-80924400D02*
X180848000Y-78486000D01*
X204470000Y-87630000D02*
X204470000Y-88900000D01*
X204470000Y-90170000D02*
X204470000Y-91440000D01*
X204470000Y-92710000D02*
X204470000Y-93980000D01*
X204470000Y-95250000D02*
X203200000Y-95250000D01*
X201930000Y-95250000D02*
X200660000Y-95250000D01*
X199390000Y-95250000D02*
X198120000Y-95250000D01*
X196850000Y-95250000D02*
X195580000Y-95250000D01*
X194310000Y-95250000D02*
X194310000Y-93980000D01*
X195580000Y-93980000D02*
X196850000Y-93980000D01*
X198120000Y-93980000D02*
X199390000Y-93980000D01*
X200660000Y-93980000D02*
X201930000Y-93980000D01*
X203200000Y-93980000D02*
X203200000Y-92710000D01*
X201930000Y-92710000D02*
X200660000Y-92710000D01*
X199390000Y-92710000D02*
X198120000Y-92710000D01*
X196850000Y-92710000D02*
X195580000Y-92710000D01*
X194310000Y-92710000D02*
X194310000Y-91440000D01*
X195580000Y-91440000D02*
X196850000Y-91440000D01*
X198120000Y-91440000D02*
X199390000Y-91440000D01*
X200660000Y-91440000D02*
X201930000Y-91440000D01*
X203200000Y-91440000D02*
X203200000Y-90170000D01*
X201930000Y-90170000D02*
X200660000Y-90170000D01*
X199390000Y-90170000D02*
X198120000Y-90170000D01*
X196850000Y-90170000D02*
X195580000Y-90170000D01*
X194310000Y-90170000D02*
X194310000Y-88900000D01*
X195580000Y-88900000D02*
X196850000Y-88900000D01*
X198120000Y-88900000D02*
X199390000Y-88900000D01*
X200660000Y-88900000D02*
X201930000Y-88900000D01*
X203200000Y-88900000D02*
X203200000Y-87630000D01*
X201930000Y-87630000D02*
X200660000Y-87630000D01*
X199390000Y-87630000D02*
X198120000Y-87630000D01*
X196850000Y-87630000D02*
X195580000Y-87630000D01*
X189865000Y-87820500D02*
X192024000Y-87820500D01*
X200660000Y-80010000D02*
X200660000Y-79883000D01*
X194310000Y-78740000D02*
X194310000Y-77470000D01*
X193040000Y-77470000D02*
X191770000Y-77470000D01*
X191770000Y-78740000D02*
X193040000Y-78740000D01*
X193040000Y-80010000D02*
X194310000Y-80010000D01*
X195580000Y-80010000D02*
X196850000Y-80010000D01*
X198120000Y-80010000D02*
X199390000Y-80010000D01*
X202565000Y-79756000D02*
X203581000Y-79756000D01*
X200787000Y-79756000D02*
X201549000Y-79756000D01*
X200660000Y-79883000D02*
X200787000Y-79756000D01*
X196850000Y-81788000D02*
X198120000Y-81788000D01*
X199390000Y-81788000D02*
X200660000Y-81788000D01*
X203581000Y-82042000D02*
X204597000Y-82042000D01*
X201549000Y-82042000D02*
X202565000Y-82042000D01*
X199390000Y-82550000D02*
X200660000Y-82550000D01*
X196850000Y-82550000D02*
X198120000Y-82550000D01*
X194310000Y-82550000D02*
X195580000Y-82550000D01*
X188595000Y-87884000D02*
X188595000Y-88963500D01*
X193040000Y-85090000D02*
X193040000Y-83820000D01*
X196850000Y-86360000D02*
X198120000Y-85090000D01*
X198120000Y-83820000D02*
X199390000Y-83820000D01*
X195580000Y-83820000D02*
X196850000Y-83820000D01*
X194310000Y-85090000D02*
X194310000Y-83820000D01*
X196850000Y-85090000D02*
X195580000Y-85090000D01*
X192786000Y-83439000D02*
X192913000Y-83312000D01*
X192913000Y-83312000D02*
X192913000Y-82931000D01*
X195326000Y-81661000D02*
X196088000Y-81788000D01*
X195199000Y-81788000D02*
X195326000Y-81661000D01*
X193548000Y-81788000D02*
X194310000Y-81788000D01*
X191770000Y-85090000D02*
X193040000Y-85090000D01*
X201930000Y-85090000D02*
X200660000Y-85090000D01*
X204470000Y-85090000D02*
X203200000Y-85090000D01*
X203200000Y-86360000D02*
X204470000Y-86360000D01*
X200660000Y-86360000D02*
X201930000Y-86360000D01*
X198120000Y-86360000D02*
X199390000Y-86360000D01*
X195580000Y-86360000D02*
X196850000Y-86360000D01*
X193040000Y-86360000D02*
X194310000Y-86360000D01*
X191770000Y-85090000D02*
X191770000Y-86360000D01*
X202361800Y-78333600D02*
X203835000Y-78333600D01*
X195580000Y-77470000D02*
X195580000Y-78740000D01*
X199390000Y-78740000D02*
X200660000Y-78740000D01*
X196850000Y-78740000D02*
X198120000Y-78740000D01*
X204470000Y-74930000D02*
X204470000Y-76200000D01*
X201930000Y-74930000D02*
X203200000Y-74930000D01*
X199390000Y-74930000D02*
X200660000Y-74930000D01*
X196850000Y-74930000D02*
X198120000Y-74930000D01*
X196850000Y-73660000D02*
X195580000Y-73660000D01*
X199390000Y-73660000D02*
X198120000Y-73660000D01*
X201930000Y-73660000D02*
X200660000Y-73660000D01*
X204470000Y-73660000D02*
X203200000Y-73660000D01*
X203200000Y-72390000D02*
X204470000Y-72390000D01*
X203200000Y-76200000D02*
X201930000Y-76200000D01*
X200660000Y-76200000D02*
X199390000Y-76200000D01*
X198120000Y-76200000D02*
X196850000Y-76200000D01*
X195580000Y-77470000D02*
X196850000Y-77470000D01*
X198120000Y-77470000D02*
X199390000Y-77470000D01*
X201930000Y-76200000D02*
X203200000Y-76200000D01*
X203200000Y-76200000D02*
X203809600Y-76809600D01*
X189865000Y-80391000D02*
X190119000Y-79883000D01*
X190119000Y-79883000D02*
X190627000Y-80010000D01*
X188849000Y-80772000D02*
X189357000Y-80899000D01*
X188595000Y-81089500D02*
X188849000Y-80772000D01*
X192024000Y-83693000D02*
X191262000Y-83693000D01*
X190119000Y-83693000D02*
X189928500Y-83312000D01*
X190119000Y-83693000D02*
X190627000Y-83629500D01*
X189357000Y-82931000D02*
X191262000Y-82931000D01*
X191262000Y-82931000D02*
X192151000Y-83820000D01*
X191262000Y-80899000D02*
X191262000Y-79883000D01*
X191262000Y-81788000D02*
X191262000Y-82677000D01*
X183261000Y-80899000D02*
X183299100Y-80937100D01*
X183299100Y-80937100D02*
X183287500Y-80925500D01*
X183287500Y-82650500D02*
X183261000Y-82677000D01*
X185012500Y-80925500D02*
X185039000Y-80899000D01*
X200660000Y-72390000D02*
X201930000Y-72390000D01*
X198120000Y-72390000D02*
X199390000Y-72390000D01*
X195580000Y-72390000D02*
X196850000Y-72390000D01*
D16*
X171704000Y-72898000D02*
X171704000Y-89535000D01*
X171704000Y-72644000D02*
X172212000Y-72136000D01*
X172212000Y-72136000D02*
X181406800Y-72136000D01*
X181889400Y-75234800D02*
X181610000Y-74955400D01*
X181610000Y-74955400D02*
X181610000Y-72339200D01*
X181610000Y-72339200D02*
X181406800Y-72136000D01*
X175006000Y-91846400D02*
X175641000Y-92481400D01*
X175641000Y-92481400D02*
X184378600Y-92481400D01*
X171704000Y-72898000D02*
X171704000Y-72644000D01*
D14*
X179070000Y-81153000D02*
X179070000Y-77089000D01*
X176460150Y-90176350D02*
X176804320Y-89832180D01*
X176804320Y-86847680D02*
X177490120Y-86161880D01*
X176804320Y-89832180D02*
X176804320Y-86847680D01*
X174371000Y-91757500D02*
X174371000Y-93091000D01*
X174942500Y-91186000D02*
X174371000Y-91757500D01*
X175450500Y-91186000D02*
X174942500Y-91186000D01*
X176466500Y-90170000D02*
X176460150Y-90176350D01*
X176460150Y-90176350D02*
X175450500Y-91186000D01*
X174371000Y-93091000D02*
X175260000Y-93980000D01*
X174371000Y-93091000D02*
X175260000Y-93980000D01*
X183134000Y-75184000D02*
X182626000Y-75184000D01*
X184912000Y-76962000D02*
X183134000Y-75184000D01*
X175666400Y-87630000D02*
X175676560Y-87619840D01*
X174625000Y-85725000D02*
X174975520Y-85725000D01*
X193522600Y-76454000D02*
X193852800Y-76123800D01*
X191389000Y-76454000D02*
X193522600Y-76454000D01*
X191185800Y-76657200D02*
X191389000Y-76454000D01*
X191185800Y-78105000D02*
X191185800Y-76657200D01*
X190677800Y-78613000D02*
X191185800Y-78105000D01*
X190093600Y-78613000D02*
X190677800Y-78613000D01*
X188671200Y-80035400D02*
X190093600Y-78613000D01*
X188366400Y-80035400D02*
X188671200Y-80035400D01*
X187909200Y-80492600D02*
X188366400Y-80035400D01*
X174625000Y-89598500D02*
X174625000Y-87630000D01*
X173736000Y-91694000D02*
X173736000Y-91376500D01*
X173736000Y-91376500D02*
X174688500Y-90424000D01*
X174625000Y-85725000D02*
X176403000Y-85725000D01*
X176403000Y-85725000D02*
X177355500Y-84772500D01*
X177927000Y-82931000D02*
X177546000Y-82550000D01*
X177546000Y-82550000D02*
X177165000Y-82550000D01*
X174625000Y-82550000D02*
X175895000Y-82550000D01*
X178625500Y-82486500D02*
X177927000Y-82931000D01*
X187579000Y-75120500D02*
X185801000Y-75120500D01*
X192087500Y-94932500D02*
X191833500Y-94932500D01*
X192087500Y-93091000D02*
X192087500Y-93980000D01*
X189992000Y-95504000D02*
X188722000Y-95504000D01*
X191833500Y-94932500D02*
X191262000Y-95504000D01*
X187452000Y-95504000D02*
X186182000Y-95504000D01*
X184912000Y-95504000D02*
X183642000Y-95504000D01*
X172085000Y-93345000D02*
X172085000Y-95250000D01*
X173482000Y-95250000D02*
X173355000Y-95250000D01*
X173736000Y-95504000D02*
X173482000Y-95250000D01*
X174498000Y-95504000D02*
X173736000Y-95504000D01*
X177292000Y-95504000D02*
X176022000Y-95504000D01*
X179832000Y-95504000D02*
X178562000Y-95504000D01*
X182372000Y-95504000D02*
X181102000Y-95504000D01*
X173355000Y-76200000D02*
X173355000Y-74295000D01*
X173355000Y-80010000D02*
X173355000Y-78105000D01*
X174625000Y-83820000D02*
X174625000Y-85725000D01*
X184573000Y-75523000D02*
X184594500Y-75501500D01*
X173355000Y-89535000D02*
X172085000Y-90805000D01*
X172085000Y-90805000D02*
X172085000Y-91440000D01*
X172085000Y-91440000D02*
X172085000Y-90805000D01*
X175133000Y-80772000D02*
X175768000Y-80772000D01*
X174625000Y-81280000D02*
X175133000Y-80772000D01*
X173355000Y-83820000D02*
X173355000Y-81915000D01*
X173355000Y-87630000D02*
X173355000Y-85725000D01*
X176530000Y-75565000D02*
X179705000Y-75565000D01*
X175260000Y-78105000D02*
X176530000Y-76835000D01*
X175260000Y-79375000D02*
X175260000Y-78105000D01*
X186690000Y-72390000D02*
X189230000Y-72390000D01*
X189230000Y-72390000D02*
X190500000Y-73660000D01*
D17*
G36*
X183730900Y-85953600D02*
X183740567Y-86002201D01*
X183773801Y-86048765D01*
X184277000Y-86493452D01*
X184277000Y-90810508D01*
X183404124Y-91567000D01*
X179705000Y-91567000D01*
X179705000Y-90805000D01*
X179695333Y-90756399D01*
X179667803Y-90715197D01*
X179626601Y-90687667D01*
X179578000Y-90678000D01*
X179197000Y-90678000D01*
X179197000Y-89916000D01*
X179187333Y-89867399D01*
X179159803Y-89826197D01*
X179118601Y-89798667D01*
X179070000Y-89789000D01*
X178231800Y-89789000D01*
X178231800Y-86741000D01*
X178308000Y-86741000D01*
X178356601Y-86731333D01*
X178391472Y-86709715D01*
X180539999Y-84836000D01*
X183730900Y-84836000D01*
X183730900Y-85953600D01*
X183730900Y-85953600D01*
G37*
X183730900Y-85953600D02*
X183740567Y-86002201D01*
X183773801Y-86048765D01*
X184277000Y-86493452D01*
X184277000Y-90810508D01*
X183404124Y-91567000D01*
X179705000Y-91567000D01*
X179705000Y-90805000D01*
X179695333Y-90756399D01*
X179667803Y-90715197D01*
X179626601Y-90687667D01*
X179578000Y-90678000D01*
X179197000Y-90678000D01*
X179197000Y-89916000D01*
X179187333Y-89867399D01*
X179159803Y-89826197D01*
X179118601Y-89798667D01*
X179070000Y-89789000D01*
X178231800Y-89789000D01*
X178231800Y-86741000D01*
X178308000Y-86741000D01*
X178356601Y-86731333D01*
X178391472Y-86709715D01*
X180539999Y-84836000D01*
X183730900Y-84836000D01*
X183730900Y-85953600D01*
G36*
X174208853Y-72608853D02*
X174147189Y-72701140D01*
X174125535Y-72810000D01*
X174125535Y-74510000D01*
X174147189Y-74618860D01*
X174208853Y-74711147D01*
X174301140Y-74772811D01*
X174410000Y-74794465D01*
X176110000Y-74794465D01*
X176218860Y-74772811D01*
X176311147Y-74711147D01*
X176372811Y-74618860D01*
X176394465Y-74510000D01*
X176394465Y-72810000D01*
X176372811Y-72701140D01*
X176311147Y-72608853D01*
X176245516Y-72565000D01*
X177517875Y-72565000D01*
X177367950Y-72594822D01*
X177001676Y-72839558D01*
X176756940Y-73205832D01*
X176671000Y-73637882D01*
X176671000Y-73682118D01*
X176756940Y-74114168D01*
X177001676Y-74480442D01*
X177367950Y-74725178D01*
X177800000Y-74811118D01*
X178232050Y-74725178D01*
X178598324Y-74480442D01*
X178843060Y-74114168D01*
X178929000Y-73682118D01*
X178929000Y-73637882D01*
X178843060Y-73205832D01*
X178598324Y-72839558D01*
X178232050Y-72594822D01*
X178082125Y-72565000D01*
X180057875Y-72565000D01*
X179907950Y-72594822D01*
X179541676Y-72839558D01*
X179296940Y-73205832D01*
X179211000Y-73637882D01*
X179211000Y-73682118D01*
X179296940Y-74114168D01*
X179541676Y-74480442D01*
X179907950Y-74725178D01*
X180340000Y-74811118D01*
X180772050Y-74725178D01*
X181138324Y-74480442D01*
X181181000Y-74416573D01*
X181181000Y-74955400D01*
X181213656Y-75119571D01*
X181306651Y-75258749D01*
X181433380Y-75385478D01*
X181483087Y-75505777D01*
X181617714Y-75640640D01*
X181793703Y-75713717D01*
X181984261Y-75713883D01*
X182160377Y-75641113D01*
X182283152Y-75518553D01*
X182354314Y-75589840D01*
X182530303Y-75662917D01*
X182720861Y-75663083D01*
X182896977Y-75590313D01*
X182924338Y-75563000D01*
X182977014Y-75563000D01*
X183614014Y-76200000D01*
X178816000Y-76200000D01*
X178767399Y-76209667D01*
X178726197Y-76237197D01*
X178698667Y-76278399D01*
X178689000Y-76327000D01*
X178689000Y-76792517D01*
X178664160Y-76817314D01*
X178591083Y-76993303D01*
X178590917Y-77183861D01*
X178663687Y-77359977D01*
X178689000Y-77385334D01*
X178689000Y-80856517D01*
X178664160Y-80881314D01*
X178591083Y-81057303D01*
X178590917Y-81247861D01*
X178663687Y-81423977D01*
X178689000Y-81449334D01*
X178689000Y-84821058D01*
X177769796Y-85471000D01*
X177292000Y-85471000D01*
X177243399Y-85480667D01*
X177202197Y-85508197D01*
X177174667Y-85549399D01*
X177165000Y-85598000D01*
X177165000Y-85809615D01*
X177084280Y-85890194D01*
X177011203Y-86066183D01*
X177011169Y-86104844D01*
X176536327Y-86579687D01*
X176454170Y-86702643D01*
X176425320Y-86847680D01*
X176425320Y-89675193D01*
X176198509Y-89902005D01*
X176198506Y-89902007D01*
X176192160Y-89908354D01*
X176192157Y-89908356D01*
X175293514Y-90807000D01*
X174942500Y-90807000D01*
X174797463Y-90835850D01*
X174674506Y-90918007D01*
X174103007Y-91489507D01*
X174020850Y-91612463D01*
X173992000Y-91757500D01*
X173992000Y-93091000D01*
X174011477Y-93188917D01*
X174020850Y-93236037D01*
X174103007Y-93358993D01*
X174125535Y-93381521D01*
X174125535Y-94830000D01*
X174147189Y-94938860D01*
X174208853Y-95031147D01*
X174301140Y-95092811D01*
X174410000Y-95114465D01*
X176110000Y-95114465D01*
X176218860Y-95092811D01*
X176311147Y-95031147D01*
X176372811Y-94938860D01*
X176394465Y-94830000D01*
X176394465Y-93130000D01*
X176372811Y-93021140D01*
X176311147Y-92928853D01*
X176283530Y-92910400D01*
X177390181Y-92910400D01*
X177367950Y-92914822D01*
X177001676Y-93159558D01*
X176756940Y-93525832D01*
X176671000Y-93957882D01*
X176671000Y-94002118D01*
X176756940Y-94434168D01*
X177001676Y-94800442D01*
X177367950Y-95045178D01*
X177800000Y-95131118D01*
X178232050Y-95045178D01*
X178598324Y-94800442D01*
X178843060Y-94434168D01*
X178929000Y-94002118D01*
X178929000Y-93957882D01*
X178843060Y-93525832D01*
X178598324Y-93159558D01*
X178232050Y-92914822D01*
X178209819Y-92910400D01*
X179930181Y-92910400D01*
X179907950Y-92914822D01*
X179541676Y-93159558D01*
X179296940Y-93525832D01*
X179211000Y-93957882D01*
X179211000Y-94002118D01*
X179296940Y-94434168D01*
X179541676Y-94800442D01*
X179907950Y-95045178D01*
X180340000Y-95131118D01*
X180772050Y-95045178D01*
X181138324Y-94800442D01*
X181383060Y-94434168D01*
X181469000Y-94002118D01*
X181469000Y-93957882D01*
X181383060Y-93525832D01*
X181138324Y-93159558D01*
X180772050Y-92914822D01*
X180749819Y-92910400D01*
X182470181Y-92910400D01*
X182447950Y-92914822D01*
X182081676Y-93159558D01*
X181836940Y-93525832D01*
X181751000Y-93957882D01*
X181751000Y-94002118D01*
X181836940Y-94434168D01*
X182081676Y-94800442D01*
X182447950Y-95045178D01*
X182880000Y-95131118D01*
X183312050Y-95045178D01*
X183678324Y-94800442D01*
X183923060Y-94434168D01*
X184009000Y-94002118D01*
X184009000Y-93957882D01*
X184291000Y-93957882D01*
X184291000Y-94002118D01*
X184376940Y-94434168D01*
X184621676Y-94800442D01*
X184987950Y-95045178D01*
X185420000Y-95131118D01*
X185852050Y-95045178D01*
X186218324Y-94800442D01*
X186463060Y-94434168D01*
X186549000Y-94002118D01*
X186549000Y-93957882D01*
X186831000Y-93957882D01*
X186831000Y-94002118D01*
X186916940Y-94434168D01*
X187161676Y-94800442D01*
X187527950Y-95045178D01*
X187960000Y-95131118D01*
X188392050Y-95045178D01*
X188758324Y-94800442D01*
X189003060Y-94434168D01*
X189089000Y-94002118D01*
X189089000Y-93957882D01*
X189371000Y-93957882D01*
X189371000Y-94002118D01*
X189456940Y-94434168D01*
X189701676Y-94800442D01*
X190067950Y-95045178D01*
X190500000Y-95131118D01*
X190932050Y-95045178D01*
X191298324Y-94800442D01*
X191543060Y-94434168D01*
X191629000Y-94002118D01*
X191629000Y-93957882D01*
X191543060Y-93525832D01*
X191298324Y-93159558D01*
X190932050Y-92914822D01*
X190500000Y-92828882D01*
X190067950Y-92914822D01*
X189701676Y-93159558D01*
X189456940Y-93525832D01*
X189371000Y-93957882D01*
X189089000Y-93957882D01*
X189003060Y-93525832D01*
X188758324Y-93159558D01*
X188392050Y-92914822D01*
X187960000Y-92828882D01*
X187527950Y-92914822D01*
X187161676Y-93159558D01*
X186916940Y-93525832D01*
X186831000Y-93957882D01*
X186549000Y-93957882D01*
X186463060Y-93525832D01*
X186218324Y-93159558D01*
X185852050Y-92914822D01*
X185420000Y-92828882D01*
X184987950Y-92914822D01*
X184621676Y-93159558D01*
X184376940Y-93525832D01*
X184291000Y-93957882D01*
X184009000Y-93957882D01*
X183923060Y-93525832D01*
X183678324Y-93159558D01*
X183312050Y-92914822D01*
X183289819Y-92910400D01*
X184162689Y-92910400D01*
X184282903Y-92960317D01*
X184473461Y-92960483D01*
X184649577Y-92887713D01*
X184784440Y-92753086D01*
X184857517Y-92577097D01*
X184857683Y-92386539D01*
X184833908Y-92329000D01*
X185420000Y-92329000D01*
X185468601Y-92319333D01*
X185509803Y-92291803D01*
X185537333Y-92250601D01*
X185547000Y-92202000D01*
X185547000Y-90297000D01*
X186436000Y-90297000D01*
X186484601Y-90287333D01*
X186525803Y-90259803D01*
X186553333Y-90218601D01*
X186563000Y-90170000D01*
X192405000Y-90170000D01*
X192405000Y-95758000D01*
X171323000Y-95758000D01*
X171323000Y-89831334D01*
X171432314Y-89940840D01*
X171608303Y-90013917D01*
X171798861Y-90014083D01*
X171974977Y-89941313D01*
X172109840Y-89806686D01*
X172182917Y-89630697D01*
X172183083Y-89440139D01*
X172133000Y-89318929D01*
X172133000Y-72821698D01*
X172389697Y-72565000D01*
X174274484Y-72565000D01*
X174208853Y-72608853D01*
X174208853Y-72608853D01*
G37*
X174208853Y-72608853D02*
X174147189Y-72701140D01*
X174125535Y-72810000D01*
X174125535Y-74510000D01*
X174147189Y-74618860D01*
X174208853Y-74711147D01*
X174301140Y-74772811D01*
X174410000Y-74794465D01*
X176110000Y-74794465D01*
X176218860Y-74772811D01*
X176311147Y-74711147D01*
X176372811Y-74618860D01*
X176394465Y-74510000D01*
X176394465Y-72810000D01*
X176372811Y-72701140D01*
X176311147Y-72608853D01*
X176245516Y-72565000D01*
X177517875Y-72565000D01*
X177367950Y-72594822D01*
X177001676Y-72839558D01*
X176756940Y-73205832D01*
X176671000Y-73637882D01*
X176671000Y-73682118D01*
X176756940Y-74114168D01*
X177001676Y-74480442D01*
X177367950Y-74725178D01*
X177800000Y-74811118D01*
X178232050Y-74725178D01*
X178598324Y-74480442D01*
X178843060Y-74114168D01*
X178929000Y-73682118D01*
X178929000Y-73637882D01*
X178843060Y-73205832D01*
X178598324Y-72839558D01*
X178232050Y-72594822D01*
X178082125Y-72565000D01*
X180057875Y-72565000D01*
X179907950Y-72594822D01*
X179541676Y-72839558D01*
X179296940Y-73205832D01*
X179211000Y-73637882D01*
X179211000Y-73682118D01*
X179296940Y-74114168D01*
X179541676Y-74480442D01*
X179907950Y-74725178D01*
X180340000Y-74811118D01*
X180772050Y-74725178D01*
X181138324Y-74480442D01*
X181181000Y-74416573D01*
X181181000Y-74955400D01*
X181213656Y-75119571D01*
X181306651Y-75258749D01*
X181433380Y-75385478D01*
X181483087Y-75505777D01*
X181617714Y-75640640D01*
X181793703Y-75713717D01*
X181984261Y-75713883D01*
X182160377Y-75641113D01*
X182283152Y-75518553D01*
X182354314Y-75589840D01*
X182530303Y-75662917D01*
X182720861Y-75663083D01*
X182896977Y-75590313D01*
X182924338Y-75563000D01*
X182977014Y-75563000D01*
X183614014Y-76200000D01*
X178816000Y-76200000D01*
X178767399Y-76209667D01*
X178726197Y-76237197D01*
X178698667Y-76278399D01*
X178689000Y-76327000D01*
X178689000Y-76792517D01*
X178664160Y-76817314D01*
X178591083Y-76993303D01*
X178590917Y-77183861D01*
X178663687Y-77359977D01*
X178689000Y-77385334D01*
X178689000Y-80856517D01*
X178664160Y-80881314D01*
X178591083Y-81057303D01*
X178590917Y-81247861D01*
X178663687Y-81423977D01*
X178689000Y-81449334D01*
X178689000Y-84821058D01*
X177769796Y-85471000D01*
X177292000Y-85471000D01*
X177243399Y-85480667D01*
X177202197Y-85508197D01*
X177174667Y-85549399D01*
X177165000Y-85598000D01*
X177165000Y-85809615D01*
X177084280Y-85890194D01*
X177011203Y-86066183D01*
X177011169Y-86104844D01*
X176536327Y-86579687D01*
X176454170Y-86702643D01*
X176425320Y-86847680D01*
X176425320Y-89675193D01*
X176198509Y-89902005D01*
X176198506Y-89902007D01*
X176192160Y-89908354D01*
X176192157Y-89908356D01*
X175293514Y-90807000D01*
X174942500Y-90807000D01*
X174797463Y-90835850D01*
X174674506Y-90918007D01*
X174103007Y-91489507D01*
X174020850Y-91612463D01*
X173992000Y-91757500D01*
X173992000Y-93091000D01*
X174011477Y-93188917D01*
X174020850Y-93236037D01*
X174103007Y-93358993D01*
X174125535Y-93381521D01*
X174125535Y-94830000D01*
X174147189Y-94938860D01*
X174208853Y-95031147D01*
X174301140Y-95092811D01*
X174410000Y-95114465D01*
X176110000Y-95114465D01*
X176218860Y-95092811D01*
X176311147Y-95031147D01*
X176372811Y-94938860D01*
X176394465Y-94830000D01*
X176394465Y-93130000D01*
X176372811Y-93021140D01*
X176311147Y-92928853D01*
X176283530Y-92910400D01*
X177390181Y-92910400D01*
X177367950Y-92914822D01*
X177001676Y-93159558D01*
X176756940Y-93525832D01*
X176671000Y-93957882D01*
X176671000Y-94002118D01*
X176756940Y-94434168D01*
X177001676Y-94800442D01*
X177367950Y-95045178D01*
X177800000Y-95131118D01*
X178232050Y-95045178D01*
X178598324Y-94800442D01*
X178843060Y-94434168D01*
X178929000Y-94002118D01*
X178929000Y-93957882D01*
X178843060Y-93525832D01*
X178598324Y-93159558D01*
X178232050Y-92914822D01*
X178209819Y-92910400D01*
X179930181Y-92910400D01*
X179907950Y-92914822D01*
X179541676Y-93159558D01*
X179296940Y-93525832D01*
X179211000Y-93957882D01*
X179211000Y-94002118D01*
X179296940Y-94434168D01*
X179541676Y-94800442D01*
X179907950Y-95045178D01*
X180340000Y-95131118D01*
X180772050Y-95045178D01*
X181138324Y-94800442D01*
X181383060Y-94434168D01*
X181469000Y-94002118D01*
X181469000Y-93957882D01*
X181383060Y-93525832D01*
X181138324Y-93159558D01*
X180772050Y-92914822D01*
X180749819Y-92910400D01*
X182470181Y-92910400D01*
X182447950Y-92914822D01*
X182081676Y-93159558D01*
X181836940Y-93525832D01*
X181751000Y-93957882D01*
X181751000Y-94002118D01*
X181836940Y-94434168D01*
X182081676Y-94800442D01*
X182447950Y-95045178D01*
X182880000Y-95131118D01*
X183312050Y-95045178D01*
X183678324Y-94800442D01*
X183923060Y-94434168D01*
X184009000Y-94002118D01*
X184009000Y-93957882D01*
X184291000Y-93957882D01*
X184291000Y-94002118D01*
X184376940Y-94434168D01*
X184621676Y-94800442D01*
X184987950Y-95045178D01*
X185420000Y-95131118D01*
X185852050Y-95045178D01*
X186218324Y-94800442D01*
X186463060Y-94434168D01*
X186549000Y-94002118D01*
X186549000Y-93957882D01*
X186831000Y-93957882D01*
X186831000Y-94002118D01*
X186916940Y-94434168D01*
X187161676Y-94800442D01*
X187527950Y-95045178D01*
X187960000Y-95131118D01*
X188392050Y-95045178D01*
X188758324Y-94800442D01*
X189003060Y-94434168D01*
X189089000Y-94002118D01*
X189089000Y-93957882D01*
X189371000Y-93957882D01*
X189371000Y-94002118D01*
X189456940Y-94434168D01*
X189701676Y-94800442D01*
X190067950Y-95045178D01*
X190500000Y-95131118D01*
X190932050Y-95045178D01*
X191298324Y-94800442D01*
X191543060Y-94434168D01*
X191629000Y-94002118D01*
X191629000Y-93957882D01*
X191543060Y-93525832D01*
X191298324Y-93159558D01*
X190932050Y-92914822D01*
X190500000Y-92828882D01*
X190067950Y-92914822D01*
X189701676Y-93159558D01*
X189456940Y-93525832D01*
X189371000Y-93957882D01*
X189089000Y-93957882D01*
X189003060Y-93525832D01*
X188758324Y-93159558D01*
X188392050Y-92914822D01*
X187960000Y-92828882D01*
X187527950Y-92914822D01*
X187161676Y-93159558D01*
X186916940Y-93525832D01*
X186831000Y-93957882D01*
X186549000Y-93957882D01*
X186463060Y-93525832D01*
X186218324Y-93159558D01*
X185852050Y-92914822D01*
X185420000Y-92828882D01*
X184987950Y-92914822D01*
X184621676Y-93159558D01*
X184376940Y-93525832D01*
X184291000Y-93957882D01*
X184009000Y-93957882D01*
X183923060Y-93525832D01*
X183678324Y-93159558D01*
X183312050Y-92914822D01*
X183289819Y-92910400D01*
X184162689Y-92910400D01*
X184282903Y-92960317D01*
X184473461Y-92960483D01*
X184649577Y-92887713D01*
X184784440Y-92753086D01*
X184857517Y-92577097D01*
X184857683Y-92386539D01*
X184833908Y-92329000D01*
X185420000Y-92329000D01*
X185468601Y-92319333D01*
X185509803Y-92291803D01*
X185537333Y-92250601D01*
X185547000Y-92202000D01*
X185547000Y-90297000D01*
X186436000Y-90297000D01*
X186484601Y-90287333D01*
X186525803Y-90259803D01*
X186553333Y-90218601D01*
X186563000Y-90170000D01*
X192405000Y-90170000D01*
X192405000Y-95758000D01*
X171323000Y-95758000D01*
X171323000Y-89831334D01*
X171432314Y-89940840D01*
X171608303Y-90013917D01*
X171798861Y-90014083D01*
X171974977Y-89941313D01*
X172109840Y-89806686D01*
X172182917Y-89630697D01*
X172183083Y-89440139D01*
X172133000Y-89318929D01*
X172133000Y-72821698D01*
X172389697Y-72565000D01*
X174274484Y-72565000D01*
X174208853Y-72608853D01*
G36*
X174855436Y-92302534D02*
X175337651Y-92784749D01*
X175428624Y-92845535D01*
X174750000Y-92845535D01*
X174750000Y-92258753D01*
X174855436Y-92302534D01*
X174855436Y-92302534D01*
G37*
X174855436Y-92302534D02*
X175337651Y-92784749D01*
X175428624Y-92845535D01*
X174750000Y-92845535D01*
X174750000Y-92258753D01*
X174855436Y-92302534D01*
G36*
X193865500Y-76200000D02*
X184685987Y-76200000D01*
X183401993Y-74916007D01*
X183279037Y-74833850D01*
X183134000Y-74805000D01*
X182924479Y-74805000D01*
X182922206Y-74802723D01*
X183312050Y-74725178D01*
X183678324Y-74480442D01*
X183923060Y-74114168D01*
X184009000Y-73682118D01*
X184009000Y-73637882D01*
X184291000Y-73637882D01*
X184291000Y-73682118D01*
X184376940Y-74114168D01*
X184621676Y-74480442D01*
X184987950Y-74725178D01*
X185420000Y-74811118D01*
X185852050Y-74725178D01*
X186218324Y-74480442D01*
X186463060Y-74114168D01*
X186549000Y-73682118D01*
X186549000Y-73637882D01*
X186831000Y-73637882D01*
X186831000Y-73682118D01*
X186916940Y-74114168D01*
X187161676Y-74480442D01*
X187527950Y-74725178D01*
X187960000Y-74811118D01*
X188392050Y-74725178D01*
X188758324Y-74480442D01*
X189003060Y-74114168D01*
X189068137Y-73787002D01*
X189179180Y-73787002D01*
X189058514Y-74016892D01*
X189304817Y-74541358D01*
X189733076Y-74931645D01*
X190143110Y-75101476D01*
X190373000Y-74980155D01*
X190373000Y-73787000D01*
X190627000Y-73787000D01*
X190627000Y-74980155D01*
X190856890Y-75101476D01*
X191266924Y-74931645D01*
X191695183Y-74541358D01*
X191941486Y-74016892D01*
X191820819Y-73787000D01*
X190627000Y-73787000D01*
X190373000Y-73787000D01*
X190353000Y-73787000D01*
X190353000Y-73533000D01*
X190373000Y-73533000D01*
X190373000Y-72339845D01*
X190627000Y-72339845D01*
X190627000Y-73533000D01*
X191820819Y-73533000D01*
X191941486Y-73303108D01*
X191695183Y-72778642D01*
X191266924Y-72388355D01*
X190856890Y-72218524D01*
X190627000Y-72339845D01*
X190373000Y-72339845D01*
X190143110Y-72218524D01*
X189733076Y-72388355D01*
X189304817Y-72778642D01*
X189058514Y-73303108D01*
X189179180Y-73532998D01*
X189068137Y-73532998D01*
X189003060Y-73205832D01*
X188758324Y-72839558D01*
X188392050Y-72594822D01*
X187960000Y-72508882D01*
X187527950Y-72594822D01*
X187161676Y-72839558D01*
X186916940Y-73205832D01*
X186831000Y-73637882D01*
X186549000Y-73637882D01*
X186463060Y-73205832D01*
X186218324Y-72839558D01*
X185852050Y-72594822D01*
X185420000Y-72508882D01*
X184987950Y-72594822D01*
X184621676Y-72839558D01*
X184376940Y-73205832D01*
X184291000Y-73637882D01*
X184009000Y-73637882D01*
X183923060Y-73205832D01*
X183678324Y-72839558D01*
X183312050Y-72594822D01*
X182880000Y-72508882D01*
X182447950Y-72594822D01*
X182081676Y-72839558D01*
X182039000Y-72903427D01*
X182039000Y-72339200D01*
X182006344Y-72175029D01*
X181913349Y-72035851D01*
X181759498Y-71882000D01*
X193865500Y-71882000D01*
X193865500Y-76200000D01*
X193865500Y-76200000D01*
G37*
X193865500Y-76200000D02*
X184685987Y-76200000D01*
X183401993Y-74916007D01*
X183279037Y-74833850D01*
X183134000Y-74805000D01*
X182924479Y-74805000D01*
X182922206Y-74802723D01*
X183312050Y-74725178D01*
X183678324Y-74480442D01*
X183923060Y-74114168D01*
X184009000Y-73682118D01*
X184009000Y-73637882D01*
X184291000Y-73637882D01*
X184291000Y-73682118D01*
X184376940Y-74114168D01*
X184621676Y-74480442D01*
X184987950Y-74725178D01*
X185420000Y-74811118D01*
X185852050Y-74725178D01*
X186218324Y-74480442D01*
X186463060Y-74114168D01*
X186549000Y-73682118D01*
X186549000Y-73637882D01*
X186831000Y-73637882D01*
X186831000Y-73682118D01*
X186916940Y-74114168D01*
X187161676Y-74480442D01*
X187527950Y-74725178D01*
X187960000Y-74811118D01*
X188392050Y-74725178D01*
X188758324Y-74480442D01*
X189003060Y-74114168D01*
X189068137Y-73787002D01*
X189179180Y-73787002D01*
X189058514Y-74016892D01*
X189304817Y-74541358D01*
X189733076Y-74931645D01*
X190143110Y-75101476D01*
X190373000Y-74980155D01*
X190373000Y-73787000D01*
X190627000Y-73787000D01*
X190627000Y-74980155D01*
X190856890Y-75101476D01*
X191266924Y-74931645D01*
X191695183Y-74541358D01*
X191941486Y-74016892D01*
X191820819Y-73787000D01*
X190627000Y-73787000D01*
X190373000Y-73787000D01*
X190353000Y-73787000D01*
X190353000Y-73533000D01*
X190373000Y-73533000D01*
X190373000Y-72339845D01*
X190627000Y-72339845D01*
X190627000Y-73533000D01*
X191820819Y-73533000D01*
X191941486Y-73303108D01*
X191695183Y-72778642D01*
X191266924Y-72388355D01*
X190856890Y-72218524D01*
X190627000Y-72339845D01*
X190373000Y-72339845D01*
X190143110Y-72218524D01*
X189733076Y-72388355D01*
X189304817Y-72778642D01*
X189058514Y-73303108D01*
X189179180Y-73532998D01*
X189068137Y-73532998D01*
X189003060Y-73205832D01*
X188758324Y-72839558D01*
X188392050Y-72594822D01*
X187960000Y-72508882D01*
X187527950Y-72594822D01*
X187161676Y-72839558D01*
X186916940Y-73205832D01*
X186831000Y-73637882D01*
X186549000Y-73637882D01*
X186463060Y-73205832D01*
X186218324Y-72839558D01*
X185852050Y-72594822D01*
X185420000Y-72508882D01*
X184987950Y-72594822D01*
X184621676Y-72839558D01*
X184376940Y-73205832D01*
X184291000Y-73637882D01*
X184009000Y-73637882D01*
X183923060Y-73205832D01*
X183678324Y-72839558D01*
X183312050Y-72594822D01*
X182880000Y-72508882D01*
X182447950Y-72594822D01*
X182081676Y-72839558D01*
X182039000Y-72903427D01*
X182039000Y-72339200D01*
X182006344Y-72175029D01*
X181913349Y-72035851D01*
X181759498Y-71882000D01*
X193865500Y-71882000D01*
X193865500Y-76200000D01*
G36*
X184505687Y-77232977D02*
X184640314Y-77367840D01*
X184816303Y-77440917D01*
X185006861Y-77441083D01*
X185182977Y-77368313D01*
X185317840Y-77233686D01*
X185377919Y-77089000D01*
X190474600Y-77089000D01*
X190474600Y-78117700D01*
X189763400Y-78117700D01*
X189714799Y-78127367D01*
X189673597Y-78154897D01*
X188224894Y-79603600D01*
X187909200Y-79603600D01*
X187860599Y-79613267D01*
X187819397Y-79640797D01*
X187791867Y-79681999D01*
X187782200Y-79730600D01*
X187782200Y-80026797D01*
X187638223Y-80086287D01*
X187503360Y-80220914D01*
X187430283Y-80396903D01*
X187430117Y-80587461D01*
X187502887Y-80763577D01*
X187637514Y-80898440D01*
X187782200Y-80958519D01*
X187782200Y-84124800D01*
X187791867Y-84173401D01*
X187819397Y-84214603D01*
X187860599Y-84242133D01*
X187909200Y-84251800D01*
X188110594Y-84251800D01*
X189992000Y-86133206D01*
X189992000Y-89281000D01*
X185547000Y-89281000D01*
X185547000Y-86233000D01*
X185537333Y-86184399D01*
X185509803Y-86143197D01*
X185468601Y-86115667D01*
X185420000Y-86106000D01*
X184734200Y-86106000D01*
X184734200Y-84264500D01*
X184724533Y-84215899D01*
X184697003Y-84174697D01*
X184655801Y-84147167D01*
X184607200Y-84137500D01*
X182181500Y-84137500D01*
X182181500Y-83756500D01*
X182171833Y-83707899D01*
X182144303Y-83666697D01*
X182103101Y-83639167D01*
X182054500Y-83629500D01*
X181165500Y-83629500D01*
X181116899Y-83639167D01*
X181075697Y-83666697D01*
X181049394Y-83693000D01*
X179641500Y-83693000D01*
X179641500Y-77089000D01*
X184446197Y-77089000D01*
X184505687Y-77232977D01*
X184505687Y-77232977D01*
G37*
X184505687Y-77232977D02*
X184640314Y-77367840D01*
X184816303Y-77440917D01*
X185006861Y-77441083D01*
X185182977Y-77368313D01*
X185317840Y-77233686D01*
X185377919Y-77089000D01*
X190474600Y-77089000D01*
X190474600Y-78117700D01*
X189763400Y-78117700D01*
X189714799Y-78127367D01*
X189673597Y-78154897D01*
X188224894Y-79603600D01*
X187909200Y-79603600D01*
X187860599Y-79613267D01*
X187819397Y-79640797D01*
X187791867Y-79681999D01*
X187782200Y-79730600D01*
X187782200Y-80026797D01*
X187638223Y-80086287D01*
X187503360Y-80220914D01*
X187430283Y-80396903D01*
X187430117Y-80587461D01*
X187502887Y-80763577D01*
X187637514Y-80898440D01*
X187782200Y-80958519D01*
X187782200Y-84124800D01*
X187791867Y-84173401D01*
X187819397Y-84214603D01*
X187860599Y-84242133D01*
X187909200Y-84251800D01*
X188110594Y-84251800D01*
X189992000Y-86133206D01*
X189992000Y-89281000D01*
X185547000Y-89281000D01*
X185547000Y-86233000D01*
X185537333Y-86184399D01*
X185509803Y-86143197D01*
X185468601Y-86115667D01*
X185420000Y-86106000D01*
X184734200Y-86106000D01*
X184734200Y-84264500D01*
X184724533Y-84215899D01*
X184697003Y-84174697D01*
X184655801Y-84147167D01*
X184607200Y-84137500D01*
X182181500Y-84137500D01*
X182181500Y-83756500D01*
X182171833Y-83707899D01*
X182144303Y-83666697D01*
X182103101Y-83639167D01*
X182054500Y-83629500D01*
X181165500Y-83629500D01*
X181116899Y-83639167D01*
X181075697Y-83666697D01*
X181049394Y-83693000D01*
X179641500Y-83693000D01*
X179641500Y-77089000D01*
X184446197Y-77089000D01*
X184505687Y-77232977D01*
G36*
X205257400Y-76962000D02*
X203485750Y-76962000D01*
X203327000Y-77120750D01*
X203327000Y-78232000D01*
X203347000Y-78232000D01*
X203347000Y-78486000D01*
X203327000Y-78486000D01*
X203327000Y-79597250D01*
X203485750Y-79756000D01*
X205257400Y-79756000D01*
X205257400Y-82042000D01*
X203485750Y-82042000D01*
X203327000Y-82200750D01*
X203327000Y-83312000D01*
X203347000Y-83312000D01*
X203347000Y-83566000D01*
X203327000Y-83566000D01*
X203327000Y-84677250D01*
X203485750Y-84836000D01*
X205257400Y-84836000D01*
X205257400Y-95758000D01*
X193167000Y-95758000D01*
X193167000Y-87249000D01*
X193157333Y-87200399D01*
X193129803Y-87159197D01*
X193088601Y-87131667D01*
X193040000Y-87122000D01*
X191579500Y-87122000D01*
X191579500Y-84582000D01*
X191569833Y-84533399D01*
X191542303Y-84492197D01*
X191501101Y-84464667D01*
X191452500Y-84455000D01*
X190451006Y-84455000D01*
X189720756Y-83724750D01*
X200533000Y-83724750D01*
X200533000Y-84327309D01*
X200629673Y-84560698D01*
X200808301Y-84739327D01*
X201041690Y-84836000D01*
X202914250Y-84836000D01*
X203073000Y-84677250D01*
X203073000Y-83566000D01*
X200691750Y-83566000D01*
X200533000Y-83724750D01*
X189720756Y-83724750D01*
X188862603Y-82866597D01*
X188821401Y-82839067D01*
X188772800Y-82829400D01*
X188417200Y-82829400D01*
X188417200Y-82550691D01*
X200533000Y-82550691D01*
X200533000Y-83153250D01*
X200691750Y-83312000D01*
X203073000Y-83312000D01*
X203073000Y-82200750D01*
X202914250Y-82042000D01*
X201041690Y-82042000D01*
X200808301Y-82138673D01*
X200629673Y-82317302D01*
X200533000Y-82550691D01*
X188417200Y-82550691D01*
X188417200Y-80543400D01*
X188810900Y-80543400D01*
X188859501Y-80533733D01*
X188900703Y-80506203D01*
X190387506Y-79019400D01*
X191465200Y-79019400D01*
X191513801Y-79009733D01*
X191555003Y-78982203D01*
X191582533Y-78941001D01*
X191592200Y-78892400D01*
X191592200Y-78644750D01*
X200533000Y-78644750D01*
X200533000Y-79247309D01*
X200629673Y-79480698D01*
X200808301Y-79659327D01*
X201041690Y-79756000D01*
X202914250Y-79756000D01*
X203073000Y-79597250D01*
X203073000Y-78486000D01*
X200691750Y-78486000D01*
X200533000Y-78644750D01*
X191592200Y-78644750D01*
X191592200Y-77470691D01*
X200533000Y-77470691D01*
X200533000Y-78073250D01*
X200691750Y-78232000D01*
X203073000Y-78232000D01*
X203073000Y-77120750D01*
X202914250Y-76962000D01*
X201041690Y-76962000D01*
X200808301Y-77058673D01*
X200629673Y-77237302D01*
X200533000Y-77470691D01*
X191592200Y-77470691D01*
X191592200Y-77089000D01*
X194691000Y-77089000D01*
X194739601Y-77079333D01*
X194780803Y-77051803D01*
X194808333Y-77010601D01*
X194818000Y-76962000D01*
X194818000Y-71882000D01*
X205257400Y-71882000D01*
X205257400Y-76962000D01*
X205257400Y-76962000D01*
G37*
X205257400Y-76962000D02*
X203485750Y-76962000D01*
X203327000Y-77120750D01*
X203327000Y-78232000D01*
X203347000Y-78232000D01*
X203347000Y-78486000D01*
X203327000Y-78486000D01*
X203327000Y-79597250D01*
X203485750Y-79756000D01*
X205257400Y-79756000D01*
X205257400Y-82042000D01*
X203485750Y-82042000D01*
X203327000Y-82200750D01*
X203327000Y-83312000D01*
X203347000Y-83312000D01*
X203347000Y-83566000D01*
X203327000Y-83566000D01*
X203327000Y-84677250D01*
X203485750Y-84836000D01*
X205257400Y-84836000D01*
X205257400Y-95758000D01*
X193167000Y-95758000D01*
X193167000Y-87249000D01*
X193157333Y-87200399D01*
X193129803Y-87159197D01*
X193088601Y-87131667D01*
X193040000Y-87122000D01*
X191579500Y-87122000D01*
X191579500Y-84582000D01*
X191569833Y-84533399D01*
X191542303Y-84492197D01*
X191501101Y-84464667D01*
X191452500Y-84455000D01*
X190451006Y-84455000D01*
X189720756Y-83724750D01*
X200533000Y-83724750D01*
X200533000Y-84327309D01*
X200629673Y-84560698D01*
X200808301Y-84739327D01*
X201041690Y-84836000D01*
X202914250Y-84836000D01*
X203073000Y-84677250D01*
X203073000Y-83566000D01*
X200691750Y-83566000D01*
X200533000Y-83724750D01*
X189720756Y-83724750D01*
X188862603Y-82866597D01*
X188821401Y-82839067D01*
X188772800Y-82829400D01*
X188417200Y-82829400D01*
X188417200Y-82550691D01*
X200533000Y-82550691D01*
X200533000Y-83153250D01*
X200691750Y-83312000D01*
X203073000Y-83312000D01*
X203073000Y-82200750D01*
X202914250Y-82042000D01*
X201041690Y-82042000D01*
X200808301Y-82138673D01*
X200629673Y-82317302D01*
X200533000Y-82550691D01*
X188417200Y-82550691D01*
X188417200Y-80543400D01*
X188810900Y-80543400D01*
X188859501Y-80533733D01*
X188900703Y-80506203D01*
X190387506Y-79019400D01*
X191465200Y-79019400D01*
X191513801Y-79009733D01*
X191555003Y-78982203D01*
X191582533Y-78941001D01*
X191592200Y-78892400D01*
X191592200Y-78644750D01*
X200533000Y-78644750D01*
X200533000Y-79247309D01*
X200629673Y-79480698D01*
X200808301Y-79659327D01*
X201041690Y-79756000D01*
X202914250Y-79756000D01*
X203073000Y-79597250D01*
X203073000Y-78486000D01*
X200691750Y-78486000D01*
X200533000Y-78644750D01*
X191592200Y-78644750D01*
X191592200Y-77470691D01*
X200533000Y-77470691D01*
X200533000Y-78073250D01*
X200691750Y-78232000D01*
X203073000Y-78232000D01*
X203073000Y-77120750D01*
X202914250Y-76962000D01*
X201041690Y-76962000D01*
X200808301Y-77058673D01*
X200629673Y-77237302D01*
X200533000Y-77470691D01*
X191592200Y-77470691D01*
X191592200Y-77089000D01*
X194691000Y-77089000D01*
X194739601Y-77079333D01*
X194780803Y-77051803D01*
X194808333Y-77010601D01*
X194818000Y-76962000D01*
X194818000Y-71882000D01*
X205257400Y-71882000D01*
X205257400Y-76962000D01*
M02*
