G04 #@! TF.GenerationSoftware,KiCad,Pcbnew,(2017-11-30 revision 069448f20)-master*
G04 #@! TF.CreationDate,2017-12-01T23:13:36+02:00*
G04 #@! TF.ProjectId,at86rf212b_2l,617438367266323132625F326C2E6B69,rev?*
G04 #@! TF.SameCoordinates,Original*
G04 #@! TF.FileFunction,Legend,Top*
G04 #@! TF.FilePolarity,Positive*
%FSLAX46Y46*%
G04 Gerber Fmt 4.6, Leading zero omitted, Abs format (unit mm)*
G04 Created by KiCad (PCBNEW (2017-11-30 revision 069448f20)-master) date Fri Dec  1 23:13:36 2017*
%MOMM*%
%LPD*%
G01*
G04 APERTURE LIST*
%ADD10C,0.125000*%
%ADD11C,0.075000*%
%ADD12C,0.150000*%
%ADD13C,0.100000*%
%ADD14C,0.120000*%
%ADD15C,0.182880*%
%ADD16C,0.081280*%
%ADD17R,0.700000X0.250000*%
%ADD18R,0.250000X0.700000*%
%ADD19R,1.725000X1.725000*%
%ADD20R,0.350000X1.000000*%
%ADD21R,0.600000X0.500000*%
%ADD22R,0.500000X0.600000*%
%ADD23R,4.064000X1.524000*%
%ADD24R,4.064000X1.270000*%
%ADD25R,1.700000X1.700000*%
%ADD26O,1.700000X1.700000*%
%ADD27R,1.300000X0.700000*%
%ADD28R,0.600000X0.400000*%
%ADD29R,0.400000X0.600000*%
%ADD30R,1.200000X1.400000*%
G04 APERTURE END LIST*
D10*
X189825404Y-95793690D02*
X189825404Y-95293690D01*
X189944452Y-95293690D01*
X190015880Y-95317500D01*
X190063500Y-95365119D01*
X190087309Y-95412738D01*
X190111119Y-95507976D01*
X190111119Y-95579404D01*
X190087309Y-95674642D01*
X190063500Y-95722261D01*
X190015880Y-95769880D01*
X189944452Y-95793690D01*
X189825404Y-95793690D01*
X190325404Y-95793690D02*
X190325404Y-95293690D01*
X190825404Y-95317500D02*
X190777785Y-95293690D01*
X190706357Y-95293690D01*
X190634928Y-95317500D01*
X190587309Y-95365119D01*
X190563500Y-95412738D01*
X190539690Y-95507976D01*
X190539690Y-95579404D01*
X190563500Y-95674642D01*
X190587309Y-95722261D01*
X190634928Y-95769880D01*
X190706357Y-95793690D01*
X190753976Y-95793690D01*
X190825404Y-95769880D01*
X190849214Y-95746071D01*
X190849214Y-95579404D01*
X190753976Y-95579404D01*
X191277785Y-95460357D02*
X191277785Y-95793690D01*
X191158738Y-95269880D02*
X191039690Y-95627023D01*
X191349214Y-95627023D01*
X187158404Y-95793690D02*
X187158404Y-95293690D01*
X187277452Y-95293690D01*
X187348880Y-95317500D01*
X187396500Y-95365119D01*
X187420309Y-95412738D01*
X187444119Y-95507976D01*
X187444119Y-95579404D01*
X187420309Y-95674642D01*
X187396500Y-95722261D01*
X187348880Y-95769880D01*
X187277452Y-95793690D01*
X187158404Y-95793690D01*
X187658404Y-95793690D02*
X187658404Y-95293690D01*
X188158404Y-95317500D02*
X188110785Y-95293690D01*
X188039357Y-95293690D01*
X187967928Y-95317500D01*
X187920309Y-95365119D01*
X187896500Y-95412738D01*
X187872690Y-95507976D01*
X187872690Y-95579404D01*
X187896500Y-95674642D01*
X187920309Y-95722261D01*
X187967928Y-95769880D01*
X188039357Y-95793690D01*
X188086976Y-95793690D01*
X188158404Y-95769880D01*
X188182214Y-95746071D01*
X188182214Y-95579404D01*
X188086976Y-95579404D01*
X188348880Y-95293690D02*
X188658404Y-95293690D01*
X188491738Y-95484166D01*
X188563166Y-95484166D01*
X188610785Y-95507976D01*
X188634595Y-95531785D01*
X188658404Y-95579404D01*
X188658404Y-95698452D01*
X188634595Y-95746071D01*
X188610785Y-95769880D01*
X188563166Y-95793690D01*
X188420309Y-95793690D01*
X188372690Y-95769880D01*
X188348880Y-95746071D01*
X184753333Y-95293690D02*
X184920000Y-95793690D01*
X185086666Y-95293690D01*
X185539047Y-95746071D02*
X185515238Y-95769880D01*
X185443809Y-95793690D01*
X185396190Y-95793690D01*
X185324761Y-95769880D01*
X185277142Y-95722261D01*
X185253333Y-95674642D01*
X185229523Y-95579404D01*
X185229523Y-95507976D01*
X185253333Y-95412738D01*
X185277142Y-95365119D01*
X185324761Y-95317500D01*
X185396190Y-95293690D01*
X185443809Y-95293690D01*
X185515238Y-95317500D01*
X185539047Y-95341309D01*
X186039047Y-95746071D02*
X186015238Y-95769880D01*
X185943809Y-95793690D01*
X185896190Y-95793690D01*
X185824761Y-95769880D01*
X185777142Y-95722261D01*
X185753333Y-95674642D01*
X185729523Y-95579404D01*
X185729523Y-95507976D01*
X185753333Y-95412738D01*
X185777142Y-95365119D01*
X185824761Y-95317500D01*
X185896190Y-95293690D01*
X185943809Y-95293690D01*
X186015238Y-95317500D01*
X186039047Y-95341309D01*
X182860166Y-95746071D02*
X182836357Y-95769880D01*
X182764928Y-95793690D01*
X182717309Y-95793690D01*
X182645880Y-95769880D01*
X182598261Y-95722261D01*
X182574452Y-95674642D01*
X182550642Y-95579404D01*
X182550642Y-95507976D01*
X182574452Y-95412738D01*
X182598261Y-95365119D01*
X182645880Y-95317500D01*
X182717309Y-95293690D01*
X182764928Y-95293690D01*
X182836357Y-95317500D01*
X182860166Y-95341309D01*
X183050642Y-95769880D02*
X183122071Y-95793690D01*
X183241119Y-95793690D01*
X183288738Y-95769880D01*
X183312547Y-95746071D01*
X183336357Y-95698452D01*
X183336357Y-95650833D01*
X183312547Y-95603214D01*
X183288738Y-95579404D01*
X183241119Y-95555595D01*
X183145880Y-95531785D01*
X183098261Y-95507976D01*
X183074452Y-95484166D01*
X183050642Y-95436547D01*
X183050642Y-95388928D01*
X183074452Y-95341309D01*
X183098261Y-95317500D01*
X183145880Y-95293690D01*
X183264928Y-95293690D01*
X183336357Y-95317500D01*
X180205095Y-95769880D02*
X180276523Y-95793690D01*
X180395571Y-95793690D01*
X180443190Y-95769880D01*
X180467000Y-95746071D01*
X180490809Y-95698452D01*
X180490809Y-95650833D01*
X180467000Y-95603214D01*
X180443190Y-95579404D01*
X180395571Y-95555595D01*
X180300333Y-95531785D01*
X180252714Y-95507976D01*
X180228904Y-95484166D01*
X180205095Y-95436547D01*
X180205095Y-95388928D01*
X180228904Y-95341309D01*
X180252714Y-95317500D01*
X180300333Y-95293690D01*
X180419380Y-95293690D01*
X180490809Y-95317500D01*
X180705095Y-95793690D02*
X180705095Y-95293690D01*
X177395238Y-95769880D02*
X177466666Y-95793690D01*
X177585714Y-95793690D01*
X177633333Y-95769880D01*
X177657142Y-95746071D01*
X177680952Y-95698452D01*
X177680952Y-95650833D01*
X177657142Y-95603214D01*
X177633333Y-95579404D01*
X177585714Y-95555595D01*
X177490476Y-95531785D01*
X177442857Y-95507976D01*
X177419047Y-95484166D01*
X177395238Y-95436547D01*
X177395238Y-95388928D01*
X177419047Y-95341309D01*
X177442857Y-95317500D01*
X177490476Y-95293690D01*
X177609523Y-95293690D01*
X177680952Y-95317500D01*
X177990476Y-95293690D02*
X178085714Y-95293690D01*
X178133333Y-95317500D01*
X178180952Y-95365119D01*
X178204761Y-95460357D01*
X178204761Y-95627023D01*
X178180952Y-95722261D01*
X178133333Y-95769880D01*
X178085714Y-95793690D01*
X177990476Y-95793690D01*
X177942857Y-95769880D01*
X177895238Y-95722261D01*
X177871428Y-95627023D01*
X177871428Y-95460357D01*
X177895238Y-95365119D01*
X177942857Y-95317500D01*
X177990476Y-95293690D01*
X174684595Y-95793690D02*
X174684595Y-95293690D01*
X175208404Y-95793690D02*
X175041738Y-95555595D01*
X174922690Y-95793690D02*
X174922690Y-95293690D01*
X175113166Y-95293690D01*
X175160785Y-95317500D01*
X175184595Y-95341309D01*
X175208404Y-95388928D01*
X175208404Y-95460357D01*
X175184595Y-95507976D01*
X175160785Y-95531785D01*
X175113166Y-95555595D01*
X174922690Y-95555595D01*
X175756023Y-95841309D02*
X175708404Y-95817500D01*
X175660785Y-95769880D01*
X175589357Y-95698452D01*
X175541738Y-95674642D01*
X175494119Y-95674642D01*
X175517928Y-95793690D02*
X175470309Y-95769880D01*
X175422690Y-95722261D01*
X175398880Y-95627023D01*
X175398880Y-95460357D01*
X175422690Y-95365119D01*
X175470309Y-95317500D01*
X175517928Y-95293690D01*
X175613166Y-95293690D01*
X175660785Y-95317500D01*
X175708404Y-95365119D01*
X175732214Y-95460357D01*
X175732214Y-95627023D01*
X175708404Y-95722261D01*
X175660785Y-95769880D01*
X175613166Y-95793690D01*
X175517928Y-95793690D01*
X191130952Y-72322500D02*
X191178571Y-72346309D01*
X191250000Y-72346309D01*
X191321428Y-72322500D01*
X191369047Y-72274880D01*
X191392857Y-72227261D01*
X191416666Y-72132023D01*
X191416666Y-72060595D01*
X191392857Y-71965357D01*
X191369047Y-71917738D01*
X191321428Y-71870119D01*
X191250000Y-71846309D01*
X191202380Y-71846309D01*
X191130952Y-71870119D01*
X191107142Y-71893928D01*
X191107142Y-72060595D01*
X191202380Y-72060595D01*
X190892857Y-71846309D02*
X190892857Y-72346309D01*
X190607142Y-71846309D01*
X190607142Y-72346309D01*
X190369047Y-71846309D02*
X190369047Y-72346309D01*
X190250000Y-72346309D01*
X190178571Y-72322500D01*
X190130952Y-72274880D01*
X190107142Y-72227261D01*
X190083333Y-72132023D01*
X190083333Y-72060595D01*
X190107142Y-71965357D01*
X190130952Y-71917738D01*
X190178571Y-71870119D01*
X190250000Y-71846309D01*
X190369047Y-71846309D01*
X189869047Y-71846309D02*
X189869047Y-72346309D01*
X189750000Y-72346309D01*
X189678571Y-72322500D01*
X189630952Y-72274880D01*
X189607142Y-72227261D01*
X189583333Y-72132023D01*
X189583333Y-72060595D01*
X189607142Y-71965357D01*
X189630952Y-71917738D01*
X189678571Y-71870119D01*
X189750000Y-71846309D01*
X189869047Y-71846309D01*
X188297309Y-71846309D02*
X188463976Y-72084404D01*
X188583023Y-71846309D02*
X188583023Y-72346309D01*
X188392547Y-72346309D01*
X188344928Y-72322500D01*
X188321119Y-72298690D01*
X188297309Y-72251071D01*
X188297309Y-72179642D01*
X188321119Y-72132023D01*
X188344928Y-72108214D01*
X188392547Y-72084404D01*
X188583023Y-72084404D01*
X188106833Y-71870119D02*
X188035404Y-71846309D01*
X187916357Y-71846309D01*
X187868738Y-71870119D01*
X187844928Y-71893928D01*
X187821119Y-71941547D01*
X187821119Y-71989166D01*
X187844928Y-72036785D01*
X187868738Y-72060595D01*
X187916357Y-72084404D01*
X188011595Y-72108214D01*
X188059214Y-72132023D01*
X188083023Y-72155833D01*
X188106833Y-72203452D01*
X188106833Y-72251071D01*
X188083023Y-72298690D01*
X188059214Y-72322500D01*
X188011595Y-72346309D01*
X187892547Y-72346309D01*
X187821119Y-72322500D01*
X187678261Y-72346309D02*
X187392547Y-72346309D01*
X187535404Y-71846309D02*
X187535404Y-72346309D01*
X186158095Y-71846309D02*
X186158095Y-72346309D01*
X186039047Y-72346309D01*
X185967619Y-72322500D01*
X185920000Y-72274880D01*
X185896190Y-72227261D01*
X185872380Y-72132023D01*
X185872380Y-72060595D01*
X185896190Y-71965357D01*
X185920000Y-71917738D01*
X185967619Y-71870119D01*
X186039047Y-71846309D01*
X186158095Y-71846309D01*
X185658095Y-71846309D02*
X185658095Y-72346309D01*
X185158095Y-72322500D02*
X185205714Y-72346309D01*
X185277142Y-72346309D01*
X185348571Y-72322500D01*
X185396190Y-72274880D01*
X185420000Y-72227261D01*
X185443809Y-72132023D01*
X185443809Y-72060595D01*
X185420000Y-71965357D01*
X185396190Y-71917738D01*
X185348571Y-71870119D01*
X185277142Y-71846309D01*
X185229523Y-71846309D01*
X185158095Y-71870119D01*
X185134285Y-71893928D01*
X185134285Y-72060595D01*
X185229523Y-72060595D01*
X184658095Y-71846309D02*
X184943809Y-71846309D01*
X184800952Y-71846309D02*
X184800952Y-72346309D01*
X184848571Y-72274880D01*
X184896190Y-72227261D01*
X184943809Y-72203452D01*
X183808595Y-71846309D02*
X183808595Y-72346309D01*
X183689547Y-72346309D01*
X183618119Y-72322500D01*
X183570500Y-72274880D01*
X183546690Y-72227261D01*
X183522880Y-72132023D01*
X183522880Y-72060595D01*
X183546690Y-71965357D01*
X183570500Y-71917738D01*
X183618119Y-71870119D01*
X183689547Y-71846309D01*
X183808595Y-71846309D01*
X183308595Y-71846309D02*
X183308595Y-72346309D01*
X182808595Y-72322500D02*
X182856214Y-72346309D01*
X182927642Y-72346309D01*
X182999071Y-72322500D01*
X183046690Y-72274880D01*
X183070500Y-72227261D01*
X183094309Y-72132023D01*
X183094309Y-72060595D01*
X183070500Y-71965357D01*
X183046690Y-71917738D01*
X182999071Y-71870119D01*
X182927642Y-71846309D01*
X182880023Y-71846309D01*
X182808595Y-71870119D01*
X182784785Y-71893928D01*
X182784785Y-72060595D01*
X182880023Y-72060595D01*
X182594309Y-72298690D02*
X182570500Y-72322500D01*
X182522880Y-72346309D01*
X182403833Y-72346309D01*
X182356214Y-72322500D01*
X182332404Y-72298690D01*
X182308595Y-72251071D01*
X182308595Y-72203452D01*
X182332404Y-72132023D01*
X182618119Y-71846309D01*
X182308595Y-71846309D01*
X181439214Y-71870119D02*
X181367785Y-71846309D01*
X181248738Y-71846309D01*
X181201119Y-71870119D01*
X181177309Y-71893928D01*
X181153500Y-71941547D01*
X181153500Y-71989166D01*
X181177309Y-72036785D01*
X181201119Y-72060595D01*
X181248738Y-72084404D01*
X181343976Y-72108214D01*
X181391595Y-72132023D01*
X181415404Y-72155833D01*
X181439214Y-72203452D01*
X181439214Y-72251071D01*
X181415404Y-72298690D01*
X181391595Y-72322500D01*
X181343976Y-72346309D01*
X181224928Y-72346309D01*
X181153500Y-72322500D01*
X180701119Y-71846309D02*
X180939214Y-71846309D01*
X180939214Y-72346309D01*
X180534452Y-71846309D02*
X180534452Y-72346309D01*
X180343976Y-72346309D01*
X180296357Y-72322500D01*
X180272547Y-72298690D01*
X180248738Y-72251071D01*
X180248738Y-72179642D01*
X180272547Y-72132023D01*
X180296357Y-72108214D01*
X180343976Y-72084404D01*
X180534452Y-72084404D01*
X180105880Y-72346309D02*
X179820166Y-72346309D01*
X179963023Y-71846309D02*
X179963023Y-72346309D01*
X179367785Y-71846309D02*
X179534452Y-72084404D01*
X179653500Y-71846309D02*
X179653500Y-72346309D01*
X179463023Y-72346309D01*
X179415404Y-72322500D01*
X179391595Y-72298690D01*
X179367785Y-72251071D01*
X179367785Y-72179642D01*
X179391595Y-72132023D01*
X179415404Y-72108214D01*
X179463023Y-72084404D01*
X179653500Y-72084404D01*
X178518238Y-71870119D02*
X178446809Y-71846309D01*
X178327761Y-71846309D01*
X178280142Y-71870119D01*
X178256333Y-71893928D01*
X178232523Y-71941547D01*
X178232523Y-71989166D01*
X178256333Y-72036785D01*
X178280142Y-72060595D01*
X178327761Y-72084404D01*
X178423000Y-72108214D01*
X178470619Y-72132023D01*
X178494428Y-72155833D01*
X178518238Y-72203452D01*
X178518238Y-72251071D01*
X178494428Y-72298690D01*
X178470619Y-72322500D01*
X178423000Y-72346309D01*
X178303952Y-72346309D01*
X178232523Y-72322500D01*
X177732523Y-71893928D02*
X177756333Y-71870119D01*
X177827761Y-71846309D01*
X177875380Y-71846309D01*
X177946809Y-71870119D01*
X177994428Y-71917738D01*
X178018238Y-71965357D01*
X178042047Y-72060595D01*
X178042047Y-72132023D01*
X178018238Y-72227261D01*
X177994428Y-72274880D01*
X177946809Y-72322500D01*
X177875380Y-72346309D01*
X177827761Y-72346309D01*
X177756333Y-72322500D01*
X177732523Y-72298690D01*
X177280142Y-71846309D02*
X177518238Y-71846309D01*
X177518238Y-72346309D01*
X177113476Y-71846309D02*
X177113476Y-72346309D01*
X176827761Y-71846309D02*
X177042047Y-72132023D01*
X176827761Y-72346309D02*
X177113476Y-72060595D01*
X175779833Y-71893928D02*
X175803642Y-71870119D01*
X175875071Y-71846309D01*
X175922690Y-71846309D01*
X175994119Y-71870119D01*
X176041738Y-71917738D01*
X176065547Y-71965357D01*
X176089357Y-72060595D01*
X176089357Y-72132023D01*
X176065547Y-72227261D01*
X176041738Y-72274880D01*
X175994119Y-72322500D01*
X175922690Y-72346309D01*
X175875071Y-72346309D01*
X175803642Y-72322500D01*
X175779833Y-72298690D01*
X175327452Y-71846309D02*
X175565547Y-71846309D01*
X175565547Y-72346309D01*
X175160785Y-71846309D02*
X175160785Y-72346309D01*
X174875071Y-71846309D02*
X175089357Y-72132023D01*
X174875071Y-72346309D02*
X175160785Y-72060595D01*
X174660785Y-71846309D02*
X174660785Y-72346309D01*
X174494119Y-71989166D01*
X174327452Y-72346309D01*
X174327452Y-71846309D01*
D11*
X201389583Y-94341190D02*
X201294345Y-94341190D01*
X201246726Y-94365000D01*
X201222916Y-94388809D01*
X201175297Y-94460238D01*
X201151488Y-94555476D01*
X201151488Y-94745952D01*
X201175297Y-94793571D01*
X201199107Y-94817380D01*
X201246726Y-94841190D01*
X201341964Y-94841190D01*
X201389583Y-94817380D01*
X201413392Y-94793571D01*
X201437202Y-94745952D01*
X201437202Y-94626904D01*
X201413392Y-94579285D01*
X201389583Y-94555476D01*
X201341964Y-94531666D01*
X201246726Y-94531666D01*
X201199107Y-94555476D01*
X201175297Y-94579285D01*
X201151488Y-94626904D01*
X201722916Y-94841190D02*
X201675297Y-94817380D01*
X201651488Y-94769761D01*
X201651488Y-94341190D01*
X201984821Y-94841190D02*
X201937202Y-94817380D01*
X201913392Y-94793571D01*
X201889583Y-94745952D01*
X201889583Y-94603095D01*
X201913392Y-94555476D01*
X201937202Y-94531666D01*
X201984821Y-94507857D01*
X202056250Y-94507857D01*
X202103869Y-94531666D01*
X202127678Y-94555476D01*
X202151488Y-94603095D01*
X202151488Y-94745952D01*
X202127678Y-94793571D01*
X202103869Y-94817380D01*
X202056250Y-94841190D01*
X201984821Y-94841190D01*
X202318154Y-94507857D02*
X202413392Y-94841190D01*
X202508630Y-94603095D01*
X202603869Y-94841190D01*
X202699107Y-94507857D01*
X202889583Y-94507857D02*
X202889583Y-95007857D01*
X202889583Y-94531666D02*
X202937202Y-94507857D01*
X203032440Y-94507857D01*
X203080059Y-94531666D01*
X203103869Y-94555476D01*
X203127678Y-94603095D01*
X203127678Y-94745952D01*
X203103869Y-94793571D01*
X203080059Y-94817380D01*
X203032440Y-94841190D01*
X202937202Y-94841190D01*
X202889583Y-94817380D01*
X203556250Y-94841190D02*
X203556250Y-94579285D01*
X203532440Y-94531666D01*
X203484821Y-94507857D01*
X203389583Y-94507857D01*
X203341964Y-94531666D01*
X203556250Y-94817380D02*
X203508630Y-94841190D01*
X203389583Y-94841190D01*
X203341964Y-94817380D01*
X203318154Y-94769761D01*
X203318154Y-94722142D01*
X203341964Y-94674523D01*
X203389583Y-94650714D01*
X203508630Y-94650714D01*
X203556250Y-94626904D01*
X203794345Y-94507857D02*
X203794345Y-94841190D01*
X203794345Y-94555476D02*
X203818154Y-94531666D01*
X203865773Y-94507857D01*
X203937202Y-94507857D01*
X203984821Y-94531666D01*
X204008630Y-94579285D01*
X204008630Y-94841190D01*
X204246726Y-94793571D02*
X204270535Y-94817380D01*
X204246726Y-94841190D01*
X204222916Y-94817380D01*
X204246726Y-94793571D01*
X204246726Y-94841190D01*
X204484821Y-94841190D02*
X204484821Y-94507857D01*
X204484821Y-94341190D02*
X204461011Y-94365000D01*
X204484821Y-94388809D01*
X204508630Y-94365000D01*
X204484821Y-94341190D01*
X204484821Y-94388809D01*
X204794345Y-94841190D02*
X204746726Y-94817380D01*
X204722916Y-94793571D01*
X204699107Y-94745952D01*
X204699107Y-94603095D01*
X204722916Y-94555476D01*
X204746726Y-94531666D01*
X204794345Y-94507857D01*
X204865773Y-94507857D01*
X204913392Y-94531666D01*
X204937202Y-94555476D01*
X204961011Y-94603095D01*
X204961011Y-94745952D01*
X204937202Y-94793571D01*
X204913392Y-94817380D01*
X204865773Y-94841190D01*
X204794345Y-94841190D01*
X200937202Y-93571190D02*
X200937202Y-93071190D01*
X201103869Y-93428333D01*
X201270535Y-93071190D01*
X201270535Y-93571190D01*
X201580059Y-93571190D02*
X201532440Y-93547380D01*
X201508630Y-93523571D01*
X201484821Y-93475952D01*
X201484821Y-93333095D01*
X201508630Y-93285476D01*
X201532440Y-93261666D01*
X201580059Y-93237857D01*
X201651488Y-93237857D01*
X201699107Y-93261666D01*
X201722916Y-93285476D01*
X201746726Y-93333095D01*
X201746726Y-93475952D01*
X201722916Y-93523571D01*
X201699107Y-93547380D01*
X201651488Y-93571190D01*
X201580059Y-93571190D01*
X202175297Y-93571190D02*
X202175297Y-93071190D01*
X202175297Y-93547380D02*
X202127678Y-93571190D01*
X202032440Y-93571190D01*
X201984821Y-93547380D01*
X201961011Y-93523571D01*
X201937202Y-93475952D01*
X201937202Y-93333095D01*
X201961011Y-93285476D01*
X201984821Y-93261666D01*
X202032440Y-93237857D01*
X202127678Y-93237857D01*
X202175297Y-93261666D01*
X202603869Y-93547380D02*
X202556250Y-93571190D01*
X202461011Y-93571190D01*
X202413392Y-93547380D01*
X202389583Y-93499761D01*
X202389583Y-93309285D01*
X202413392Y-93261666D01*
X202461011Y-93237857D01*
X202556250Y-93237857D01*
X202603869Y-93261666D01*
X202627678Y-93309285D01*
X202627678Y-93356904D01*
X202389583Y-93404523D01*
X202913392Y-93571190D02*
X202865773Y-93547380D01*
X202841964Y-93499761D01*
X202841964Y-93071190D01*
X203746726Y-93571190D02*
X203461011Y-93571190D01*
X203603869Y-93571190D02*
X203603869Y-93071190D01*
X203556250Y-93142619D01*
X203508630Y-93190238D01*
X203461011Y-93214047D01*
X203961011Y-93523571D02*
X203984821Y-93547380D01*
X203961011Y-93571190D01*
X203937202Y-93547380D01*
X203961011Y-93523571D01*
X203961011Y-93571190D01*
X204461011Y-93571190D02*
X204175297Y-93571190D01*
X204318154Y-93571190D02*
X204318154Y-93071190D01*
X204270535Y-93142619D01*
X204222916Y-93190238D01*
X204175297Y-93214047D01*
X204841964Y-93309285D02*
X204913392Y-93333095D01*
X204937202Y-93356904D01*
X204961011Y-93404523D01*
X204961011Y-93475952D01*
X204937202Y-93523571D01*
X204913392Y-93547380D01*
X204865773Y-93571190D01*
X204675297Y-93571190D01*
X204675297Y-93071190D01*
X204841964Y-93071190D01*
X204889583Y-93095000D01*
X204913392Y-93118809D01*
X204937202Y-93166428D01*
X204937202Y-93214047D01*
X204913392Y-93261666D01*
X204889583Y-93285476D01*
X204841964Y-93309285D01*
X204675297Y-93309285D01*
X198580059Y-92158333D02*
X198818154Y-92158333D01*
X198532440Y-92301190D02*
X198699107Y-91801190D01*
X198865773Y-92301190D01*
X198961011Y-91801190D02*
X199246726Y-91801190D01*
X199103869Y-92301190D02*
X199103869Y-91801190D01*
X199484821Y-92015476D02*
X199437202Y-91991666D01*
X199413392Y-91967857D01*
X199389583Y-91920238D01*
X199389583Y-91896428D01*
X199413392Y-91848809D01*
X199437202Y-91825000D01*
X199484821Y-91801190D01*
X199580059Y-91801190D01*
X199627678Y-91825000D01*
X199651488Y-91848809D01*
X199675297Y-91896428D01*
X199675297Y-91920238D01*
X199651488Y-91967857D01*
X199627678Y-91991666D01*
X199580059Y-92015476D01*
X199484821Y-92015476D01*
X199437202Y-92039285D01*
X199413392Y-92063095D01*
X199389583Y-92110714D01*
X199389583Y-92205952D01*
X199413392Y-92253571D01*
X199437202Y-92277380D01*
X199484821Y-92301190D01*
X199580059Y-92301190D01*
X199627678Y-92277380D01*
X199651488Y-92253571D01*
X199675297Y-92205952D01*
X199675297Y-92110714D01*
X199651488Y-92063095D01*
X199627678Y-92039285D01*
X199580059Y-92015476D01*
X200103869Y-91801190D02*
X200008630Y-91801190D01*
X199961011Y-91825000D01*
X199937202Y-91848809D01*
X199889583Y-91920238D01*
X199865773Y-92015476D01*
X199865773Y-92205952D01*
X199889583Y-92253571D01*
X199913392Y-92277380D01*
X199961011Y-92301190D01*
X200056250Y-92301190D01*
X200103869Y-92277380D01*
X200127678Y-92253571D01*
X200151488Y-92205952D01*
X200151488Y-92086904D01*
X200127678Y-92039285D01*
X200103869Y-92015476D01*
X200056250Y-91991666D01*
X199961011Y-91991666D01*
X199913392Y-92015476D01*
X199889583Y-92039285D01*
X199865773Y-92086904D01*
X200651488Y-92301190D02*
X200484821Y-92063095D01*
X200365773Y-92301190D02*
X200365773Y-91801190D01*
X200556250Y-91801190D01*
X200603869Y-91825000D01*
X200627678Y-91848809D01*
X200651488Y-91896428D01*
X200651488Y-91967857D01*
X200627678Y-92015476D01*
X200603869Y-92039285D01*
X200556250Y-92063095D01*
X200365773Y-92063095D01*
X201032440Y-92039285D02*
X200865773Y-92039285D01*
X200865773Y-92301190D02*
X200865773Y-91801190D01*
X201103869Y-91801190D01*
X201270535Y-91848809D02*
X201294345Y-91825000D01*
X201341964Y-91801190D01*
X201461011Y-91801190D01*
X201508630Y-91825000D01*
X201532440Y-91848809D01*
X201556250Y-91896428D01*
X201556250Y-91944047D01*
X201532440Y-92015476D01*
X201246726Y-92301190D01*
X201556250Y-92301190D01*
X202032440Y-92301190D02*
X201746726Y-92301190D01*
X201889583Y-92301190D02*
X201889583Y-91801190D01*
X201841964Y-91872619D01*
X201794345Y-91920238D01*
X201746726Y-91944047D01*
X202222916Y-91848809D02*
X202246726Y-91825000D01*
X202294345Y-91801190D01*
X202413392Y-91801190D01*
X202461011Y-91825000D01*
X202484821Y-91848809D01*
X202508630Y-91896428D01*
X202508630Y-91944047D01*
X202484821Y-92015476D01*
X202199107Y-92301190D01*
X202508630Y-92301190D01*
X202889583Y-92039285D02*
X202961011Y-92063095D01*
X202984821Y-92086904D01*
X203008630Y-92134523D01*
X203008630Y-92205952D01*
X202984821Y-92253571D01*
X202961011Y-92277380D01*
X202913392Y-92301190D01*
X202722916Y-92301190D01*
X202722916Y-91801190D01*
X202889583Y-91801190D01*
X202937202Y-91825000D01*
X202961011Y-91848809D01*
X202984821Y-91896428D01*
X202984821Y-91944047D01*
X202961011Y-91991666D01*
X202937202Y-92015476D01*
X202889583Y-92039285D01*
X202722916Y-92039285D01*
X203580059Y-91777380D02*
X203151488Y-92420238D01*
X203818154Y-92015476D02*
X203770535Y-91991666D01*
X203746726Y-91967857D01*
X203722916Y-91920238D01*
X203722916Y-91896428D01*
X203746726Y-91848809D01*
X203770535Y-91825000D01*
X203818154Y-91801190D01*
X203913392Y-91801190D01*
X203961011Y-91825000D01*
X203984821Y-91848809D01*
X204008630Y-91896428D01*
X204008630Y-91920238D01*
X203984821Y-91967857D01*
X203961011Y-91991666D01*
X203913392Y-92015476D01*
X203818154Y-92015476D01*
X203770535Y-92039285D01*
X203746726Y-92063095D01*
X203722916Y-92110714D01*
X203722916Y-92205952D01*
X203746726Y-92253571D01*
X203770535Y-92277380D01*
X203818154Y-92301190D01*
X203913392Y-92301190D01*
X203961011Y-92277380D01*
X203984821Y-92253571D01*
X204008630Y-92205952D01*
X204008630Y-92110714D01*
X203984821Y-92063095D01*
X203961011Y-92039285D01*
X203913392Y-92015476D01*
X204437202Y-91801190D02*
X204341964Y-91801190D01*
X204294345Y-91825000D01*
X204270535Y-91848809D01*
X204222916Y-91920238D01*
X204199107Y-92015476D01*
X204199107Y-92205952D01*
X204222916Y-92253571D01*
X204246726Y-92277380D01*
X204294345Y-92301190D01*
X204389583Y-92301190D01*
X204437202Y-92277380D01*
X204461011Y-92253571D01*
X204484821Y-92205952D01*
X204484821Y-92086904D01*
X204461011Y-92039285D01*
X204437202Y-92015476D01*
X204389583Y-91991666D01*
X204294345Y-91991666D01*
X204246726Y-92015476D01*
X204222916Y-92039285D01*
X204199107Y-92086904D01*
X204770535Y-92015476D02*
X204722916Y-91991666D01*
X204699107Y-91967857D01*
X204675297Y-91920238D01*
X204675297Y-91896428D01*
X204699107Y-91848809D01*
X204722916Y-91825000D01*
X204770535Y-91801190D01*
X204865773Y-91801190D01*
X204913392Y-91825000D01*
X204937202Y-91848809D01*
X204961011Y-91896428D01*
X204961011Y-91920238D01*
X204937202Y-91967857D01*
X204913392Y-91991666D01*
X204865773Y-92015476D01*
X204770535Y-92015476D01*
X204722916Y-92039285D01*
X204699107Y-92063095D01*
X204675297Y-92110714D01*
X204675297Y-92205952D01*
X204699107Y-92253571D01*
X204722916Y-92277380D01*
X204770535Y-92301190D01*
X204865773Y-92301190D01*
X204913392Y-92277380D01*
X204937202Y-92253571D01*
X204961011Y-92205952D01*
X204961011Y-92110714D01*
X204937202Y-92063095D01*
X204913392Y-92039285D01*
X204865773Y-92015476D01*
D12*
X181525000Y-84413000D02*
X181525000Y-83888000D01*
X186775000Y-79163000D02*
X186775000Y-79688000D01*
X181525000Y-79163000D02*
X181525000Y-79688000D01*
X186775000Y-84413000D02*
X186250000Y-84413000D01*
X186775000Y-79163000D02*
X186250000Y-79163000D01*
X181525000Y-79163000D02*
X182050000Y-79163000D01*
X181525000Y-84413000D02*
X182050000Y-84413000D01*
D13*
X192062000Y-81988000D02*
X192262000Y-81988000D01*
X192062000Y-81588000D02*
X192262000Y-81588000D01*
X191662000Y-81588000D02*
X191662000Y-81988000D01*
X191662000Y-81988000D02*
X192062000Y-81988000D01*
X192062000Y-81588000D02*
X191662000Y-81588000D01*
X192262000Y-81788000D02*
X192262000Y-82488000D01*
X192262000Y-82488000D02*
X190262000Y-82488000D01*
X190262000Y-82488000D02*
X190262000Y-81788000D01*
X190262000Y-81788000D02*
X190262000Y-81088000D01*
X190262000Y-81088000D02*
X192262000Y-81088000D01*
X192262000Y-81088000D02*
X192262000Y-81788000D01*
D14*
X184273000Y-75730000D02*
X183773000Y-75730000D01*
X183773000Y-76670000D02*
X184273000Y-76670000D01*
X181487000Y-76479500D02*
X181987000Y-76479500D01*
X181987000Y-75539500D02*
X181487000Y-75539500D01*
X178270000Y-80514000D02*
X178270000Y-80014000D01*
X177330000Y-80014000D02*
X177330000Y-80514000D01*
X178854000Y-88015000D02*
X178854000Y-88515000D01*
X179794000Y-88515000D02*
X179794000Y-88015000D01*
X186821000Y-87211000D02*
X187321000Y-87211000D01*
X187321000Y-86271000D02*
X186821000Y-86271000D01*
X186186000Y-88481000D02*
X186686000Y-88481000D01*
X186686000Y-87541000D02*
X186186000Y-87541000D01*
X181860000Y-90335000D02*
X181360000Y-90335000D01*
X181360000Y-91275000D02*
X181860000Y-91275000D01*
X193171000Y-81369000D02*
X193671000Y-81369000D01*
X193671000Y-80429000D02*
X193171000Y-80429000D01*
X191830000Y-95310000D02*
X191830000Y-92650000D01*
X176530000Y-95310000D02*
X191830000Y-95310000D01*
X176530000Y-92650000D02*
X191830000Y-92650000D01*
X176530000Y-95310000D02*
X176530000Y-92650000D01*
X175260000Y-95310000D02*
X173930000Y-95310000D01*
X173930000Y-95310000D02*
X173930000Y-93980000D01*
X191830000Y-74990000D02*
X191830000Y-72330000D01*
X176530000Y-74990000D02*
X191830000Y-74990000D01*
X176530000Y-72330000D02*
X191830000Y-72330000D01*
X176530000Y-74990000D02*
X176530000Y-72330000D01*
X175260000Y-74990000D02*
X173930000Y-74990000D01*
X173930000Y-74990000D02*
X173930000Y-73660000D01*
X190554500Y-75981000D02*
X190554500Y-77181000D01*
X188794500Y-77181000D02*
X188794500Y-75981000D01*
X185746500Y-90770000D02*
X185746500Y-89570000D01*
X187506500Y-89570000D02*
X187506500Y-90770000D01*
X177270000Y-78109000D02*
X177270000Y-78609000D01*
X178330000Y-78609000D02*
X178330000Y-78109000D01*
X185741500Y-76730000D02*
X186241500Y-76730000D01*
X186241500Y-75670000D02*
X185741500Y-75670000D01*
X187583000Y-76730000D02*
X188083000Y-76730000D01*
X188083000Y-75670000D02*
X187583000Y-75670000D01*
X190178500Y-88243000D02*
X189678500Y-88243000D01*
X189678500Y-89303000D02*
X190178500Y-89303000D01*
X191329500Y-89303000D02*
X191829500Y-89303000D01*
X191829500Y-88243000D02*
X191329500Y-88243000D01*
X195507200Y-81080800D02*
X195507200Y-81580800D01*
X196567200Y-81580800D02*
X196567200Y-81080800D01*
X179960000Y-90138000D02*
X183260000Y-90138000D01*
X183260000Y-90138000D02*
X183260000Y-86138000D01*
X178711000Y-85340000D02*
X178711000Y-84840000D01*
X177651000Y-84840000D02*
X177651000Y-85340000D01*
D12*
X187045695Y-77912980D02*
X187045695Y-78722504D01*
X187093314Y-78817742D01*
X187140933Y-78865361D01*
X187236171Y-78912980D01*
X187426647Y-78912980D01*
X187521885Y-78865361D01*
X187569504Y-78817742D01*
X187617123Y-78722504D01*
X187617123Y-77912980D01*
X188617123Y-78912980D02*
X188045695Y-78912980D01*
X188331409Y-78912980D02*
X188331409Y-77912980D01*
X188236171Y-78055838D01*
X188140933Y-78151076D01*
X188045695Y-78198695D01*
X190857238Y-84216571D02*
X191000095Y-84264190D01*
X191047714Y-84311809D01*
X191095333Y-84407047D01*
X191095333Y-84549904D01*
X191047714Y-84645142D01*
X191000095Y-84692761D01*
X190904857Y-84740380D01*
X190523904Y-84740380D01*
X190523904Y-83740380D01*
X190857238Y-83740380D01*
X190952476Y-83788000D01*
X191000095Y-83835619D01*
X191047714Y-83930857D01*
X191047714Y-84026095D01*
X191000095Y-84121333D01*
X190952476Y-84168952D01*
X190857238Y-84216571D01*
X190523904Y-84216571D01*
X192047714Y-84740380D02*
X191476285Y-84740380D01*
X191762000Y-84740380D02*
X191762000Y-83740380D01*
X191666761Y-83883238D01*
X191571523Y-83978476D01*
X191476285Y-84026095D01*
X183856333Y-77573142D02*
X183808714Y-77620761D01*
X183665857Y-77668380D01*
X183570619Y-77668380D01*
X183427761Y-77620761D01*
X183332523Y-77525523D01*
X183284904Y-77430285D01*
X183237285Y-77239809D01*
X183237285Y-77096952D01*
X183284904Y-76906476D01*
X183332523Y-76811238D01*
X183427761Y-76716000D01*
X183570619Y-76668380D01*
X183665857Y-76668380D01*
X183808714Y-76716000D01*
X183856333Y-76763619D01*
X184808714Y-77668380D02*
X184237285Y-77668380D01*
X184523000Y-77668380D02*
X184523000Y-76668380D01*
X184427761Y-76811238D01*
X184332523Y-76906476D01*
X184237285Y-76954095D01*
X179665333Y-76366642D02*
X179617714Y-76414261D01*
X179474857Y-76461880D01*
X179379619Y-76461880D01*
X179236761Y-76414261D01*
X179141523Y-76319023D01*
X179093904Y-76223785D01*
X179046285Y-76033309D01*
X179046285Y-75890452D01*
X179093904Y-75699976D01*
X179141523Y-75604738D01*
X179236761Y-75509500D01*
X179379619Y-75461880D01*
X179474857Y-75461880D01*
X179617714Y-75509500D01*
X179665333Y-75557119D01*
X180046285Y-75557119D02*
X180093904Y-75509500D01*
X180189142Y-75461880D01*
X180427238Y-75461880D01*
X180522476Y-75509500D01*
X180570095Y-75557119D01*
X180617714Y-75652357D01*
X180617714Y-75747595D01*
X180570095Y-75890452D01*
X179998666Y-76461880D01*
X180617714Y-76461880D01*
X177014142Y-80430666D02*
X177061761Y-80478285D01*
X177109380Y-80621142D01*
X177109380Y-80716380D01*
X177061761Y-80859238D01*
X176966523Y-80954476D01*
X176871285Y-81002095D01*
X176680809Y-81049714D01*
X176537952Y-81049714D01*
X176347476Y-81002095D01*
X176252238Y-80954476D01*
X176157000Y-80859238D01*
X176109380Y-80716380D01*
X176109380Y-80621142D01*
X176157000Y-80478285D01*
X176204619Y-80430666D01*
X176109380Y-80097333D02*
X176109380Y-79478285D01*
X176490333Y-79811619D01*
X176490333Y-79668761D01*
X176537952Y-79573523D01*
X176585571Y-79525904D01*
X176680809Y-79478285D01*
X176918904Y-79478285D01*
X177014142Y-79525904D01*
X177061761Y-79573523D01*
X177109380Y-79668761D01*
X177109380Y-79954476D01*
X177061761Y-80049714D01*
X177014142Y-80097333D01*
X178004742Y-88406266D02*
X178052361Y-88453885D01*
X178099980Y-88596742D01*
X178099980Y-88691980D01*
X178052361Y-88834838D01*
X177957123Y-88930076D01*
X177861885Y-88977695D01*
X177671409Y-89025314D01*
X177528552Y-89025314D01*
X177338076Y-88977695D01*
X177242838Y-88930076D01*
X177147600Y-88834838D01*
X177099980Y-88691980D01*
X177099980Y-88596742D01*
X177147600Y-88453885D01*
X177195219Y-88406266D01*
X177099980Y-87501504D02*
X177099980Y-87977695D01*
X177576171Y-88025314D01*
X177528552Y-87977695D01*
X177480933Y-87882457D01*
X177480933Y-87644361D01*
X177528552Y-87549123D01*
X177576171Y-87501504D01*
X177671409Y-87453885D01*
X177909504Y-87453885D01*
X178004742Y-87501504D01*
X178052361Y-87549123D01*
X178099980Y-87644361D01*
X178099980Y-87882457D01*
X178052361Y-87977695D01*
X178004742Y-88025314D01*
X188872833Y-86971142D02*
X188825214Y-87018761D01*
X188682357Y-87066380D01*
X188587119Y-87066380D01*
X188444261Y-87018761D01*
X188349023Y-86923523D01*
X188301404Y-86828285D01*
X188253785Y-86637809D01*
X188253785Y-86494952D01*
X188301404Y-86304476D01*
X188349023Y-86209238D01*
X188444261Y-86114000D01*
X188587119Y-86066380D01*
X188682357Y-86066380D01*
X188825214Y-86114000D01*
X188872833Y-86161619D01*
X189729976Y-86066380D02*
X189539500Y-86066380D01*
X189444261Y-86114000D01*
X189396642Y-86161619D01*
X189301404Y-86304476D01*
X189253785Y-86494952D01*
X189253785Y-86875904D01*
X189301404Y-86971142D01*
X189349023Y-87018761D01*
X189444261Y-87066380D01*
X189634738Y-87066380D01*
X189729976Y-87018761D01*
X189777595Y-86971142D01*
X189825214Y-86875904D01*
X189825214Y-86637809D01*
X189777595Y-86542571D01*
X189729976Y-86494952D01*
X189634738Y-86447333D01*
X189444261Y-86447333D01*
X189349023Y-86494952D01*
X189301404Y-86542571D01*
X189253785Y-86637809D01*
X188174333Y-88368142D02*
X188126714Y-88415761D01*
X187983857Y-88463380D01*
X187888619Y-88463380D01*
X187745761Y-88415761D01*
X187650523Y-88320523D01*
X187602904Y-88225285D01*
X187555285Y-88034809D01*
X187555285Y-87891952D01*
X187602904Y-87701476D01*
X187650523Y-87606238D01*
X187745761Y-87511000D01*
X187888619Y-87463380D01*
X187983857Y-87463380D01*
X188126714Y-87511000D01*
X188174333Y-87558619D01*
X188507666Y-87463380D02*
X189174333Y-87463380D01*
X188745761Y-88463380D01*
X183830933Y-91289142D02*
X183783314Y-91336761D01*
X183640457Y-91384380D01*
X183545219Y-91384380D01*
X183402361Y-91336761D01*
X183307123Y-91241523D01*
X183259504Y-91146285D01*
X183211885Y-90955809D01*
X183211885Y-90812952D01*
X183259504Y-90622476D01*
X183307123Y-90527238D01*
X183402361Y-90432000D01*
X183545219Y-90384380D01*
X183640457Y-90384380D01*
X183783314Y-90432000D01*
X183830933Y-90479619D01*
X184402361Y-90812952D02*
X184307123Y-90765333D01*
X184259504Y-90717714D01*
X184211885Y-90622476D01*
X184211885Y-90574857D01*
X184259504Y-90479619D01*
X184307123Y-90432000D01*
X184402361Y-90384380D01*
X184592838Y-90384380D01*
X184688076Y-90432000D01*
X184735695Y-90479619D01*
X184783314Y-90574857D01*
X184783314Y-90622476D01*
X184735695Y-90717714D01*
X184688076Y-90765333D01*
X184592838Y-90812952D01*
X184402361Y-90812952D01*
X184307123Y-90860571D01*
X184259504Y-90908190D01*
X184211885Y-91003428D01*
X184211885Y-91193904D01*
X184259504Y-91289142D01*
X184307123Y-91336761D01*
X184402361Y-91384380D01*
X184592838Y-91384380D01*
X184688076Y-91336761D01*
X184735695Y-91289142D01*
X184783314Y-91193904D01*
X184783314Y-91003428D01*
X184735695Y-90908190D01*
X184688076Y-90860571D01*
X184592838Y-90812952D01*
X192905142Y-79732142D02*
X192857523Y-79779761D01*
X192714666Y-79827380D01*
X192619428Y-79827380D01*
X192476571Y-79779761D01*
X192381333Y-79684523D01*
X192333714Y-79589285D01*
X192286095Y-79398809D01*
X192286095Y-79255952D01*
X192333714Y-79065476D01*
X192381333Y-78970238D01*
X192476571Y-78875000D01*
X192619428Y-78827380D01*
X192714666Y-78827380D01*
X192857523Y-78875000D01*
X192905142Y-78922619D01*
X193857523Y-79827380D02*
X193286095Y-79827380D01*
X193571809Y-79827380D02*
X193571809Y-78827380D01*
X193476571Y-78970238D01*
X193381333Y-79065476D01*
X193286095Y-79113095D01*
X194476571Y-78827380D02*
X194571809Y-78827380D01*
X194667047Y-78875000D01*
X194714666Y-78922619D01*
X194762285Y-79017857D01*
X194809904Y-79208333D01*
X194809904Y-79446428D01*
X194762285Y-79636904D01*
X194714666Y-79732142D01*
X194667047Y-79779761D01*
X194571809Y-79827380D01*
X194476571Y-79827380D01*
X194381333Y-79779761D01*
X194333714Y-79732142D01*
X194286095Y-79636904D01*
X194238476Y-79446428D01*
X194238476Y-79208333D01*
X194286095Y-79017857D01*
X194333714Y-78922619D01*
X194381333Y-78875000D01*
X194476571Y-78827380D01*
D15*
X202694080Y-76179438D02*
X202694080Y-76868866D01*
X202648118Y-77006752D01*
X202556194Y-77098676D01*
X202418308Y-77144638D01*
X202326385Y-77144638D01*
X203659280Y-77144638D02*
X203107737Y-77144638D01*
X203383508Y-77144638D02*
X203383508Y-76179438D01*
X203291585Y-76317323D01*
X203199661Y-76409247D01*
X203107737Y-76455209D01*
D16*
X199076152Y-76867173D02*
X199443848Y-76867173D01*
X199002613Y-77087790D02*
X199260000Y-76315630D01*
X199517387Y-77087790D01*
X199774773Y-77087790D02*
X199774773Y-76315630D01*
X200216008Y-77087790D01*
X200216008Y-76315630D01*
X200473394Y-76315630D02*
X200914628Y-76315630D01*
X200694011Y-77087790D02*
X200694011Y-76315630D01*
D12*
X192682880Y-94376833D02*
X193397166Y-94376833D01*
X193540023Y-94424452D01*
X193635261Y-94519690D01*
X193682880Y-94662547D01*
X193682880Y-94757785D01*
X192778119Y-93948261D02*
X192730500Y-93900642D01*
X192682880Y-93805404D01*
X192682880Y-93567309D01*
X192730500Y-93472071D01*
X192778119Y-93424452D01*
X192873357Y-93376833D01*
X192968595Y-93376833D01*
X193111452Y-93424452D01*
X193682880Y-93995880D01*
X193682880Y-93376833D01*
X192682880Y-73231333D02*
X193397166Y-73231333D01*
X193540023Y-73278952D01*
X193635261Y-73374190D01*
X193682880Y-73517047D01*
X193682880Y-73612285D01*
X192682880Y-72850380D02*
X192682880Y-72231333D01*
X193063833Y-72564666D01*
X193063833Y-72421809D01*
X193111452Y-72326571D01*
X193159071Y-72278952D01*
X193254309Y-72231333D01*
X193492404Y-72231333D01*
X193587642Y-72278952D01*
X193635261Y-72326571D01*
X193682880Y-72421809D01*
X193682880Y-72707523D01*
X193635261Y-72802761D01*
X193587642Y-72850380D01*
X191777880Y-76366666D02*
X191777880Y-76842857D01*
X190777880Y-76842857D01*
X190873119Y-76080952D02*
X190825500Y-76033333D01*
X190777880Y-75938095D01*
X190777880Y-75700000D01*
X190825500Y-75604761D01*
X190873119Y-75557142D01*
X190968357Y-75509523D01*
X191063595Y-75509523D01*
X191206452Y-75557142D01*
X191777880Y-76128571D01*
X191777880Y-75509523D01*
X188250533Y-91943180D02*
X187774342Y-91943180D01*
X187774342Y-90943180D01*
X188488628Y-90943180D02*
X189107676Y-90943180D01*
X188774342Y-91324133D01*
X188917200Y-91324133D01*
X189012438Y-91371752D01*
X189060057Y-91419371D01*
X189107676Y-91514609D01*
X189107676Y-91752704D01*
X189060057Y-91847942D01*
X189012438Y-91895561D01*
X188917200Y-91943180D01*
X188631485Y-91943180D01*
X188536247Y-91895561D01*
X188488628Y-91847942D01*
X178252380Y-76747666D02*
X177776190Y-77081000D01*
X178252380Y-77319095D02*
X177252380Y-77319095D01*
X177252380Y-76938142D01*
X177300000Y-76842904D01*
X177347619Y-76795285D01*
X177442857Y-76747666D01*
X177585714Y-76747666D01*
X177680952Y-76795285D01*
X177728571Y-76842904D01*
X177776190Y-76938142D01*
X177776190Y-77319095D01*
X178252380Y-75795285D02*
X178252380Y-76366714D01*
X178252380Y-76081000D02*
X177252380Y-76081000D01*
X177395238Y-76176238D01*
X177490476Y-76271476D01*
X177538095Y-76366714D01*
X186205833Y-77541380D02*
X185872500Y-77065190D01*
X185634404Y-77541380D02*
X185634404Y-76541380D01*
X186015357Y-76541380D01*
X186110595Y-76589000D01*
X186158214Y-76636619D01*
X186205833Y-76731857D01*
X186205833Y-76874714D01*
X186158214Y-76969952D01*
X186110595Y-77017571D01*
X186015357Y-77065190D01*
X185634404Y-77065190D01*
X186586785Y-76636619D02*
X186634404Y-76589000D01*
X186729642Y-76541380D01*
X186967738Y-76541380D01*
X187062976Y-76589000D01*
X187110595Y-76636619D01*
X187158214Y-76731857D01*
X187158214Y-76827095D01*
X187110595Y-76969952D01*
X186539166Y-77541380D01*
X187158214Y-77541380D01*
X187729833Y-75636380D02*
X187396500Y-75160190D01*
X187158404Y-75636380D02*
X187158404Y-74636380D01*
X187539357Y-74636380D01*
X187634595Y-74684000D01*
X187682214Y-74731619D01*
X187729833Y-74826857D01*
X187729833Y-74969714D01*
X187682214Y-75064952D01*
X187634595Y-75112571D01*
X187539357Y-75160190D01*
X187158404Y-75160190D01*
X188063166Y-74636380D02*
X188682214Y-74636380D01*
X188348880Y-75017333D01*
X188491738Y-75017333D01*
X188586976Y-75064952D01*
X188634595Y-75112571D01*
X188682214Y-75207809D01*
X188682214Y-75445904D01*
X188634595Y-75541142D01*
X188586976Y-75588761D01*
X188491738Y-75636380D01*
X188206023Y-75636380D01*
X188110785Y-75588761D01*
X188063166Y-75541142D01*
X189190333Y-90558880D02*
X188857000Y-90082690D01*
X188618904Y-90558880D02*
X188618904Y-89558880D01*
X188999857Y-89558880D01*
X189095095Y-89606500D01*
X189142714Y-89654119D01*
X189190333Y-89749357D01*
X189190333Y-89892214D01*
X189142714Y-89987452D01*
X189095095Y-90035071D01*
X188999857Y-90082690D01*
X188618904Y-90082690D01*
X190047476Y-89892214D02*
X190047476Y-90558880D01*
X189809380Y-89511261D02*
X189571285Y-90225547D01*
X190190333Y-90225547D01*
X191984333Y-90622380D02*
X191651000Y-90146190D01*
X191412904Y-90622380D02*
X191412904Y-89622380D01*
X191793857Y-89622380D01*
X191889095Y-89670000D01*
X191936714Y-89717619D01*
X191984333Y-89812857D01*
X191984333Y-89955714D01*
X191936714Y-90050952D01*
X191889095Y-90098571D01*
X191793857Y-90146190D01*
X191412904Y-90146190D01*
X192889095Y-89622380D02*
X192412904Y-89622380D01*
X192365285Y-90098571D01*
X192412904Y-90050952D01*
X192508142Y-90003333D01*
X192746238Y-90003333D01*
X192841476Y-90050952D01*
X192889095Y-90098571D01*
X192936714Y-90193809D01*
X192936714Y-90431904D01*
X192889095Y-90527142D01*
X192841476Y-90574761D01*
X192746238Y-90622380D01*
X192508142Y-90622380D01*
X192412904Y-90574761D01*
X192365285Y-90527142D01*
X196540380Y-83783466D02*
X196064190Y-84116800D01*
X196540380Y-84354895D02*
X195540380Y-84354895D01*
X195540380Y-83973942D01*
X195588000Y-83878704D01*
X195635619Y-83831085D01*
X195730857Y-83783466D01*
X195873714Y-83783466D01*
X195968952Y-83831085D01*
X196016571Y-83878704D01*
X196064190Y-83973942D01*
X196064190Y-84354895D01*
X195968952Y-83212038D02*
X195921333Y-83307276D01*
X195873714Y-83354895D01*
X195778476Y-83402514D01*
X195730857Y-83402514D01*
X195635619Y-83354895D01*
X195588000Y-83307276D01*
X195540380Y-83212038D01*
X195540380Y-83021561D01*
X195588000Y-82926323D01*
X195635619Y-82878704D01*
X195730857Y-82831085D01*
X195778476Y-82831085D01*
X195873714Y-82878704D01*
X195921333Y-82926323D01*
X195968952Y-83021561D01*
X195968952Y-83212038D01*
X196016571Y-83307276D01*
X196064190Y-83354895D01*
X196159428Y-83402514D01*
X196349904Y-83402514D01*
X196445142Y-83354895D01*
X196492761Y-83307276D01*
X196540380Y-83212038D01*
X196540380Y-83021561D01*
X196492761Y-82926323D01*
X196445142Y-82878704D01*
X196349904Y-82831085D01*
X196159428Y-82831085D01*
X196064190Y-82878704D01*
X196016571Y-82926323D01*
X195968952Y-83021561D01*
X178944590Y-91458990D02*
X179420780Y-91458990D01*
X178420780Y-91792323D02*
X178944590Y-91458990D01*
X178420780Y-91125657D01*
X179420780Y-90268514D02*
X179420780Y-90839942D01*
X179420780Y-90554228D02*
X178420780Y-90554228D01*
X178563638Y-90649466D01*
X178658876Y-90744704D01*
X178706495Y-90839942D01*
X176490333Y-84970880D02*
X176157000Y-84494690D01*
X175918904Y-84970880D02*
X175918904Y-83970880D01*
X176299857Y-83970880D01*
X176395095Y-84018500D01*
X176442714Y-84066119D01*
X176490333Y-84161357D01*
X176490333Y-84304214D01*
X176442714Y-84399452D01*
X176395095Y-84447071D01*
X176299857Y-84494690D01*
X175918904Y-84494690D01*
X177347476Y-83970880D02*
X177157000Y-83970880D01*
X177061761Y-84018500D01*
X177014142Y-84066119D01*
X176918904Y-84208976D01*
X176871285Y-84399452D01*
X176871285Y-84780404D01*
X176918904Y-84875642D01*
X176966523Y-84923261D01*
X177061761Y-84970880D01*
X177252238Y-84970880D01*
X177347476Y-84923261D01*
X177395095Y-84875642D01*
X177442714Y-84780404D01*
X177442714Y-84542309D01*
X177395095Y-84447071D01*
X177347476Y-84399452D01*
X177252238Y-84351833D01*
X177061761Y-84351833D01*
X176966523Y-84399452D01*
X176918904Y-84447071D01*
X176871285Y-84542309D01*
%LPC*%
D17*
X186550000Y-83538000D03*
X186550000Y-83038000D03*
X186550000Y-82538000D03*
X186550000Y-82038000D03*
X186550000Y-81538000D03*
X186550000Y-81038000D03*
X186550000Y-80538000D03*
X186550000Y-80038000D03*
D18*
X185900000Y-79388000D03*
X185400000Y-79388000D03*
X184900000Y-79388000D03*
X184400000Y-79388000D03*
X183900000Y-79388000D03*
X183400000Y-79388000D03*
X182900000Y-79388000D03*
X182400000Y-79388000D03*
D17*
X181750000Y-80038000D03*
X181750000Y-80538000D03*
X181750000Y-81038000D03*
X181750000Y-81538000D03*
X181750000Y-82038000D03*
X181750000Y-82538000D03*
X181750000Y-83038000D03*
X181750000Y-83538000D03*
D18*
X182400000Y-84188000D03*
X182900000Y-84188000D03*
X183400000Y-84188000D03*
X183900000Y-84188000D03*
X184400000Y-84188000D03*
X184900000Y-84188000D03*
X185400000Y-84188000D03*
X185900000Y-84188000D03*
D19*
X183287500Y-80925500D03*
X183287500Y-82650500D03*
X185012500Y-80925500D03*
X185012500Y-82650500D03*
D20*
X191912000Y-80938000D03*
X191262000Y-80938000D03*
X190612000Y-80938000D03*
X190612000Y-82638000D03*
X191262000Y-82638000D03*
X191912000Y-82638000D03*
D21*
X183473000Y-76200000D03*
X184573000Y-76200000D03*
X182287000Y-76009500D03*
X181187000Y-76009500D03*
D22*
X177800000Y-79714000D03*
X177800000Y-80814000D03*
X179324000Y-88815000D03*
X179324000Y-87715000D03*
D21*
X187621000Y-86741000D03*
X186521000Y-86741000D03*
X186986000Y-88011000D03*
X185886000Y-88011000D03*
X181060000Y-90805000D03*
X182160000Y-90805000D03*
X193971000Y-80899000D03*
X192871000Y-80899000D03*
D23*
X203200000Y-83439000D03*
X203200000Y-78359000D03*
D24*
X203200000Y-80899000D03*
D25*
X175260000Y-93980000D03*
D26*
X177800000Y-93980000D03*
X180340000Y-93980000D03*
X182880000Y-93980000D03*
X185420000Y-93980000D03*
X187960000Y-93980000D03*
X190500000Y-93980000D03*
D25*
X175260000Y-73660000D03*
D26*
X177800000Y-73660000D03*
X180340000Y-73660000D03*
X182880000Y-73660000D03*
X185420000Y-73660000D03*
X187960000Y-73660000D03*
X190500000Y-73660000D03*
D27*
X189674500Y-77531000D03*
X189674500Y-75631000D03*
X186626500Y-89220000D03*
X186626500Y-91120000D03*
D28*
X177800000Y-78809000D03*
X177800000Y-77909000D03*
D29*
X186441500Y-76200000D03*
X185541500Y-76200000D03*
X188283000Y-76200000D03*
X187383000Y-76200000D03*
X189478500Y-88773000D03*
X190378500Y-88773000D03*
X192029500Y-88773000D03*
X191129500Y-88773000D03*
D28*
X196037200Y-81780800D03*
X196037200Y-80880800D03*
D30*
X182460000Y-89238000D03*
X182460000Y-87038000D03*
X180760000Y-87038000D03*
X180760000Y-89238000D03*
D28*
X178181000Y-84640000D03*
X178181000Y-85540000D03*
M02*
