%FSLAX45Y45*%
G04 Gerber Fmt 4.5, Leading zero omitted, Abs format (unit mm)*
G04 Created by KiCad (PCBNEW 4.0.7) date Tue Oct 31 14:08:35 2017*
%MOMM*%
%LPD*%
G01*
G04 APERTURE LIST*
%ADD10C,0.127000*%
%ADD11C,0.150000*%
%ADD12C,0.200000*%
%ADD13C,0.300000*%
G04 APERTURE END LIST*
D10*
D11*
X17081500Y-7137400D02*
X20579080Y-7137400D01*
X20579080Y-9629140D02*
X20579080Y-7137400D01*
X17081500Y-9629140D02*
X20579080Y-9629140D01*
X17081500Y-9629140D02*
X17081500Y-7137400D01*
D12*
X17160400Y-8943500D02*
X17180400Y-8963500D01*
X17180400Y-8943500D02*
X17160400Y-8963500D01*
X17198500Y-9134000D02*
X17218500Y-9154000D01*
X17218500Y-9134000D02*
X17198500Y-9154000D01*
X17198500Y-9324500D02*
X17218500Y-9344500D01*
X17218500Y-9324500D02*
X17198500Y-9344500D01*
X17198500Y-9515000D02*
X17218500Y-9535000D01*
X17218500Y-9515000D02*
X17198500Y-9535000D01*
X17325500Y-7292500D02*
X17345500Y-7312500D01*
X17345500Y-7292500D02*
X17325500Y-7312500D01*
X17325500Y-7419500D02*
X17345500Y-7439500D01*
X17345500Y-7419500D02*
X17325500Y-7439500D01*
X17325500Y-7610000D02*
X17345500Y-7630000D01*
X17345500Y-7610000D02*
X17325500Y-7630000D01*
X17325500Y-7800500D02*
X17345500Y-7820500D01*
X17345500Y-7800500D02*
X17325500Y-7820500D01*
X17325500Y-7991000D02*
X17345500Y-8011000D01*
X17345500Y-7991000D02*
X17325500Y-8011000D01*
X17325500Y-8181500D02*
X17345500Y-8201500D01*
X17345500Y-8181500D02*
X17325500Y-8201500D01*
X17325500Y-8372000D02*
X17345500Y-8392000D01*
X17345500Y-8372000D02*
X17325500Y-8392000D01*
X17325500Y-8562500D02*
X17345500Y-8582500D01*
X17345500Y-8562500D02*
X17325500Y-8582500D01*
X17325500Y-8753000D02*
X17345500Y-8773000D01*
X17345500Y-8753000D02*
X17325500Y-8773000D01*
X17325500Y-8943500D02*
X17345500Y-8963500D01*
X17345500Y-8943500D02*
X17325500Y-8963500D01*
X17325500Y-9515000D02*
X17345500Y-9535000D01*
X17345500Y-9515000D02*
X17325500Y-9535000D01*
X17363600Y-9159400D02*
X17383600Y-9179400D01*
X17383600Y-9159400D02*
X17363600Y-9179400D01*
X17363600Y-9266080D02*
X17383600Y-9286080D01*
X17383600Y-9266080D02*
X17363600Y-9286080D01*
X17439800Y-9540400D02*
X17459800Y-9560400D01*
X17459800Y-9540400D02*
X17439800Y-9560400D01*
X17452500Y-8118000D02*
X17472500Y-8138000D01*
X17472500Y-8118000D02*
X17452500Y-8138000D01*
X17452500Y-8245000D02*
X17472500Y-8265000D01*
X17472500Y-8245000D02*
X17452500Y-8265000D01*
X17452500Y-8372000D02*
X17472500Y-8392000D01*
X17472500Y-8372000D02*
X17452500Y-8392000D01*
X17452500Y-8562500D02*
X17472500Y-8582500D01*
X17472500Y-8562500D02*
X17452500Y-8582500D01*
X17452500Y-8753000D02*
X17472500Y-8773000D01*
X17472500Y-8753000D02*
X17452500Y-8773000D01*
X17452500Y-8949850D02*
X17472500Y-8969850D01*
X17472500Y-8949850D02*
X17452500Y-8969850D01*
X17458850Y-9032400D02*
X17478850Y-9052400D01*
X17478850Y-9032400D02*
X17458850Y-9052400D01*
X17490600Y-9174640D02*
X17510600Y-9194640D01*
X17510600Y-9174640D02*
X17490600Y-9194640D01*
X17490600Y-9254650D02*
X17510600Y-9274650D01*
X17510600Y-9254650D02*
X17490600Y-9274650D01*
X17516000Y-7927500D02*
X17536000Y-7947500D01*
X17536000Y-7927500D02*
X17516000Y-7947500D01*
X17566800Y-8067200D02*
X17586800Y-8087200D01*
X17586800Y-8067200D02*
X17566800Y-8087200D01*
X17579500Y-8245000D02*
X17599500Y-8265000D01*
X17599500Y-8245000D02*
X17579500Y-8265000D01*
X17592200Y-9540400D02*
X17612200Y-9560400D01*
X17612200Y-9540400D02*
X17592200Y-9560400D01*
X17643000Y-7546500D02*
X17663000Y-7566500D01*
X17663000Y-7546500D02*
X17643000Y-7566500D01*
X17643000Y-7673500D02*
X17663000Y-7693500D01*
X17663000Y-7673500D02*
X17643000Y-7693500D01*
X17706500Y-8245000D02*
X17726500Y-8265000D01*
X17726500Y-8245000D02*
X17706500Y-8265000D01*
X17719200Y-9540400D02*
X17739200Y-9560400D01*
X17739200Y-9540400D02*
X17719200Y-9560400D01*
X17725550Y-8467250D02*
X17745550Y-8487250D01*
X17745550Y-8467250D02*
X17725550Y-8487250D01*
X17725550Y-8556150D02*
X17745550Y-8576150D01*
X17745550Y-8556150D02*
X17725550Y-8576150D01*
X17833500Y-8676800D02*
X17853500Y-8696800D01*
X17853500Y-8676800D02*
X17833500Y-8696800D01*
X17833500Y-8765700D02*
X17853500Y-8785700D01*
X17853500Y-8765700D02*
X17833500Y-8785700D01*
X17833500Y-8867300D02*
X17853500Y-8887300D01*
X17853500Y-8867300D02*
X17833500Y-8887300D01*
X17833500Y-8943500D02*
X17853500Y-8963500D01*
X17853500Y-8943500D02*
X17833500Y-8963500D01*
X17846200Y-9540400D02*
X17866200Y-9560400D01*
X17866200Y-9540400D02*
X17846200Y-9560400D01*
X17852550Y-8238650D02*
X17872550Y-8258650D01*
X17872550Y-8238650D02*
X17852550Y-8258650D01*
X17897000Y-7698900D02*
X17917000Y-7718900D01*
X17917000Y-7698900D02*
X17897000Y-7718900D01*
X17897000Y-8105300D02*
X17917000Y-8125300D01*
X17917000Y-8105300D02*
X17897000Y-8125300D01*
X17909700Y-8664100D02*
X17929700Y-8684100D01*
X17929700Y-8664100D02*
X17909700Y-8684100D01*
X17922400Y-8981600D02*
X17942400Y-9001600D01*
X17942400Y-8981600D02*
X17922400Y-9001600D01*
X17947800Y-8600600D02*
X17967800Y-8620600D01*
X17967800Y-8600600D02*
X17947800Y-8620600D01*
X17960500Y-7546500D02*
X17980500Y-7566500D01*
X17980500Y-7546500D02*
X17960500Y-7566500D01*
X17960500Y-9070500D02*
X17980500Y-9090500D01*
X17980500Y-9070500D02*
X17960500Y-9090500D01*
X17973200Y-9540400D02*
X17993200Y-9560400D01*
X17993200Y-9540400D02*
X17973200Y-9560400D01*
X18011300Y-9134000D02*
X18031300Y-9154000D01*
X18031300Y-9134000D02*
X18011300Y-9154000D01*
X18087500Y-8486300D02*
X18107500Y-8506300D01*
X18107500Y-8486300D02*
X18087500Y-8506300D01*
X18100200Y-7864000D02*
X18120200Y-7884000D01*
X18120200Y-7864000D02*
X18100200Y-7884000D01*
X18100200Y-9134000D02*
X18120200Y-9154000D01*
X18120200Y-9134000D02*
X18100200Y-9154000D01*
X18100200Y-9540400D02*
X18120200Y-9560400D01*
X18120200Y-9540400D02*
X18100200Y-9560400D01*
X18151000Y-8797450D02*
X18171000Y-8817450D01*
X18171000Y-8797450D02*
X18151000Y-8817450D01*
X18178940Y-7513480D02*
X18198940Y-7533480D01*
X18198940Y-7513480D02*
X18178940Y-7533480D01*
X18189100Y-9134000D02*
X18209100Y-9154000D01*
X18209100Y-9134000D02*
X18189100Y-9154000D01*
X18227200Y-9540400D02*
X18247200Y-9560400D01*
X18247200Y-9540400D02*
X18227200Y-9560400D01*
X18252600Y-7508400D02*
X18272600Y-7528400D01*
X18272600Y-7508400D02*
X18252600Y-7528400D01*
X18278000Y-9134000D02*
X18298000Y-9154000D01*
X18298000Y-9134000D02*
X18278000Y-9154000D01*
X18318750Y-8082550D02*
X18338750Y-8102550D01*
X18338750Y-8082550D02*
X18318750Y-8102550D01*
X18318750Y-8255050D02*
X18338750Y-8275050D01*
X18338750Y-8255050D02*
X18318750Y-8275050D01*
X18341500Y-9070500D02*
X18361500Y-9090500D01*
X18361500Y-9070500D02*
X18341500Y-9090500D01*
X18354200Y-8905400D02*
X18374200Y-8925400D01*
X18374200Y-8905400D02*
X18354200Y-8925400D01*
X18354200Y-8981600D02*
X18374200Y-9001600D01*
X18374200Y-8981600D02*
X18354200Y-9001600D01*
X18354200Y-9540400D02*
X18374200Y-9560400D01*
X18374200Y-9540400D02*
X18354200Y-9560400D01*
X18379600Y-8829200D02*
X18399600Y-8849200D01*
X18399600Y-8829200D02*
X18379600Y-8849200D01*
X18392300Y-8702200D02*
X18412300Y-8722200D01*
X18412300Y-8702200D02*
X18392300Y-8722200D01*
X18392300Y-8772050D02*
X18412300Y-8792050D01*
X18412300Y-8772050D02*
X18392300Y-8792050D01*
X18427860Y-9238140D02*
X18447860Y-9258140D01*
X18447860Y-9238140D02*
X18427860Y-9258140D01*
X18447300Y-7542300D02*
X18467300Y-7562300D01*
X18467300Y-7542300D02*
X18447300Y-7562300D01*
X18481200Y-7686200D02*
X18501200Y-7706200D01*
X18501200Y-7686200D02*
X18481200Y-7706200D01*
X18481200Y-9540400D02*
X18501200Y-9560400D01*
X18501200Y-9540400D02*
X18481200Y-9560400D01*
X18491250Y-8082550D02*
X18511250Y-8102550D01*
X18511250Y-8082550D02*
X18491250Y-8102550D01*
X18493900Y-8257700D02*
X18513900Y-8277700D01*
X18513900Y-8257700D02*
X18493900Y-8277700D01*
X18570100Y-7502050D02*
X18590100Y-7522050D01*
X18590100Y-7502050D02*
X18570100Y-7522050D01*
X18608200Y-9540400D02*
X18628200Y-9560400D01*
X18628200Y-9540400D02*
X18608200Y-9560400D01*
X18620900Y-7546500D02*
X18640900Y-7566500D01*
X18640900Y-7546500D02*
X18620900Y-7566500D01*
X18659000Y-7229000D02*
X18679000Y-7249000D01*
X18679000Y-7229000D02*
X18659000Y-7249000D01*
X18659000Y-8499000D02*
X18679000Y-8519000D01*
X18679000Y-8499000D02*
X18659000Y-8519000D01*
X18731390Y-7836060D02*
X18751390Y-7856060D01*
X18751390Y-7836060D02*
X18731390Y-7856060D01*
X18735200Y-9540400D02*
X18755200Y-9560400D01*
X18755200Y-9540400D02*
X18735200Y-9560400D01*
X18747900Y-7502050D02*
X18767900Y-7522050D01*
X18767900Y-7502050D02*
X18747900Y-7522050D01*
X18786000Y-8499000D02*
X18806000Y-8519000D01*
X18806000Y-8499000D02*
X18786000Y-8519000D01*
X18849500Y-8098950D02*
X18869500Y-8118950D01*
X18869500Y-8098950D02*
X18849500Y-8118950D01*
X18849500Y-8245000D02*
X18869500Y-8265000D01*
X18869500Y-8245000D02*
X18849500Y-8265000D01*
X18849500Y-8562500D02*
X18869500Y-8582500D01*
X18869500Y-8562500D02*
X18849500Y-8582500D01*
X18849500Y-8778400D02*
X18869500Y-8798400D01*
X18869500Y-8778400D02*
X18849500Y-8798400D01*
X18849500Y-8886350D02*
X18869500Y-8906350D01*
X18869500Y-8886350D02*
X18849500Y-8906350D01*
X18862200Y-9540400D02*
X18882200Y-9560400D01*
X18882200Y-9540400D02*
X18862200Y-9560400D01*
X18913000Y-8626000D02*
X18933000Y-8646000D01*
X18933000Y-8626000D02*
X18913000Y-8646000D01*
X18925700Y-8079900D02*
X18945700Y-8099900D01*
X18945700Y-8079900D02*
X18925700Y-8099900D01*
X18925700Y-8283100D02*
X18945700Y-8303100D01*
X18945700Y-8283100D02*
X18925700Y-8303100D01*
X18976500Y-8029100D02*
X18996500Y-8049100D01*
X18996500Y-8029100D02*
X18976500Y-8049100D01*
X18976500Y-8689500D02*
X18996500Y-8709500D01*
X18996500Y-8689500D02*
X18976500Y-8709500D01*
X18976500Y-8772050D02*
X18996500Y-8792050D01*
X18996500Y-8772050D02*
X18976500Y-8792050D01*
X18982850Y-8321200D02*
X19002850Y-8341200D01*
X19002850Y-8321200D02*
X18982850Y-8341200D01*
X18989200Y-9540400D02*
X19009200Y-9560400D01*
X19009200Y-9540400D02*
X18989200Y-9560400D01*
X19052700Y-7991000D02*
X19072700Y-8011000D01*
X19072700Y-7991000D02*
X19052700Y-8011000D01*
X19052700Y-8352950D02*
X19072700Y-8372950D01*
X19072700Y-8352950D02*
X19052700Y-8372950D01*
X19116200Y-7978300D02*
X19136200Y-7998300D01*
X19136200Y-7978300D02*
X19116200Y-7998300D01*
X19116200Y-8168800D02*
X19136200Y-8188800D01*
X19136200Y-8168800D02*
X19116200Y-8188800D01*
X19116200Y-8359300D02*
X19136200Y-8379300D01*
X19136200Y-8359300D02*
X19116200Y-8379300D01*
X19116200Y-9540400D02*
X19136200Y-9560400D01*
X19136200Y-9540400D02*
X19116200Y-9560400D01*
X19167000Y-7737000D02*
X19187000Y-7757000D01*
X19187000Y-7737000D02*
X19167000Y-7757000D01*
X19167000Y-7864000D02*
X19187000Y-7884000D01*
X19187000Y-7864000D02*
X19167000Y-7884000D01*
X19167000Y-8499000D02*
X19187000Y-8519000D01*
X19187000Y-8499000D02*
X19167000Y-8519000D01*
X19167000Y-8626000D02*
X19187000Y-8646000D01*
X19187000Y-8626000D02*
X19167000Y-8646000D01*
X19192400Y-7978300D02*
X19212400Y-7998300D01*
X19212400Y-7978300D02*
X19192400Y-7998300D01*
X19192400Y-8359300D02*
X19212400Y-8379300D01*
X19212400Y-8359300D02*
X19192400Y-8379300D01*
X19192400Y-8772050D02*
X19212400Y-8792050D01*
X19212400Y-8772050D02*
X19192400Y-8792050D01*
X19198750Y-9299100D02*
X19218750Y-9319100D01*
X19218750Y-9299100D02*
X19198750Y-9319100D01*
X19198750Y-9388000D02*
X19218750Y-9408000D01*
X19218750Y-9388000D02*
X19198750Y-9408000D01*
X19198750Y-9483250D02*
X19218750Y-9503250D01*
X19218750Y-9483250D02*
X19198750Y-9503250D01*
X19268600Y-8333900D02*
X19288600Y-8353900D01*
X19288600Y-8333900D02*
X19268600Y-8353900D01*
X19281300Y-8219600D02*
X19301300Y-8239600D01*
X19301300Y-8219600D02*
X19281300Y-8239600D01*
X19281300Y-8283100D02*
X19301300Y-8303100D01*
X19301300Y-8283100D02*
X19281300Y-8303100D01*
X19294000Y-7737000D02*
X19314000Y-7757000D01*
X19314000Y-7737000D02*
X19294000Y-7757000D01*
X19294000Y-7864000D02*
X19314000Y-7884000D01*
X19314000Y-7864000D02*
X19294000Y-7884000D01*
X19294000Y-7991000D02*
X19314000Y-8011000D01*
X19314000Y-7991000D02*
X19294000Y-8011000D01*
X19294000Y-8372000D02*
X19314000Y-8392000D01*
X19314000Y-8372000D02*
X19294000Y-8392000D01*
X19294000Y-8499000D02*
X19314000Y-8519000D01*
X19314000Y-8499000D02*
X19294000Y-8519000D01*
X19294000Y-8626000D02*
X19314000Y-8646000D01*
X19314000Y-8626000D02*
X19294000Y-8646000D01*
X19344800Y-8168800D02*
X19364800Y-8188800D01*
X19364800Y-8168800D02*
X19344800Y-8188800D01*
X19421000Y-7737000D02*
X19441000Y-7757000D01*
X19441000Y-7737000D02*
X19421000Y-7757000D01*
X19421000Y-7864000D02*
X19441000Y-7884000D01*
X19441000Y-7864000D02*
X19421000Y-7884000D01*
X19421000Y-7991000D02*
X19441000Y-8011000D01*
X19441000Y-7991000D02*
X19421000Y-8011000D01*
X19421000Y-8168800D02*
X19441000Y-8188800D01*
X19441000Y-8168800D02*
X19421000Y-8188800D01*
X19421000Y-8245000D02*
X19441000Y-8265000D01*
X19441000Y-8245000D02*
X19421000Y-8265000D01*
X19421000Y-8372000D02*
X19441000Y-8392000D01*
X19441000Y-8372000D02*
X19421000Y-8392000D01*
X19421000Y-8499000D02*
X19441000Y-8519000D01*
X19441000Y-8499000D02*
X19421000Y-8519000D01*
X19421000Y-8626000D02*
X19441000Y-8646000D01*
X19441000Y-8626000D02*
X19421000Y-8646000D01*
X19421000Y-8753000D02*
X19441000Y-8773000D01*
X19441000Y-8753000D02*
X19421000Y-8773000D01*
X19421000Y-8880000D02*
X19441000Y-8900000D01*
X19441000Y-8880000D02*
X19421000Y-8900000D01*
X19421000Y-9007000D02*
X19441000Y-9027000D01*
X19441000Y-9007000D02*
X19421000Y-9027000D01*
X19421000Y-9134000D02*
X19441000Y-9154000D01*
X19441000Y-9134000D02*
X19421000Y-9154000D01*
X19421000Y-9261000D02*
X19441000Y-9281000D01*
X19441000Y-9261000D02*
X19421000Y-9281000D01*
X19421000Y-9388000D02*
X19441000Y-9408000D01*
X19441000Y-9388000D02*
X19421000Y-9408000D01*
X19421000Y-9515000D02*
X19441000Y-9535000D01*
X19441000Y-9515000D02*
X19421000Y-9535000D01*
X19509900Y-8168800D02*
X19529900Y-8188800D01*
X19529900Y-8168800D02*
X19509900Y-8188800D01*
X19548000Y-7229000D02*
X19568000Y-7249000D01*
X19568000Y-7229000D02*
X19548000Y-7249000D01*
X19548000Y-7356000D02*
X19568000Y-7376000D01*
X19568000Y-7356000D02*
X19548000Y-7376000D01*
X19548000Y-7737000D02*
X19568000Y-7757000D01*
X19568000Y-7737000D02*
X19548000Y-7757000D01*
X19548000Y-7864000D02*
X19568000Y-7884000D01*
X19568000Y-7864000D02*
X19548000Y-7884000D01*
X19548000Y-7991000D02*
X19568000Y-8011000D01*
X19568000Y-7991000D02*
X19548000Y-8011000D01*
X19548000Y-8245000D02*
X19568000Y-8265000D01*
X19568000Y-8245000D02*
X19548000Y-8265000D01*
X19548000Y-8372000D02*
X19568000Y-8392000D01*
X19568000Y-8372000D02*
X19548000Y-8392000D01*
X19548000Y-8499000D02*
X19568000Y-8519000D01*
X19568000Y-8499000D02*
X19548000Y-8519000D01*
X19548000Y-8626000D02*
X19568000Y-8646000D01*
X19568000Y-8626000D02*
X19548000Y-8646000D01*
X19548000Y-8753000D02*
X19568000Y-8773000D01*
X19568000Y-8753000D02*
X19548000Y-8773000D01*
X19548000Y-8880000D02*
X19568000Y-8900000D01*
X19568000Y-8880000D02*
X19548000Y-8900000D01*
X19548000Y-9007000D02*
X19568000Y-9027000D01*
X19568000Y-9007000D02*
X19548000Y-9027000D01*
X19548000Y-9134000D02*
X19568000Y-9154000D01*
X19568000Y-9134000D02*
X19548000Y-9154000D01*
X19548000Y-9261000D02*
X19568000Y-9281000D01*
X19568000Y-9261000D02*
X19548000Y-9281000D01*
X19548000Y-9388000D02*
X19568000Y-9408000D01*
X19568000Y-9388000D02*
X19548000Y-9408000D01*
X19548000Y-9515000D02*
X19568000Y-9535000D01*
X19568000Y-9515000D02*
X19548000Y-9535000D01*
X19675000Y-7229000D02*
X19695000Y-7249000D01*
X19695000Y-7229000D02*
X19675000Y-7249000D01*
X19675000Y-7356000D02*
X19695000Y-7376000D01*
X19695000Y-7356000D02*
X19675000Y-7376000D01*
X19675000Y-7483000D02*
X19695000Y-7503000D01*
X19695000Y-7483000D02*
X19675000Y-7503000D01*
X19675000Y-7610000D02*
X19695000Y-7630000D01*
X19695000Y-7610000D02*
X19675000Y-7630000D01*
X19675000Y-7737000D02*
X19695000Y-7757000D01*
X19695000Y-7737000D02*
X19675000Y-7757000D01*
X19675000Y-7864000D02*
X19695000Y-7884000D01*
X19695000Y-7864000D02*
X19675000Y-7884000D01*
X19675000Y-7991000D02*
X19695000Y-8011000D01*
X19695000Y-7991000D02*
X19675000Y-8011000D01*
X19675000Y-8168800D02*
X19695000Y-8188800D01*
X19695000Y-8168800D02*
X19675000Y-8188800D01*
X19675000Y-8245000D02*
X19695000Y-8265000D01*
X19695000Y-8245000D02*
X19675000Y-8265000D01*
X19675000Y-8372000D02*
X19695000Y-8392000D01*
X19695000Y-8372000D02*
X19675000Y-8392000D01*
X19675000Y-8499000D02*
X19695000Y-8519000D01*
X19695000Y-8499000D02*
X19675000Y-8519000D01*
X19675000Y-8626000D02*
X19695000Y-8646000D01*
X19695000Y-8626000D02*
X19675000Y-8646000D01*
X19675000Y-8753000D02*
X19695000Y-8773000D01*
X19695000Y-8753000D02*
X19675000Y-8773000D01*
X19675000Y-8880000D02*
X19695000Y-8900000D01*
X19695000Y-8880000D02*
X19675000Y-8900000D01*
X19675000Y-9007000D02*
X19695000Y-9027000D01*
X19695000Y-9007000D02*
X19675000Y-9027000D01*
X19675000Y-9134000D02*
X19695000Y-9154000D01*
X19695000Y-9134000D02*
X19675000Y-9154000D01*
X19675000Y-9261000D02*
X19695000Y-9281000D01*
X19695000Y-9261000D02*
X19675000Y-9281000D01*
X19675000Y-9388000D02*
X19695000Y-9408000D01*
X19695000Y-9388000D02*
X19675000Y-9408000D01*
X19675000Y-9515000D02*
X19695000Y-9535000D01*
X19695000Y-9515000D02*
X19675000Y-9535000D01*
X19802000Y-7229000D02*
X19822000Y-7249000D01*
X19822000Y-7229000D02*
X19802000Y-7249000D01*
X19802000Y-7356000D02*
X19822000Y-7376000D01*
X19822000Y-7356000D02*
X19802000Y-7376000D01*
X19802000Y-7483000D02*
X19822000Y-7503000D01*
X19822000Y-7483000D02*
X19802000Y-7503000D01*
X19802000Y-7610000D02*
X19822000Y-7630000D01*
X19822000Y-7610000D02*
X19802000Y-7630000D01*
X19802000Y-7737000D02*
X19822000Y-7757000D01*
X19822000Y-7737000D02*
X19802000Y-7757000D01*
X19802000Y-7864000D02*
X19822000Y-7884000D01*
X19822000Y-7864000D02*
X19802000Y-7884000D01*
X19802000Y-7991000D02*
X19822000Y-8011000D01*
X19822000Y-7991000D02*
X19802000Y-8011000D01*
X19802000Y-8168800D02*
X19822000Y-8188800D01*
X19822000Y-8168800D02*
X19802000Y-8188800D01*
X19802000Y-8245000D02*
X19822000Y-8265000D01*
X19822000Y-8245000D02*
X19802000Y-8265000D01*
X19802000Y-8372000D02*
X19822000Y-8392000D01*
X19822000Y-8372000D02*
X19802000Y-8392000D01*
X19802000Y-8499000D02*
X19822000Y-8519000D01*
X19822000Y-8499000D02*
X19802000Y-8519000D01*
X19802000Y-8626000D02*
X19822000Y-8646000D01*
X19822000Y-8626000D02*
X19802000Y-8646000D01*
X19802000Y-8753000D02*
X19822000Y-8773000D01*
X19822000Y-8753000D02*
X19802000Y-8773000D01*
X19802000Y-8880000D02*
X19822000Y-8900000D01*
X19822000Y-8880000D02*
X19802000Y-8900000D01*
X19802000Y-9007000D02*
X19822000Y-9027000D01*
X19822000Y-9007000D02*
X19802000Y-9027000D01*
X19802000Y-9134000D02*
X19822000Y-9154000D01*
X19822000Y-9134000D02*
X19802000Y-9154000D01*
X19802000Y-9261000D02*
X19822000Y-9281000D01*
X19822000Y-9261000D02*
X19802000Y-9281000D01*
X19802000Y-9388000D02*
X19822000Y-9408000D01*
X19822000Y-9388000D02*
X19802000Y-9408000D01*
X19802000Y-9515000D02*
X19822000Y-9535000D01*
X19822000Y-9515000D02*
X19802000Y-9535000D01*
X19929000Y-7229000D02*
X19949000Y-7249000D01*
X19949000Y-7229000D02*
X19929000Y-7249000D01*
X19929000Y-7356000D02*
X19949000Y-7376000D01*
X19949000Y-7356000D02*
X19929000Y-7376000D01*
X19929000Y-7483000D02*
X19949000Y-7503000D01*
X19949000Y-7483000D02*
X19929000Y-7503000D01*
X19929000Y-7610000D02*
X19949000Y-7630000D01*
X19949000Y-7610000D02*
X19929000Y-7630000D01*
X19929000Y-7737000D02*
X19949000Y-7757000D01*
X19949000Y-7737000D02*
X19929000Y-7757000D01*
X19929000Y-7864000D02*
X19949000Y-7884000D01*
X19949000Y-7864000D02*
X19929000Y-7884000D01*
X19929000Y-7991000D02*
X19949000Y-8011000D01*
X19949000Y-7991000D02*
X19929000Y-8011000D01*
X19929000Y-8168800D02*
X19949000Y-8188800D01*
X19949000Y-8168800D02*
X19929000Y-8188800D01*
X19929000Y-8245000D02*
X19949000Y-8265000D01*
X19949000Y-8245000D02*
X19929000Y-8265000D01*
X19929000Y-8372000D02*
X19949000Y-8392000D01*
X19949000Y-8372000D02*
X19929000Y-8392000D01*
X19929000Y-8499000D02*
X19949000Y-8519000D01*
X19949000Y-8499000D02*
X19929000Y-8519000D01*
X19929000Y-8626000D02*
X19949000Y-8646000D01*
X19949000Y-8626000D02*
X19929000Y-8646000D01*
X19929000Y-8753000D02*
X19949000Y-8773000D01*
X19949000Y-8753000D02*
X19929000Y-8773000D01*
X19929000Y-8880000D02*
X19949000Y-8900000D01*
X19949000Y-8880000D02*
X19929000Y-8900000D01*
X19929000Y-9007000D02*
X19949000Y-9027000D01*
X19949000Y-9007000D02*
X19929000Y-9027000D01*
X19929000Y-9134000D02*
X19949000Y-9154000D01*
X19949000Y-9134000D02*
X19929000Y-9154000D01*
X19929000Y-9261000D02*
X19949000Y-9281000D01*
X19949000Y-9261000D02*
X19929000Y-9281000D01*
X19929000Y-9388000D02*
X19949000Y-9408000D01*
X19949000Y-9388000D02*
X19929000Y-9408000D01*
X19929000Y-9515000D02*
X19949000Y-9535000D01*
X19949000Y-9515000D02*
X19929000Y-9535000D01*
X20056000Y-7229000D02*
X20076000Y-7249000D01*
X20076000Y-7229000D02*
X20056000Y-7249000D01*
X20056000Y-7356000D02*
X20076000Y-7376000D01*
X20076000Y-7356000D02*
X20056000Y-7376000D01*
X20056000Y-7483000D02*
X20076000Y-7503000D01*
X20076000Y-7483000D02*
X20056000Y-7503000D01*
X20056000Y-7610000D02*
X20076000Y-7630000D01*
X20076000Y-7610000D02*
X20056000Y-7630000D01*
X20056000Y-7737000D02*
X20076000Y-7757000D01*
X20076000Y-7737000D02*
X20056000Y-7757000D01*
X20056000Y-7864000D02*
X20076000Y-7884000D01*
X20076000Y-7864000D02*
X20056000Y-7884000D01*
X20056000Y-7991000D02*
X20076000Y-8011000D01*
X20076000Y-7991000D02*
X20056000Y-8011000D01*
X20056000Y-8168800D02*
X20076000Y-8188800D01*
X20076000Y-8168800D02*
X20056000Y-8188800D01*
X20056000Y-8245000D02*
X20076000Y-8265000D01*
X20076000Y-8245000D02*
X20056000Y-8265000D01*
X20056000Y-8372000D02*
X20076000Y-8392000D01*
X20076000Y-8372000D02*
X20056000Y-8392000D01*
X20056000Y-8499000D02*
X20076000Y-8519000D01*
X20076000Y-8499000D02*
X20056000Y-8519000D01*
X20056000Y-8626000D02*
X20076000Y-8646000D01*
X20076000Y-8626000D02*
X20056000Y-8646000D01*
X20056000Y-8753000D02*
X20076000Y-8773000D01*
X20076000Y-8753000D02*
X20056000Y-8773000D01*
X20056000Y-8880000D02*
X20076000Y-8900000D01*
X20076000Y-8880000D02*
X20056000Y-8900000D01*
X20056000Y-9007000D02*
X20076000Y-9027000D01*
X20076000Y-9007000D02*
X20056000Y-9027000D01*
X20056000Y-9134000D02*
X20076000Y-9154000D01*
X20076000Y-9134000D02*
X20056000Y-9154000D01*
X20056000Y-9261000D02*
X20076000Y-9281000D01*
X20076000Y-9261000D02*
X20056000Y-9281000D01*
X20056000Y-9388000D02*
X20076000Y-9408000D01*
X20076000Y-9388000D02*
X20056000Y-9408000D01*
X20056000Y-9515000D02*
X20076000Y-9535000D01*
X20076000Y-9515000D02*
X20056000Y-9535000D01*
X20144900Y-7965600D02*
X20164900Y-7985600D01*
X20164900Y-7965600D02*
X20144900Y-7985600D01*
X20144900Y-8194200D02*
X20164900Y-8214200D01*
X20164900Y-8194200D02*
X20144900Y-8214200D01*
X20183000Y-7229000D02*
X20203000Y-7249000D01*
X20203000Y-7229000D02*
X20183000Y-7249000D01*
X20183000Y-7356000D02*
X20203000Y-7376000D01*
X20203000Y-7356000D02*
X20183000Y-7376000D01*
X20183000Y-7483000D02*
X20203000Y-7503000D01*
X20203000Y-7483000D02*
X20183000Y-7503000D01*
X20183000Y-7610000D02*
X20203000Y-7630000D01*
X20203000Y-7610000D02*
X20183000Y-7630000D01*
X20183000Y-8499000D02*
X20203000Y-8519000D01*
X20203000Y-8499000D02*
X20183000Y-8519000D01*
X20183000Y-8626000D02*
X20203000Y-8646000D01*
X20203000Y-8626000D02*
X20183000Y-8646000D01*
X20183000Y-8753000D02*
X20203000Y-8773000D01*
X20203000Y-8753000D02*
X20183000Y-8773000D01*
X20183000Y-8880000D02*
X20203000Y-8900000D01*
X20203000Y-8880000D02*
X20183000Y-8900000D01*
X20183000Y-9007000D02*
X20203000Y-9027000D01*
X20203000Y-9007000D02*
X20183000Y-9027000D01*
X20183000Y-9134000D02*
X20203000Y-9154000D01*
X20203000Y-9134000D02*
X20183000Y-9154000D01*
X20183000Y-9261000D02*
X20203000Y-9281000D01*
X20203000Y-9261000D02*
X20183000Y-9281000D01*
X20183000Y-9388000D02*
X20203000Y-9408000D01*
X20203000Y-9388000D02*
X20183000Y-9408000D01*
X20183000Y-9515000D02*
X20203000Y-9535000D01*
X20203000Y-9515000D02*
X20183000Y-9535000D01*
X20246500Y-7965600D02*
X20266500Y-7985600D01*
X20266500Y-7965600D02*
X20246500Y-7985600D01*
X20246500Y-8194200D02*
X20266500Y-8214200D01*
X20266500Y-8194200D02*
X20246500Y-8214200D01*
X20310000Y-7229000D02*
X20330000Y-7249000D01*
X20330000Y-7229000D02*
X20310000Y-7249000D01*
X20310000Y-7356000D02*
X20330000Y-7376000D01*
X20330000Y-7356000D02*
X20310000Y-7376000D01*
X20310000Y-7483000D02*
X20330000Y-7503000D01*
X20330000Y-7483000D02*
X20310000Y-7503000D01*
X20310000Y-7610000D02*
X20330000Y-7630000D01*
X20330000Y-7610000D02*
X20310000Y-7630000D01*
X20310000Y-8499000D02*
X20330000Y-8519000D01*
X20330000Y-8499000D02*
X20310000Y-8519000D01*
X20310000Y-8626000D02*
X20330000Y-8646000D01*
X20330000Y-8626000D02*
X20310000Y-8646000D01*
X20310000Y-8753000D02*
X20330000Y-8773000D01*
X20330000Y-8753000D02*
X20310000Y-8773000D01*
X20310000Y-8880000D02*
X20330000Y-8900000D01*
X20330000Y-8880000D02*
X20310000Y-8900000D01*
X20310000Y-9007000D02*
X20330000Y-9027000D01*
X20330000Y-9007000D02*
X20310000Y-9027000D01*
X20310000Y-9134000D02*
X20330000Y-9154000D01*
X20330000Y-9134000D02*
X20310000Y-9154000D01*
X20310000Y-9261000D02*
X20330000Y-9281000D01*
X20330000Y-9261000D02*
X20310000Y-9281000D01*
X20310000Y-9388000D02*
X20330000Y-9408000D01*
X20330000Y-9388000D02*
X20310000Y-9408000D01*
X20310000Y-9515000D02*
X20330000Y-9535000D01*
X20330000Y-9515000D02*
X20310000Y-9535000D01*
X20348100Y-7965600D02*
X20368100Y-7985600D01*
X20368100Y-7965600D02*
X20348100Y-7985600D01*
X20348100Y-8194200D02*
X20368100Y-8214200D01*
X20368100Y-8194200D02*
X20348100Y-8214200D01*
X20437000Y-7229000D02*
X20457000Y-7249000D01*
X20457000Y-7229000D02*
X20437000Y-7249000D01*
X20437000Y-7356000D02*
X20457000Y-7376000D01*
X20457000Y-7356000D02*
X20437000Y-7376000D01*
X20437000Y-7483000D02*
X20457000Y-7503000D01*
X20457000Y-7483000D02*
X20437000Y-7503000D01*
X20437000Y-7610000D02*
X20457000Y-7630000D01*
X20457000Y-7610000D02*
X20437000Y-7630000D01*
X20437000Y-8499000D02*
X20457000Y-8519000D01*
X20457000Y-8499000D02*
X20437000Y-8519000D01*
X20437000Y-8626000D02*
X20457000Y-8646000D01*
X20457000Y-8626000D02*
X20437000Y-8646000D01*
X20437000Y-8753000D02*
X20457000Y-8773000D01*
X20457000Y-8753000D02*
X20437000Y-8773000D01*
X20437000Y-8880000D02*
X20457000Y-8900000D01*
X20457000Y-8880000D02*
X20437000Y-8900000D01*
X20437000Y-9007000D02*
X20457000Y-9027000D01*
X20457000Y-9007000D02*
X20437000Y-9027000D01*
X20437000Y-9134000D02*
X20457000Y-9154000D01*
X20457000Y-9134000D02*
X20437000Y-9154000D01*
X20437000Y-9261000D02*
X20457000Y-9281000D01*
X20457000Y-9261000D02*
X20437000Y-9281000D01*
X20437000Y-9388000D02*
X20457000Y-9408000D01*
X20457000Y-9388000D02*
X20437000Y-9408000D01*
X20437000Y-9515000D02*
X20457000Y-9535000D01*
X20457000Y-9515000D02*
X20437000Y-9535000D01*
X20449700Y-7965600D02*
X20469700Y-7985600D01*
X20469700Y-7965600D02*
X20449700Y-7985600D01*
X20449700Y-8194200D02*
X20469700Y-8214200D01*
X20469700Y-8194200D02*
X20449700Y-8214200D01*
X17576000Y-7366000D02*
G75*
G03X17576000Y-7366000I-50000J0D01*
G01*
X17576000Y-9398000D02*
G75*
G03X17576000Y-9398000I-50000J0D01*
G01*
X17830000Y-7366000D02*
G75*
G03X17830000Y-7366000I-50000J0D01*
G01*
X17830000Y-9398000D02*
G75*
G03X17830000Y-9398000I-50000J0D01*
G01*
X18084000Y-7366000D02*
G75*
G03X18084000Y-7366000I-50000J0D01*
G01*
X18084000Y-9398000D02*
G75*
G03X18084000Y-9398000I-50000J0D01*
G01*
X18338000Y-7366000D02*
G75*
G03X18338000Y-7366000I-50000J0D01*
G01*
X18338000Y-9398000D02*
G75*
G03X18338000Y-9398000I-50000J0D01*
G01*
X18592000Y-7366000D02*
G75*
G03X18592000Y-7366000I-50000J0D01*
G01*
X18592000Y-9398000D02*
G75*
G03X18592000Y-9398000I-50000J0D01*
G01*
X18846000Y-7366000D02*
G75*
G03X18846000Y-7366000I-50000J0D01*
G01*
X18846000Y-9398000D02*
G75*
G03X18846000Y-9398000I-50000J0D01*
G01*
X19100000Y-7366000D02*
G75*
G03X19100000Y-7366000I-50000J0D01*
G01*
X19100000Y-9398000D02*
G75*
G03X19100000Y-9398000I-50000J0D01*
G01*
D13*
X17345429Y-10102354D02*
X17345429Y-9802354D01*
X17416857Y-9802354D01*
X17459714Y-9816640D01*
X17488286Y-9845212D01*
X17502571Y-9873783D01*
X17516857Y-9930926D01*
X17516857Y-9973783D01*
X17502571Y-10030926D01*
X17488286Y-10059497D01*
X17459714Y-10088069D01*
X17416857Y-10102354D01*
X17345429Y-10102354D01*
X17645429Y-10102354D02*
X17645429Y-9902354D01*
X17645429Y-9959497D02*
X17659714Y-9930926D01*
X17674000Y-9916640D01*
X17702571Y-9902354D01*
X17731143Y-9902354D01*
X17831143Y-10102354D02*
X17831143Y-9902354D01*
X17831143Y-9802354D02*
X17816857Y-9816640D01*
X17831143Y-9830926D01*
X17845429Y-9816640D01*
X17831143Y-9802354D01*
X17831143Y-9830926D01*
X18016857Y-10102354D02*
X17988286Y-10088069D01*
X17974000Y-10059497D01*
X17974000Y-9802354D01*
X18174000Y-10102354D02*
X18145429Y-10088069D01*
X18131143Y-10059497D01*
X18131143Y-9802354D01*
X18516857Y-10102354D02*
X18516857Y-9802354D01*
X18616857Y-10016640D01*
X18716857Y-9802354D01*
X18716857Y-10102354D01*
X18988286Y-10102354D02*
X18988286Y-9945212D01*
X18974000Y-9916640D01*
X18945429Y-9902354D01*
X18888286Y-9902354D01*
X18859714Y-9916640D01*
X18988286Y-10088069D02*
X18959714Y-10102354D01*
X18888286Y-10102354D01*
X18859714Y-10088069D01*
X18845429Y-10059497D01*
X18845429Y-10030926D01*
X18859714Y-10002354D01*
X18888286Y-9988069D01*
X18959714Y-9988069D01*
X18988286Y-9973783D01*
X19131143Y-9902354D02*
X19131143Y-10202354D01*
X19131143Y-9916640D02*
X19159714Y-9902354D01*
X19216857Y-9902354D01*
X19245429Y-9916640D01*
X19259714Y-9930926D01*
X19274000Y-9959497D01*
X19274000Y-10045212D01*
X19259714Y-10073783D01*
X19245429Y-10088069D01*
X19216857Y-10102354D01*
X19159714Y-10102354D01*
X19131143Y-10088069D01*
X19402571Y-10073783D02*
X19416857Y-10088069D01*
X19402571Y-10102354D01*
X19388286Y-10088069D01*
X19402571Y-10073783D01*
X19402571Y-10102354D01*
X19402571Y-9916640D02*
X19416857Y-9930926D01*
X19402571Y-9945212D01*
X19388286Y-9930926D01*
X19402571Y-9916640D01*
X19402571Y-9945212D01*
X17054000Y-10586640D02*
X17074000Y-10606640D01*
X17074000Y-10586640D02*
X17054000Y-10606640D01*
X17402571Y-10432354D02*
X17431143Y-10432354D01*
X17459714Y-10446640D01*
X17474000Y-10460926D01*
X17488286Y-10489497D01*
X17502571Y-10546640D01*
X17502571Y-10618069D01*
X17488286Y-10675212D01*
X17474000Y-10703783D01*
X17459714Y-10718069D01*
X17431143Y-10732354D01*
X17402571Y-10732354D01*
X17374000Y-10718069D01*
X17359714Y-10703783D01*
X17345429Y-10675212D01*
X17331143Y-10618069D01*
X17331143Y-10546640D01*
X17345429Y-10489497D01*
X17359714Y-10460926D01*
X17374000Y-10446640D01*
X17402571Y-10432354D01*
X17631143Y-10703783D02*
X17645429Y-10718069D01*
X17631143Y-10732354D01*
X17616857Y-10718069D01*
X17631143Y-10703783D01*
X17631143Y-10732354D01*
X17759714Y-10460926D02*
X17774000Y-10446640D01*
X17802571Y-10432354D01*
X17874000Y-10432354D01*
X17902571Y-10446640D01*
X17916857Y-10460926D01*
X17931143Y-10489497D01*
X17931143Y-10518069D01*
X17916857Y-10560926D01*
X17745428Y-10732354D01*
X17931143Y-10732354D01*
X18116857Y-10432354D02*
X18145429Y-10432354D01*
X18174000Y-10446640D01*
X18188286Y-10460926D01*
X18202571Y-10489497D01*
X18216857Y-10546640D01*
X18216857Y-10618069D01*
X18202571Y-10675212D01*
X18188286Y-10703783D01*
X18174000Y-10718069D01*
X18145429Y-10732354D01*
X18116857Y-10732354D01*
X18088286Y-10718069D01*
X18074000Y-10703783D01*
X18059714Y-10675212D01*
X18045429Y-10618069D01*
X18045429Y-10546640D01*
X18059714Y-10489497D01*
X18074000Y-10460926D01*
X18088286Y-10446640D01*
X18116857Y-10432354D01*
X18345429Y-10732354D02*
X18345429Y-10532354D01*
X18345429Y-10560926D02*
X18359714Y-10546640D01*
X18388286Y-10532354D01*
X18431143Y-10532354D01*
X18459714Y-10546640D01*
X18474000Y-10575212D01*
X18474000Y-10732354D01*
X18474000Y-10575212D02*
X18488286Y-10546640D01*
X18516857Y-10532354D01*
X18559714Y-10532354D01*
X18588286Y-10546640D01*
X18602571Y-10575212D01*
X18602571Y-10732354D01*
X18745429Y-10732354D02*
X18745429Y-10532354D01*
X18745429Y-10560926D02*
X18759714Y-10546640D01*
X18788286Y-10532354D01*
X18831143Y-10532354D01*
X18859714Y-10546640D01*
X18874000Y-10575212D01*
X18874000Y-10732354D01*
X18874000Y-10575212D02*
X18888286Y-10546640D01*
X18916857Y-10532354D01*
X18959714Y-10532354D01*
X18988286Y-10546640D01*
X19002571Y-10575212D01*
X19002571Y-10732354D01*
X19588286Y-10418069D02*
X19331143Y-10803783D01*
X19974000Y-10432354D02*
X20002571Y-10432354D01*
X20031143Y-10446640D01*
X20045428Y-10460926D01*
X20059714Y-10489497D01*
X20074000Y-10546640D01*
X20074000Y-10618069D01*
X20059714Y-10675212D01*
X20045428Y-10703783D01*
X20031143Y-10718069D01*
X20002571Y-10732354D01*
X19974000Y-10732354D01*
X19945428Y-10718069D01*
X19931143Y-10703783D01*
X19916857Y-10675212D01*
X19902571Y-10618069D01*
X19902571Y-10546640D01*
X19916857Y-10489497D01*
X19931143Y-10460926D01*
X19945428Y-10446640D01*
X19974000Y-10432354D01*
X20202571Y-10703783D02*
X20216857Y-10718069D01*
X20202571Y-10732354D01*
X20188286Y-10718069D01*
X20202571Y-10703783D01*
X20202571Y-10732354D01*
X20402571Y-10432354D02*
X20431143Y-10432354D01*
X20459714Y-10446640D01*
X20474000Y-10460926D01*
X20488286Y-10489497D01*
X20502571Y-10546640D01*
X20502571Y-10618069D01*
X20488286Y-10675212D01*
X20474000Y-10703783D01*
X20459714Y-10718069D01*
X20431143Y-10732354D01*
X20402571Y-10732354D01*
X20374000Y-10718069D01*
X20359714Y-10703783D01*
X20345428Y-10675212D01*
X20331143Y-10618069D01*
X20331143Y-10546640D01*
X20345428Y-10489497D01*
X20359714Y-10460926D01*
X20374000Y-10446640D01*
X20402571Y-10432354D01*
X20688286Y-10432354D02*
X20716857Y-10432354D01*
X20745428Y-10446640D01*
X20759714Y-10460926D01*
X20774000Y-10489497D01*
X20788286Y-10546640D01*
X20788286Y-10618069D01*
X20774000Y-10675212D01*
X20759714Y-10703783D01*
X20745428Y-10718069D01*
X20716857Y-10732354D01*
X20688286Y-10732354D01*
X20659714Y-10718069D01*
X20645428Y-10703783D01*
X20631143Y-10675212D01*
X20616857Y-10618069D01*
X20616857Y-10546640D01*
X20631143Y-10489497D01*
X20645428Y-10460926D01*
X20659714Y-10446640D01*
X20688286Y-10432354D01*
X20959714Y-10560926D02*
X20931143Y-10546640D01*
X20916857Y-10532354D01*
X20902571Y-10503783D01*
X20902571Y-10489497D01*
X20916857Y-10460926D01*
X20931143Y-10446640D01*
X20959714Y-10432354D01*
X21016857Y-10432354D01*
X21045428Y-10446640D01*
X21059714Y-10460926D01*
X21074000Y-10489497D01*
X21074000Y-10503783D01*
X21059714Y-10532354D01*
X21045428Y-10546640D01*
X21016857Y-10560926D01*
X20959714Y-10560926D01*
X20931143Y-10575212D01*
X20916857Y-10589497D01*
X20902571Y-10618069D01*
X20902571Y-10675212D01*
X20916857Y-10703783D01*
X20931143Y-10718069D01*
X20959714Y-10732354D01*
X21016857Y-10732354D01*
X21045428Y-10718069D01*
X21059714Y-10703783D01*
X21074000Y-10675212D01*
X21074000Y-10618069D01*
X21059714Y-10589497D01*
X21045428Y-10575212D01*
X21016857Y-10560926D01*
X21188286Y-10432354D02*
X21188286Y-10489497D01*
X21302571Y-10432354D02*
X21302571Y-10489497D01*
X21745428Y-10846640D02*
X21731143Y-10832354D01*
X21702571Y-10789497D01*
X21688286Y-10760926D01*
X21674000Y-10718069D01*
X21659714Y-10646640D01*
X21659714Y-10589497D01*
X21674000Y-10518069D01*
X21688286Y-10475212D01*
X21702571Y-10446640D01*
X21731143Y-10403783D01*
X21745428Y-10389497D01*
X21845428Y-10460926D02*
X21859714Y-10446640D01*
X21888286Y-10432354D01*
X21959714Y-10432354D01*
X21988286Y-10446640D01*
X22002571Y-10460926D01*
X22016857Y-10489497D01*
X22016857Y-10518069D01*
X22002571Y-10560926D01*
X21831143Y-10732354D01*
X22016857Y-10732354D01*
X22188286Y-10560926D02*
X22159714Y-10546640D01*
X22145428Y-10532354D01*
X22131143Y-10503783D01*
X22131143Y-10489497D01*
X22145428Y-10460926D01*
X22159714Y-10446640D01*
X22188286Y-10432354D01*
X22245428Y-10432354D01*
X22274000Y-10446640D01*
X22288286Y-10460926D01*
X22302571Y-10489497D01*
X22302571Y-10503783D01*
X22288286Y-10532354D01*
X22274000Y-10546640D01*
X22245428Y-10560926D01*
X22188286Y-10560926D01*
X22159714Y-10575212D01*
X22145428Y-10589497D01*
X22131143Y-10618069D01*
X22131143Y-10675212D01*
X22145428Y-10703783D01*
X22159714Y-10718069D01*
X22188286Y-10732354D01*
X22245428Y-10732354D01*
X22274000Y-10718069D01*
X22288286Y-10703783D01*
X22302571Y-10675212D01*
X22302571Y-10618069D01*
X22288286Y-10589497D01*
X22274000Y-10575212D01*
X22245428Y-10560926D01*
X22588285Y-10732354D02*
X22416857Y-10732354D01*
X22502571Y-10732354D02*
X22502571Y-10432354D01*
X22474000Y-10475212D01*
X22445428Y-10503783D01*
X22416857Y-10518069D01*
X22945428Y-10732354D02*
X22945428Y-10432354D01*
X23074000Y-10732354D02*
X23074000Y-10575212D01*
X23059714Y-10546640D01*
X23031143Y-10532354D01*
X22988285Y-10532354D01*
X22959714Y-10546640D01*
X22945428Y-10560926D01*
X23259714Y-10732354D02*
X23231143Y-10718069D01*
X23216857Y-10703783D01*
X23202571Y-10675212D01*
X23202571Y-10589497D01*
X23216857Y-10560926D01*
X23231143Y-10546640D01*
X23259714Y-10532354D01*
X23302571Y-10532354D01*
X23331143Y-10546640D01*
X23345428Y-10560926D01*
X23359714Y-10589497D01*
X23359714Y-10675212D01*
X23345428Y-10703783D01*
X23331143Y-10718069D01*
X23302571Y-10732354D01*
X23259714Y-10732354D01*
X23531143Y-10732354D02*
X23502571Y-10718069D01*
X23488286Y-10689497D01*
X23488286Y-10432354D01*
X23759714Y-10718069D02*
X23731143Y-10732354D01*
X23674000Y-10732354D01*
X23645428Y-10718069D01*
X23631143Y-10689497D01*
X23631143Y-10575212D01*
X23645428Y-10546640D01*
X23674000Y-10532354D01*
X23731143Y-10532354D01*
X23759714Y-10546640D01*
X23774000Y-10575212D01*
X23774000Y-10603783D01*
X23631143Y-10632354D01*
X23888286Y-10718069D02*
X23916857Y-10732354D01*
X23974000Y-10732354D01*
X24002571Y-10718069D01*
X24016857Y-10689497D01*
X24016857Y-10675212D01*
X24002571Y-10646640D01*
X23974000Y-10632354D01*
X23931143Y-10632354D01*
X23902571Y-10618069D01*
X23888286Y-10589497D01*
X23888286Y-10575212D01*
X23902571Y-10546640D01*
X23931143Y-10532354D01*
X23974000Y-10532354D01*
X24002571Y-10546640D01*
X24116857Y-10846640D02*
X24131143Y-10832354D01*
X24159714Y-10789497D01*
X24174000Y-10760926D01*
X24188286Y-10718069D01*
X24202571Y-10646640D01*
X24202571Y-10589497D01*
X24188286Y-10518069D01*
X24174000Y-10475212D01*
X24159714Y-10446640D01*
X24131143Y-10403783D01*
X24116857Y-10389497D01*
X17074000Y-10992640D02*
G75*
G03X17074000Y-10992640I-50000J0D01*
G01*
X17502571Y-11128354D02*
X17331143Y-11128354D01*
X17416857Y-11128354D02*
X17416857Y-10828354D01*
X17388286Y-10871212D01*
X17359714Y-10899783D01*
X17331143Y-10914069D01*
X17631143Y-11099783D02*
X17645429Y-11114069D01*
X17631143Y-11128354D01*
X17616857Y-11114069D01*
X17631143Y-11099783D01*
X17631143Y-11128354D01*
X17831143Y-10828354D02*
X17859714Y-10828354D01*
X17888286Y-10842640D01*
X17902571Y-10856926D01*
X17916857Y-10885497D01*
X17931143Y-10942640D01*
X17931143Y-11014069D01*
X17916857Y-11071212D01*
X17902571Y-11099783D01*
X17888286Y-11114069D01*
X17859714Y-11128354D01*
X17831143Y-11128354D01*
X17802571Y-11114069D01*
X17788286Y-11099783D01*
X17774000Y-11071212D01*
X17759714Y-11014069D01*
X17759714Y-10942640D01*
X17774000Y-10885497D01*
X17788286Y-10856926D01*
X17802571Y-10842640D01*
X17831143Y-10828354D01*
X18116857Y-10828354D02*
X18145429Y-10828354D01*
X18174000Y-10842640D01*
X18188286Y-10856926D01*
X18202571Y-10885497D01*
X18216857Y-10942640D01*
X18216857Y-11014069D01*
X18202571Y-11071212D01*
X18188286Y-11099783D01*
X18174000Y-11114069D01*
X18145429Y-11128354D01*
X18116857Y-11128354D01*
X18088286Y-11114069D01*
X18074000Y-11099783D01*
X18059714Y-11071212D01*
X18045429Y-11014069D01*
X18045429Y-10942640D01*
X18059714Y-10885497D01*
X18074000Y-10856926D01*
X18088286Y-10842640D01*
X18116857Y-10828354D01*
X18345429Y-11128354D02*
X18345429Y-10928354D01*
X18345429Y-10956926D02*
X18359714Y-10942640D01*
X18388286Y-10928354D01*
X18431143Y-10928354D01*
X18459714Y-10942640D01*
X18474000Y-10971212D01*
X18474000Y-11128354D01*
X18474000Y-10971212D02*
X18488286Y-10942640D01*
X18516857Y-10928354D01*
X18559714Y-10928354D01*
X18588286Y-10942640D01*
X18602571Y-10971212D01*
X18602571Y-11128354D01*
X18745429Y-11128354D02*
X18745429Y-10928354D01*
X18745429Y-10956926D02*
X18759714Y-10942640D01*
X18788286Y-10928354D01*
X18831143Y-10928354D01*
X18859714Y-10942640D01*
X18874000Y-10971212D01*
X18874000Y-11128354D01*
X18874000Y-10971212D02*
X18888286Y-10942640D01*
X18916857Y-10928354D01*
X18959714Y-10928354D01*
X18988286Y-10942640D01*
X19002571Y-10971212D01*
X19002571Y-11128354D01*
X19588286Y-10814069D02*
X19331143Y-11199783D01*
X19974000Y-10828354D02*
X20002571Y-10828354D01*
X20031143Y-10842640D01*
X20045428Y-10856926D01*
X20059714Y-10885497D01*
X20074000Y-10942640D01*
X20074000Y-11014069D01*
X20059714Y-11071212D01*
X20045428Y-11099783D01*
X20031143Y-11114069D01*
X20002571Y-11128354D01*
X19974000Y-11128354D01*
X19945428Y-11114069D01*
X19931143Y-11099783D01*
X19916857Y-11071212D01*
X19902571Y-11014069D01*
X19902571Y-10942640D01*
X19916857Y-10885497D01*
X19931143Y-10856926D01*
X19945428Y-10842640D01*
X19974000Y-10828354D01*
X20202571Y-11099783D02*
X20216857Y-11114069D01*
X20202571Y-11128354D01*
X20188286Y-11114069D01*
X20202571Y-11099783D01*
X20202571Y-11128354D01*
X20402571Y-10828354D02*
X20431143Y-10828354D01*
X20459714Y-10842640D01*
X20474000Y-10856926D01*
X20488286Y-10885497D01*
X20502571Y-10942640D01*
X20502571Y-11014069D01*
X20488286Y-11071212D01*
X20474000Y-11099783D01*
X20459714Y-11114069D01*
X20431143Y-11128354D01*
X20402571Y-11128354D01*
X20374000Y-11114069D01*
X20359714Y-11099783D01*
X20345428Y-11071212D01*
X20331143Y-11014069D01*
X20331143Y-10942640D01*
X20345428Y-10885497D01*
X20359714Y-10856926D01*
X20374000Y-10842640D01*
X20402571Y-10828354D01*
X20602571Y-10828354D02*
X20788286Y-10828354D01*
X20688286Y-10942640D01*
X20731143Y-10942640D01*
X20759714Y-10956926D01*
X20774000Y-10971212D01*
X20788286Y-10999783D01*
X20788286Y-11071212D01*
X20774000Y-11099783D01*
X20759714Y-11114069D01*
X20731143Y-11128354D01*
X20645428Y-11128354D01*
X20616857Y-11114069D01*
X20602571Y-11099783D01*
X20931143Y-11128354D02*
X20988286Y-11128354D01*
X21016857Y-11114069D01*
X21031143Y-11099783D01*
X21059714Y-11056926D01*
X21074000Y-10999783D01*
X21074000Y-10885497D01*
X21059714Y-10856926D01*
X21045428Y-10842640D01*
X21016857Y-10828354D01*
X20959714Y-10828354D01*
X20931143Y-10842640D01*
X20916857Y-10856926D01*
X20902571Y-10885497D01*
X20902571Y-10956926D01*
X20916857Y-10985497D01*
X20931143Y-10999783D01*
X20959714Y-11014069D01*
X21016857Y-11014069D01*
X21045428Y-10999783D01*
X21059714Y-10985497D01*
X21074000Y-10956926D01*
X21188286Y-10828354D02*
X21188286Y-10885497D01*
X21302571Y-10828354D02*
X21302571Y-10885497D01*
X21745428Y-11242640D02*
X21731143Y-11228354D01*
X21702571Y-11185497D01*
X21688286Y-11156926D01*
X21674000Y-11114069D01*
X21659714Y-11042640D01*
X21659714Y-10985497D01*
X21674000Y-10914069D01*
X21688286Y-10871212D01*
X21702571Y-10842640D01*
X21731143Y-10799783D01*
X21745428Y-10785497D01*
X22016857Y-11128354D02*
X21845428Y-11128354D01*
X21931143Y-11128354D02*
X21931143Y-10828354D01*
X21902571Y-10871212D01*
X21874000Y-10899783D01*
X21845428Y-10914069D01*
X22274000Y-10928354D02*
X22274000Y-11128354D01*
X22202571Y-10814069D02*
X22131143Y-11028354D01*
X22316857Y-11028354D01*
X22659714Y-11128354D02*
X22659714Y-10828354D01*
X22788285Y-11128354D02*
X22788285Y-10971212D01*
X22774000Y-10942640D01*
X22745428Y-10928354D01*
X22702571Y-10928354D01*
X22674000Y-10942640D01*
X22659714Y-10956926D01*
X22974000Y-11128354D02*
X22945428Y-11114069D01*
X22931143Y-11099783D01*
X22916857Y-11071212D01*
X22916857Y-10985497D01*
X22931143Y-10956926D01*
X22945428Y-10942640D01*
X22974000Y-10928354D01*
X23016857Y-10928354D01*
X23045428Y-10942640D01*
X23059714Y-10956926D01*
X23074000Y-10985497D01*
X23074000Y-11071212D01*
X23059714Y-11099783D01*
X23045428Y-11114069D01*
X23016857Y-11128354D01*
X22974000Y-11128354D01*
X23245428Y-11128354D02*
X23216857Y-11114069D01*
X23202571Y-11085497D01*
X23202571Y-10828354D01*
X23474000Y-11114069D02*
X23445428Y-11128354D01*
X23388286Y-11128354D01*
X23359714Y-11114069D01*
X23345428Y-11085497D01*
X23345428Y-10971212D01*
X23359714Y-10942640D01*
X23388286Y-10928354D01*
X23445428Y-10928354D01*
X23474000Y-10942640D01*
X23488286Y-10971212D01*
X23488286Y-10999783D01*
X23345428Y-11028354D01*
X23602571Y-11114069D02*
X23631143Y-11128354D01*
X23688286Y-11128354D01*
X23716857Y-11114069D01*
X23731143Y-11085497D01*
X23731143Y-11071212D01*
X23716857Y-11042640D01*
X23688286Y-11028354D01*
X23645428Y-11028354D01*
X23616857Y-11014069D01*
X23602571Y-10985497D01*
X23602571Y-10971212D01*
X23616857Y-10942640D01*
X23645428Y-10928354D01*
X23688286Y-10928354D01*
X23716857Y-10942640D01*
X23831143Y-11242640D02*
X23845428Y-11228354D01*
X23874000Y-11185497D01*
X23888286Y-11156926D01*
X23902571Y-11114069D01*
X23916857Y-11042640D01*
X23916857Y-10985497D01*
X23902571Y-10914069D01*
X23888286Y-10871212D01*
X23874000Y-10842640D01*
X23845428Y-10799783D01*
X23831143Y-10785497D01*
M02*
