G04 #@! TF.FileFunction,Copper,L1,Top,Signal*
%FSLAX46Y46*%
G04 Gerber Fmt 4.6, Leading zero omitted, Abs format (unit mm)*
G04 Created by KiCad (PCBNEW 4.0.7) date Sat Oct 28 16:02:57 2017*
%MOMM*%
%LPD*%
G01*
G04 APERTURE LIST*
%ADD10C,0.100000*%
%ADD11R,0.350000X1.000000*%
%ADD12R,0.600000X0.500000*%
%ADD13R,0.500000X0.600000*%
%ADD14R,4.064000X1.524000*%
%ADD15R,4.064000X1.270000*%
%ADD16R,1.700000X1.700000*%
%ADD17O,1.700000X1.700000*%
%ADD18R,0.700000X1.300000*%
%ADD19R,1.300000X0.700000*%
%ADD20R,0.600000X0.400000*%
%ADD21R,0.400000X0.600000*%
%ADD22R,1.200000X0.280000*%
%ADD23R,0.280000X1.200000*%
%ADD24R,1.725000X1.725000*%
%ADD25R,1.200000X1.400000*%
%ADD26C,0.400000*%
%ADD27C,0.614000*%
%ADD28C,0.300000*%
%ADD29C,0.152000*%
%ADD30C,0.800000*%
%ADD31C,0.254000*%
G04 APERTURE END LIST*
D10*
D11*
X191912000Y-80938000D03*
X191262000Y-80938000D03*
X190612000Y-80938000D03*
X190612000Y-82638000D03*
X191262000Y-82638000D03*
X191912000Y-82638000D03*
D12*
X183473000Y-76200000D03*
X184573000Y-76200000D03*
X182287000Y-76009500D03*
X181187000Y-76009500D03*
D13*
X177800000Y-79714000D03*
X177800000Y-80814000D03*
X179324000Y-88815000D03*
X179324000Y-87715000D03*
D12*
X187621000Y-86741000D03*
X186521000Y-86741000D03*
D13*
X188722000Y-87334000D03*
X188722000Y-88434000D03*
D12*
X181060000Y-90805000D03*
X182160000Y-90805000D03*
X193971000Y-80899000D03*
X192871000Y-80899000D03*
D14*
X203835000Y-83413600D03*
X203835000Y-78333600D03*
D15*
X203835000Y-80873600D03*
D16*
X175260000Y-93980000D03*
D17*
X177800000Y-93980000D03*
X180340000Y-93980000D03*
X182880000Y-93980000D03*
X185420000Y-93980000D03*
X187960000Y-93980000D03*
X190500000Y-93980000D03*
D16*
X175260000Y-73660000D03*
D17*
X177800000Y-73660000D03*
X180340000Y-73660000D03*
X182880000Y-73660000D03*
X185420000Y-73660000D03*
X187960000Y-73660000D03*
X190500000Y-73660000D03*
D18*
X195387000Y-75184000D03*
X193487000Y-75184000D03*
D19*
X186626500Y-89220000D03*
X186626500Y-91120000D03*
D20*
X177800000Y-78809000D03*
X177800000Y-77909000D03*
X186309000Y-77158000D03*
X186309000Y-76258000D03*
X188087000Y-77158000D03*
X188087000Y-76258000D03*
D21*
X188918000Y-91059000D03*
X188018000Y-91059000D03*
X190177000Y-91059000D03*
X191077000Y-91059000D03*
D20*
X196037200Y-81780800D03*
X196037200Y-80880800D03*
D22*
X187400000Y-83538000D03*
X187400000Y-83038000D03*
X187400000Y-82538000D03*
X187400000Y-82038000D03*
X187400000Y-81538000D03*
X187400000Y-81038000D03*
X187400000Y-80538000D03*
X187400000Y-80038000D03*
D23*
X185900000Y-78538000D03*
X185400000Y-78538000D03*
X184900000Y-78538000D03*
X184400000Y-78538000D03*
X183900000Y-78538000D03*
X183400000Y-78538000D03*
X182900000Y-78538000D03*
X182400000Y-78538000D03*
D22*
X180900000Y-80038000D03*
X180900000Y-80538000D03*
X180900000Y-81038000D03*
X180900000Y-81538000D03*
X180900000Y-82038000D03*
X180900000Y-82538000D03*
X180900000Y-83038000D03*
X180900000Y-83538000D03*
D23*
X182400000Y-85038000D03*
X182900000Y-85038000D03*
X183400000Y-85038000D03*
X183900000Y-85038000D03*
X184400000Y-85038000D03*
X184900000Y-85038000D03*
X185400000Y-85038000D03*
X185900000Y-85038000D03*
D24*
X185012500Y-82650500D03*
X183287500Y-82650500D03*
X185012500Y-80925500D03*
X183287500Y-80925500D03*
D25*
X182460000Y-89238000D03*
X182460000Y-87038000D03*
X180760000Y-87038000D03*
X180760000Y-89238000D03*
D20*
X172897800Y-91955200D03*
X172897800Y-92855200D03*
D26*
X189865000Y-86995000D03*
X189230000Y-86360000D03*
X188595000Y-85725000D03*
X187960000Y-85090000D03*
X186690000Y-85090000D03*
X204216000Y-81915000D03*
X203454000Y-81915000D03*
X202692000Y-81915000D03*
X201930000Y-81915000D03*
X200660000Y-81788000D03*
X199390000Y-81788000D03*
X198120000Y-81788000D03*
X196850000Y-81788000D03*
X193040000Y-83820000D03*
X198120000Y-85090000D03*
X194310000Y-82550000D03*
X195580000Y-82550000D03*
X196850000Y-82550000D03*
X198120000Y-82550000D03*
X199390000Y-82550000D03*
X200660000Y-82550000D03*
X200660000Y-83820000D03*
X199390000Y-83820000D03*
X198120000Y-83820000D03*
X196850000Y-83820000D03*
X195580000Y-83820000D03*
X194310000Y-83820000D03*
X194310000Y-85090000D03*
X195580000Y-85090000D03*
X196850000Y-85090000D03*
X201930000Y-79819500D03*
X204216000Y-79819500D03*
X203454000Y-79819500D03*
X202692000Y-79819500D03*
X193548000Y-95250000D03*
X193548000Y-93980000D03*
X193548000Y-92710000D03*
X193548000Y-91440000D03*
X193548000Y-90170000D03*
X193548000Y-88900000D03*
X192786000Y-83439000D03*
X192913000Y-82931000D03*
X192913000Y-82296000D03*
X195199000Y-81788000D03*
X194310000Y-81788000D03*
X193548000Y-81788000D03*
X193040000Y-85090000D03*
X199390000Y-85090000D03*
X200660000Y-85090000D03*
X201930000Y-85090000D03*
X203200000Y-85090000D03*
X204470000Y-85090000D03*
X204470000Y-86360000D03*
X203200000Y-86360000D03*
X201930000Y-86360000D03*
X200660000Y-86360000D03*
X199390000Y-86360000D03*
X198120000Y-86360000D03*
X196850000Y-86360000D03*
X195580000Y-86360000D03*
X194310000Y-86360000D03*
X193040000Y-86360000D03*
X204470000Y-87630000D03*
X203200000Y-87630000D03*
X201930000Y-87630000D03*
X200660000Y-87630000D03*
X199390000Y-87630000D03*
X198120000Y-87630000D03*
X196850000Y-87630000D03*
X195580000Y-87630000D03*
X195580000Y-88900000D03*
X196850000Y-88900000D03*
X198120000Y-88900000D03*
X199390000Y-88900000D03*
X200660000Y-88900000D03*
X201930000Y-88900000D03*
X203200000Y-88900000D03*
X204470000Y-88900000D03*
X204470000Y-90170000D03*
X203200000Y-90170000D03*
X201930000Y-90170000D03*
X200660000Y-90170000D03*
X199390000Y-90170000D03*
X198120000Y-90170000D03*
X196850000Y-90170000D03*
X195580000Y-90170000D03*
X195580000Y-91440000D03*
X196850000Y-91440000D03*
X198120000Y-91440000D03*
X199390000Y-91440000D03*
X200660000Y-91440000D03*
X201930000Y-91440000D03*
X203200000Y-91440000D03*
X204470000Y-91440000D03*
X204470000Y-92710000D03*
X203200000Y-92710000D03*
X201930000Y-92710000D03*
X200660000Y-92710000D03*
X199390000Y-92710000D03*
X198120000Y-92710000D03*
X196850000Y-92710000D03*
X195580000Y-92710000D03*
X195580000Y-93980000D03*
X196850000Y-93980000D03*
X198120000Y-93980000D03*
X199390000Y-93980000D03*
X200660000Y-93980000D03*
X201930000Y-93980000D03*
X203200000Y-93980000D03*
X204470000Y-93980000D03*
X204470000Y-95250000D03*
X203200000Y-95250000D03*
X201930000Y-95250000D03*
X200660000Y-95250000D03*
X199390000Y-95250000D03*
X198120000Y-95250000D03*
X196850000Y-95250000D03*
X195580000Y-95250000D03*
X194310000Y-95250000D03*
X194310000Y-93980000D03*
X194310000Y-92710000D03*
X194310000Y-91440000D03*
X194310000Y-90170000D03*
X194310000Y-88900000D03*
X194310000Y-87630000D03*
X193040000Y-87630000D03*
X191770000Y-87630000D03*
X191770000Y-86360000D03*
X191770000Y-85090000D03*
X190550800Y-79222600D03*
X200660000Y-80010000D03*
X199390000Y-80010000D03*
X198120000Y-80010000D03*
X196850000Y-80010000D03*
X195580000Y-80010000D03*
X194310000Y-80010000D03*
X193040000Y-80010000D03*
X193040000Y-78740000D03*
X191770000Y-78740000D03*
X191770000Y-77470000D03*
X193040000Y-77470000D03*
X194310000Y-77470000D03*
X194310000Y-78740000D03*
X200660000Y-78740000D03*
X199390000Y-78740000D03*
X198120000Y-78740000D03*
X196850000Y-78740000D03*
X195580000Y-78740000D03*
X203200000Y-76200000D03*
X204470000Y-76200000D03*
X204470000Y-74930000D03*
X203200000Y-74930000D03*
X201930000Y-74930000D03*
X200660000Y-74930000D03*
X199390000Y-74930000D03*
X198120000Y-74930000D03*
X196850000Y-74930000D03*
X195580000Y-73660000D03*
X196850000Y-73660000D03*
X198120000Y-73660000D03*
X199390000Y-73660000D03*
X200660000Y-73660000D03*
X201930000Y-73660000D03*
X203200000Y-73660000D03*
X204470000Y-73660000D03*
X204470000Y-72390000D03*
X203200000Y-72390000D03*
X201930000Y-72390000D03*
X200660000Y-72390000D03*
X199390000Y-72390000D03*
X198120000Y-72390000D03*
X196850000Y-72390000D03*
X195580000Y-72390000D03*
X201930000Y-76200000D03*
X200660000Y-76200000D03*
X199390000Y-76200000D03*
X198120000Y-76200000D03*
X196850000Y-76200000D03*
X195580000Y-77470000D03*
X196850000Y-77470000D03*
X198120000Y-77470000D03*
X199390000Y-77470000D03*
X200660000Y-77470000D03*
X189865000Y-80391000D03*
X190627000Y-80010000D03*
X188595000Y-81089500D03*
X189357000Y-80899000D03*
X192024000Y-83693000D03*
X191262000Y-83693000D03*
X192024000Y-79883000D03*
X190627000Y-83629500D03*
X189928500Y-83312000D03*
X189357000Y-82931000D03*
X188595000Y-82550000D03*
X191262000Y-79883000D03*
X191262000Y-81788000D03*
X187325000Y-78740000D03*
X189166500Y-77152500D03*
X187134500Y-77152500D03*
X181610000Y-88074500D03*
X181991000Y-91440000D03*
X182880000Y-91440000D03*
X183515000Y-90805000D03*
X183642000Y-89916000D03*
X183642000Y-89154000D03*
X181102000Y-91440000D03*
X180213000Y-91440000D03*
X179578000Y-86106000D03*
X179197000Y-86741000D03*
X178435000Y-86868000D03*
X178435000Y-87757000D03*
X178435000Y-88773000D03*
X178435000Y-89535000D03*
X179324000Y-89916000D03*
X179705000Y-90805000D03*
X180975000Y-84963000D03*
X184023000Y-87122000D03*
X184023000Y-87820500D03*
X183896000Y-88392000D03*
X183287500Y-80925500D03*
X181102000Y-78740000D03*
X183287500Y-82650500D03*
X185039000Y-82677000D03*
X185012500Y-80925500D03*
X171958000Y-89789000D03*
X184378600Y-92481400D03*
X175006000Y-91846400D03*
X181889400Y-75234800D03*
X179070000Y-81153000D03*
X179070000Y-77089000D03*
X182626000Y-75184000D03*
X184912000Y-76962000D03*
X173355000Y-95250000D03*
X172085000Y-95250000D03*
X172085000Y-93345000D03*
X172085000Y-91440000D03*
X192087500Y-93091000D03*
X192087500Y-93980000D03*
X192087500Y-94932500D03*
X174498000Y-95504000D03*
X176022000Y-95504000D03*
X177292000Y-95504000D03*
X178562000Y-95504000D03*
X179832000Y-95504000D03*
X181102000Y-95504000D03*
X182372000Y-95504000D03*
X183642000Y-95504000D03*
X184912000Y-95504000D03*
X186182000Y-95504000D03*
X187452000Y-95504000D03*
X188722000Y-95504000D03*
X189992000Y-95504000D03*
X191262000Y-95504000D03*
X192087500Y-91122500D03*
X192087500Y-90360500D03*
X192087500Y-89598500D03*
X192087500Y-91948000D03*
X173355000Y-74295000D03*
X173355000Y-76200000D03*
X173355000Y-78105000D03*
X173355000Y-80010000D03*
X173355000Y-73025000D03*
X177165000Y-82550000D03*
X175895000Y-82550000D03*
X174625000Y-82550000D03*
X174625000Y-87630000D03*
X174625000Y-85725000D03*
X174625000Y-83820000D03*
X173736000Y-92760800D03*
X173736000Y-91694000D03*
X175056800Y-90373200D03*
X184573000Y-75523000D03*
X188595000Y-89281000D03*
X189547500Y-91948000D03*
X174625000Y-81280000D03*
X173355000Y-81915000D03*
X173355000Y-83820000D03*
X173355000Y-85725000D03*
X173355000Y-87630000D03*
X173355000Y-89535000D03*
X176530000Y-75565000D03*
X179705000Y-75565000D03*
X175768000Y-80772000D03*
X178308000Y-83439000D03*
X176530000Y-76835000D03*
X175260000Y-79375000D03*
X186690000Y-72390000D03*
X172974000Y-91186000D03*
X177927000Y-86233000D03*
D27*
X191912000Y-80938000D02*
X192832000Y-80938000D01*
X192832000Y-80938000D02*
X192871000Y-80899000D01*
D28*
X185900000Y-85038000D02*
X186638000Y-85038000D01*
X189230000Y-86360000D02*
X189865000Y-86995000D01*
X187960000Y-85090000D02*
X188595000Y-85725000D01*
X186638000Y-85038000D02*
X186690000Y-85090000D01*
X196850000Y-82550000D02*
X196850000Y-81788000D01*
X202692000Y-81915000D02*
X203454000Y-81915000D01*
X200914000Y-82042000D02*
X201930000Y-81915000D01*
X200660000Y-81788000D02*
X200914000Y-82042000D01*
X198120000Y-81788000D02*
X199390000Y-81788000D01*
X198120000Y-85090000D02*
X196850000Y-85090000D01*
X195580000Y-82550000D02*
X194310000Y-82550000D01*
X198120000Y-82550000D02*
X196850000Y-82550000D01*
X200660000Y-82550000D02*
X199390000Y-82550000D01*
X199390000Y-83820000D02*
X200660000Y-83820000D01*
X196850000Y-83820000D02*
X198120000Y-83820000D01*
X194310000Y-83820000D02*
X195580000Y-83820000D01*
X195580000Y-85090000D02*
X194310000Y-85090000D01*
D29*
X201930000Y-79819500D02*
X202692000Y-79819500D01*
X203454000Y-79819500D02*
X204216000Y-79819500D01*
D28*
X193548000Y-93980000D02*
X193548000Y-95250000D01*
X193548000Y-91440000D02*
X193548000Y-92710000D01*
X193548000Y-88900000D02*
X193548000Y-90170000D01*
X192913000Y-82296000D02*
X193167000Y-82296000D01*
X192532000Y-83693000D02*
X192786000Y-83439000D01*
X192913000Y-82931000D02*
X192913000Y-82296000D01*
X192024000Y-83693000D02*
X192532000Y-83693000D01*
X194310000Y-81788000D02*
X195199000Y-81788000D01*
X193167000Y-82296000D02*
X193548000Y-81788000D01*
X200660000Y-85090000D02*
X199390000Y-85090000D01*
X203200000Y-85090000D02*
X201930000Y-85090000D01*
X204470000Y-86360000D02*
X204470000Y-85090000D01*
X201930000Y-86360000D02*
X203200000Y-86360000D01*
X199390000Y-86360000D02*
X200660000Y-86360000D01*
X196850000Y-86360000D02*
X198120000Y-86360000D01*
X194310000Y-86360000D02*
X195580000Y-86360000D01*
X193040000Y-85090000D02*
X193040000Y-86360000D01*
X192024000Y-83693000D02*
X192024000Y-84836000D01*
X203200000Y-87630000D02*
X204470000Y-87630000D01*
X200660000Y-87630000D02*
X201930000Y-87630000D01*
X198120000Y-87630000D02*
X199390000Y-87630000D01*
X195580000Y-87630000D02*
X196850000Y-87630000D01*
X196850000Y-88900000D02*
X195580000Y-88900000D01*
X199390000Y-88900000D02*
X198120000Y-88900000D01*
X201930000Y-88900000D02*
X200660000Y-88900000D01*
X204470000Y-88900000D02*
X203200000Y-88900000D01*
X203200000Y-90170000D02*
X204470000Y-90170000D01*
X200660000Y-90170000D02*
X201930000Y-90170000D01*
X198120000Y-90170000D02*
X199390000Y-90170000D01*
X195580000Y-90170000D02*
X196850000Y-90170000D01*
X196850000Y-91440000D02*
X195580000Y-91440000D01*
X199390000Y-91440000D02*
X198120000Y-91440000D01*
X201930000Y-91440000D02*
X200660000Y-91440000D01*
X204470000Y-91440000D02*
X203200000Y-91440000D01*
X203200000Y-92710000D02*
X204470000Y-92710000D01*
X200660000Y-92710000D02*
X201930000Y-92710000D01*
X198120000Y-92710000D02*
X199390000Y-92710000D01*
X195580000Y-92710000D02*
X196850000Y-92710000D01*
X196850000Y-93980000D02*
X195580000Y-93980000D01*
X199390000Y-93980000D02*
X198120000Y-93980000D01*
X201930000Y-93980000D02*
X200660000Y-93980000D01*
X204470000Y-93980000D02*
X203200000Y-93980000D01*
X203200000Y-95250000D02*
X204470000Y-95250000D01*
X200660000Y-95250000D02*
X201930000Y-95250000D01*
X198120000Y-95250000D02*
X199390000Y-95250000D01*
X195580000Y-95250000D02*
X196850000Y-95250000D01*
X194310000Y-93980000D02*
X194310000Y-95250000D01*
X194310000Y-91440000D02*
X194310000Y-92710000D01*
X194310000Y-88900000D02*
X194310000Y-90170000D01*
X193040000Y-87630000D02*
X194310000Y-87630000D01*
X191770000Y-86360000D02*
X191770000Y-87630000D01*
X192024000Y-84836000D02*
X191770000Y-85090000D01*
X187400000Y-80538000D02*
X188981400Y-80538000D01*
X190296800Y-79222600D02*
X190550800Y-79222600D01*
X188981400Y-80538000D02*
X190296800Y-79222600D01*
D29*
X189928500Y-83312000D02*
X189928500Y-83502500D01*
X189865000Y-83566000D02*
X189928500Y-83566000D01*
X189928500Y-83502500D02*
X189865000Y-83566000D01*
X189928500Y-83312000D02*
X189738000Y-83312000D01*
X189738000Y-83312000D02*
X189674500Y-83375500D01*
X189928500Y-83312000D02*
X189865000Y-83312000D01*
X189865000Y-83312000D02*
X189738000Y-83439000D01*
X189928500Y-83312000D02*
X189928500Y-83375500D01*
X189928500Y-83375500D02*
X189738000Y-83566000D01*
D28*
X195580000Y-78740000D02*
X194310000Y-78740000D01*
X199390000Y-80010000D02*
X200660000Y-80010000D01*
X196850000Y-80010000D02*
X198120000Y-80010000D01*
X194310000Y-80010000D02*
X195580000Y-80010000D01*
X193040000Y-78740000D02*
X193040000Y-80010000D01*
X191770000Y-77470000D02*
X191770000Y-78740000D01*
X194310000Y-77470000D02*
X193040000Y-77470000D01*
X201066400Y-78333600D02*
X203835000Y-78333600D01*
X200660000Y-78740000D02*
X201066400Y-78333600D01*
X198120000Y-78740000D02*
X199390000Y-78740000D01*
X195580000Y-78740000D02*
X196850000Y-78740000D01*
X195387000Y-75184000D02*
X195387000Y-72583000D01*
X204470000Y-76200000D02*
X203200000Y-76200000D01*
X203200000Y-74930000D02*
X204470000Y-74930000D01*
X200660000Y-74930000D02*
X201930000Y-74930000D01*
X198120000Y-74930000D02*
X199390000Y-74930000D01*
X195580000Y-73660000D02*
X196850000Y-74930000D01*
X198120000Y-73660000D02*
X196850000Y-73660000D01*
X200660000Y-73660000D02*
X199390000Y-73660000D01*
X203200000Y-73660000D02*
X201930000Y-73660000D01*
X204470000Y-72390000D02*
X204470000Y-73660000D01*
X201930000Y-72390000D02*
X203200000Y-72390000D01*
X199390000Y-72390000D02*
X200660000Y-72390000D01*
X196850000Y-72390000D02*
X198120000Y-72390000D01*
X195387000Y-72583000D02*
X195580000Y-72390000D01*
X201930000Y-76200000D02*
X200660000Y-76200000D01*
X199390000Y-76200000D02*
X198120000Y-76200000D01*
X196850000Y-76200000D02*
X195580000Y-77470000D01*
X196850000Y-77470000D02*
X198120000Y-77470000D01*
X199390000Y-77470000D02*
X200660000Y-77470000D01*
D29*
X190309500Y-83502500D02*
X190500000Y-83502500D01*
X190500000Y-83502500D02*
X190627000Y-83629500D01*
X190258700Y-83502500D02*
X190309500Y-83502500D01*
X190309500Y-83502500D02*
X190373000Y-83566000D01*
X190150750Y-83407250D02*
X190373000Y-83629500D01*
X190373000Y-83629500D02*
X190373000Y-83566000D01*
X190182500Y-83883500D02*
X190373000Y-83883500D01*
X190055500Y-83883500D02*
X190182500Y-83883500D01*
X189865000Y-83693000D02*
X190055500Y-83883500D01*
X190627000Y-84137500D02*
X190627000Y-84074000D01*
X190373000Y-83883500D02*
X190627000Y-84137500D01*
X189928500Y-83312000D02*
X190055500Y-83312000D01*
X190055500Y-83312000D02*
X190150750Y-83407250D01*
X190150750Y-83407250D02*
X190182500Y-83439000D01*
X190080900Y-83616800D02*
X190373000Y-83616800D01*
X190258700Y-83502500D02*
X190246000Y-83502500D01*
X190373000Y-83616800D02*
X190258700Y-83502500D01*
X190627000Y-83629500D02*
X190436500Y-83629500D01*
X190436500Y-83629500D02*
X190373000Y-83566000D01*
X190373000Y-83566000D02*
X190373000Y-83820000D01*
X189331600Y-83185000D02*
X189357000Y-83185000D01*
X189357000Y-83185000D02*
X189484000Y-83312000D01*
X189484000Y-83312000D02*
X189560200Y-83388200D01*
X189560200Y-83388200D02*
X189560200Y-83312000D01*
X189707520Y-83164680D02*
X189679385Y-83164680D01*
X189560200Y-83312000D02*
X189707520Y-83164680D01*
X189865000Y-83693000D02*
X190034333Y-83523667D01*
X190034333Y-83523667D02*
X189928500Y-83629500D01*
X189928500Y-83629500D02*
X189928500Y-83566000D01*
X189679385Y-83145923D02*
X189679385Y-83164680D01*
X189679385Y-83164680D02*
X189679385Y-83148365D01*
X189230000Y-83185000D02*
X189331600Y-83185000D01*
X189103000Y-83058000D02*
X189230000Y-83185000D01*
X189103000Y-82931000D02*
X189103000Y-83058000D01*
X189357000Y-83185000D02*
X189420500Y-83248500D01*
X189420500Y-83248500D02*
X189484000Y-83248500D01*
X189560200Y-83388200D02*
X189738000Y-83566000D01*
X189738000Y-83566000D02*
X189865000Y-83693000D01*
X190436500Y-79883000D02*
X190309500Y-80010000D01*
X190309500Y-80010000D02*
X190627000Y-80010000D01*
X190246000Y-80200500D02*
X190373000Y-80073500D01*
X189928500Y-80391000D02*
X190119000Y-80200500D01*
X189865000Y-80391000D02*
X189928500Y-80391000D01*
X190246000Y-80200500D02*
X190119000Y-80200500D01*
X190309500Y-80137000D02*
X190309500Y-80073500D01*
X190373000Y-80073500D02*
X190309500Y-80137000D01*
X188976000Y-81089500D02*
X189103000Y-81089500D01*
X189293500Y-80899000D02*
X189103000Y-81089500D01*
X189293500Y-80899000D02*
X189357000Y-80899000D01*
X188468000Y-80772000D02*
X188341000Y-80899000D01*
X188531500Y-81089500D02*
X188341000Y-80899000D01*
X188531500Y-81089500D02*
X188595000Y-81089500D01*
X188468000Y-80772000D02*
X188404500Y-80835500D01*
X188404500Y-80835500D02*
X188468000Y-80835500D01*
X188595000Y-81089500D02*
X188595000Y-80899000D01*
X188595000Y-81089500D02*
X188595000Y-81026000D01*
X188595000Y-81026000D02*
X188468000Y-80899000D01*
X188468000Y-80899000D02*
X188468000Y-80835500D01*
X188468000Y-80835500D02*
X188468000Y-80772000D01*
X188468000Y-80772000D02*
X188595000Y-80772000D01*
X188595000Y-80772000D02*
X188468000Y-80899000D01*
X188595000Y-81089500D02*
X188976000Y-81089500D01*
X188976000Y-81089500D02*
X188912500Y-81026000D01*
X188595000Y-81089500D02*
X188722000Y-81089500D01*
X188722000Y-81089500D02*
X188849000Y-80962500D01*
X190119000Y-80073500D02*
X190309500Y-80073500D01*
X190309500Y-80073500D02*
X190563500Y-80073500D01*
X190563500Y-80073500D02*
X190627000Y-80010000D01*
X189865000Y-80391000D02*
X189865000Y-80327500D01*
X189865000Y-80327500D02*
X190119000Y-80073500D01*
X190119000Y-80073500D02*
X190055500Y-80137000D01*
X190627000Y-80010000D02*
X190119000Y-80010000D01*
X189865000Y-80391000D02*
X189801500Y-80454500D01*
D28*
X189547500Y-80454500D02*
X189611000Y-80454500D01*
D29*
X189801500Y-80454500D02*
X189674500Y-80454500D01*
X189674500Y-80454500D02*
X189547500Y-80581500D01*
X189547500Y-80581500D02*
X189547500Y-80454500D01*
D28*
X189357000Y-80899000D02*
X189357000Y-80708500D01*
X189357000Y-80708500D02*
X189420500Y-80645000D01*
X189357000Y-80899000D02*
X189039500Y-80899000D01*
X188595000Y-81089500D02*
X187451500Y-81089500D01*
X187451500Y-81089500D02*
X187400000Y-81038000D01*
D29*
X188583000Y-81101500D02*
X187400000Y-81038000D01*
X188583000Y-81101500D02*
X188595000Y-81089500D01*
X191262000Y-79883000D02*
X190627000Y-80010000D01*
X189357000Y-80899000D02*
X189865000Y-80518000D01*
X189865000Y-80518000D02*
X189865000Y-80391000D01*
D28*
X187412000Y-81026000D02*
X187400000Y-81038000D01*
X192024000Y-82750000D02*
X192024000Y-83693000D01*
X192024000Y-82750000D02*
X191912000Y-82638000D01*
X191262000Y-79883000D02*
X192024000Y-79883000D01*
X191262000Y-80938000D02*
X191262000Y-79883000D01*
X191262000Y-82638000D02*
X191262000Y-83693000D01*
X190627000Y-83629500D02*
X191262000Y-83693000D01*
X191262000Y-81788000D02*
X191262000Y-80938000D01*
X191262000Y-81788000D02*
X191262000Y-82638000D01*
X189928500Y-83312000D02*
X189679385Y-83145923D01*
X189679385Y-83145923D02*
X189357000Y-82931000D01*
X189928500Y-83312000D02*
X189928500Y-83312000D01*
X189928500Y-83312000D02*
X190080900Y-83616800D01*
X190080900Y-83616800D02*
X190119000Y-83693000D01*
X190119000Y-83693000D02*
X190246000Y-83693000D01*
X190246000Y-83693000D02*
X190373000Y-83820000D01*
X190373000Y-83820000D02*
X190627000Y-84074000D01*
X190627000Y-84074000D02*
X191008000Y-84455000D01*
X189357000Y-82931000D02*
X189103000Y-82931000D01*
X189103000Y-82931000D02*
X188980228Y-82931000D01*
X188980228Y-82931000D02*
X188599228Y-82550000D01*
X188599228Y-82550000D02*
X188595000Y-82550000D01*
X188595000Y-82550000D02*
X188599228Y-82550000D01*
X188980228Y-82931000D02*
X189357000Y-82931000D01*
X188599228Y-82550000D02*
X188980228Y-82931000D01*
X187400000Y-82538000D02*
X188583000Y-82538000D01*
X188583000Y-82538000D02*
X188595000Y-82550000D01*
D29*
X191389000Y-82765000D02*
X191262000Y-82638000D01*
D28*
X188087000Y-77158000D02*
X189161000Y-77158000D01*
X189161000Y-77158000D02*
X189166500Y-77152500D01*
X186309000Y-77158000D02*
X187129000Y-77158000D01*
X187129000Y-77158000D02*
X187134500Y-77152500D01*
X182460000Y-87038000D02*
X182460000Y-87224500D01*
X182460000Y-87224500D02*
X181610000Y-88074500D01*
X180760000Y-89238000D02*
X180760000Y-88924500D01*
X180760000Y-88924500D02*
X181610000Y-88074500D01*
X185229500Y-87461000D02*
X184382500Y-87461000D01*
X184382500Y-87461000D02*
X184023000Y-87820500D01*
X183642000Y-89154000D02*
X183642000Y-88646000D01*
X181991000Y-91440000D02*
X182880000Y-91440000D01*
X183515000Y-90805000D02*
X183642000Y-90678000D01*
X183642000Y-90678000D02*
X183642000Y-89916000D01*
X180213000Y-91440000D02*
X181102000Y-91440000D01*
X180086000Y-85852000D02*
X179832000Y-85852000D01*
X179832000Y-85852000D02*
X179578000Y-86106000D01*
X179197000Y-86741000D02*
X179070000Y-86868000D01*
X179070000Y-86868000D02*
X178435000Y-86868000D01*
X178435000Y-87757000D02*
X178435000Y-88773000D01*
X178435000Y-89535000D02*
X178816000Y-89916000D01*
X178816000Y-89916000D02*
X179324000Y-89916000D01*
X180975000Y-84963000D02*
X180086000Y-85852000D01*
X183287500Y-82650500D02*
X180975000Y-84963000D01*
X184023000Y-87820500D02*
X184023000Y-87122000D01*
X183642000Y-88646000D02*
X183896000Y-88392000D01*
X179324000Y-88815000D02*
X180337000Y-88815000D01*
X180337000Y-88815000D02*
X180760000Y-89238000D01*
X181060000Y-90805000D02*
X181060000Y-89538000D01*
X181060000Y-89538000D02*
X180760000Y-89238000D01*
X180760000Y-89238000D02*
X180760000Y-88988000D01*
X183400000Y-85038000D02*
X183400000Y-82763000D01*
X183400000Y-82763000D02*
X183287500Y-82650500D01*
X184900000Y-85038000D02*
X184900000Y-82763000D01*
X184900000Y-82763000D02*
X185012500Y-82650500D01*
X185400000Y-85038000D02*
X185400000Y-83038000D01*
X185400000Y-83038000D02*
X185012500Y-82650500D01*
X185900000Y-85038000D02*
X185900000Y-83538000D01*
X185900000Y-83538000D02*
X185012500Y-82650500D01*
X187400000Y-82538000D02*
X185125000Y-82538000D01*
X185125000Y-82538000D02*
X185012500Y-82650500D01*
X187400000Y-81038000D02*
X185125000Y-81038000D01*
X185125000Y-81038000D02*
X185012500Y-80925500D01*
X185039000Y-82677000D02*
X185012500Y-82650500D01*
D29*
X187400000Y-81538000D02*
X189365228Y-81538000D01*
X189365228Y-81538000D02*
X190131228Y-80772000D01*
X190131228Y-80772000D02*
X190500000Y-80772000D01*
X190500000Y-80772000D02*
X190612000Y-80938000D01*
X187400000Y-82038000D02*
X189226000Y-82038000D01*
X189226000Y-82038000D02*
X189738000Y-82550000D01*
X189738000Y-82550000D02*
X189992000Y-82804000D01*
X189992000Y-82804000D02*
X190446000Y-82804000D01*
X190446000Y-82804000D02*
X190612000Y-82638000D01*
D28*
X183900000Y-78538000D02*
X183900000Y-77855000D01*
X183900000Y-77855000D02*
X183400000Y-77355000D01*
X183400000Y-78538000D02*
X183400000Y-77355000D01*
X183400000Y-77355000D02*
X183400000Y-76273000D01*
X183400000Y-76273000D02*
X183473000Y-76200000D01*
X171958000Y-89789000D02*
X172593000Y-90424000D01*
X172593000Y-90424000D02*
X173583600Y-90424000D01*
X173583600Y-90424000D02*
X175006000Y-91846400D01*
X182287000Y-76200000D02*
X182287000Y-75632400D01*
X185740000Y-91120000D02*
X186436000Y-91120000D01*
X184378600Y-92481400D02*
X185740000Y-91120000D01*
X182287000Y-75632400D02*
X181889400Y-75234800D01*
X182900000Y-78538000D02*
X182900000Y-76813000D01*
X182900000Y-76813000D02*
X182287000Y-76200000D01*
X185420000Y-93980000D02*
X185420000Y-92964000D01*
X186436000Y-91948000D02*
X186436000Y-91120000D01*
X185420000Y-92964000D02*
X186436000Y-91948000D01*
X177800000Y-78809000D02*
X176853000Y-78809000D01*
X175260000Y-77216000D02*
X175260000Y-73660000D01*
X176853000Y-78809000D02*
X175260000Y-77216000D01*
X177800000Y-79714000D02*
X177800000Y-78809000D01*
X182400000Y-85038000D02*
X181941400Y-85038000D01*
X181941400Y-85038000D02*
X180760000Y-86219400D01*
X180760000Y-86219400D02*
X180760000Y-87362400D01*
X180760000Y-87362400D02*
X180407400Y-87715000D01*
X180407400Y-87715000D02*
X179324000Y-87715000D01*
X184400000Y-85038000D02*
X184400000Y-85848000D01*
X186013000Y-86233000D02*
X186521000Y-86741000D01*
X184785000Y-86233000D02*
X186013000Y-86233000D01*
X184400000Y-85848000D02*
X184785000Y-86233000D01*
X182460000Y-89238000D02*
X182460000Y-89828000D01*
X182460000Y-89828000D02*
X182160000Y-90128000D01*
X182160000Y-90128000D02*
X182160000Y-90805000D01*
X182900000Y-85038000D02*
X182900000Y-85872000D01*
X182880000Y-88138000D02*
X182460000Y-88558000D01*
X183388000Y-88138000D02*
X182880000Y-88138000D01*
X183515000Y-88011000D02*
X183388000Y-88138000D01*
X183515000Y-86364228D02*
X183515000Y-88011000D01*
X183129772Y-85979000D02*
X183515000Y-86364228D01*
X183007000Y-85979000D02*
X183129772Y-85979000D01*
X182900000Y-85872000D02*
X183007000Y-85979000D01*
X182460000Y-88558000D02*
X182460000Y-89238000D01*
D30*
X193971000Y-80899000D02*
X203809600Y-80899000D01*
X203809600Y-80899000D02*
X203835000Y-80873600D01*
X203809600Y-80899000D02*
X203835000Y-80873600D01*
D28*
X179185000Y-81038000D02*
X179070000Y-81153000D01*
X180900000Y-81038000D02*
X179185000Y-81038000D01*
X177800000Y-76454000D02*
X177800000Y-73660000D01*
X178181000Y-76835000D02*
X177800000Y-76454000D01*
X178816000Y-76835000D02*
X178181000Y-76835000D01*
X179070000Y-77089000D02*
X178816000Y-76835000D01*
X180900000Y-81538000D02*
X179447000Y-81538000D01*
X176149000Y-91821000D02*
X177800000Y-93472000D01*
X176149000Y-84836000D02*
X176149000Y-91821000D01*
X179447000Y-81538000D02*
X176149000Y-84836000D01*
X177800000Y-93472000D02*
X177800000Y-93980000D01*
X180900000Y-82538000D02*
X179971000Y-82538000D01*
X178816000Y-92456000D02*
X180340000Y-93980000D01*
X177673000Y-92456000D02*
X178816000Y-92456000D01*
X176784000Y-91567000D02*
X177673000Y-92456000D01*
X176784000Y-85725000D02*
X176784000Y-91567000D01*
X179971000Y-82538000D02*
X176784000Y-85725000D01*
X180900000Y-83038000D02*
X180110228Y-83038000D01*
X182118000Y-92583000D02*
X182880000Y-93345000D01*
X179832000Y-92583000D02*
X182118000Y-92583000D01*
X179252998Y-92003998D02*
X179832000Y-92583000D01*
X177927000Y-92003998D02*
X179252998Y-92003998D01*
X177294114Y-91371112D02*
X177927000Y-92003998D01*
X177294114Y-85854114D02*
X177294114Y-91371112D01*
X180110228Y-83038000D02*
X177294114Y-85854114D01*
X182880000Y-93345000D02*
X182880000Y-93980000D01*
X172897800Y-92855200D02*
X172897800Y-93776800D01*
X173380400Y-94259400D02*
X174980600Y-94259400D01*
X172897800Y-93776800D02*
X173380400Y-94259400D01*
X174980600Y-94259400D02*
X175260000Y-93980000D01*
X188087000Y-76258000D02*
X188081500Y-76258000D01*
X188081500Y-76258000D02*
X187388500Y-75565000D01*
X187388500Y-75565000D02*
X186690000Y-75565000D01*
X185900000Y-78538000D02*
X185900000Y-78387000D01*
X185900000Y-78387000D02*
X186499500Y-77787500D01*
X186499500Y-77787500D02*
X189547500Y-77787500D01*
X189547500Y-77787500D02*
X189865000Y-77470000D01*
X189865000Y-77470000D02*
X189865000Y-76708000D01*
X189865000Y-76708000D02*
X189415000Y-76258000D01*
X189415000Y-76258000D02*
X188087000Y-76258000D01*
X186690000Y-75565000D02*
X186309000Y-75565000D01*
X186309000Y-75565000D02*
X185420000Y-74676000D01*
X185420000Y-74676000D02*
X185420000Y-73660000D01*
X186309000Y-76258000D02*
X186303500Y-76258000D01*
X186303500Y-76258000D02*
X185039000Y-74993500D01*
X185039000Y-74993500D02*
X184023000Y-74993500D01*
X184023000Y-74993500D02*
X182880000Y-73850500D01*
X182880000Y-73850500D02*
X182880000Y-73660000D01*
X185400000Y-78538000D02*
X185400000Y-77236000D01*
X185400000Y-77236000D02*
X185547000Y-77089000D01*
X185547000Y-77089000D02*
X185547000Y-76517500D01*
X185547000Y-76517500D02*
X185806500Y-76258000D01*
X185806500Y-76258000D02*
X186309000Y-76258000D01*
X184900000Y-78538000D02*
X184900000Y-77482000D01*
X182626000Y-75184000D02*
X181102000Y-73660000D01*
X184912000Y-77470000D02*
X184912000Y-76962000D01*
X184900000Y-77482000D02*
X184912000Y-77470000D01*
X181102000Y-73660000D02*
X180340000Y-73660000D01*
X191077000Y-91059000D02*
X191077000Y-85667000D01*
X191077000Y-85667000D02*
X188448000Y-83038000D01*
X188448000Y-83038000D02*
X187400000Y-83038000D01*
X191077000Y-91059000D02*
X191077000Y-93403000D01*
X191077000Y-93403000D02*
X190500000Y-93980000D01*
X188018000Y-91059000D02*
X188018000Y-93922000D01*
X188018000Y-93922000D02*
X187960000Y-93980000D01*
X188214000Y-90170000D02*
X187960000Y-90424000D01*
X189103000Y-90170000D02*
X188214000Y-90170000D01*
X190500000Y-88773000D02*
X189103000Y-90170000D01*
X190500000Y-85852000D02*
X190500000Y-88773000D01*
X188186000Y-83538000D02*
X190500000Y-85852000D01*
X187400000Y-83538000D02*
X188186000Y-83538000D01*
X187960000Y-90424000D02*
X187960000Y-91001000D01*
X187960000Y-91001000D02*
X188018000Y-91059000D01*
X188018000Y-93922000D02*
X187960000Y-93980000D01*
X180900000Y-80038000D02*
X179352000Y-80038000D01*
X178239000Y-77909000D02*
X177800000Y-77909000D01*
X178689000Y-78359000D02*
X178239000Y-77909000D01*
X178689000Y-79375000D02*
X178689000Y-78359000D01*
X179352000Y-80038000D02*
X178689000Y-79375000D01*
X172085000Y-95250000D02*
X173355000Y-95250000D01*
X172085000Y-91440000D02*
X172085000Y-93345000D01*
X192087500Y-93980000D02*
X192087500Y-94932500D01*
X192087500Y-93091000D02*
X192087500Y-91948000D01*
X176022000Y-95504000D02*
X174498000Y-95504000D01*
X178562000Y-95504000D02*
X177292000Y-95504000D01*
X181102000Y-95504000D02*
X179832000Y-95504000D01*
X183642000Y-95504000D02*
X182372000Y-95504000D01*
X186182000Y-95504000D02*
X184912000Y-95504000D01*
X188722000Y-95504000D02*
X187452000Y-95504000D01*
X191262000Y-95504000D02*
X189992000Y-95504000D01*
X192087500Y-91948000D02*
X192087500Y-91122500D01*
X192087500Y-90360500D02*
X192087500Y-89598500D01*
X173355000Y-73025000D02*
X173355000Y-74295000D01*
X173355000Y-78105000D02*
X173355000Y-76200000D01*
X173355000Y-80010000D02*
X173355000Y-81915000D01*
X173355000Y-81915000D02*
X173990000Y-81915000D01*
X175895000Y-82550000D02*
X177165000Y-82550000D01*
X173990000Y-81915000D02*
X174625000Y-82550000D01*
X173355000Y-83820000D02*
X174625000Y-83820000D01*
X174625000Y-85725000D02*
X174625000Y-87630000D01*
X173355000Y-89560400D02*
X174244000Y-89560400D01*
X173736000Y-91694000D02*
X173736000Y-92760800D01*
X174244000Y-89560400D02*
X175056800Y-90373200D01*
X184573000Y-76200000D02*
X184573000Y-75523000D01*
X184573000Y-75523000D02*
X184594500Y-75501500D01*
X184213500Y-76559500D02*
X184573000Y-76200000D01*
X184213500Y-77089000D02*
X184213500Y-76559500D01*
X181187000Y-76009500D02*
X181187000Y-75904000D01*
X181187000Y-75904000D02*
X180848000Y-75565000D01*
X180848000Y-75565000D02*
X179705000Y-75565000D01*
X182400000Y-78538000D02*
X182400000Y-77244000D01*
X181187000Y-76412000D02*
X181187000Y-76009500D01*
X181546500Y-76771500D02*
X181187000Y-76412000D01*
X181927500Y-76771500D02*
X181546500Y-76771500D01*
X182400000Y-77244000D02*
X181927500Y-76771500D01*
X184400000Y-78538000D02*
X184400000Y-77275500D01*
X184400000Y-77275500D02*
X184213500Y-77089000D01*
X189547500Y-91948000D02*
X189547500Y-91688500D01*
X189547500Y-91688500D02*
X190177000Y-91059000D01*
X189547500Y-91688500D02*
X188918000Y-91059000D01*
X173990000Y-81280000D02*
X174625000Y-81280000D01*
X173355000Y-81915000D02*
X173990000Y-81280000D01*
X173355000Y-85725000D02*
X173355000Y-83820000D01*
X173355000Y-89535000D02*
X173355000Y-89560400D01*
X173355000Y-89560400D02*
X173355000Y-87630000D01*
X179705000Y-75565000D02*
X179070000Y-74930000D01*
X175768000Y-80772000D02*
X175768000Y-79883000D01*
X180900000Y-82038000D02*
X179709000Y-82038000D01*
X179709000Y-82038000D02*
X178308000Y-83439000D01*
X175768000Y-79883000D02*
X175260000Y-79375000D01*
X176530000Y-76835000D02*
X176530000Y-75565000D01*
X179070000Y-74930000D02*
X179070000Y-73025000D01*
X179070000Y-73025000D02*
X179705000Y-72390000D01*
X179705000Y-72390000D02*
X186690000Y-72390000D01*
X180900000Y-80538000D02*
X178582000Y-80538000D01*
X178306000Y-80814000D02*
X177800000Y-80814000D01*
X178582000Y-80538000D02*
X178306000Y-80814000D01*
X186626500Y-89220000D02*
X186626500Y-88709500D01*
X186902000Y-88434000D02*
X188722000Y-88434000D01*
X186626500Y-88709500D02*
X186902000Y-88434000D01*
X183900000Y-85038000D02*
X183900000Y-86046500D01*
X185864500Y-88458000D02*
X186626500Y-89220000D01*
X185864500Y-86931500D02*
X185864500Y-88458000D01*
X185618002Y-86685002D02*
X185864500Y-86931500D01*
X184538502Y-86685002D02*
X185618002Y-86685002D01*
X183900000Y-86046500D02*
X184538502Y-86685002D01*
X187400000Y-80038000D02*
X188630500Y-80038000D01*
X188630500Y-80038000D02*
X190119000Y-78549500D01*
X190119000Y-78549500D02*
X190119000Y-77914500D01*
X190119000Y-77914500D02*
X190373000Y-77660500D01*
X190373000Y-77660500D02*
X190373000Y-76517500D01*
X190373000Y-76517500D02*
X187960000Y-74104500D01*
X187960000Y-74104500D02*
X187960000Y-73660000D01*
X180900000Y-83538000D02*
X180249456Y-83538000D01*
X180249456Y-83538000D02*
X177927000Y-85860456D01*
X177927000Y-85860456D02*
X177927000Y-86233000D01*
X172897800Y-91262200D02*
X172897800Y-91955200D01*
X172974000Y-91186000D02*
X172897800Y-91262200D01*
D31*
G36*
X193865500Y-73899000D02*
X193772750Y-73899000D01*
X193614000Y-74057750D01*
X193614000Y-75057000D01*
X193634000Y-75057000D01*
X193634000Y-75311000D01*
X193614000Y-75311000D01*
X193614000Y-75331000D01*
X193360000Y-75331000D01*
X193360000Y-75311000D01*
X192660750Y-75311000D01*
X192502000Y-75469750D01*
X192502000Y-75960310D01*
X192598673Y-76193699D01*
X192604974Y-76200000D01*
X190662198Y-76200000D01*
X188832151Y-74369953D01*
X189003060Y-74114168D01*
X189068137Y-73787002D01*
X189179180Y-73787002D01*
X189058514Y-74016892D01*
X189304817Y-74541358D01*
X189733076Y-74931645D01*
X190143110Y-75101476D01*
X190373000Y-74980155D01*
X190373000Y-73787000D01*
X190627000Y-73787000D01*
X190627000Y-74980155D01*
X190856890Y-75101476D01*
X191266924Y-74931645D01*
X191695183Y-74541358D01*
X191757957Y-74407690D01*
X192502000Y-74407690D01*
X192502000Y-74898250D01*
X192660750Y-75057000D01*
X193360000Y-75057000D01*
X193360000Y-74057750D01*
X193201250Y-73899000D01*
X193010691Y-73899000D01*
X192777302Y-73995673D01*
X192598673Y-74174301D01*
X192502000Y-74407690D01*
X191757957Y-74407690D01*
X191941486Y-74016892D01*
X191820819Y-73787000D01*
X190627000Y-73787000D01*
X190373000Y-73787000D01*
X190353000Y-73787000D01*
X190353000Y-73533000D01*
X190373000Y-73533000D01*
X190373000Y-72339845D01*
X190627000Y-72339845D01*
X190627000Y-73533000D01*
X191820819Y-73533000D01*
X191941486Y-73303108D01*
X191695183Y-72778642D01*
X191266924Y-72388355D01*
X190856890Y-72218524D01*
X190627000Y-72339845D01*
X190373000Y-72339845D01*
X190143110Y-72218524D01*
X189733076Y-72388355D01*
X189304817Y-72778642D01*
X189058514Y-73303108D01*
X189179180Y-73532998D01*
X189068137Y-73532998D01*
X189003060Y-73205832D01*
X188758324Y-72839558D01*
X188392050Y-72594822D01*
X187960000Y-72508882D01*
X187527950Y-72594822D01*
X187161676Y-72839558D01*
X186916940Y-73205832D01*
X186831000Y-73637882D01*
X186831000Y-73682118D01*
X186916940Y-74114168D01*
X187161676Y-74480442D01*
X187527950Y-74725178D01*
X187960000Y-74811118D01*
X188043342Y-74794540D01*
X189077802Y-75829000D01*
X188546048Y-75829000D01*
X188497673Y-75795947D01*
X188387000Y-75773535D01*
X188203733Y-75773535D01*
X187691849Y-75261651D01*
X187552671Y-75168656D01*
X187388500Y-75136000D01*
X186486698Y-75136000D01*
X185986224Y-74635526D01*
X186218324Y-74480442D01*
X186463060Y-74114168D01*
X186549000Y-73682118D01*
X186549000Y-73637882D01*
X186463060Y-73205832D01*
X186218324Y-72839558D01*
X185852050Y-72594822D01*
X185420000Y-72508882D01*
X184987950Y-72594822D01*
X184621676Y-72839558D01*
X184376940Y-73205832D01*
X184291000Y-73637882D01*
X184291000Y-73682118D01*
X184376940Y-74114168D01*
X184621676Y-74480442D01*
X184747478Y-74564500D01*
X184200698Y-74564500D01*
X183853889Y-74217691D01*
X183923060Y-74114168D01*
X184009000Y-73682118D01*
X184009000Y-73637882D01*
X183923060Y-73205832D01*
X183678324Y-72839558D01*
X183312050Y-72594822D01*
X182880000Y-72508882D01*
X182447950Y-72594822D01*
X182081676Y-72839558D01*
X181836940Y-73205832D01*
X181751000Y-73637882D01*
X181751000Y-73682118D01*
X181756012Y-73707314D01*
X181414974Y-73366276D01*
X181383060Y-73205832D01*
X181138324Y-72839558D01*
X180772050Y-72594822D01*
X180340000Y-72508882D01*
X179907950Y-72594822D01*
X179541676Y-72839558D01*
X179296940Y-73205832D01*
X179211000Y-73637882D01*
X179211000Y-73682118D01*
X179296940Y-74114168D01*
X179541676Y-74480442D01*
X179907950Y-74725178D01*
X180340000Y-74811118D01*
X180772050Y-74725178D01*
X181138324Y-74480442D01*
X181209389Y-74374086D01*
X181650525Y-74815223D01*
X181618423Y-74828487D01*
X181483560Y-74963114D01*
X181410483Y-75139103D01*
X181410441Y-75186809D01*
X181314000Y-75283250D01*
X181314000Y-75884500D01*
X181334000Y-75884500D01*
X181334000Y-76134500D01*
X181314000Y-76134500D01*
X181314000Y-76156500D01*
X181060000Y-76156500D01*
X181060000Y-76134500D01*
X180410750Y-76134500D01*
X180345250Y-76200000D01*
X178816000Y-76200000D01*
X178766590Y-76210006D01*
X178724965Y-76238447D01*
X178697685Y-76280841D01*
X178689000Y-76327000D01*
X178689000Y-76406000D01*
X178358698Y-76406000D01*
X178229000Y-76276302D01*
X178229000Y-75633190D01*
X180252000Y-75633190D01*
X180252000Y-75725750D01*
X180410750Y-75884500D01*
X181060000Y-75884500D01*
X181060000Y-75283250D01*
X180901250Y-75124500D01*
X180760691Y-75124500D01*
X180527302Y-75221173D01*
X180348673Y-75399801D01*
X180252000Y-75633190D01*
X178229000Y-75633190D01*
X178229000Y-74725785D01*
X178232050Y-74725178D01*
X178598324Y-74480442D01*
X178843060Y-74114168D01*
X178929000Y-73682118D01*
X178929000Y-73637882D01*
X178843060Y-73205832D01*
X178598324Y-72839558D01*
X178232050Y-72594822D01*
X177800000Y-72508882D01*
X177367950Y-72594822D01*
X177001676Y-72839558D01*
X176756940Y-73205832D01*
X176671000Y-73637882D01*
X176671000Y-73682118D01*
X176756940Y-74114168D01*
X177001676Y-74480442D01*
X177367950Y-74725178D01*
X177371000Y-74725785D01*
X177371000Y-76454000D01*
X177403656Y-76618171D01*
X177496651Y-76757349D01*
X177877651Y-77138349D01*
X178016829Y-77231344D01*
X178181000Y-77264000D01*
X178624030Y-77264000D01*
X178663687Y-77359977D01*
X178689000Y-77385334D01*
X178689000Y-77752302D01*
X178542349Y-77605651D01*
X178403171Y-77512656D01*
X178267281Y-77485625D01*
X178210673Y-77446947D01*
X178100000Y-77424535D01*
X177500000Y-77424535D01*
X177396609Y-77443989D01*
X177301651Y-77505093D01*
X177237947Y-77598327D01*
X177215535Y-77709000D01*
X177215535Y-78109000D01*
X177234989Y-78212391D01*
X177296093Y-78307349D01*
X177372460Y-78359528D01*
X177340647Y-78380000D01*
X177030698Y-78380000D01*
X175689000Y-77038302D01*
X175689000Y-74794465D01*
X176110000Y-74794465D01*
X176213391Y-74775011D01*
X176308349Y-74713907D01*
X176372053Y-74620673D01*
X176394465Y-74510000D01*
X176394465Y-72810000D01*
X176375011Y-72706609D01*
X176313907Y-72611651D01*
X176220673Y-72547947D01*
X176110000Y-72525535D01*
X174410000Y-72525535D01*
X174306609Y-72544989D01*
X174211651Y-72606093D01*
X174147947Y-72699327D01*
X174125535Y-72810000D01*
X174125535Y-74510000D01*
X174144989Y-74613391D01*
X174206093Y-74708349D01*
X174299327Y-74772053D01*
X174410000Y-74794465D01*
X174831000Y-74794465D01*
X174831000Y-77216000D01*
X174863656Y-77380171D01*
X174956651Y-77519349D01*
X176549651Y-79112349D01*
X176688829Y-79205344D01*
X176853000Y-79238000D01*
X177332583Y-79238000D01*
X177287947Y-79303327D01*
X177265535Y-79414000D01*
X177265535Y-79944510D01*
X177190301Y-79975673D01*
X177011673Y-80154302D01*
X176915000Y-80387691D01*
X176915000Y-80528250D01*
X177073750Y-80687000D01*
X177675000Y-80687000D01*
X177675000Y-80667000D01*
X177925000Y-80667000D01*
X177925000Y-80687000D01*
X178526250Y-80687000D01*
X178685000Y-80528250D01*
X178685000Y-80387691D01*
X178588327Y-80154302D01*
X178409699Y-79975673D01*
X178334465Y-79944510D01*
X178334465Y-79601743D01*
X178385651Y-79678349D01*
X178689000Y-79981698D01*
X178689000Y-80856517D01*
X178664160Y-80881314D01*
X178606185Y-81020935D01*
X178526250Y-80941000D01*
X177925000Y-80941000D01*
X177925000Y-81590250D01*
X178083750Y-81749000D01*
X178176310Y-81749000D01*
X178409699Y-81652327D01*
X178588327Y-81473698D01*
X178636338Y-81357789D01*
X178663687Y-81423977D01*
X178689000Y-81449334D01*
X178689000Y-81689302D01*
X175845651Y-84532651D01*
X175752656Y-84671829D01*
X175720000Y-84836000D01*
X175720000Y-91821000D01*
X175752656Y-91985171D01*
X175845651Y-92124349D01*
X176953284Y-93231982D01*
X176756940Y-93525832D01*
X176671000Y-93957882D01*
X176671000Y-94002118D01*
X176756940Y-94434168D01*
X177001676Y-94800442D01*
X177367950Y-95045178D01*
X177800000Y-95131118D01*
X178232050Y-95045178D01*
X178598324Y-94800442D01*
X178843060Y-94434168D01*
X178929000Y-94002118D01*
X178929000Y-93957882D01*
X178843060Y-93525832D01*
X178598324Y-93159558D01*
X178232050Y-92914822D01*
X178082125Y-92885000D01*
X178638302Y-92885000D01*
X179293986Y-93540683D01*
X179211000Y-93957882D01*
X179211000Y-94002118D01*
X179296940Y-94434168D01*
X179541676Y-94800442D01*
X179907950Y-95045178D01*
X180340000Y-95131118D01*
X180772050Y-95045178D01*
X181138324Y-94800442D01*
X181383060Y-94434168D01*
X181469000Y-94002118D01*
X181469000Y-93957882D01*
X181383060Y-93525832D01*
X181138324Y-93159558D01*
X180917487Y-93012000D01*
X181940302Y-93012000D01*
X182085383Y-93157081D01*
X182081676Y-93159558D01*
X181836940Y-93525832D01*
X181751000Y-93957882D01*
X181751000Y-94002118D01*
X181836940Y-94434168D01*
X182081676Y-94800442D01*
X182447950Y-95045178D01*
X182880000Y-95131118D01*
X183312050Y-95045178D01*
X183678324Y-94800442D01*
X183923060Y-94434168D01*
X184009000Y-94002118D01*
X184009000Y-93957882D01*
X183923060Y-93525832D01*
X183678324Y-93159558D01*
X183312050Y-92914822D01*
X182993071Y-92851373D01*
X182470698Y-92329000D01*
X183923228Y-92329000D01*
X183899683Y-92385703D01*
X183899517Y-92576261D01*
X183972287Y-92752377D01*
X184106914Y-92887240D01*
X184282903Y-92960317D01*
X184473461Y-92960483D01*
X184649577Y-92887713D01*
X184784440Y-92753086D01*
X184834734Y-92631964D01*
X185146636Y-92320062D01*
X185151910Y-92318994D01*
X185193535Y-92290553D01*
X185220815Y-92248159D01*
X185221342Y-92245356D01*
X185787894Y-91678804D01*
X185865827Y-91732053D01*
X185976500Y-91754465D01*
X186007000Y-91754465D01*
X186007000Y-91770302D01*
X185116651Y-92660651D01*
X185023656Y-92799829D01*
X185001311Y-92912164D01*
X184987950Y-92914822D01*
X184621676Y-93159558D01*
X184376940Y-93525832D01*
X184291000Y-93957882D01*
X184291000Y-94002118D01*
X184376940Y-94434168D01*
X184621676Y-94800442D01*
X184987950Y-95045178D01*
X185420000Y-95131118D01*
X185852050Y-95045178D01*
X186218324Y-94800442D01*
X186463060Y-94434168D01*
X186549000Y-94002118D01*
X186549000Y-93957882D01*
X186463060Y-93525832D01*
X186218324Y-93159558D01*
X185986224Y-93004474D01*
X186739349Y-92251349D01*
X186832344Y-92112171D01*
X186865000Y-91948000D01*
X186865000Y-91754465D01*
X187276500Y-91754465D01*
X187379891Y-91735011D01*
X187474849Y-91673907D01*
X187538553Y-91580673D01*
X187560228Y-91473640D01*
X187589000Y-91518353D01*
X187589000Y-92902678D01*
X187527950Y-92914822D01*
X187161676Y-93159558D01*
X186916940Y-93525832D01*
X186831000Y-93957882D01*
X186831000Y-94002118D01*
X186916940Y-94434168D01*
X187161676Y-94800442D01*
X187527950Y-95045178D01*
X187960000Y-95131118D01*
X188392050Y-95045178D01*
X188758324Y-94800442D01*
X189003060Y-94434168D01*
X189089000Y-94002118D01*
X189089000Y-93957882D01*
X189003060Y-93525832D01*
X188758324Y-93159558D01*
X188447000Y-92951538D01*
X188447000Y-91934067D01*
X188591691Y-91994000D01*
X188659250Y-91994000D01*
X188818000Y-91835250D01*
X188818000Y-91186000D01*
X189018000Y-91186000D01*
X189018000Y-91835250D01*
X189176750Y-91994000D01*
X189244309Y-91994000D01*
X189477698Y-91897327D01*
X189547500Y-91827525D01*
X189617302Y-91897327D01*
X189850691Y-91994000D01*
X189918250Y-91994000D01*
X190077000Y-91835250D01*
X190077000Y-91186000D01*
X189018000Y-91186000D01*
X188818000Y-91186000D01*
X188771000Y-91186000D01*
X188771000Y-90932000D01*
X188818000Y-90932000D01*
X188818000Y-90912000D01*
X189018000Y-90912000D01*
X189018000Y-90932000D01*
X190077000Y-90932000D01*
X190077000Y-90282750D01*
X189918250Y-90124000D01*
X189850691Y-90124000D01*
X189688528Y-90191170D01*
X190648000Y-89231698D01*
X190648000Y-90183933D01*
X190503309Y-90124000D01*
X190435750Y-90124000D01*
X190277000Y-90282750D01*
X190277000Y-90932000D01*
X190324000Y-90932000D01*
X190324000Y-91186000D01*
X190277000Y-91186000D01*
X190277000Y-91835250D01*
X190435750Y-91994000D01*
X190503309Y-91994000D01*
X190648000Y-91934067D01*
X190648000Y-92858321D01*
X190500000Y-92828882D01*
X190067950Y-92914822D01*
X189701676Y-93159558D01*
X189456940Y-93525832D01*
X189371000Y-93957882D01*
X189371000Y-94002118D01*
X189456940Y-94434168D01*
X189701676Y-94800442D01*
X190067950Y-95045178D01*
X190500000Y-95131118D01*
X190932050Y-95045178D01*
X191298324Y-94800442D01*
X191543060Y-94434168D01*
X191629000Y-94002118D01*
X191629000Y-93957882D01*
X191543060Y-93525832D01*
X191495674Y-93454913D01*
X191506000Y-93403000D01*
X191506000Y-91518048D01*
X191539053Y-91469673D01*
X191561465Y-91359000D01*
X191561465Y-90759000D01*
X191542011Y-90655609D01*
X191506000Y-90599647D01*
X191506000Y-88646000D01*
X192405000Y-88646000D01*
X192405000Y-95758152D01*
X171450000Y-95783248D01*
X171450000Y-89883861D01*
X171478917Y-89883861D01*
X171551687Y-90059977D01*
X171686314Y-90194840D01*
X171807436Y-90245134D01*
X172289651Y-90727349D01*
X172428829Y-90820344D01*
X172593000Y-90853001D01*
X172593005Y-90853000D01*
X172629581Y-90853000D01*
X172568160Y-90914314D01*
X172495083Y-91090303D01*
X172495048Y-91130243D01*
X172468800Y-91262200D01*
X172468800Y-91506668D01*
X172399451Y-91551293D01*
X172335747Y-91644527D01*
X172313335Y-91755200D01*
X172313335Y-92155200D01*
X172332789Y-92258591D01*
X172393893Y-92353549D01*
X172470260Y-92405728D01*
X172399451Y-92451293D01*
X172335747Y-92544527D01*
X172313335Y-92655200D01*
X172313335Y-93055200D01*
X172332789Y-93158591D01*
X172393893Y-93253549D01*
X172468800Y-93304731D01*
X172468800Y-93776800D01*
X172501456Y-93940971D01*
X172594451Y-94080149D01*
X173077049Y-94562746D01*
X173077051Y-94562749D01*
X173216229Y-94655744D01*
X173380400Y-94688400D01*
X174125535Y-94688400D01*
X174125535Y-94830000D01*
X174144989Y-94933391D01*
X174206093Y-95028349D01*
X174299327Y-95092053D01*
X174410000Y-95114465D01*
X176110000Y-95114465D01*
X176213391Y-95095011D01*
X176308349Y-95033907D01*
X176372053Y-94940673D01*
X176394465Y-94830000D01*
X176394465Y-93130000D01*
X176375011Y-93026609D01*
X176313907Y-92931651D01*
X176220673Y-92867947D01*
X176110000Y-92845535D01*
X174410000Y-92845535D01*
X174306609Y-92864989D01*
X174211651Y-92926093D01*
X174147947Y-93019327D01*
X174125535Y-93130000D01*
X174125535Y-93830400D01*
X173558097Y-93830400D01*
X173326800Y-93599102D01*
X173326800Y-93303732D01*
X173396149Y-93259107D01*
X173459853Y-93165873D01*
X173482265Y-93055200D01*
X173482265Y-92655200D01*
X173462811Y-92551809D01*
X173401707Y-92456851D01*
X173325340Y-92404672D01*
X173396149Y-92359107D01*
X173459853Y-92265873D01*
X173482265Y-92155200D01*
X173482265Y-91755200D01*
X173462811Y-91651809D01*
X173401707Y-91556851D01*
X173329752Y-91507686D01*
X173379840Y-91457686D01*
X173452917Y-91281697D01*
X173453083Y-91091139D01*
X173380313Y-90915023D01*
X173318399Y-90853000D01*
X173405902Y-90853000D01*
X174549980Y-91997078D01*
X174599687Y-92117377D01*
X174734314Y-92252240D01*
X174910303Y-92325317D01*
X175100861Y-92325483D01*
X175276977Y-92252713D01*
X175411840Y-92118086D01*
X175484917Y-91942097D01*
X175485083Y-91751539D01*
X175412313Y-91575423D01*
X175277686Y-91440560D01*
X175156564Y-91390266D01*
X173886949Y-90120651D01*
X173747771Y-90027656D01*
X173583600Y-89995000D01*
X172770698Y-89995000D01*
X172414020Y-89638322D01*
X172364313Y-89518023D01*
X172229686Y-89383160D01*
X172053697Y-89310083D01*
X171863139Y-89309917D01*
X171687023Y-89382687D01*
X171552160Y-89517314D01*
X171479083Y-89693303D01*
X171478917Y-89883861D01*
X171450000Y-89883861D01*
X171450000Y-81099750D01*
X176915000Y-81099750D01*
X176915000Y-81240309D01*
X177011673Y-81473698D01*
X177190301Y-81652327D01*
X177423690Y-81749000D01*
X177516250Y-81749000D01*
X177675000Y-81590250D01*
X177675000Y-80941000D01*
X177073750Y-80941000D01*
X176915000Y-81099750D01*
X171450000Y-81099750D01*
X171450000Y-71907258D01*
X193865500Y-71882142D01*
X193865500Y-73899000D01*
X193865500Y-73899000D01*
G37*
X193865500Y-73899000D02*
X193772750Y-73899000D01*
X193614000Y-74057750D01*
X193614000Y-75057000D01*
X193634000Y-75057000D01*
X193634000Y-75311000D01*
X193614000Y-75311000D01*
X193614000Y-75331000D01*
X193360000Y-75331000D01*
X193360000Y-75311000D01*
X192660750Y-75311000D01*
X192502000Y-75469750D01*
X192502000Y-75960310D01*
X192598673Y-76193699D01*
X192604974Y-76200000D01*
X190662198Y-76200000D01*
X188832151Y-74369953D01*
X189003060Y-74114168D01*
X189068137Y-73787002D01*
X189179180Y-73787002D01*
X189058514Y-74016892D01*
X189304817Y-74541358D01*
X189733076Y-74931645D01*
X190143110Y-75101476D01*
X190373000Y-74980155D01*
X190373000Y-73787000D01*
X190627000Y-73787000D01*
X190627000Y-74980155D01*
X190856890Y-75101476D01*
X191266924Y-74931645D01*
X191695183Y-74541358D01*
X191757957Y-74407690D01*
X192502000Y-74407690D01*
X192502000Y-74898250D01*
X192660750Y-75057000D01*
X193360000Y-75057000D01*
X193360000Y-74057750D01*
X193201250Y-73899000D01*
X193010691Y-73899000D01*
X192777302Y-73995673D01*
X192598673Y-74174301D01*
X192502000Y-74407690D01*
X191757957Y-74407690D01*
X191941486Y-74016892D01*
X191820819Y-73787000D01*
X190627000Y-73787000D01*
X190373000Y-73787000D01*
X190353000Y-73787000D01*
X190353000Y-73533000D01*
X190373000Y-73533000D01*
X190373000Y-72339845D01*
X190627000Y-72339845D01*
X190627000Y-73533000D01*
X191820819Y-73533000D01*
X191941486Y-73303108D01*
X191695183Y-72778642D01*
X191266924Y-72388355D01*
X190856890Y-72218524D01*
X190627000Y-72339845D01*
X190373000Y-72339845D01*
X190143110Y-72218524D01*
X189733076Y-72388355D01*
X189304817Y-72778642D01*
X189058514Y-73303108D01*
X189179180Y-73532998D01*
X189068137Y-73532998D01*
X189003060Y-73205832D01*
X188758324Y-72839558D01*
X188392050Y-72594822D01*
X187960000Y-72508882D01*
X187527950Y-72594822D01*
X187161676Y-72839558D01*
X186916940Y-73205832D01*
X186831000Y-73637882D01*
X186831000Y-73682118D01*
X186916940Y-74114168D01*
X187161676Y-74480442D01*
X187527950Y-74725178D01*
X187960000Y-74811118D01*
X188043342Y-74794540D01*
X189077802Y-75829000D01*
X188546048Y-75829000D01*
X188497673Y-75795947D01*
X188387000Y-75773535D01*
X188203733Y-75773535D01*
X187691849Y-75261651D01*
X187552671Y-75168656D01*
X187388500Y-75136000D01*
X186486698Y-75136000D01*
X185986224Y-74635526D01*
X186218324Y-74480442D01*
X186463060Y-74114168D01*
X186549000Y-73682118D01*
X186549000Y-73637882D01*
X186463060Y-73205832D01*
X186218324Y-72839558D01*
X185852050Y-72594822D01*
X185420000Y-72508882D01*
X184987950Y-72594822D01*
X184621676Y-72839558D01*
X184376940Y-73205832D01*
X184291000Y-73637882D01*
X184291000Y-73682118D01*
X184376940Y-74114168D01*
X184621676Y-74480442D01*
X184747478Y-74564500D01*
X184200698Y-74564500D01*
X183853889Y-74217691D01*
X183923060Y-74114168D01*
X184009000Y-73682118D01*
X184009000Y-73637882D01*
X183923060Y-73205832D01*
X183678324Y-72839558D01*
X183312050Y-72594822D01*
X182880000Y-72508882D01*
X182447950Y-72594822D01*
X182081676Y-72839558D01*
X181836940Y-73205832D01*
X181751000Y-73637882D01*
X181751000Y-73682118D01*
X181756012Y-73707314D01*
X181414974Y-73366276D01*
X181383060Y-73205832D01*
X181138324Y-72839558D01*
X180772050Y-72594822D01*
X180340000Y-72508882D01*
X179907950Y-72594822D01*
X179541676Y-72839558D01*
X179296940Y-73205832D01*
X179211000Y-73637882D01*
X179211000Y-73682118D01*
X179296940Y-74114168D01*
X179541676Y-74480442D01*
X179907950Y-74725178D01*
X180340000Y-74811118D01*
X180772050Y-74725178D01*
X181138324Y-74480442D01*
X181209389Y-74374086D01*
X181650525Y-74815223D01*
X181618423Y-74828487D01*
X181483560Y-74963114D01*
X181410483Y-75139103D01*
X181410441Y-75186809D01*
X181314000Y-75283250D01*
X181314000Y-75884500D01*
X181334000Y-75884500D01*
X181334000Y-76134500D01*
X181314000Y-76134500D01*
X181314000Y-76156500D01*
X181060000Y-76156500D01*
X181060000Y-76134500D01*
X180410750Y-76134500D01*
X180345250Y-76200000D01*
X178816000Y-76200000D01*
X178766590Y-76210006D01*
X178724965Y-76238447D01*
X178697685Y-76280841D01*
X178689000Y-76327000D01*
X178689000Y-76406000D01*
X178358698Y-76406000D01*
X178229000Y-76276302D01*
X178229000Y-75633190D01*
X180252000Y-75633190D01*
X180252000Y-75725750D01*
X180410750Y-75884500D01*
X181060000Y-75884500D01*
X181060000Y-75283250D01*
X180901250Y-75124500D01*
X180760691Y-75124500D01*
X180527302Y-75221173D01*
X180348673Y-75399801D01*
X180252000Y-75633190D01*
X178229000Y-75633190D01*
X178229000Y-74725785D01*
X178232050Y-74725178D01*
X178598324Y-74480442D01*
X178843060Y-74114168D01*
X178929000Y-73682118D01*
X178929000Y-73637882D01*
X178843060Y-73205832D01*
X178598324Y-72839558D01*
X178232050Y-72594822D01*
X177800000Y-72508882D01*
X177367950Y-72594822D01*
X177001676Y-72839558D01*
X176756940Y-73205832D01*
X176671000Y-73637882D01*
X176671000Y-73682118D01*
X176756940Y-74114168D01*
X177001676Y-74480442D01*
X177367950Y-74725178D01*
X177371000Y-74725785D01*
X177371000Y-76454000D01*
X177403656Y-76618171D01*
X177496651Y-76757349D01*
X177877651Y-77138349D01*
X178016829Y-77231344D01*
X178181000Y-77264000D01*
X178624030Y-77264000D01*
X178663687Y-77359977D01*
X178689000Y-77385334D01*
X178689000Y-77752302D01*
X178542349Y-77605651D01*
X178403171Y-77512656D01*
X178267281Y-77485625D01*
X178210673Y-77446947D01*
X178100000Y-77424535D01*
X177500000Y-77424535D01*
X177396609Y-77443989D01*
X177301651Y-77505093D01*
X177237947Y-77598327D01*
X177215535Y-77709000D01*
X177215535Y-78109000D01*
X177234989Y-78212391D01*
X177296093Y-78307349D01*
X177372460Y-78359528D01*
X177340647Y-78380000D01*
X177030698Y-78380000D01*
X175689000Y-77038302D01*
X175689000Y-74794465D01*
X176110000Y-74794465D01*
X176213391Y-74775011D01*
X176308349Y-74713907D01*
X176372053Y-74620673D01*
X176394465Y-74510000D01*
X176394465Y-72810000D01*
X176375011Y-72706609D01*
X176313907Y-72611651D01*
X176220673Y-72547947D01*
X176110000Y-72525535D01*
X174410000Y-72525535D01*
X174306609Y-72544989D01*
X174211651Y-72606093D01*
X174147947Y-72699327D01*
X174125535Y-72810000D01*
X174125535Y-74510000D01*
X174144989Y-74613391D01*
X174206093Y-74708349D01*
X174299327Y-74772053D01*
X174410000Y-74794465D01*
X174831000Y-74794465D01*
X174831000Y-77216000D01*
X174863656Y-77380171D01*
X174956651Y-77519349D01*
X176549651Y-79112349D01*
X176688829Y-79205344D01*
X176853000Y-79238000D01*
X177332583Y-79238000D01*
X177287947Y-79303327D01*
X177265535Y-79414000D01*
X177265535Y-79944510D01*
X177190301Y-79975673D01*
X177011673Y-80154302D01*
X176915000Y-80387691D01*
X176915000Y-80528250D01*
X177073750Y-80687000D01*
X177675000Y-80687000D01*
X177675000Y-80667000D01*
X177925000Y-80667000D01*
X177925000Y-80687000D01*
X178526250Y-80687000D01*
X178685000Y-80528250D01*
X178685000Y-80387691D01*
X178588327Y-80154302D01*
X178409699Y-79975673D01*
X178334465Y-79944510D01*
X178334465Y-79601743D01*
X178385651Y-79678349D01*
X178689000Y-79981698D01*
X178689000Y-80856517D01*
X178664160Y-80881314D01*
X178606185Y-81020935D01*
X178526250Y-80941000D01*
X177925000Y-80941000D01*
X177925000Y-81590250D01*
X178083750Y-81749000D01*
X178176310Y-81749000D01*
X178409699Y-81652327D01*
X178588327Y-81473698D01*
X178636338Y-81357789D01*
X178663687Y-81423977D01*
X178689000Y-81449334D01*
X178689000Y-81689302D01*
X175845651Y-84532651D01*
X175752656Y-84671829D01*
X175720000Y-84836000D01*
X175720000Y-91821000D01*
X175752656Y-91985171D01*
X175845651Y-92124349D01*
X176953284Y-93231982D01*
X176756940Y-93525832D01*
X176671000Y-93957882D01*
X176671000Y-94002118D01*
X176756940Y-94434168D01*
X177001676Y-94800442D01*
X177367950Y-95045178D01*
X177800000Y-95131118D01*
X178232050Y-95045178D01*
X178598324Y-94800442D01*
X178843060Y-94434168D01*
X178929000Y-94002118D01*
X178929000Y-93957882D01*
X178843060Y-93525832D01*
X178598324Y-93159558D01*
X178232050Y-92914822D01*
X178082125Y-92885000D01*
X178638302Y-92885000D01*
X179293986Y-93540683D01*
X179211000Y-93957882D01*
X179211000Y-94002118D01*
X179296940Y-94434168D01*
X179541676Y-94800442D01*
X179907950Y-95045178D01*
X180340000Y-95131118D01*
X180772050Y-95045178D01*
X181138324Y-94800442D01*
X181383060Y-94434168D01*
X181469000Y-94002118D01*
X181469000Y-93957882D01*
X181383060Y-93525832D01*
X181138324Y-93159558D01*
X180917487Y-93012000D01*
X181940302Y-93012000D01*
X182085383Y-93157081D01*
X182081676Y-93159558D01*
X181836940Y-93525832D01*
X181751000Y-93957882D01*
X181751000Y-94002118D01*
X181836940Y-94434168D01*
X182081676Y-94800442D01*
X182447950Y-95045178D01*
X182880000Y-95131118D01*
X183312050Y-95045178D01*
X183678324Y-94800442D01*
X183923060Y-94434168D01*
X184009000Y-94002118D01*
X184009000Y-93957882D01*
X183923060Y-93525832D01*
X183678324Y-93159558D01*
X183312050Y-92914822D01*
X182993071Y-92851373D01*
X182470698Y-92329000D01*
X183923228Y-92329000D01*
X183899683Y-92385703D01*
X183899517Y-92576261D01*
X183972287Y-92752377D01*
X184106914Y-92887240D01*
X184282903Y-92960317D01*
X184473461Y-92960483D01*
X184649577Y-92887713D01*
X184784440Y-92753086D01*
X184834734Y-92631964D01*
X185146636Y-92320062D01*
X185151910Y-92318994D01*
X185193535Y-92290553D01*
X185220815Y-92248159D01*
X185221342Y-92245356D01*
X185787894Y-91678804D01*
X185865827Y-91732053D01*
X185976500Y-91754465D01*
X186007000Y-91754465D01*
X186007000Y-91770302D01*
X185116651Y-92660651D01*
X185023656Y-92799829D01*
X185001311Y-92912164D01*
X184987950Y-92914822D01*
X184621676Y-93159558D01*
X184376940Y-93525832D01*
X184291000Y-93957882D01*
X184291000Y-94002118D01*
X184376940Y-94434168D01*
X184621676Y-94800442D01*
X184987950Y-95045178D01*
X185420000Y-95131118D01*
X185852050Y-95045178D01*
X186218324Y-94800442D01*
X186463060Y-94434168D01*
X186549000Y-94002118D01*
X186549000Y-93957882D01*
X186463060Y-93525832D01*
X186218324Y-93159558D01*
X185986224Y-93004474D01*
X186739349Y-92251349D01*
X186832344Y-92112171D01*
X186865000Y-91948000D01*
X186865000Y-91754465D01*
X187276500Y-91754465D01*
X187379891Y-91735011D01*
X187474849Y-91673907D01*
X187538553Y-91580673D01*
X187560228Y-91473640D01*
X187589000Y-91518353D01*
X187589000Y-92902678D01*
X187527950Y-92914822D01*
X187161676Y-93159558D01*
X186916940Y-93525832D01*
X186831000Y-93957882D01*
X186831000Y-94002118D01*
X186916940Y-94434168D01*
X187161676Y-94800442D01*
X187527950Y-95045178D01*
X187960000Y-95131118D01*
X188392050Y-95045178D01*
X188758324Y-94800442D01*
X189003060Y-94434168D01*
X189089000Y-94002118D01*
X189089000Y-93957882D01*
X189003060Y-93525832D01*
X188758324Y-93159558D01*
X188447000Y-92951538D01*
X188447000Y-91934067D01*
X188591691Y-91994000D01*
X188659250Y-91994000D01*
X188818000Y-91835250D01*
X188818000Y-91186000D01*
X189018000Y-91186000D01*
X189018000Y-91835250D01*
X189176750Y-91994000D01*
X189244309Y-91994000D01*
X189477698Y-91897327D01*
X189547500Y-91827525D01*
X189617302Y-91897327D01*
X189850691Y-91994000D01*
X189918250Y-91994000D01*
X190077000Y-91835250D01*
X190077000Y-91186000D01*
X189018000Y-91186000D01*
X188818000Y-91186000D01*
X188771000Y-91186000D01*
X188771000Y-90932000D01*
X188818000Y-90932000D01*
X188818000Y-90912000D01*
X189018000Y-90912000D01*
X189018000Y-90932000D01*
X190077000Y-90932000D01*
X190077000Y-90282750D01*
X189918250Y-90124000D01*
X189850691Y-90124000D01*
X189688528Y-90191170D01*
X190648000Y-89231698D01*
X190648000Y-90183933D01*
X190503309Y-90124000D01*
X190435750Y-90124000D01*
X190277000Y-90282750D01*
X190277000Y-90932000D01*
X190324000Y-90932000D01*
X190324000Y-91186000D01*
X190277000Y-91186000D01*
X190277000Y-91835250D01*
X190435750Y-91994000D01*
X190503309Y-91994000D01*
X190648000Y-91934067D01*
X190648000Y-92858321D01*
X190500000Y-92828882D01*
X190067950Y-92914822D01*
X189701676Y-93159558D01*
X189456940Y-93525832D01*
X189371000Y-93957882D01*
X189371000Y-94002118D01*
X189456940Y-94434168D01*
X189701676Y-94800442D01*
X190067950Y-95045178D01*
X190500000Y-95131118D01*
X190932050Y-95045178D01*
X191298324Y-94800442D01*
X191543060Y-94434168D01*
X191629000Y-94002118D01*
X191629000Y-93957882D01*
X191543060Y-93525832D01*
X191495674Y-93454913D01*
X191506000Y-93403000D01*
X191506000Y-91518048D01*
X191539053Y-91469673D01*
X191561465Y-91359000D01*
X191561465Y-90759000D01*
X191542011Y-90655609D01*
X191506000Y-90599647D01*
X191506000Y-88646000D01*
X192405000Y-88646000D01*
X192405000Y-95758152D01*
X171450000Y-95783248D01*
X171450000Y-89883861D01*
X171478917Y-89883861D01*
X171551687Y-90059977D01*
X171686314Y-90194840D01*
X171807436Y-90245134D01*
X172289651Y-90727349D01*
X172428829Y-90820344D01*
X172593000Y-90853001D01*
X172593005Y-90853000D01*
X172629581Y-90853000D01*
X172568160Y-90914314D01*
X172495083Y-91090303D01*
X172495048Y-91130243D01*
X172468800Y-91262200D01*
X172468800Y-91506668D01*
X172399451Y-91551293D01*
X172335747Y-91644527D01*
X172313335Y-91755200D01*
X172313335Y-92155200D01*
X172332789Y-92258591D01*
X172393893Y-92353549D01*
X172470260Y-92405728D01*
X172399451Y-92451293D01*
X172335747Y-92544527D01*
X172313335Y-92655200D01*
X172313335Y-93055200D01*
X172332789Y-93158591D01*
X172393893Y-93253549D01*
X172468800Y-93304731D01*
X172468800Y-93776800D01*
X172501456Y-93940971D01*
X172594451Y-94080149D01*
X173077049Y-94562746D01*
X173077051Y-94562749D01*
X173216229Y-94655744D01*
X173380400Y-94688400D01*
X174125535Y-94688400D01*
X174125535Y-94830000D01*
X174144989Y-94933391D01*
X174206093Y-95028349D01*
X174299327Y-95092053D01*
X174410000Y-95114465D01*
X176110000Y-95114465D01*
X176213391Y-95095011D01*
X176308349Y-95033907D01*
X176372053Y-94940673D01*
X176394465Y-94830000D01*
X176394465Y-93130000D01*
X176375011Y-93026609D01*
X176313907Y-92931651D01*
X176220673Y-92867947D01*
X176110000Y-92845535D01*
X174410000Y-92845535D01*
X174306609Y-92864989D01*
X174211651Y-92926093D01*
X174147947Y-93019327D01*
X174125535Y-93130000D01*
X174125535Y-93830400D01*
X173558097Y-93830400D01*
X173326800Y-93599102D01*
X173326800Y-93303732D01*
X173396149Y-93259107D01*
X173459853Y-93165873D01*
X173482265Y-93055200D01*
X173482265Y-92655200D01*
X173462811Y-92551809D01*
X173401707Y-92456851D01*
X173325340Y-92404672D01*
X173396149Y-92359107D01*
X173459853Y-92265873D01*
X173482265Y-92155200D01*
X173482265Y-91755200D01*
X173462811Y-91651809D01*
X173401707Y-91556851D01*
X173329752Y-91507686D01*
X173379840Y-91457686D01*
X173452917Y-91281697D01*
X173453083Y-91091139D01*
X173380313Y-90915023D01*
X173318399Y-90853000D01*
X173405902Y-90853000D01*
X174549980Y-91997078D01*
X174599687Y-92117377D01*
X174734314Y-92252240D01*
X174910303Y-92325317D01*
X175100861Y-92325483D01*
X175276977Y-92252713D01*
X175411840Y-92118086D01*
X175484917Y-91942097D01*
X175485083Y-91751539D01*
X175412313Y-91575423D01*
X175277686Y-91440560D01*
X175156564Y-91390266D01*
X173886949Y-90120651D01*
X173747771Y-90027656D01*
X173583600Y-89995000D01*
X172770698Y-89995000D01*
X172414020Y-89638322D01*
X172364313Y-89518023D01*
X172229686Y-89383160D01*
X172053697Y-89310083D01*
X171863139Y-89309917D01*
X171687023Y-89382687D01*
X171552160Y-89517314D01*
X171479083Y-89693303D01*
X171478917Y-89883861D01*
X171450000Y-89883861D01*
X171450000Y-81099750D01*
X176915000Y-81099750D01*
X176915000Y-81240309D01*
X177011673Y-81473698D01*
X177190301Y-81652327D01*
X177423690Y-81749000D01*
X177516250Y-81749000D01*
X177675000Y-81590250D01*
X177675000Y-80941000D01*
X177073750Y-80941000D01*
X176915000Y-81099750D01*
X171450000Y-81099750D01*
X171450000Y-71907258D01*
X193865500Y-71882142D01*
X193865500Y-73899000D01*
G36*
X188925302Y-89741000D02*
X188214000Y-89741000D01*
X188049829Y-89773656D01*
X187910651Y-89866651D01*
X187656651Y-90120651D01*
X187563656Y-90259829D01*
X187531000Y-90424000D01*
X187531000Y-90650274D01*
X187480407Y-90571651D01*
X187387173Y-90507947D01*
X187276500Y-90485535D01*
X185976500Y-90485535D01*
X185873109Y-90504989D01*
X185778151Y-90566093D01*
X185714447Y-90659327D01*
X185706691Y-90697626D01*
X185575829Y-90723656D01*
X185436651Y-90816651D01*
X185229500Y-91023802D01*
X185229500Y-90297000D01*
X186436000Y-90297000D01*
X186485410Y-90286994D01*
X186527035Y-90258553D01*
X186554315Y-90216159D01*
X186563000Y-90170000D01*
X186563000Y-89854465D01*
X187276500Y-89854465D01*
X187379891Y-89835011D01*
X187474849Y-89773907D01*
X187538553Y-89680673D01*
X187560965Y-89570000D01*
X187560965Y-88870000D01*
X187559648Y-88863000D01*
X188223468Y-88863000D01*
X188268093Y-88932349D01*
X188361327Y-88996053D01*
X188472000Y-89018465D01*
X188972000Y-89018465D01*
X189075391Y-88999011D01*
X189170349Y-88937907D01*
X189234053Y-88844673D01*
X189256465Y-88734000D01*
X189256465Y-88646000D01*
X190020302Y-88646000D01*
X188925302Y-89741000D01*
X188925302Y-89741000D01*
G37*
X188925302Y-89741000D02*
X188214000Y-89741000D01*
X188049829Y-89773656D01*
X187910651Y-89866651D01*
X187656651Y-90120651D01*
X187563656Y-90259829D01*
X187531000Y-90424000D01*
X187531000Y-90650274D01*
X187480407Y-90571651D01*
X187387173Y-90507947D01*
X187276500Y-90485535D01*
X185976500Y-90485535D01*
X185873109Y-90504989D01*
X185778151Y-90566093D01*
X185714447Y-90659327D01*
X185706691Y-90697626D01*
X185575829Y-90723656D01*
X185436651Y-90816651D01*
X185229500Y-91023802D01*
X185229500Y-90297000D01*
X186436000Y-90297000D01*
X186485410Y-90286994D01*
X186527035Y-90258553D01*
X186554315Y-90216159D01*
X186563000Y-90170000D01*
X186563000Y-89854465D01*
X187276500Y-89854465D01*
X187379891Y-89835011D01*
X187474849Y-89773907D01*
X187538553Y-89680673D01*
X187560965Y-89570000D01*
X187560965Y-88870000D01*
X187559648Y-88863000D01*
X188223468Y-88863000D01*
X188268093Y-88932349D01*
X188361327Y-88996053D01*
X188472000Y-89018465D01*
X188972000Y-89018465D01*
X189075391Y-88999011D01*
X189170349Y-88937907D01*
X189234053Y-88844673D01*
X189256465Y-88734000D01*
X189256465Y-88646000D01*
X190020302Y-88646000D01*
X188925302Y-89741000D01*
G36*
X178689000Y-83213302D02*
X176578000Y-85324302D01*
X176578000Y-85013698D01*
X178689000Y-82902698D01*
X178689000Y-83213302D01*
X178689000Y-83213302D01*
G37*
X178689000Y-83213302D02*
X176578000Y-85324302D01*
X176578000Y-85013698D01*
X178689000Y-82902698D01*
X178689000Y-83213302D01*
G36*
X184700000Y-76075000D02*
X184720000Y-76075000D01*
X184720000Y-76200000D01*
X184426000Y-76200000D01*
X184426000Y-76075000D01*
X184446000Y-76075000D01*
X184446000Y-76053000D01*
X184700000Y-76053000D01*
X184700000Y-76075000D01*
X184700000Y-76075000D01*
G37*
X184700000Y-76075000D02*
X184720000Y-76075000D01*
X184720000Y-76200000D01*
X184426000Y-76200000D01*
X184426000Y-76075000D01*
X184446000Y-76075000D01*
X184446000Y-76053000D01*
X184700000Y-76053000D01*
X184700000Y-76075000D01*
G36*
X193467093Y-81347349D02*
X193471782Y-81350553D01*
X193490874Y-81379126D01*
X193711158Y-81526314D01*
X193971000Y-81578000D01*
X195158150Y-81578000D01*
X195260950Y-81680800D01*
X195910200Y-81680800D01*
X195910200Y-81633800D01*
X196164200Y-81633800D01*
X196164200Y-81680800D01*
X196813450Y-81680800D01*
X196916250Y-81578000D01*
X201531593Y-81578000D01*
X201537989Y-81611991D01*
X201599093Y-81706949D01*
X201692327Y-81770653D01*
X201803000Y-81793065D01*
X205257400Y-81793065D01*
X205257400Y-82016600D01*
X204120750Y-82016600D01*
X203962000Y-82175350D01*
X203962000Y-83286600D01*
X203982000Y-83286600D01*
X203982000Y-83540600D01*
X203962000Y-83540600D01*
X203962000Y-84651850D01*
X204120750Y-84810600D01*
X205257400Y-84810600D01*
X205257400Y-95758000D01*
X193167000Y-95758000D01*
X193167000Y-88011000D01*
X193156994Y-87961590D01*
X193128553Y-87919965D01*
X193086159Y-87892685D01*
X193040000Y-87884000D01*
X191506000Y-87884000D01*
X191506000Y-85667000D01*
X191473344Y-85502829D01*
X191380349Y-85363651D01*
X191380346Y-85363649D01*
X188751349Y-82734651D01*
X188612171Y-82641656D01*
X188484513Y-82616263D01*
X188476250Y-82608000D01*
X187527000Y-82608000D01*
X187527000Y-82609000D01*
X187400000Y-82609000D01*
X187377201Y-82613535D01*
X187273000Y-82613535D01*
X187273000Y-82608000D01*
X186510000Y-82608000D01*
X186510000Y-82523498D01*
X186351252Y-82523498D01*
X186406750Y-82468000D01*
X187273000Y-82468000D01*
X187273000Y-82462465D01*
X187527000Y-82462465D01*
X187527000Y-82468000D01*
X188476250Y-82468000D01*
X188551250Y-82393000D01*
X189078954Y-82393000D01*
X189740977Y-83055023D01*
X189856147Y-83131977D01*
X189992000Y-83159000D01*
X190156486Y-83159000D01*
X190171989Y-83241391D01*
X190233093Y-83336349D01*
X190326327Y-83400053D01*
X190437000Y-83422465D01*
X190517510Y-83422465D01*
X190548673Y-83497699D01*
X190727302Y-83676327D01*
X190960691Y-83773000D01*
X191015750Y-83773000D01*
X191174500Y-83614250D01*
X191174500Y-83439340D01*
X191198673Y-83497699D01*
X191377302Y-83676327D01*
X191435813Y-83700563D01*
X191508250Y-83773000D01*
X191563309Y-83773000D01*
X191587000Y-83763187D01*
X191610691Y-83773000D01*
X191665750Y-83773000D01*
X191738187Y-83700563D01*
X191796698Y-83676327D01*
X191975327Y-83497699D01*
X191999500Y-83439340D01*
X191999500Y-83614250D01*
X192158250Y-83773000D01*
X192213309Y-83773000D01*
X192391115Y-83699350D01*
X201168000Y-83699350D01*
X201168000Y-84301909D01*
X201264673Y-84535298D01*
X201443301Y-84713927D01*
X201676690Y-84810600D01*
X203549250Y-84810600D01*
X203708000Y-84651850D01*
X203708000Y-83540600D01*
X201326750Y-83540600D01*
X201168000Y-83699350D01*
X192391115Y-83699350D01*
X192446698Y-83676327D01*
X192625327Y-83497699D01*
X192722000Y-83264310D01*
X192722000Y-82923750D01*
X192563250Y-82765000D01*
X191999500Y-82765000D01*
X191999500Y-82851250D01*
X191913250Y-82765000D01*
X191260750Y-82765000D01*
X191174500Y-82851250D01*
X191174500Y-82765000D01*
X191115000Y-82765000D01*
X191115000Y-82511000D01*
X191174500Y-82511000D01*
X191174500Y-82424750D01*
X191260750Y-82511000D01*
X191913250Y-82511000D01*
X191933250Y-82491000D01*
X191999500Y-82491000D01*
X191999500Y-82511000D01*
X192563250Y-82511000D01*
X192722000Y-82352250D01*
X192722000Y-82039550D01*
X195102200Y-82039550D01*
X195102200Y-82107109D01*
X195198873Y-82340498D01*
X195377501Y-82519127D01*
X195610890Y-82615800D01*
X195751450Y-82615800D01*
X195910200Y-82457050D01*
X195910200Y-81880800D01*
X196164200Y-81880800D01*
X196164200Y-82457050D01*
X196322950Y-82615800D01*
X196463510Y-82615800D01*
X196682017Y-82525291D01*
X201168000Y-82525291D01*
X201168000Y-83127850D01*
X201326750Y-83286600D01*
X203708000Y-83286600D01*
X203708000Y-82175350D01*
X203549250Y-82016600D01*
X201676690Y-82016600D01*
X201443301Y-82113273D01*
X201264673Y-82291902D01*
X201168000Y-82525291D01*
X196682017Y-82525291D01*
X196696899Y-82519127D01*
X196875527Y-82340498D01*
X196972200Y-82107109D01*
X196972200Y-82039550D01*
X196813450Y-81880800D01*
X196164200Y-81880800D01*
X195910200Y-81880800D01*
X195260950Y-81880800D01*
X195102200Y-82039550D01*
X192722000Y-82039550D01*
X192722000Y-82011690D01*
X192625327Y-81778301D01*
X192446698Y-81599673D01*
X192343432Y-81556899D01*
X192349053Y-81548673D01*
X192354049Y-81524000D01*
X192831995Y-81524000D01*
X192832000Y-81524001D01*
X193056253Y-81479393D01*
X193124990Y-81433465D01*
X193171000Y-81433465D01*
X193274391Y-81414011D01*
X193369349Y-81352907D01*
X193421528Y-81276540D01*
X193467093Y-81347349D01*
X193467093Y-81347349D01*
G37*
X193467093Y-81347349D02*
X193471782Y-81350553D01*
X193490874Y-81379126D01*
X193711158Y-81526314D01*
X193971000Y-81578000D01*
X195158150Y-81578000D01*
X195260950Y-81680800D01*
X195910200Y-81680800D01*
X195910200Y-81633800D01*
X196164200Y-81633800D01*
X196164200Y-81680800D01*
X196813450Y-81680800D01*
X196916250Y-81578000D01*
X201531593Y-81578000D01*
X201537989Y-81611991D01*
X201599093Y-81706949D01*
X201692327Y-81770653D01*
X201803000Y-81793065D01*
X205257400Y-81793065D01*
X205257400Y-82016600D01*
X204120750Y-82016600D01*
X203962000Y-82175350D01*
X203962000Y-83286600D01*
X203982000Y-83286600D01*
X203982000Y-83540600D01*
X203962000Y-83540600D01*
X203962000Y-84651850D01*
X204120750Y-84810600D01*
X205257400Y-84810600D01*
X205257400Y-95758000D01*
X193167000Y-95758000D01*
X193167000Y-88011000D01*
X193156994Y-87961590D01*
X193128553Y-87919965D01*
X193086159Y-87892685D01*
X193040000Y-87884000D01*
X191506000Y-87884000D01*
X191506000Y-85667000D01*
X191473344Y-85502829D01*
X191380349Y-85363651D01*
X191380346Y-85363649D01*
X188751349Y-82734651D01*
X188612171Y-82641656D01*
X188484513Y-82616263D01*
X188476250Y-82608000D01*
X187527000Y-82608000D01*
X187527000Y-82609000D01*
X187400000Y-82609000D01*
X187377201Y-82613535D01*
X187273000Y-82613535D01*
X187273000Y-82608000D01*
X186510000Y-82608000D01*
X186510000Y-82523498D01*
X186351252Y-82523498D01*
X186406750Y-82468000D01*
X187273000Y-82468000D01*
X187273000Y-82462465D01*
X187527000Y-82462465D01*
X187527000Y-82468000D01*
X188476250Y-82468000D01*
X188551250Y-82393000D01*
X189078954Y-82393000D01*
X189740977Y-83055023D01*
X189856147Y-83131977D01*
X189992000Y-83159000D01*
X190156486Y-83159000D01*
X190171989Y-83241391D01*
X190233093Y-83336349D01*
X190326327Y-83400053D01*
X190437000Y-83422465D01*
X190517510Y-83422465D01*
X190548673Y-83497699D01*
X190727302Y-83676327D01*
X190960691Y-83773000D01*
X191015750Y-83773000D01*
X191174500Y-83614250D01*
X191174500Y-83439340D01*
X191198673Y-83497699D01*
X191377302Y-83676327D01*
X191435813Y-83700563D01*
X191508250Y-83773000D01*
X191563309Y-83773000D01*
X191587000Y-83763187D01*
X191610691Y-83773000D01*
X191665750Y-83773000D01*
X191738187Y-83700563D01*
X191796698Y-83676327D01*
X191975327Y-83497699D01*
X191999500Y-83439340D01*
X191999500Y-83614250D01*
X192158250Y-83773000D01*
X192213309Y-83773000D01*
X192391115Y-83699350D01*
X201168000Y-83699350D01*
X201168000Y-84301909D01*
X201264673Y-84535298D01*
X201443301Y-84713927D01*
X201676690Y-84810600D01*
X203549250Y-84810600D01*
X203708000Y-84651850D01*
X203708000Y-83540600D01*
X201326750Y-83540600D01*
X201168000Y-83699350D01*
X192391115Y-83699350D01*
X192446698Y-83676327D01*
X192625327Y-83497699D01*
X192722000Y-83264310D01*
X192722000Y-82923750D01*
X192563250Y-82765000D01*
X191999500Y-82765000D01*
X191999500Y-82851250D01*
X191913250Y-82765000D01*
X191260750Y-82765000D01*
X191174500Y-82851250D01*
X191174500Y-82765000D01*
X191115000Y-82765000D01*
X191115000Y-82511000D01*
X191174500Y-82511000D01*
X191174500Y-82424750D01*
X191260750Y-82511000D01*
X191913250Y-82511000D01*
X191933250Y-82491000D01*
X191999500Y-82491000D01*
X191999500Y-82511000D01*
X192563250Y-82511000D01*
X192722000Y-82352250D01*
X192722000Y-82039550D01*
X195102200Y-82039550D01*
X195102200Y-82107109D01*
X195198873Y-82340498D01*
X195377501Y-82519127D01*
X195610890Y-82615800D01*
X195751450Y-82615800D01*
X195910200Y-82457050D01*
X195910200Y-81880800D01*
X196164200Y-81880800D01*
X196164200Y-82457050D01*
X196322950Y-82615800D01*
X196463510Y-82615800D01*
X196682017Y-82525291D01*
X201168000Y-82525291D01*
X201168000Y-83127850D01*
X201326750Y-83286600D01*
X203708000Y-83286600D01*
X203708000Y-82175350D01*
X203549250Y-82016600D01*
X201676690Y-82016600D01*
X201443301Y-82113273D01*
X201264673Y-82291902D01*
X201168000Y-82525291D01*
X196682017Y-82525291D01*
X196696899Y-82519127D01*
X196875527Y-82340498D01*
X196972200Y-82107109D01*
X196972200Y-82039550D01*
X196813450Y-81880800D01*
X196164200Y-81880800D01*
X195910200Y-81880800D01*
X195260950Y-81880800D01*
X195102200Y-82039550D01*
X192722000Y-82039550D01*
X192722000Y-82011690D01*
X192625327Y-81778301D01*
X192446698Y-81599673D01*
X192343432Y-81556899D01*
X192349053Y-81548673D01*
X192354049Y-81524000D01*
X192831995Y-81524000D01*
X192832000Y-81524001D01*
X193056253Y-81479393D01*
X193124990Y-81433465D01*
X193171000Y-81433465D01*
X193274391Y-81414011D01*
X193369349Y-81352907D01*
X193421528Y-81276540D01*
X193467093Y-81347349D01*
G36*
X184235153Y-86988351D02*
X184374331Y-87081346D01*
X184538502Y-87114002D01*
X185435500Y-87114002D01*
X185435500Y-87884000D01*
X184404000Y-87884000D01*
X184354590Y-87894006D01*
X184312965Y-87922447D01*
X184285685Y-87964841D01*
X184277000Y-88011000D01*
X184277000Y-91567000D01*
X181746025Y-91567000D01*
X181898327Y-91414699D01*
X181929490Y-91339465D01*
X182460000Y-91339465D01*
X182563391Y-91320011D01*
X182658349Y-91258907D01*
X182722053Y-91165673D01*
X182744465Y-91055000D01*
X182744465Y-90555000D01*
X182725011Y-90451609D01*
X182663907Y-90356651D01*
X182589136Y-90305562D01*
X182672233Y-90222465D01*
X183060000Y-90222465D01*
X183163391Y-90203011D01*
X183258349Y-90141907D01*
X183322053Y-90048673D01*
X183344465Y-89938000D01*
X183344465Y-88567000D01*
X183388000Y-88567000D01*
X183552171Y-88534344D01*
X183691349Y-88441349D01*
X183818349Y-88314349D01*
X183911344Y-88175171D01*
X183944000Y-88011000D01*
X183944000Y-86697198D01*
X184235153Y-86988351D01*
X184235153Y-86988351D01*
G37*
X184235153Y-86988351D02*
X184374331Y-87081346D01*
X184538502Y-87114002D01*
X185435500Y-87114002D01*
X185435500Y-87884000D01*
X184404000Y-87884000D01*
X184354590Y-87894006D01*
X184312965Y-87922447D01*
X184285685Y-87964841D01*
X184277000Y-88011000D01*
X184277000Y-91567000D01*
X181746025Y-91567000D01*
X181898327Y-91414699D01*
X181929490Y-91339465D01*
X182460000Y-91339465D01*
X182563391Y-91320011D01*
X182658349Y-91258907D01*
X182722053Y-91165673D01*
X182744465Y-91055000D01*
X182744465Y-90555000D01*
X182725011Y-90451609D01*
X182663907Y-90356651D01*
X182589136Y-90305562D01*
X182672233Y-90222465D01*
X183060000Y-90222465D01*
X183163391Y-90203011D01*
X183258349Y-90141907D01*
X183322053Y-90048673D01*
X183344465Y-89938000D01*
X183344465Y-88567000D01*
X183388000Y-88567000D01*
X183552171Y-88534344D01*
X183691349Y-88441349D01*
X183818349Y-88314349D01*
X183911344Y-88175171D01*
X183944000Y-88011000D01*
X183944000Y-86697198D01*
X184235153Y-86988351D01*
G36*
X181382329Y-77167844D02*
X181546500Y-77200500D01*
X181749802Y-77200500D01*
X181971000Y-77421698D01*
X181971000Y-78538000D01*
X181975535Y-78560799D01*
X181975535Y-79138000D01*
X181994989Y-79241391D01*
X182056093Y-79336349D01*
X182149327Y-79400053D01*
X182260000Y-79422465D01*
X182540000Y-79422465D01*
X182643391Y-79403011D01*
X182648678Y-79399609D01*
X182649327Y-79400053D01*
X182760000Y-79422465D01*
X183040000Y-79422465D01*
X183143391Y-79403011D01*
X183148678Y-79399609D01*
X183149327Y-79400053D01*
X183260000Y-79422465D01*
X183540000Y-79422465D01*
X183643391Y-79403011D01*
X183648678Y-79399609D01*
X183649327Y-79400053D01*
X183760000Y-79422465D01*
X184040000Y-79422465D01*
X184143391Y-79403011D01*
X184148678Y-79399609D01*
X184149327Y-79400053D01*
X184260000Y-79422465D01*
X184540000Y-79422465D01*
X184643391Y-79403011D01*
X184648678Y-79399609D01*
X184649327Y-79400053D01*
X184760000Y-79422465D01*
X185040000Y-79422465D01*
X185143391Y-79403011D01*
X185148678Y-79399609D01*
X185149327Y-79400053D01*
X185260000Y-79422465D01*
X185540000Y-79422465D01*
X185643391Y-79403011D01*
X185648678Y-79399609D01*
X185649327Y-79400053D01*
X185760000Y-79422465D01*
X186040000Y-79422465D01*
X186143391Y-79403011D01*
X186238349Y-79341907D01*
X186302053Y-79248673D01*
X186324465Y-79138000D01*
X186324465Y-78569233D01*
X186677198Y-78216500D01*
X189547500Y-78216500D01*
X189690000Y-78188155D01*
X189690000Y-78371802D01*
X188452802Y-79609000D01*
X187400000Y-79609000D01*
X187377201Y-79613535D01*
X186800000Y-79613535D01*
X186696609Y-79632989D01*
X186601651Y-79694093D01*
X186537947Y-79787327D01*
X186530896Y-79822148D01*
X186472563Y-79846310D01*
X186413327Y-79703301D01*
X186234698Y-79524673D01*
X186001309Y-79428000D01*
X185298250Y-79428000D01*
X185139500Y-79586750D01*
X185139500Y-80798500D01*
X185159500Y-80798500D01*
X185159500Y-81052500D01*
X185139500Y-81052500D01*
X185139500Y-82523500D01*
X185159500Y-82523500D01*
X185159500Y-82777500D01*
X185139500Y-82777500D01*
X185139500Y-82797500D01*
X184885500Y-82797500D01*
X184885500Y-82777500D01*
X183414500Y-82777500D01*
X183414500Y-82797500D01*
X183160500Y-82797500D01*
X183160500Y-82777500D01*
X181948750Y-82777500D01*
X181790000Y-82936250D01*
X181790000Y-83639310D01*
X181886673Y-83872699D01*
X182065302Y-84051327D01*
X182298691Y-84148000D01*
X182692803Y-84148000D01*
X182684637Y-84167715D01*
X182656609Y-84172989D01*
X182651322Y-84176391D01*
X182650673Y-84175947D01*
X182540000Y-84153535D01*
X182260000Y-84153535D01*
X182156609Y-84172989D01*
X182061651Y-84234093D01*
X181997947Y-84327327D01*
X181975535Y-84438000D01*
X181975535Y-84609000D01*
X181941400Y-84609000D01*
X181777229Y-84641656D01*
X181638051Y-84734651D01*
X180456651Y-85916051D01*
X180364788Y-86053535D01*
X180160000Y-86053535D01*
X180056609Y-86072989D01*
X179961651Y-86134093D01*
X179897947Y-86227327D01*
X179875535Y-86338000D01*
X179875535Y-87286000D01*
X179822532Y-87286000D01*
X179777907Y-87216651D01*
X179684673Y-87152947D01*
X179574000Y-87130535D01*
X179074000Y-87130535D01*
X178970609Y-87149989D01*
X178875651Y-87211093D01*
X178811947Y-87304327D01*
X178789535Y-87415000D01*
X178789535Y-87945510D01*
X178714301Y-87976673D01*
X178535673Y-88155302D01*
X178439000Y-88388691D01*
X178439000Y-88529250D01*
X178597750Y-88688000D01*
X179199000Y-88688000D01*
X179199000Y-88668000D01*
X179449000Y-88668000D01*
X179449000Y-88688000D01*
X179471000Y-88688000D01*
X179471000Y-88942000D01*
X179449000Y-88942000D01*
X179449000Y-89591250D01*
X179525000Y-89667250D01*
X179525000Y-90064309D01*
X179621673Y-90297698D01*
X179800301Y-90476327D01*
X180033690Y-90573000D01*
X180176750Y-90573000D01*
X180283750Y-90680000D01*
X180933000Y-90680000D01*
X180933000Y-90658000D01*
X181187000Y-90658000D01*
X181187000Y-90680000D01*
X181207000Y-90680000D01*
X181207000Y-90930000D01*
X181187000Y-90930000D01*
X181187000Y-90952000D01*
X180933000Y-90952000D01*
X180933000Y-90930000D01*
X180283750Y-90930000D01*
X180125000Y-91088750D01*
X180125000Y-91181310D01*
X180221673Y-91414699D01*
X180373975Y-91567000D01*
X179705000Y-91567000D01*
X179705000Y-90805000D01*
X179694994Y-90755590D01*
X179666553Y-90713965D01*
X179624159Y-90686685D01*
X179578000Y-90678000D01*
X179197000Y-90678000D01*
X179197000Y-89916000D01*
X179186994Y-89866590D01*
X179158553Y-89824965D01*
X179116159Y-89797685D01*
X179070000Y-89789000D01*
X178435000Y-89789000D01*
X178435000Y-89100750D01*
X178439000Y-89100750D01*
X178439000Y-89241309D01*
X178535673Y-89474698D01*
X178714301Y-89653327D01*
X178947690Y-89750000D01*
X179040250Y-89750000D01*
X179199000Y-89591250D01*
X179199000Y-88942000D01*
X178597750Y-88942000D01*
X178439000Y-89100750D01*
X178435000Y-89100750D01*
X178435000Y-86614000D01*
X179514500Y-86614000D01*
X179563910Y-86603994D01*
X179605535Y-86575553D01*
X179632815Y-86533159D01*
X179641500Y-86487000D01*
X179641500Y-84752654D01*
X180427154Y-83967000D01*
X180900000Y-83967000D01*
X180922799Y-83962465D01*
X181500000Y-83962465D01*
X181603391Y-83943011D01*
X181698349Y-83881907D01*
X181762053Y-83788673D01*
X181784465Y-83678000D01*
X181784465Y-83398000D01*
X181765011Y-83294609D01*
X181761609Y-83289322D01*
X181762053Y-83288673D01*
X181784465Y-83178000D01*
X181784465Y-82898000D01*
X181765011Y-82794609D01*
X181761609Y-82789322D01*
X181762053Y-82788673D01*
X181784465Y-82678000D01*
X181784465Y-82398000D01*
X181765011Y-82294609D01*
X181761609Y-82289322D01*
X181762053Y-82288673D01*
X181784465Y-82178000D01*
X181784465Y-81898000D01*
X181765011Y-81794609D01*
X181761609Y-81789322D01*
X181762053Y-81788673D01*
X181784465Y-81678000D01*
X181784465Y-81398000D01*
X181765011Y-81294609D01*
X181761609Y-81289322D01*
X181762053Y-81288673D01*
X181777731Y-81211250D01*
X181790000Y-81211250D01*
X181790000Y-82364750D01*
X181948750Y-82523500D01*
X183160500Y-82523500D01*
X183160500Y-81052500D01*
X183414500Y-81052500D01*
X183414500Y-82523500D01*
X184885500Y-82523500D01*
X184885500Y-81052500D01*
X183414500Y-81052500D01*
X183160500Y-81052500D01*
X181948750Y-81052500D01*
X181790000Y-81211250D01*
X181777731Y-81211250D01*
X181784465Y-81178000D01*
X181784465Y-80898000D01*
X181765011Y-80794609D01*
X181761609Y-80789322D01*
X181762053Y-80788673D01*
X181784465Y-80678000D01*
X181784465Y-80398000D01*
X181765011Y-80294609D01*
X181761609Y-80289322D01*
X181762053Y-80288673D01*
X181784465Y-80178000D01*
X181784465Y-79936690D01*
X181790000Y-79936690D01*
X181790000Y-80639750D01*
X181948750Y-80798500D01*
X183160500Y-80798500D01*
X183160500Y-79586750D01*
X183414500Y-79586750D01*
X183414500Y-80798500D01*
X184885500Y-80798500D01*
X184885500Y-79586750D01*
X184726750Y-79428000D01*
X183573250Y-79428000D01*
X183414500Y-79586750D01*
X183160500Y-79586750D01*
X183001750Y-79428000D01*
X182298691Y-79428000D01*
X182065302Y-79524673D01*
X181886673Y-79703301D01*
X181790000Y-79936690D01*
X181784465Y-79936690D01*
X181784465Y-79898000D01*
X181765011Y-79794609D01*
X181703907Y-79699651D01*
X181610673Y-79635947D01*
X181500000Y-79613535D01*
X180922799Y-79613535D01*
X180900000Y-79609000D01*
X179641500Y-79609000D01*
X179641500Y-77089000D01*
X181264330Y-77089000D01*
X181382329Y-77167844D01*
X181382329Y-77167844D01*
G37*
X181382329Y-77167844D02*
X181546500Y-77200500D01*
X181749802Y-77200500D01*
X181971000Y-77421698D01*
X181971000Y-78538000D01*
X181975535Y-78560799D01*
X181975535Y-79138000D01*
X181994989Y-79241391D01*
X182056093Y-79336349D01*
X182149327Y-79400053D01*
X182260000Y-79422465D01*
X182540000Y-79422465D01*
X182643391Y-79403011D01*
X182648678Y-79399609D01*
X182649327Y-79400053D01*
X182760000Y-79422465D01*
X183040000Y-79422465D01*
X183143391Y-79403011D01*
X183148678Y-79399609D01*
X183149327Y-79400053D01*
X183260000Y-79422465D01*
X183540000Y-79422465D01*
X183643391Y-79403011D01*
X183648678Y-79399609D01*
X183649327Y-79400053D01*
X183760000Y-79422465D01*
X184040000Y-79422465D01*
X184143391Y-79403011D01*
X184148678Y-79399609D01*
X184149327Y-79400053D01*
X184260000Y-79422465D01*
X184540000Y-79422465D01*
X184643391Y-79403011D01*
X184648678Y-79399609D01*
X184649327Y-79400053D01*
X184760000Y-79422465D01*
X185040000Y-79422465D01*
X185143391Y-79403011D01*
X185148678Y-79399609D01*
X185149327Y-79400053D01*
X185260000Y-79422465D01*
X185540000Y-79422465D01*
X185643391Y-79403011D01*
X185648678Y-79399609D01*
X185649327Y-79400053D01*
X185760000Y-79422465D01*
X186040000Y-79422465D01*
X186143391Y-79403011D01*
X186238349Y-79341907D01*
X186302053Y-79248673D01*
X186324465Y-79138000D01*
X186324465Y-78569233D01*
X186677198Y-78216500D01*
X189547500Y-78216500D01*
X189690000Y-78188155D01*
X189690000Y-78371802D01*
X188452802Y-79609000D01*
X187400000Y-79609000D01*
X187377201Y-79613535D01*
X186800000Y-79613535D01*
X186696609Y-79632989D01*
X186601651Y-79694093D01*
X186537947Y-79787327D01*
X186530896Y-79822148D01*
X186472563Y-79846310D01*
X186413327Y-79703301D01*
X186234698Y-79524673D01*
X186001309Y-79428000D01*
X185298250Y-79428000D01*
X185139500Y-79586750D01*
X185139500Y-80798500D01*
X185159500Y-80798500D01*
X185159500Y-81052500D01*
X185139500Y-81052500D01*
X185139500Y-82523500D01*
X185159500Y-82523500D01*
X185159500Y-82777500D01*
X185139500Y-82777500D01*
X185139500Y-82797500D01*
X184885500Y-82797500D01*
X184885500Y-82777500D01*
X183414500Y-82777500D01*
X183414500Y-82797500D01*
X183160500Y-82797500D01*
X183160500Y-82777500D01*
X181948750Y-82777500D01*
X181790000Y-82936250D01*
X181790000Y-83639310D01*
X181886673Y-83872699D01*
X182065302Y-84051327D01*
X182298691Y-84148000D01*
X182692803Y-84148000D01*
X182684637Y-84167715D01*
X182656609Y-84172989D01*
X182651322Y-84176391D01*
X182650673Y-84175947D01*
X182540000Y-84153535D01*
X182260000Y-84153535D01*
X182156609Y-84172989D01*
X182061651Y-84234093D01*
X181997947Y-84327327D01*
X181975535Y-84438000D01*
X181975535Y-84609000D01*
X181941400Y-84609000D01*
X181777229Y-84641656D01*
X181638051Y-84734651D01*
X180456651Y-85916051D01*
X180364788Y-86053535D01*
X180160000Y-86053535D01*
X180056609Y-86072989D01*
X179961651Y-86134093D01*
X179897947Y-86227327D01*
X179875535Y-86338000D01*
X179875535Y-87286000D01*
X179822532Y-87286000D01*
X179777907Y-87216651D01*
X179684673Y-87152947D01*
X179574000Y-87130535D01*
X179074000Y-87130535D01*
X178970609Y-87149989D01*
X178875651Y-87211093D01*
X178811947Y-87304327D01*
X178789535Y-87415000D01*
X178789535Y-87945510D01*
X178714301Y-87976673D01*
X178535673Y-88155302D01*
X178439000Y-88388691D01*
X178439000Y-88529250D01*
X178597750Y-88688000D01*
X179199000Y-88688000D01*
X179199000Y-88668000D01*
X179449000Y-88668000D01*
X179449000Y-88688000D01*
X179471000Y-88688000D01*
X179471000Y-88942000D01*
X179449000Y-88942000D01*
X179449000Y-89591250D01*
X179525000Y-89667250D01*
X179525000Y-90064309D01*
X179621673Y-90297698D01*
X179800301Y-90476327D01*
X180033690Y-90573000D01*
X180176750Y-90573000D01*
X180283750Y-90680000D01*
X180933000Y-90680000D01*
X180933000Y-90658000D01*
X181187000Y-90658000D01*
X181187000Y-90680000D01*
X181207000Y-90680000D01*
X181207000Y-90930000D01*
X181187000Y-90930000D01*
X181187000Y-90952000D01*
X180933000Y-90952000D01*
X180933000Y-90930000D01*
X180283750Y-90930000D01*
X180125000Y-91088750D01*
X180125000Y-91181310D01*
X180221673Y-91414699D01*
X180373975Y-91567000D01*
X179705000Y-91567000D01*
X179705000Y-90805000D01*
X179694994Y-90755590D01*
X179666553Y-90713965D01*
X179624159Y-90686685D01*
X179578000Y-90678000D01*
X179197000Y-90678000D01*
X179197000Y-89916000D01*
X179186994Y-89866590D01*
X179158553Y-89824965D01*
X179116159Y-89797685D01*
X179070000Y-89789000D01*
X178435000Y-89789000D01*
X178435000Y-89100750D01*
X178439000Y-89100750D01*
X178439000Y-89241309D01*
X178535673Y-89474698D01*
X178714301Y-89653327D01*
X178947690Y-89750000D01*
X179040250Y-89750000D01*
X179199000Y-89591250D01*
X179199000Y-88942000D01*
X178597750Y-88942000D01*
X178439000Y-89100750D01*
X178435000Y-89100750D01*
X178435000Y-86614000D01*
X179514500Y-86614000D01*
X179563910Y-86603994D01*
X179605535Y-86575553D01*
X179632815Y-86533159D01*
X179641500Y-86487000D01*
X179641500Y-84752654D01*
X180427154Y-83967000D01*
X180900000Y-83967000D01*
X180922799Y-83962465D01*
X181500000Y-83962465D01*
X181603391Y-83943011D01*
X181698349Y-83881907D01*
X181762053Y-83788673D01*
X181784465Y-83678000D01*
X181784465Y-83398000D01*
X181765011Y-83294609D01*
X181761609Y-83289322D01*
X181762053Y-83288673D01*
X181784465Y-83178000D01*
X181784465Y-82898000D01*
X181765011Y-82794609D01*
X181761609Y-82789322D01*
X181762053Y-82788673D01*
X181784465Y-82678000D01*
X181784465Y-82398000D01*
X181765011Y-82294609D01*
X181761609Y-82289322D01*
X181762053Y-82288673D01*
X181784465Y-82178000D01*
X181784465Y-81898000D01*
X181765011Y-81794609D01*
X181761609Y-81789322D01*
X181762053Y-81788673D01*
X181784465Y-81678000D01*
X181784465Y-81398000D01*
X181765011Y-81294609D01*
X181761609Y-81289322D01*
X181762053Y-81288673D01*
X181777731Y-81211250D01*
X181790000Y-81211250D01*
X181790000Y-82364750D01*
X181948750Y-82523500D01*
X183160500Y-82523500D01*
X183160500Y-81052500D01*
X183414500Y-81052500D01*
X183414500Y-82523500D01*
X184885500Y-82523500D01*
X184885500Y-81052500D01*
X183414500Y-81052500D01*
X183160500Y-81052500D01*
X181948750Y-81052500D01*
X181790000Y-81211250D01*
X181777731Y-81211250D01*
X181784465Y-81178000D01*
X181784465Y-80898000D01*
X181765011Y-80794609D01*
X181761609Y-80789322D01*
X181762053Y-80788673D01*
X181784465Y-80678000D01*
X181784465Y-80398000D01*
X181765011Y-80294609D01*
X181761609Y-80289322D01*
X181762053Y-80288673D01*
X181784465Y-80178000D01*
X181784465Y-79936690D01*
X181790000Y-79936690D01*
X181790000Y-80639750D01*
X181948750Y-80798500D01*
X183160500Y-80798500D01*
X183160500Y-79586750D01*
X183414500Y-79586750D01*
X183414500Y-80798500D01*
X184885500Y-80798500D01*
X184885500Y-79586750D01*
X184726750Y-79428000D01*
X183573250Y-79428000D01*
X183414500Y-79586750D01*
X183160500Y-79586750D01*
X183001750Y-79428000D01*
X182298691Y-79428000D01*
X182065302Y-79524673D01*
X181886673Y-79703301D01*
X181790000Y-79936690D01*
X181784465Y-79936690D01*
X181784465Y-79898000D01*
X181765011Y-79794609D01*
X181703907Y-79699651D01*
X181610673Y-79635947D01*
X181500000Y-79613535D01*
X180922799Y-79613535D01*
X180900000Y-79609000D01*
X179641500Y-79609000D01*
X179641500Y-77089000D01*
X181264330Y-77089000D01*
X181382329Y-77167844D01*
G36*
X180887000Y-89111000D02*
X180907000Y-89111000D01*
X180907000Y-89365000D01*
X180887000Y-89365000D01*
X180887000Y-89385000D01*
X180633000Y-89385000D01*
X180633000Y-89365000D01*
X180613000Y-89365000D01*
X180613000Y-89111000D01*
X180633000Y-89111000D01*
X180633000Y-89091000D01*
X180887000Y-89091000D01*
X180887000Y-89111000D01*
X180887000Y-89111000D01*
G37*
X180887000Y-89111000D02*
X180907000Y-89111000D01*
X180907000Y-89365000D01*
X180887000Y-89365000D01*
X180887000Y-89385000D01*
X180633000Y-89385000D01*
X180633000Y-89365000D01*
X180613000Y-89365000D01*
X180613000Y-89111000D01*
X180633000Y-89111000D01*
X180633000Y-89091000D01*
X180887000Y-89091000D01*
X180887000Y-89111000D01*
G36*
X186529715Y-83253363D02*
X186534989Y-83281391D01*
X186538391Y-83286678D01*
X186537947Y-83287327D01*
X186515535Y-83398000D01*
X186515535Y-83678000D01*
X186534989Y-83781391D01*
X186596093Y-83876349D01*
X186689327Y-83940053D01*
X186800000Y-83962465D01*
X187377201Y-83962465D01*
X187400000Y-83967000D01*
X188008302Y-83967000D01*
X190071000Y-86029698D01*
X190071000Y-87884000D01*
X189555765Y-87884000D01*
X189607000Y-87760309D01*
X189607000Y-87619750D01*
X189448250Y-87461000D01*
X188847000Y-87461000D01*
X188847000Y-87481000D01*
X188597000Y-87481000D01*
X188597000Y-87461000D01*
X188575000Y-87461000D01*
X188575000Y-87207000D01*
X188597000Y-87207000D01*
X188597000Y-86557750D01*
X188847000Y-86557750D01*
X188847000Y-87207000D01*
X189448250Y-87207000D01*
X189607000Y-87048250D01*
X189607000Y-86907691D01*
X189510327Y-86674302D01*
X189331699Y-86495673D01*
X189098310Y-86399000D01*
X189005750Y-86399000D01*
X188847000Y-86557750D01*
X188597000Y-86557750D01*
X188526250Y-86487000D01*
X188556000Y-86457250D01*
X188556000Y-86364690D01*
X188459327Y-86131301D01*
X188280698Y-85952673D01*
X188047309Y-85856000D01*
X187906750Y-85856000D01*
X187748000Y-86014750D01*
X187748000Y-86616000D01*
X187768000Y-86616000D01*
X187768000Y-86866000D01*
X187748000Y-86866000D01*
X187748000Y-87467250D01*
X187868750Y-87588000D01*
X187837000Y-87619750D01*
X187837000Y-87760309D01*
X187888235Y-87884000D01*
X186293500Y-87884000D01*
X186293500Y-87275465D01*
X186751510Y-87275465D01*
X186782673Y-87350699D01*
X186961302Y-87529327D01*
X187194691Y-87626000D01*
X187335250Y-87626000D01*
X187494000Y-87467250D01*
X187494000Y-86866000D01*
X187474000Y-86866000D01*
X187474000Y-86616000D01*
X187494000Y-86616000D01*
X187494000Y-86014750D01*
X187335250Y-85856000D01*
X187194691Y-85856000D01*
X186961302Y-85952673D01*
X186782673Y-86131301D01*
X186751510Y-86206535D01*
X186593232Y-86206535D01*
X186481362Y-86094664D01*
X186578327Y-85997698D01*
X186675000Y-85764309D01*
X186675000Y-85323750D01*
X186516250Y-85165000D01*
X185260000Y-85165000D01*
X185260000Y-84911000D01*
X186516250Y-84911000D01*
X186675000Y-84752250D01*
X186675000Y-84311691D01*
X186578327Y-84078302D01*
X186399699Y-83899673D01*
X186390262Y-83895764D01*
X186413327Y-83872699D01*
X186510000Y-83639310D01*
X186510000Y-83245197D01*
X186529715Y-83253363D01*
X186529715Y-83253363D01*
G37*
X186529715Y-83253363D02*
X186534989Y-83281391D01*
X186538391Y-83286678D01*
X186537947Y-83287327D01*
X186515535Y-83398000D01*
X186515535Y-83678000D01*
X186534989Y-83781391D01*
X186596093Y-83876349D01*
X186689327Y-83940053D01*
X186800000Y-83962465D01*
X187377201Y-83962465D01*
X187400000Y-83967000D01*
X188008302Y-83967000D01*
X190071000Y-86029698D01*
X190071000Y-87884000D01*
X189555765Y-87884000D01*
X189607000Y-87760309D01*
X189607000Y-87619750D01*
X189448250Y-87461000D01*
X188847000Y-87461000D01*
X188847000Y-87481000D01*
X188597000Y-87481000D01*
X188597000Y-87461000D01*
X188575000Y-87461000D01*
X188575000Y-87207000D01*
X188597000Y-87207000D01*
X188597000Y-86557750D01*
X188847000Y-86557750D01*
X188847000Y-87207000D01*
X189448250Y-87207000D01*
X189607000Y-87048250D01*
X189607000Y-86907691D01*
X189510327Y-86674302D01*
X189331699Y-86495673D01*
X189098310Y-86399000D01*
X189005750Y-86399000D01*
X188847000Y-86557750D01*
X188597000Y-86557750D01*
X188526250Y-86487000D01*
X188556000Y-86457250D01*
X188556000Y-86364690D01*
X188459327Y-86131301D01*
X188280698Y-85952673D01*
X188047309Y-85856000D01*
X187906750Y-85856000D01*
X187748000Y-86014750D01*
X187748000Y-86616000D01*
X187768000Y-86616000D01*
X187768000Y-86866000D01*
X187748000Y-86866000D01*
X187748000Y-87467250D01*
X187868750Y-87588000D01*
X187837000Y-87619750D01*
X187837000Y-87760309D01*
X187888235Y-87884000D01*
X186293500Y-87884000D01*
X186293500Y-87275465D01*
X186751510Y-87275465D01*
X186782673Y-87350699D01*
X186961302Y-87529327D01*
X187194691Y-87626000D01*
X187335250Y-87626000D01*
X187494000Y-87467250D01*
X187494000Y-86866000D01*
X187474000Y-86866000D01*
X187474000Y-86616000D01*
X187494000Y-86616000D01*
X187494000Y-86014750D01*
X187335250Y-85856000D01*
X187194691Y-85856000D01*
X186961302Y-85952673D01*
X186782673Y-86131301D01*
X186751510Y-86206535D01*
X186593232Y-86206535D01*
X186481362Y-86094664D01*
X186578327Y-85997698D01*
X186675000Y-85764309D01*
X186675000Y-85323750D01*
X186516250Y-85165000D01*
X185260000Y-85165000D01*
X185260000Y-84911000D01*
X186516250Y-84911000D01*
X186675000Y-84752250D01*
X186675000Y-84311691D01*
X186578327Y-84078302D01*
X186399699Y-83899673D01*
X186390262Y-83895764D01*
X186413327Y-83872699D01*
X186510000Y-83639310D01*
X186510000Y-83245197D01*
X186529715Y-83253363D01*
G36*
X182587000Y-86911000D02*
X182607000Y-86911000D01*
X182607000Y-87165000D01*
X182587000Y-87165000D01*
X182587000Y-87185000D01*
X182333000Y-87185000D01*
X182333000Y-87165000D01*
X182313000Y-87165000D01*
X182313000Y-86911000D01*
X182333000Y-86911000D01*
X182333000Y-86891000D01*
X182587000Y-86891000D01*
X182587000Y-86911000D01*
X182587000Y-86911000D01*
G37*
X182587000Y-86911000D02*
X182607000Y-86911000D01*
X182607000Y-87165000D01*
X182587000Y-87165000D01*
X182587000Y-87185000D01*
X182333000Y-87185000D01*
X182333000Y-87165000D01*
X182313000Y-87165000D01*
X182313000Y-86911000D01*
X182333000Y-86911000D01*
X182333000Y-86891000D01*
X182587000Y-86891000D01*
X182587000Y-86911000D01*
G36*
X183470000Y-84044750D02*
X183470000Y-84911000D01*
X183475535Y-84911000D01*
X183475535Y-85015201D01*
X183471000Y-85038000D01*
X183471000Y-85165000D01*
X183470000Y-85165000D01*
X183470000Y-85185000D01*
X183330000Y-85185000D01*
X183330000Y-85165000D01*
X183329000Y-85165000D01*
X183329000Y-85038000D01*
X183324465Y-85015201D01*
X183324465Y-84911000D01*
X183330000Y-84911000D01*
X183330000Y-84148000D01*
X183414502Y-84148000D01*
X183414502Y-83989252D01*
X183470000Y-84044750D01*
X183470000Y-84044750D01*
G37*
X183470000Y-84044750D02*
X183470000Y-84911000D01*
X183475535Y-84911000D01*
X183475535Y-85015201D01*
X183471000Y-85038000D01*
X183471000Y-85165000D01*
X183470000Y-85165000D01*
X183470000Y-85185000D01*
X183330000Y-85185000D01*
X183330000Y-85165000D01*
X183329000Y-85165000D01*
X183329000Y-85038000D01*
X183324465Y-85015201D01*
X183324465Y-84911000D01*
X183330000Y-84911000D01*
X183330000Y-84148000D01*
X183414502Y-84148000D01*
X183414502Y-83989252D01*
X183470000Y-84044750D01*
G36*
X205257400Y-76936600D02*
X204120750Y-76936600D01*
X203962000Y-77095350D01*
X203962000Y-78206600D01*
X203982000Y-78206600D01*
X203982000Y-78460600D01*
X203962000Y-78460600D01*
X203962000Y-79571850D01*
X204120750Y-79730600D01*
X205257400Y-79730600D01*
X205257400Y-79954135D01*
X201803000Y-79954135D01*
X201699609Y-79973589D01*
X201604651Y-80034693D01*
X201540947Y-80127927D01*
X201522302Y-80220000D01*
X193971000Y-80220000D01*
X193711158Y-80271686D01*
X193490874Y-80418874D01*
X193473886Y-80444298D01*
X193472651Y-80445093D01*
X193420472Y-80521460D01*
X193374907Y-80450651D01*
X193281673Y-80386947D01*
X193171000Y-80364535D01*
X193105620Y-80364535D01*
X193095252Y-80357607D01*
X192871000Y-80313000D01*
X192674935Y-80352000D01*
X192355283Y-80352000D01*
X192352011Y-80334609D01*
X192290907Y-80239651D01*
X192197673Y-80175947D01*
X192087000Y-80153535D01*
X192006490Y-80153535D01*
X191975327Y-80078301D01*
X191796698Y-79899673D01*
X191563309Y-79803000D01*
X191508250Y-79803000D01*
X191349500Y-79961750D01*
X191349500Y-80811000D01*
X191351262Y-80811000D01*
X191326000Y-80938000D01*
X191351262Y-81065000D01*
X191349500Y-81065000D01*
X191349500Y-81085000D01*
X191174500Y-81085000D01*
X191174500Y-81065000D01*
X191115000Y-81065000D01*
X191115000Y-80811000D01*
X191174500Y-80811000D01*
X191174500Y-79961750D01*
X191015750Y-79803000D01*
X190960691Y-79803000D01*
X190727302Y-79899673D01*
X190548673Y-80078301D01*
X190517510Y-80153535D01*
X190437000Y-80153535D01*
X190333609Y-80172989D01*
X190238651Y-80234093D01*
X190174947Y-80327327D01*
X190156788Y-80417000D01*
X190131228Y-80417000D01*
X189995376Y-80444022D01*
X189880205Y-80520977D01*
X189218182Y-81183000D01*
X188551250Y-81183000D01*
X188476250Y-81108000D01*
X188468026Y-81108000D01*
X188538327Y-81037699D01*
X188631507Y-80812743D01*
X188635000Y-80809250D01*
X188635000Y-80766750D01*
X188631507Y-80763257D01*
X188538327Y-80538301D01*
X188468026Y-80468000D01*
X188476250Y-80468000D01*
X188477250Y-80467000D01*
X188630500Y-80467000D01*
X188794671Y-80434344D01*
X188933849Y-80341349D01*
X190422349Y-78852849D01*
X190515344Y-78713671D01*
X190534105Y-78619350D01*
X201168000Y-78619350D01*
X201168000Y-79221909D01*
X201264673Y-79455298D01*
X201443301Y-79633927D01*
X201676690Y-79730600D01*
X203549250Y-79730600D01*
X203708000Y-79571850D01*
X203708000Y-78460600D01*
X201326750Y-78460600D01*
X201168000Y-78619350D01*
X190534105Y-78619350D01*
X190548000Y-78549500D01*
X190548000Y-78092198D01*
X190676349Y-77963849D01*
X190769344Y-77824671D01*
X190802000Y-77660500D01*
X190802000Y-77445291D01*
X201168000Y-77445291D01*
X201168000Y-78047850D01*
X201326750Y-78206600D01*
X203708000Y-78206600D01*
X203708000Y-77095350D01*
X203549250Y-76936600D01*
X201676690Y-76936600D01*
X201443301Y-77033273D01*
X201264673Y-77211902D01*
X201168000Y-77445291D01*
X190802000Y-77445291D01*
X190802000Y-77089000D01*
X194691000Y-77089000D01*
X194740410Y-77078994D01*
X194782035Y-77050553D01*
X194809315Y-77008159D01*
X194818000Y-76962000D01*
X194818000Y-76430606D01*
X194910691Y-76469000D01*
X195101250Y-76469000D01*
X195260000Y-76310250D01*
X195260000Y-75311000D01*
X195514000Y-75311000D01*
X195514000Y-76310250D01*
X195672750Y-76469000D01*
X195863309Y-76469000D01*
X196096698Y-76372327D01*
X196275327Y-76193699D01*
X196372000Y-75960310D01*
X196372000Y-75469750D01*
X196213250Y-75311000D01*
X195514000Y-75311000D01*
X195260000Y-75311000D01*
X195240000Y-75311000D01*
X195240000Y-75057000D01*
X195260000Y-75057000D01*
X195260000Y-74057750D01*
X195514000Y-74057750D01*
X195514000Y-75057000D01*
X196213250Y-75057000D01*
X196372000Y-74898250D01*
X196372000Y-74407690D01*
X196275327Y-74174301D01*
X196096698Y-73995673D01*
X195863309Y-73899000D01*
X195672750Y-73899000D01*
X195514000Y-74057750D01*
X195260000Y-74057750D01*
X195101250Y-73899000D01*
X194910691Y-73899000D01*
X194818000Y-73937394D01*
X194818000Y-71882000D01*
X205257400Y-71882000D01*
X205257400Y-76936600D01*
X205257400Y-76936600D01*
G37*
X205257400Y-76936600D02*
X204120750Y-76936600D01*
X203962000Y-77095350D01*
X203962000Y-78206600D01*
X203982000Y-78206600D01*
X203982000Y-78460600D01*
X203962000Y-78460600D01*
X203962000Y-79571850D01*
X204120750Y-79730600D01*
X205257400Y-79730600D01*
X205257400Y-79954135D01*
X201803000Y-79954135D01*
X201699609Y-79973589D01*
X201604651Y-80034693D01*
X201540947Y-80127927D01*
X201522302Y-80220000D01*
X193971000Y-80220000D01*
X193711158Y-80271686D01*
X193490874Y-80418874D01*
X193473886Y-80444298D01*
X193472651Y-80445093D01*
X193420472Y-80521460D01*
X193374907Y-80450651D01*
X193281673Y-80386947D01*
X193171000Y-80364535D01*
X193105620Y-80364535D01*
X193095252Y-80357607D01*
X192871000Y-80313000D01*
X192674935Y-80352000D01*
X192355283Y-80352000D01*
X192352011Y-80334609D01*
X192290907Y-80239651D01*
X192197673Y-80175947D01*
X192087000Y-80153535D01*
X192006490Y-80153535D01*
X191975327Y-80078301D01*
X191796698Y-79899673D01*
X191563309Y-79803000D01*
X191508250Y-79803000D01*
X191349500Y-79961750D01*
X191349500Y-80811000D01*
X191351262Y-80811000D01*
X191326000Y-80938000D01*
X191351262Y-81065000D01*
X191349500Y-81065000D01*
X191349500Y-81085000D01*
X191174500Y-81085000D01*
X191174500Y-81065000D01*
X191115000Y-81065000D01*
X191115000Y-80811000D01*
X191174500Y-80811000D01*
X191174500Y-79961750D01*
X191015750Y-79803000D01*
X190960691Y-79803000D01*
X190727302Y-79899673D01*
X190548673Y-80078301D01*
X190517510Y-80153535D01*
X190437000Y-80153535D01*
X190333609Y-80172989D01*
X190238651Y-80234093D01*
X190174947Y-80327327D01*
X190156788Y-80417000D01*
X190131228Y-80417000D01*
X189995376Y-80444022D01*
X189880205Y-80520977D01*
X189218182Y-81183000D01*
X188551250Y-81183000D01*
X188476250Y-81108000D01*
X188468026Y-81108000D01*
X188538327Y-81037699D01*
X188631507Y-80812743D01*
X188635000Y-80809250D01*
X188635000Y-80766750D01*
X188631507Y-80763257D01*
X188538327Y-80538301D01*
X188468026Y-80468000D01*
X188476250Y-80468000D01*
X188477250Y-80467000D01*
X188630500Y-80467000D01*
X188794671Y-80434344D01*
X188933849Y-80341349D01*
X190422349Y-78852849D01*
X190515344Y-78713671D01*
X190534105Y-78619350D01*
X201168000Y-78619350D01*
X201168000Y-79221909D01*
X201264673Y-79455298D01*
X201443301Y-79633927D01*
X201676690Y-79730600D01*
X203549250Y-79730600D01*
X203708000Y-79571850D01*
X203708000Y-78460600D01*
X201326750Y-78460600D01*
X201168000Y-78619350D01*
X190534105Y-78619350D01*
X190548000Y-78549500D01*
X190548000Y-78092198D01*
X190676349Y-77963849D01*
X190769344Y-77824671D01*
X190802000Y-77660500D01*
X190802000Y-77445291D01*
X201168000Y-77445291D01*
X201168000Y-78047850D01*
X201326750Y-78206600D01*
X203708000Y-78206600D01*
X203708000Y-77095350D01*
X203549250Y-76936600D01*
X201676690Y-76936600D01*
X201443301Y-77033273D01*
X201264673Y-77211902D01*
X201168000Y-77445291D01*
X190802000Y-77445291D01*
X190802000Y-77089000D01*
X194691000Y-77089000D01*
X194740410Y-77078994D01*
X194782035Y-77050553D01*
X194809315Y-77008159D01*
X194818000Y-76962000D01*
X194818000Y-76430606D01*
X194910691Y-76469000D01*
X195101250Y-76469000D01*
X195260000Y-76310250D01*
X195260000Y-75311000D01*
X195514000Y-75311000D01*
X195514000Y-76310250D01*
X195672750Y-76469000D01*
X195863309Y-76469000D01*
X196096698Y-76372327D01*
X196275327Y-76193699D01*
X196372000Y-75960310D01*
X196372000Y-75469750D01*
X196213250Y-75311000D01*
X195514000Y-75311000D01*
X195260000Y-75311000D01*
X195240000Y-75311000D01*
X195240000Y-75057000D01*
X195260000Y-75057000D01*
X195260000Y-74057750D01*
X195514000Y-74057750D01*
X195514000Y-75057000D01*
X196213250Y-75057000D01*
X196372000Y-74898250D01*
X196372000Y-74407690D01*
X196275327Y-74174301D01*
X196096698Y-73995673D01*
X195863309Y-73899000D01*
X195672750Y-73899000D01*
X195514000Y-74057750D01*
X195260000Y-74057750D01*
X195101250Y-73899000D01*
X194910691Y-73899000D01*
X194818000Y-73937394D01*
X194818000Y-71882000D01*
X205257400Y-71882000D01*
X205257400Y-76936600D01*
G36*
X189436000Y-77292302D02*
X189369802Y-77358500D01*
X188963750Y-77358500D01*
X188863250Y-77258000D01*
X188214000Y-77258000D01*
X188214000Y-77305000D01*
X187960000Y-77305000D01*
X187960000Y-77258000D01*
X187310750Y-77258000D01*
X187210250Y-77358500D01*
X187185750Y-77358500D01*
X187085250Y-77258000D01*
X186436000Y-77258000D01*
X186436000Y-77305000D01*
X186182000Y-77305000D01*
X186182000Y-77258000D01*
X186162000Y-77258000D01*
X186162000Y-77089000D01*
X189436000Y-77089000D01*
X189436000Y-77292302D01*
X189436000Y-77292302D01*
G37*
X189436000Y-77292302D02*
X189369802Y-77358500D01*
X188963750Y-77358500D01*
X188863250Y-77258000D01*
X188214000Y-77258000D01*
X188214000Y-77305000D01*
X187960000Y-77305000D01*
X187960000Y-77258000D01*
X187310750Y-77258000D01*
X187210250Y-77358500D01*
X187185750Y-77358500D01*
X187085250Y-77258000D01*
X186436000Y-77258000D01*
X186436000Y-77305000D01*
X186182000Y-77305000D01*
X186182000Y-77258000D01*
X186162000Y-77258000D01*
X186162000Y-77089000D01*
X189436000Y-77089000D01*
X189436000Y-77292302D01*
M02*
